  0
SECTION
  2
HEADER
  9
$ACADVER
  1
AC1027
  9
$ACADMAINTVER
 70
105
  9
$DWGCODEPAGE
  3
ANSI_1252
  9
$LASTSAVEDBY
  1
ezdxf
  9
$REQUIREDVERSIONS
160
0
  9
$INSBASE
 10
0.0
 20
0.0
 30
0.0
  9
$EXTMIN
 10
1e+20
 20
1e+20
 30
1e+20
  9
$EXTMAX
 10
-1e+20
 20
-1e+20
 30
-1e+20
  9
$LIMMIN
 10
0.0
 20
0.0
  9
$LIMMAX
 10
420.0
 20
297.0
  9
$ORTHOMODE
 70
0
  9
$REGENMODE
 70
1
  9
$FILLMODE
 70
1
  9
$QTEXTMODE
 70
0
  9
$MIRRTEXT
 70
1
  9
$LTSCALE
 40
0.15
  9
$ATTMODE
 70
1
  9
$TEXTSIZE
 40
2.5
  9
$TRACEWID
 40
1.0
  9
$TEXTSTYLE
  7
OpenSans
  9
$CLAYER
  8
0
  9
$CELTYPE
  6
ByLayer
  9
$CECOLOR
 62
256
  9
$CELTSCALE
 40
1.0
  9
$DISPSILH
 70
0
  9
$DIMSCALE
 40
1.0
  9
$DIMASZ
 40
0.175
  9
$DIMEXO
 40
0.125
  9
$DIMDLI
 40
3.75
  9
$DIMRND
 40
0.0
  9
$DIMDLE
 40
0.0
  9
$DIMEXE
 40
0.375
  9
$DIMTP
 40
0.0
  9
$DIMTM
 40
0.0
  9
$DIMTXT
 40
0.25
  9
$DIMCEN
 40
2.5
  9
$DIMTSZ
 40
0.0
  9
$DIMTOL
 70
0
  9
$DIMLIM
 70
0
  9
$DIMTIH
 70
0
  9
$DIMTOH
 70
0
  9
$DIMSE1
 70
0
  9
$DIMSE2
 70
0
  9
$DIMTAD
 70
1
  9
$DIMZIN
 70
12
  9
$DIMBLK
  1
ARCHTICK
  9
$DIMASO
 70
1
  9
$DIMSHO
 70
1
  9
$DIMPOST
  1

  9
$DIMAPOST
  1

  9
$DIMALT
 70
0
  9
$DIMALTD
 70
3
  9
$DIMALTF
 40
0.03937007874
  9
$DIMLFAC
 40
100.0
  9
$DIMTOFL
 70
1
  9
$DIMTVP
 40
0.0
  9
$DIMTIX
 70
0
  9
$DIMSOXD
 70
0
  9
$DIMSAH
 70
0
  9
$DIMBLK1
  1

  9
$DIMBLK2
  1

  9
$DIMSTYLE
  2
EZDXF
  9
$DIMCLRD
 70
0
  9
$DIMCLRE
 70
0
  9
$DIMCLRT
 70
0
  9
$DIMTFAC
 40
0.5
  9
$DIMGAP
 40
0.1
  9
$DIMJUST
 70
0
  9
$DIMSD1
 70
0
  9
$DIMSD2
 70
0
  9
$DIMTOLJ
 70
0
  9
$DIMTZIN
 70
8
  9
$DIMALTZ
 70
0
  9
$DIMALTTZ
 70
0
  9
$DIMUPT
 70
1
  9
$DIMDEC
 70
2
  9
$DIMTDEC
 70
2
  9
$DIMALTU
 70
2
  9
$DIMALTTD
 70
3
  9
$DIMTXSTY
  7
OpenSansCondensed-Light
  9
$DIMAUNIT
 70
0
  9
$DIMADEC
 70
2
  9
$DIMALTRND
 40
0.0
  9
$DIMAZIN
 70
3
  9
$DIMDSEP
 70
46
  9
$DIMATFIT
 70
3
  9
$DIMFRAC
 70
0
  9
$DIMLDRBLK
  1

  9
$DIMLUNIT
 70
2
  9
$DIMLWD
 70
-2
  9
$DIMLWE
 70
-2
  9
$DIMTMOVE
 70
2
  9
$DIMFXL
 40
1.0
  9
$DIMFXLON
 70
0
  9
$DIMJOGANG
 40
0.785398163397
  9
$DIMTFILL
 70
0
  9
$DIMTFILLCLR
 70
0
  9
$DIMARCSYM
 70
0
  9
$DIMLTYPE
  6

  9
$DIMLTEX1
  6

  9
$DIMLTEX2
  6

  9
$DIMTXTDIRECTION
 70
0
  9
$LUNITS
 70
2
  9
$LUPREC
 70
4
  9
$SKETCHINC
 40
1.0
  9
$FILLETRAD
 40
10.0
  9
$AUNITS
 70
0
  9
$AUPREC
 70
2
  9
$MENU
  1
.
  9
$ELEVATION
 40
0.0
  9
$PELEVATION
 40
0.0
  9
$THICKNESS
 40
0.0
  9
$LIMCHECK
 70
0
  9
$CHAMFERA
 40
0.0
  9
$CHAMFERB
 40
0.0
  9
$CHAMFERC
 40
0.0
  9
$CHAMFERD
 40
0.0
  9
$SKPOLY
 70
0
  9
$TDCREATE
 40
2461260.712511574
  9
$TDUCREATE
 40
2458532.153996898
  9
$TDUPDATE
 40
2461260.712511574
  9
$TDUUPDATE
 40
2458532.1544311
  9
$TDINDWG
 40
0.0
  9
$TDUSRTIMER
 40
0.0
  9
$USRTIMER
 70
1
  9
$ANGBASE
 50
0.0
  9
$ANGDIR
 70
0
  9
$PDMODE
 70
0
  9
$PDSIZE
 40
0.0
  9
$PLINEWID
 40
0.0
  9
$SPLFRAME
 70
0
  9
$SPLINETYPE
 70
6
  9
$SPLINESEGS
 70
8
  9
$HANDSEED
  5
1EC
  9
$SURFTAB1
 70
6
  9
$SURFTAB2
 70
6
  9
$SURFTYPE
 70
6
  9
$SURFU
 70
6
  9
$SURFV
 70
6
  9
$UCSBASE
  2

  9
$UCSNAME
  2

  9
$UCSORG
 10
0.0
 20
0.0
 30
0.0
  9
$UCSXDIR
 10
1.0
 20
0.0
 30
0.0
  9
$UCSYDIR
 10
0.0
 20
1.0
 30
0.0
  9
$UCSORTHOREF
  2

  9
$UCSORTHOVIEW
 70
0
  9
$UCSORGTOP
 10
0.0
 20
0.0
 30
0.0
  9
$UCSORGBOTTOM
 10
0.0
 20
0.0
 30
0.0
  9
$UCSORGLEFT
 10
0.0
 20
0.0
 30
0.0
  9
$UCSORGRIGHT
 10
0.0
 20
0.0
 30
0.0
  9
$UCSORGFRONT
 10
0.0
 20
0.0
 30
0.0
  9
$UCSORGBACK
 10
0.0
 20
0.0
 30
0.0
  9
$PUCSBASE
  2

  9
$PUCSNAME
  2

  9
$PUCSORG
 10
0.0
 20
0.0
 30
0.0
  9
$PUCSXDIR
 10
1.0
 20
0.0
 30
0.0
  9
$PUCSYDIR
 10
0.0
 20
1.0
 30
0.0
  9
$PUCSORTHOREF
  2

  9
$PUCSORTHOVIEW
 70
0
  9
$PUCSORGTOP
 10
0.0
 20
0.0
 30
0.0
  9
$PUCSORGBOTTOM
 10
0.0
 20
0.0
 30
0.0
  9
$PUCSORGLEFT
 10
0.0
 20
0.0
 30
0.0
  9
$PUCSORGRIGHT
 10
0.0
 20
0.0
 30
0.0
  9
$PUCSORGFRONT
 10
0.0
 20
0.0
 30
0.0
  9
$PUCSORGBACK
 10
0.0
 20
0.0
 30
0.0
  9
$USERI1
 70
0
  9
$USERI2
 70
0
  9
$USERI3
 70
0
  9
$USERI4
 70
0
  9
$USERI5
 70
0
  9
$USERR1
 40
0.0
  9
$USERR2
 40
0.0
  9
$USERR3
 40
0.0
  9
$USERR4
 40
0.0
  9
$USERR5
 40
0.0
  9
$WORLDVIEW
 70
1
  9
$SHADEDGE
 70
3
  9
$SHADEDIF
 70
70
  9
$TILEMODE
 70
1
  9
$MAXACTVP
 70
64
  9
$PINSBASE
 10
0.0
 20
0.0
 30
0.0
  9
$PLIMCHECK
 70
0
  9
$PEXTMIN
 10
1e+20
 20
1e+20
 30
1e+20
  9
$PEXTMAX
 10
-1e+20
 20
-1e+20
 30
-1e+20
  9
$PLIMMIN
 10
0.0
 20
0.0
  9
$PLIMMAX
 10
420.0
 20
297.0
  9
$UNITMODE
 70
0
  9
$VISRETAIN
 70
1
  9
$PLINEGEN
 70
0
  9
$PSLTSCALE
 70
1
  9
$TREEDEPTH
 70
3020
  9
$CMLSTYLE
  2
Standard
  9
$CMLJUST
 70
0
  9
$CMLSCALE
 40
20.0
  9
$PROXYGRAPHICS
 70
1
  9
$MEASUREMENT
 70
1
  9
$CELWEIGHT
370
-1
  9
$ENDCAPS
280
0
  9
$JOINSTYLE
280
0
  9
$LWDISPLAY
290
0
  9
$INSUNITS
 70
6
  9
$HYPERLINKBASE
  1

  9
$STYLESHEET
  1

  9
$XEDIT
290
1
  9
$CEPSNTYPE
380
0
  9
$PSTYLEMODE
290
1
  9
$FINGERPRINTGUID
  2
{5CA68F2A-2927-4B12-A51B-904B8E59A32B}
  9
$VERSIONGUID
  2
{63D5C6FC-626B-4D0A-827C-C004B1D8E269}
  9
$EXTNAMES
290
1
  9
$PSVPSCALE
 40
0.0
  9
$OLESTARTUP
290
0
  9
$SORTENTS
280
127
  9
$INDEXCTL
280
0
  9
$HIDETEXT
280
1
  9
$XCLIPFRAME
280
1
  9
$HALOGAP
280
0
  9
$OBSCOLOR
 70
257
  9
$OBSLTYPE
280
0
  9
$INTERSECTIONDISPLAY
280
0
  9
$INTERSECTIONCOLOR
 70
257
  9
$DIMASSOC
280
2
  9
$PROJECTNAME
  1

  9
$CAMERADISPLAY
290
0
  9
$LENSLENGTH
 40
50.0
  9
$CAMERAHEIGHT
 40
0.0
  9
$STEPSPERSEC
 40
24.0
  9
$STEPSIZE
 40
100.0
  9
$3DDWFPREC
 40
2.0
  9
$PSOLWIDTH
 40
0.005
  9
$PSOLHEIGHT
 40
0.08
  9
$LOFTANG1
 40
1.570796326795
  9
$LOFTANG2
 40
1.570796326795
  9
$LOFTMAG1
 40
0.0
  9
$LOFTMAG2
 40
0.0
  9
$LOFTPARAM
 70
7
  9
$LOFTNORMALS
280
1
  9
$LATITUDE
 40
37.795
  9
$LONGITUDE
 40
-122.394
  9
$NORTHDIRECTION
 40
0.0
  9
$TIMEZONE
 70
-8000
  9
$LIGHTGLYPHDISPLAY
280
1
  9
$TILEMODELIGHTSYNCH
280
1
  9
$CMATERIAL
347
20
  9
$SOLIDHIST
280
0
  9
$SHOWHIST
280
1
  9
$DWFFRAME
280
2
  9
$DGNFRAME
280
2
  9
$REALWORLDSCALE
290
1
  9
$INTERFERECOLOR
 62
256
  9
$CSHADOW
280
0
  9
$SHADOWPLANELOCATION
 40
0.0
  0
ENDSEC
  0
SECTION
  2
CLASSES
  0
CLASS
  1
ACDBDICTIONARYWDFLT
  2
AcDbDictionaryWithDefault
  3
ObjectDBX Classes
 90
0
 91
0
280
0
281
0
  0
CLASS
  1
SUN
  2
AcDbSun
  3
SCENEOE
 90
1153
 91
0
280
0
281
0
  0
CLASS
  1
VISUALSTYLE
  2
AcDbVisualStyle
  3
ObjectDBX Classes
 90
4095
 91
0
280
0
281
0
  0
CLASS
  1
MATERIAL
  2
AcDbMaterial
  3
ObjectDBX Classes
 90
1153
 91
0
280
0
281
0
  0
CLASS
  1
SCALE
  2
AcDbScale
  3
ObjectDBX Classes
 90
1153
 91
0
280
0
281
0
  0
CLASS
  1
TABLESTYLE
  2
AcDbTableStyle
  3
ObjectDBX Classes
 90
4095
 91
0
280
0
281
0
  0
CLASS
  1
MLEADERSTYLE
  2
AcDbMLeaderStyle
  3
ACDB_MLEADERSTYLE_CLASS
 90
4095
 91
0
280
0
281
0
  0
CLASS
  1
DICTIONARYVAR
  2
AcDbDictionaryVar
  3
ObjectDBX Classes
 90
0
 91
0
280
0
281
0
  0
CLASS
  1
CELLSTYLEMAP
  2
AcDbCellStyleMap
  3
ObjectDBX Classes
 90
1152
 91
0
280
0
281
0
  0
CLASS
  1
MENTALRAYRENDERSETTINGS
  2
AcDbMentalRayRenderSettings
  3
SCENEOE
 90
1024
 91
0
280
0
281
0
  0
CLASS
  1
ACDBDETAILVIEWSTYLE
  2
AcDbDetailViewStyle
  3
ObjectDBX Classes
 90
1025
 91
0
280
0
281
0
  0
CLASS
  1
ACDBSECTIONVIEWSTYLE
  2
AcDbSectionViewStyle
  3
ObjectDBX Classes
 90
1025
 91
0
280
0
281
0
  0
CLASS
  1
RASTERVARIABLES
  2
AcDbRasterVariables
  3
ISM
 90
0
 91
0
280
0
281
0
  0
CLASS
  1
ACDBPLACEHOLDER
  2
AcDbPlaceHolder
  3
ObjectDBX Classes
 90
0
 91
0
280
0
281
0
  0
CLASS
  1
LAYOUT
  2
AcDbLayout
  3
ObjectDBX Classes
 90
0
 91
0
280
0
281
0
  0
ENDSEC
  0
SECTION
  2
TABLES
  0
TABLE
  2
VPORT
  5
8
330
0
100
AcDbSymbolTable
 70
1
  0
VPORT
  5
23
330
8
100
AcDbSymbolTableRecord
100
AcDbViewportTableRecord
  2
*Active
 70
0
 10
0.0
 20
0.0
 11
1.0
 21
1.0
 12
0.0
 22
0.0
 13
0.0
 23
0.0
 14
0.5
 24
0.5
 15
0.5
 25
0.5
 16
0.0
 26
0.0
 36
1.0
 17
0.0
 27
0.0
 37
0.0
 40
1000.0
 41
1.34
 42
50.0
 43
0.0
 44
0.0
 50
0.0
 51
0.0
 71
0
 72
1000
 73
1
 74
3
 75
0
 76
0
 77
0
 78
0
281
0
 65
0
146
0.0
  0
ENDTAB
  0
TABLE
  2
LTYPE
  5
2
330
0
100
AcDbSymbolTable
 70
21
  0
LTYPE
  5
24
330
2
100
AcDbSymbolTableRecord
100
AcDbLinetypeTableRecord
  2
ByBlock
 70
0
  3

 72
65
 73
0
 40
0.0
  0
LTYPE
  5
25
330
2
100
AcDbSymbolTableRecord
100
AcDbLinetypeTableRecord
  2
ByLayer
 70
0
  3

 72
65
 73
0
 40
0.0
  0
LTYPE
  5
26
330
2
100
AcDbSymbolTableRecord
100
AcDbLinetypeTableRecord
  2
Continuous
 70
0
  3

 72
65
 73
0
 40
0.0
  0
LTYPE
  5
2F
330
2
100
AcDbSymbolTableRecord
100
AcDbLinetypeTableRecord
  2
CENTER
 70
0
  3
Center ____ _ ____ _ ____ _ ____ _ ____ _ ____
 72
65
 73
4
 40
5.08
 49
3.175
 74
0
 49
-0.635
 74
0
 49
0.635
 74
0
 49
-0.635
 74
0
  0
LTYPE
  5
30
330
2
100
AcDbSymbolTableRecord
100
AcDbLinetypeTableRecord
  2
CENTERX2
 70
0
  3
Center (2x) ________  __  ________  __  ________
 72
65
 73
4
 40
8.89
 49
6.35
 74
0
 49
-0.635
 74
0
 49
1.27
 74
0
 49
-0.635
 74
0
  0
LTYPE
  5
31
330
2
100
AcDbSymbolTableRecord
100
AcDbLinetypeTableRecord
  2
CENTER2
 70
0
  3
Center (.5x) ____ _ ____ _ ____ _ ____ _ ____
 72
65
 73
4
 40
2.54
 49
1.587
 74
0
 49
-0.318
 74
0
 49
0.318
 74
0
 49
-0.318
 74
0
  0
LTYPE
  5
32
330
2
100
AcDbSymbolTableRecord
100
AcDbLinetypeTableRecord
  2
DASHED
 70
0
  3
Dashed __ __ __ __ __ __ __ __ __ __ __ __ __ _
 72
65
 73
2
 40
1.524
 49
1.27
 74
0
 49
-0.254
 74
0
  0
LTYPE
  5
33
330
2
100
AcDbSymbolTableRecord
100
AcDbLinetypeTableRecord
  2
DASHEDX2
 70
0
  3
Dashed (2x) ____  ____  ____  ____  ____  ____
 72
65
 73
2
 40
3.048
 49
2.54
 74
0
 49
-0.508
 74
0
  0
LTYPE
  5
34
330
2
100
AcDbSymbolTableRecord
100
AcDbLinetypeTableRecord
  2
DASHED2
 70
0
  3
Dashed (.5x) _ _ _ _ _ _ _ _ _ _ _ _ _ _
 72
65
 73
2
 40
0.762
 49
0.635
 74
0
 49
-0.127
 74
0
  0
LTYPE
  5
35
330
2
100
AcDbSymbolTableRecord
100
AcDbLinetypeTableRecord
  2
PHANTOM
 70
0
  3
Phantom ______  __  __  ______  __  __  ______
 72
65
 73
6
 40
6.35
 49
3.175
 74
0
 49
-0.635
 74
0
 49
0.635
 74
0
 49
-0.635
 74
0
 49
0.635
 74
0
 49
-0.635
 74
0
  0
LTYPE
  5
36
330
2
100
AcDbSymbolTableRecord
100
AcDbLinetypeTableRecord
  2
PHANTOMX2
 70
0
  3
Phantom (2x)____________    ____    ____    ____________
 72
65
 73
6
 40
10.795
 49
6.35
 74
0
 49
-0.635
 74
0
 49
1.27
 74
0
 49
-0.635
 74
0
 49
1.27
 74
0
 49
-0.635
 74
0
  0
LTYPE
  5
37
330
2
100
AcDbSymbolTableRecord
100
AcDbLinetypeTableRecord
  2
PHANTOM2
 70
0
  3
Phantom (.5x) ___ _ _ ___ _ _ ___ _ _ ___ _ _ ___
 72
65
 73
6
 40
3.175
 49
1.587
 74
0
 49
-0.318
 74
0
 49
0.318
 74
0
 49
-0.318
 74
0
 49
0.318
 74
0
 49
-0.318
 74
0
  0
LTYPE
  5
38
330
2
100
AcDbSymbolTableRecord
100
AcDbLinetypeTableRecord
  2
DASHDOT
 70
0
  3
Dash dot __ . __ . __ . __ . __ . __ . __ . __
 72
65
 73
4
 40
3.556
 49
2.54
 74
0
 49
-0.508
 74
0
 49
0.0
 74
0
 49
-0.508
 74
0
  0
LTYPE
  5
39
330
2
100
AcDbSymbolTableRecord
100
AcDbLinetypeTableRecord
  2
DASHDOTX2
 70
0
  3
Dash dot (2x) ____  .  ____  .  ____  .  ____
 72
65
 73
4
 40
6.096
 49
5.08
 74
0
 49
-0.508
 74
0
 49
0.0
 74
0
 49
-0.508
 74
0
  0
LTYPE
  5
3A
330
2
100
AcDbSymbolTableRecord
100
AcDbLinetypeTableRecord
  2
DASHDOT2
 70
0
  3
Dash dot (.5x) _ . _ . _ . _ . _ . _ . _ . _
 72
65
 73
4
 40
1.778
 49
1.27
 74
0
 49
-0.254
 74
0
 49
0.0
 74
0
 49
-0.254
 74
0
  0
LTYPE
  5
3B
330
2
100
AcDbSymbolTableRecord
100
AcDbLinetypeTableRecord
  2
DOT
 70
0
  3
Dot .  .  .  .  .  .  .  .  .  .  .  .  .  .  .  .
 72
65
 73
2
 40
0.508
 49
0.0
 74
0
 49
-0.508
 74
0
  0
LTYPE
  5
3C
330
2
100
AcDbSymbolTableRecord
100
AcDbLinetypeTableRecord
  2
DOTX2
 70
0
  3
Dot (2x) .    .    .    .    .    .    .    . 
 72
65
 73
2
 40
1.016
 49
0.0
 74
0
 49
-1.016
 74
0
  0
LTYPE
  5
3D
330
2
100
AcDbSymbolTableRecord
100
AcDbLinetypeTableRecord
  2
DOT2
 70
0
  3
Dot (.5) . . . . . . . . . . . . . . . . . . . 
 72
65
 73
2
 40
0.254
 49
0.0
 74
0
 49
-0.254
 74
0
  0
LTYPE
  5
3E
330
2
100
AcDbSymbolTableRecord
100
AcDbLinetypeTableRecord
  2
DIVIDE
 70
0
  3
Divide __ . . __ . . __ . . __ . . __ . . __
 72
65
 73
6
 40
4.064
 49
2.54
 74
0
 49
-0.508
 74
0
 49
0.0
 74
0
 49
-0.508
 74
0
 49
0.0
 74
0
 49
-0.508
 74
0
  0
LTYPE
  5
3F
330
2
100
AcDbSymbolTableRecord
100
AcDbLinetypeTableRecord
  2
DIVIDEX2
 70
0
  3
Divide (2x) ____  . .  ____  . .  ____  . .  ____
 72
65
 73
6
 40
6.604
 49
5.08
 74
0
 49
-0.508
 74
0
 49
0.0
 74
0
 49
-0.508
 74
0
 49
0.0
 74
0
 49
-0.508
 74
0
  0
LTYPE
  5
40
330
2
100
AcDbSymbolTableRecord
100
AcDbLinetypeTableRecord
  2
DIVIDE2
 70
0
  3
Divide(.5x) _ . _ . _ . _ . _ . _ . _ . _
 72
65
 73
6
 40
2.032
 49
1.27
 74
0
 49
-0.254
 74
0
 49
0.0
 74
0
 49
-0.254
 74
0
 49
0.0
 74
0
 49
-0.254
 74
0
  0
ENDTAB
  0
TABLE
  2
LAYER
  5
1
330
0
100
AcDbSymbolTable
 70
8
  0
LAYER
  5
27
330
1
100
AcDbSymbolTableRecord
100
AcDbLayerTableRecord
  2
0
 70
0
 62
7
  6
Continuous
370
-3
390
13
347
21
  0
LAYER
  5
28
330
1
100
AcDbSymbolTableRecord
100
AcDbLayerTableRecord
  2
Defpoints
 70
0
 62
7
  6
Continuous
290
0
370
-3
390
13
347
21
  0
LAYER
  5
8A
330
1
100
AcDbSymbolTableRecord
100
AcDbLayerTableRecord
  2
SLD_BUS
 70
0
 62
5
  6
Continuous
370
50
390
13
347
21
  0
LAYER
  5
8B
330
1
100
AcDbSymbolTableRecord
100
AcDbLayerTableRecord
  2
SLD_WIRE
 70
0
 62
7
  6
Continuous
370
25
390
13
347
21
  0
LAYER
  5
8C
330
1
100
AcDbSymbolTableRecord
100
AcDbLayerTableRecord
  2
SLD_SYMS
 70
0
 62
7
  6
Continuous
370
25
390
13
347
21
  0
LAYER
  5
8D
330
1
100
AcDbSymbolTableRecord
100
AcDbLayerTableRecord
  2
SLD_CUBICLE
 70
0
 62
8
  6
Continuous
370
13
390
13
347
21
  0
LAYER
  5
8E
330
1
100
AcDbSymbolTableRecord
100
AcDbLayerTableRecord
  2
SLD_TEXT
 70
0
 62
7
  6
Continuous
370
13
390
13
347
21
  0
LAYER
  5
8F
330
1
100
AcDbSymbolTableRecord
100
AcDbLayerTableRecord
  2
SLD_CONTROL
 70
0
 62
7
  6
Continuous
370
13
390
13
347
21
  0
ENDTAB
  0
TABLE
  2
STYLE
  5
5
330
0
100
AcDbSymbolTable
 70
27
  0
STYLE
  5
29
330
5
100
AcDbSymbolTableRecord
100
AcDbTextStyleTableRecord
  2
Standard
 70
0
 40
0.0
 41
1.0
 50
0.0
 71
0
 42
2.5
  3
txt
  4

  0
STYLE
  5
41
330
5
100
AcDbSymbolTableRecord
100
AcDbTextStyleTableRecord
  2
OpenSans-Light
 70
0
 40
0.0
 41
1.0
 50
0.0
 71
0
 42
2.5
  3
OpenSans-Light.ttf
  4

  0
STYLE
  5
42
330
5
100
AcDbSymbolTableRecord
100
AcDbTextStyleTableRecord
  2
OpenSans-Light-Italic
 70
0
 40
0.0
 41
1.0
 50
0.0
 71
0
 42
2.5
  3
OpenSans-LightItalic.ttf
  4

  0
STYLE
  5
43
330
5
100
AcDbSymbolTableRecord
100
AcDbTextStyleTableRecord
  2
OpenSans
 70
0
 40
0.0
 41
1.0
 50
0.0
 71
0
 42
2.5
  3
OpenSans-Regular.ttf
  4

  0
STYLE
  5
44
330
5
100
AcDbSymbolTableRecord
100
AcDbTextStyleTableRecord
  2
OpenSans-Italic
 70
0
 40
0.0
 41
1.0
 50
0.0
 71
0
 42
2.5
  3
OpenSans-Italic.ttf
  4

  0
STYLE
  5
45
330
5
100
AcDbSymbolTableRecord
100
AcDbTextStyleTableRecord
  2
OpenSans-SemiBold
 70
0
 40
0.0
 41
1.0
 50
0.0
 71
0
 42
2.5
  3
OpenSans-SemiBold.ttf
  4

  0
STYLE
  5
46
330
5
100
AcDbSymbolTableRecord
100
AcDbTextStyleTableRecord
  2
OpenSans-SemiBoldItalic
 70
0
 40
0.0
 41
1.0
 50
0.0
 71
0
 42
2.5
  3
OpenSans-SemiBoldItalic.ttf
  4

  0
STYLE
  5
47
330
5
100
AcDbSymbolTableRecord
100
AcDbTextStyleTableRecord
  2
OpenSans-Bold
 70
0
 40
0.0
 41
1.0
 50
0.0
 71
0
 42
2.5
  3
OpenSans-Bold.ttf
  4

  0
STYLE
  5
48
330
5
100
AcDbSymbolTableRecord
100
AcDbTextStyleTableRecord
  2
OpenSans-BoldItalic
 70
0
 40
0.0
 41
1.0
 50
0.0
 71
0
 42
2.5
  3
OpenSans-BoldItalic.ttf
  4

  0
STYLE
  5
49
330
5
100
AcDbSymbolTableRecord
100
AcDbTextStyleTableRecord
  2
OpenSans-ExtraBold
 70
0
 40
0.0
 41
1.0
 50
0.0
 71
0
 42
2.5
  3
OpenSans-ExtraBold.ttf
  4

  0
STYLE
  5
4A
330
5
100
AcDbSymbolTableRecord
100
AcDbTextStyleTableRecord
  2
OpenSans-ExtraBoldItalic
 70
0
 40
0.0
 41
1.0
 50
0.0
 71
0
 42
2.5
  3
OpenSans-ExtraBoldItalic.ttf
  4

  0
STYLE
  5
4B
330
5
100
AcDbSymbolTableRecord
100
AcDbTextStyleTableRecord
  2
OpenSansCondensed-Bold
 70
0
 40
0.0
 41
1.0
 50
0.0
 71
0
 42
2.5
  3
OpenSansCondensed-Bold.ttf
  4

  0
STYLE
  5
4C
330
5
100
AcDbSymbolTableRecord
100
AcDbTextStyleTableRecord
  2
OpenSansCondensed-Light
 70
0
 40
0.0
 41
1.0
 50
0.0
 71
0
 42
2.5
  3
OpenSansCondensed-Light.ttf
  4

  0
STYLE
  5
4D
330
5
100
AcDbSymbolTableRecord
100
AcDbTextStyleTableRecord
  2
OpenSansCondensed-Italic
 70
0
 40
0.0
 41
1.0
 50
0.0
 71
0
 42
2.5
  3
OpenSansCondensed-LightItalic.ttf
  4

  0
STYLE
  5
4E
330
5
100
AcDbSymbolTableRecord
100
AcDbTextStyleTableRecord
  2
LiberationSans
 70
0
 40
0.0
 41
1.0
 50
0.0
 71
0
 42
2.5
  3
LiberationSans-Regular.ttf
  4

  0
STYLE
  5
4F
330
5
100
AcDbSymbolTableRecord
100
AcDbTextStyleTableRecord
  2
LiberationSans-Bold
 70
0
 40
0.0
 41
1.0
 50
0.0
 71
0
 42
2.5
  3
LiberationSans-Bold.ttf
  4

  0
STYLE
  5
50
330
5
100
AcDbSymbolTableRecord
100
AcDbTextStyleTableRecord
  2
LiberationSans-BoldItalic
 70
0
 40
0.0
 41
1.0
 50
0.0
 71
0
 42
2.5
  3
LiberationSans-BoldItalic.ttf
  4

  0
STYLE
  5
51
330
5
100
AcDbSymbolTableRecord
100
AcDbTextStyleTableRecord
  2
LiberationSans-Italic
 70
0
 40
0.0
 41
1.0
 50
0.0
 71
0
 42
2.5
  3
LiberationSans-Italic.ttf
  4

  0
STYLE
  5
52
330
5
100
AcDbSymbolTableRecord
100
AcDbTextStyleTableRecord
  2
LiberationSerif
 70
0
 40
0.0
 41
1.0
 50
0.0
 71
0
 42
2.5
  3
LiberationSerif-Regular.ttf
  4

  0
STYLE
  5
53
330
5
100
AcDbSymbolTableRecord
100
AcDbTextStyleTableRecord
  2
LiberationSerif-Bold
 70
0
 40
0.0
 41
1.0
 50
0.0
 71
0
 42
2.5
  3
LiberationSerif-Bold.ttf
  4

  0
STYLE
  5
54
330
5
100
AcDbSymbolTableRecord
100
AcDbTextStyleTableRecord
  2
LiberationSerif-BoldItalic
 70
0
 40
0.0
 41
1.0
 50
0.0
 71
0
 42
2.5
  3
LiberationSerif-BoldItalic.ttf
  4

  0
STYLE
  5
55
330
5
100
AcDbSymbolTableRecord
100
AcDbTextStyleTableRecord
  2
LiberationSerif-Italic
 70
0
 40
0.0
 41
1.0
 50
0.0
 71
0
 42
2.5
  3
LiberationSerif-Italic.ttf
  4

  0
STYLE
  5
56
330
5
100
AcDbSymbolTableRecord
100
AcDbTextStyleTableRecord
  2
LiberationMono
 70
0
 40
0.0
 41
1.0
 50
0.0
 71
0
 42
2.5
  3
LiberationMono-Regular.ttf
  4

  0
STYLE
  5
57
330
5
100
AcDbSymbolTableRecord
100
AcDbTextStyleTableRecord
  2
LiberationMono-Bold
 70
0
 40
0.0
 41
1.0
 50
0.0
 71
0
 42
2.5
  3
LiberationMono-Bold.ttf
  4

  0
STYLE
  5
58
330
5
100
AcDbSymbolTableRecord
100
AcDbTextStyleTableRecord
  2
LiberationMono-BoldItalic
 70
0
 40
0.0
 41
1.0
 50
0.0
 71
0
 42
2.5
  3
LiberationMono-BoldItalic.ttf
  4

  0
STYLE
  5
59
330
5
100
AcDbSymbolTableRecord
100
AcDbTextStyleTableRecord
  2
LiberationMono-Italic
 70
0
 40
0.0
 41
1.0
 50
0.0
 71
0
 42
2.5
  3
LiberationMono-Italic.ttf
  4

  0
STYLE
  5
112
330
5
100
AcDbSymbolTableRecord
100
AcDbTextStyleTableRecord
  2
WD
 70
0
 40
0.0
 41
1.0
 50
0.0
 71
0
 42
0.15
  3
txt
  4

  0
ENDTAB
  0
TABLE
  2
VIEW
  5
7
330
0
100
AcDbSymbolTable
 70
0
  0
ENDTAB
  0
TABLE
  2
UCS
  5
6
330
0
100
AcDbSymbolTable
 70
0
  0
ENDTAB
  0
TABLE
  2
APPID
  5
3
330
0
100
AcDbSymbolTable
 70
3
  0
APPID
  5
2A
330
3
100
AcDbSymbolTableRecord
100
AcDbRegAppTableRecord
  2
ACAD
 70
0
  0
APPID
  5
1E9
330
3
100
AcDbSymbolTableRecord
100
AcDbRegAppTableRecord
  2
HATCHBACKGROUNDCOLOR
 70
0
  0
APPID
  5
1EA
330
3
100
AcDbSymbolTableRecord
100
AcDbRegAppTableRecord
  2
EZDXF
 70
0
  0
ENDTAB
  0
TABLE
  2
DIMSTYLE
  5
4
330
0
100
AcDbSymbolTable
 70
12
100
AcDbDimStyleTable
  0
DIMSTYLE
105
2B
330
4
100
AcDbSymbolTableRecord
100
AcDbDimStyleTableRecord
  2
Standard
 70
0
 40
1.0
 41
2.5
 42
0.625
 43
3.75
 44
1.25
 45
0.0
 46
0.0
 47
0.0
 48
0.0
 49
2.5
140
2.5
141
2.5
142
0.0
143
0.03937007874
144
1.0
145
0.0
146
1.0
147
0.625
148
0.0
 69
0
 70
0
 71
0
 72
0
 73
0
 74
0
 75
0
 76
0
 77
1
 78
8
 79
3
170
0
171
3
172
1
173
0
174
0
175
0
176
0
177
0
178
0
179
2
271
2
272
2
273
2
274
3
275
0
276
0
277
2
278
44
279
0
280
0
281
0
282
0
283
0
284
8
285
0
286
0
288
0
289
3
290
0
371
-2
372
-2
  0
DIMSTYLE
105
73
330
4
100
AcDbSymbolTableRecord
100
AcDbDimStyleTableRecord
  2
EZDXF
 70
0
 40
1.0
 41
0.175
 42
0.125
 43
3.75
 44
0.375
 45
0.0
 46
0.0
 47
0.0
 48
0.0
 49
2.5
140
0.25
141
2.5
142
0.0
143
0.03937007874
144
100.0
145
0.0
146
0.5
147
0.1
148
0.0
 69
0
 70
0
 71
0
 72
0
 73
0
 74
0
 75
0
 76
0
 77
1
 78
12
 79
3
170
0
171
3
172
1
173
0
174
0
175
0
176
0
177
0
178
0
179
2
271
2
272
2
273
2
274
3
275
0
276
0
277
2
278
46
279
2
280
0
281
0
282
0
283
0
284
8
285
0
286
0
288
1
289
3
290
0
340
4C
342
74
371
-2
372
-2
  0
DIMSTYLE
105
7C
330
4
100
AcDbSymbolTableRecord
100
AcDbDimStyleTableRecord
  2
EZ_M_100_H25_CM
 70
0
 40
1.0
 41
0.25
 42
0.125
 43
3.75
 44
0.375
 45
0.0
 46
0.0
 47
0.0
 48
0.0
 49
2.5
140
0.25
141
2.5
142
0.125
143
0.03937007874
144
100.0
145
0.0
146
0.5
147
0.1
148
0.0
 69
0
 70
0
 71
0
 72
0
 73
0
 74
0
 75
0
 76
0
 77
1
 78
12
 79
3
170
0
171
3
172
1
173
0
174
0
175
0
176
0
177
0
178
0
179
2
271
2
272
2
273
2
274
3
275
0
276
0
277
2
278
46
279
2
280
0
281
0
282
0
283
0
284
8
285
0
286
0
288
1
289
3
290
0
340
4C
371
-2
372
-2
  0
DIMSTYLE
105
7D
330
4
100
AcDbSymbolTableRecord
100
AcDbDimStyleTableRecord
  2
EZ_M_50_H25_CM
 70
0
 40
1.0
 41
0.125
 42
0.0625
 43
3.75
 44
0.1875
 45
0.0
 46
0.0
 47
0.0
 48
0.0
 49
2.5
140
0.125
141
2.5
142
0.0625
143
0.03937007874
144
100.0
145
0.0
146
0.5
147
0.05
148
0.0
 69
0
 70
0
 71
0
 72
0
 73
0
 74
0
 75
0
 76
0
 77
1
 78
12
 79
3
170
0
171
3
172
1
173
0
174
0
175
0
176
0
177
0
178
0
179
2
271
2
272
2
273
2
274
3
275
0
276
0
277
2
278
46
279
2
280
0
281
0
282
0
283
0
284
8
285
0
286
0
288
1
289
3
290
0
340
4C
371
-2
372
-2
  0
DIMSTYLE
105
7E
330
4
100
AcDbSymbolTableRecord
100
AcDbDimStyleTableRecord
  2
EZ_M_25_H25_CM
 70
0
 40
1.0
 41
0.0625
 42
0.03125
 43
3.75
 44
0.09375
 45
0.0
 46
0.0
 47
0.0
 48
0.0
 49
2.5
140
0.0625
141
2.5
142
0.03125
143
0.03937007874
144
100.0
145
0.0
146
0.5
147
0.025
148
0.0
 69
0
 70
0
 71
0
 72
0
 73
0
 74
0
 75
0
 76
0
 77
1
 78
12
 79
3
170
0
171
3
172
1
173
0
174
0
175
0
176
0
177
0
178
0
179
2
271
2
272
2
273
2
274
3
275
0
276
0
277
2
278
46
279
2
280
0
281
0
282
0
283
0
284
8
285
0
286
0
288
1
289
3
290
0
340
4C
371
-2
372
-2
  0
DIMSTYLE
105
7F
330
4
100
AcDbSymbolTableRecord
100
AcDbDimStyleTableRecord
  2
EZ_M_20_H25_CM
 70
0
 40
1.0
 41
0.05
 42
0.025
 43
3.75
 44
0.07500000000000001
 45
0.0
 46
0.0
 47
0.0
 48
0.0
 49
2.5
140
0.05
141
2.5
142
0.025
143
0.03937007874
144
100.0
145
0.0
146
0.5
147
0.020000000000000004
148
0.0
 69
0
 70
0
 71
0
 72
0
 73
0
 74
0
 75
0
 76
0
 77
1
 78
12
 79
3
170
0
171
3
172
1
173
0
174
0
175
0
176
0
177
0
178
0
179
2
271
2
272
2
273
2
274
3
275
0
276
0
277
2
278
46
279
2
280
0
281
0
282
0
283
0
284
8
285
0
286
0
288
1
289
3
290
0
340
4C
371
-2
372
-2
  0
DIMSTYLE
105
80
330
4
100
AcDbSymbolTableRecord
100
AcDbDimStyleTableRecord
  2
EZ_M_10_H25_CM
 70
0
 40
1.0
 41
0.025
 42
0.0125
 43
3.75
 44
0.037500000000000006
 45
0.0
 46
0.0
 47
0.0
 48
0.0
 49
2.5
140
0.025
141
2.5
142
0.0125
143
0.03937007874
144
100.0
145
0.0
146
0.5
147
0.010000000000000002
148
0.0
 69
0
 70
0
 71
0
 72
0
 73
0
 74
0
 75
0
 76
0
 77
1
 78
12
 79
3
170
0
171
3
172
1
173
0
174
0
175
0
176
0
177
0
178
0
179
2
271
2
272
2
273
2
274
3
275
0
276
0
277
2
278
46
279
2
280
0
281
0
282
0
283
0
284
8
285
0
286
0
288
1
289
3
290
0
340
4C
371
-2
372
-2
  0
DIMSTYLE
105
81
330
4
100
AcDbSymbolTableRecord
100
AcDbDimStyleTableRecord
  2
EZ_M_5_H25_CM
 70
0
 40
1.0
 41
0.0125
 42
0.00625
 43
3.75
 44
0.018750000000000003
 45
0.0
 46
0.0
 47
0.0
 48
0.0
 49
2.5
140
0.0125
141
2.5
142
0.00625
143
0.03937007874
144
100.0
145
0.0
146
0.5
147
0.005000000000000001
148
0.0
 69
0
 70
0
 71
0
 72
0
 73
0
 74
0
 75
0
 76
0
 77
1
 78
12
 79
3
170
0
171
3
172
1
173
0
174
0
175
0
176
0
177
0
178
0
179
2
271
2
272
2
273
2
274
3
275
0
276
0
277
2
278
46
279
2
280
0
281
0
282
0
283
0
284
8
285
0
286
0
288
1
289
3
290
0
340
4C
371
-2
372
-2
  0
DIMSTYLE
105
82
330
4
100
AcDbSymbolTableRecord
100
AcDbDimStyleTableRecord
  2
EZ_M_1_H25_CM
 70
0
 40
1.0
 41
0.0025
 42
0.00125
 43
3.75
 44
0.00375
 45
0.0
 46
0.0
 47
0.0
 48
0.0
 49
2.5
140
0.0025
141
2.5
142
0.00125
143
0.03937007874
144
100.0
145
0.0
146
0.5
147
0.001
148
0.0
 69
0
 70
0
 71
0
 72
0
 73
0
 74
0
 75
0
 76
0
 77
1
 78
12
 79
3
170
0
171
3
172
1
173
0
174
0
175
0
176
0
177
0
178
0
179
2
271
2
272
2
273
2
274
3
275
0
276
0
277
2
278
46
279
2
280
0
281
0
282
0
283
0
284
8
285
0
286
0
288
1
289
3
290
0
340
4C
371
-2
372
-2
  0
DIMSTYLE
105
83
330
4
100
AcDbSymbolTableRecord
100
AcDbDimStyleTableRecord
  2
EZ_RADIUS
 70
0
 40
1.0
 41
0.25
 42
0.125
 43
3.75
 44
0.375
 45
0.0
 46
0.0
 47
0.0
 48
0.0
 49
2.5
140
0.25
141
0.0
142
0.0
143
0.03937007874
144
100.0
145
0.0
146
0.5
147
0.1
148
0.0
 69
0
 70
0
 71
0
 72
0
 73
0
 74
0
 75
0
 76
0
 77
1
 78
12
 79
3
170
0
171
3
172
0
173
0
174
0
175
0
176
0
177
0
178
0
179
2
271
2
272
2
273
2
274
3
275
0
276
0
277
2
278
46
279
1
280
0
281
0
282
0
283
0
284
8
285
0
286
0
288
1
289
3
290
0
340
4C
342
84
371
-2
372
-2
  0
DIMSTYLE
105
88
330
4
100
AcDbSymbolTableRecord
100
AcDbDimStyleTableRecord
  2
EZ_RADIUS_INSIDE
 70
0
 40
1.0
 41
0.25
 42
0.125
 43
3.75
 44
0.375
 45
0.0
 46
0.0
 47
0.0
 48
0.0
 49
2.5
140
0.25
141
0.0
142
0.0
143
0.03937007874
144
100.0
145
0.0
146
0.5
147
0.1
148
0.0
 69
0
 70
0
 71
0
 72
0
 73
0
 74
0
 75
0
 76
0
 77
0
 78
12
 79
3
170
0
171
3
172
0
173
0
174
1
175
0
176
0
177
0
178
0
179
2
271
2
272
2
273
2
274
3
275
0
276
0
277
2
278
46
279
0
280
0
281
0
282
0
283
0
284
8
285
0
286
0
288
1
289
0
290
0
340
4C
342
84
371
-2
372
-2
  0
DIMSTYLE
105
89
330
4
100
AcDbSymbolTableRecord
100
AcDbDimStyleTableRecord
  2
EZ_CURVED
 70
0
 40
1.0
 41
0.25
 42
0.125
 43
3.75
 44
0.375
 45
0.0
 46
0.0
 47
0.0
 48
0.0
 49
2.5
140
0.25
141
2.5
142
0.0
143
0.03937007874
144
100.0
145
0.0
146
0.5
147
0.1
148
0.0
 69
0
 70
0
 71
0
 72
0
 73
0
 74
0
 75
0
 76
0
 77
1
 78
12
 79
2
 90
2
170
0
171
3
172
1
173
0
174
0
175
0
176
0
177
0
178
0
179
2
271
2
272
2
273
2
274
3
275
0
276
0
277
2
278
46
279
2
280
0
281
0
282
0
283
0
284
8
285
0
286
0
288
1
289
3
290
0
340
4C
371
-2
372
-2
  0
ENDTAB
  0
TABLE
  2
BLOCK_RECORD
  5
9
330
0
100
AcDbSymbolTable
 70
12
  0
BLOCK_RECORD
  5
17
330
9
100
AcDbSymbolTableRecord
100
AcDbBlockTableRecord
  2
*Model_Space
340
1A
 70
0
280
1
281
0
  0
BLOCK_RECORD
  5
1B
330
9
100
AcDbSymbolTableRecord
100
AcDbBlockTableRecord
  2
*Paper_Space
340
1E
 70
0
280
1
281
0
  0
BLOCK_RECORD
  5
74
330
9
100
AcDbSymbolTableRecord
100
AcDbBlockTableRecord
  2
_ARCHTICK
340
0
 70
0
280
1
281
0
  0
BLOCK_RECORD
  5
78
330
9
100
AcDbSymbolTableRecord
100
AcDbBlockTableRecord
  2
_CLOSEDFILLED
340
0
 70
0
280
1
281
0
  0
BLOCK_RECORD
  5
84
330
9
100
AcDbSymbolTableRecord
100
AcDbBlockTableRecord
  2
_CLOSEDBLANK
340
0
 70
0
280
1
281
0
  0
BLOCK_RECORD
  5
90
330
9
100
AcDbSymbolTableRecord
100
AcDbBlockTableRecord
  2
DEVICE_BUBBLE
340
0
 70
0
280
1
281
0
  0
BLOCK_RECORD
  5
95
330
9
100
AcDbSymbolTableRecord
100
AcDbBlockTableRecord
  2
HGND2
340
0
 70
0
280
1
281
0
  0
BLOCK_RECORD
  5
9C
330
9
100
AcDbSymbolTableRecord
100
AcDbBlockTableRecord
  2
VCN1PJ
340
0
 70
0
280
1
281
0
  0
BLOCK_RECORD
  5
B6
330
9
100
AcDbSymbolTableRecord
100
AcDbBlockTableRecord
  2
VFU1
340
0
 70
0
280
1
281
0
  0
BLOCK_RECORD
  5
D0
330
9
100
AcDbSymbolTableRecord
100
AcDbBlockTableRecord
  2
VXF1CT
340
0
 70
0
280
1
281
0
  0
BLOCK_RECORD
  5
EB
330
9
100
AcDbSymbolTableRecord
100
AcDbBlockTableRecord
  2
VXF1T1_1-
340
0
 70
0
280
1
281
0
  0
BLOCK_RECORD
  5
10C
330
9
100
AcDbSymbolTableRecord
100
AcDbBlockTableRecord
  2
WDDOT
340
0
 70
0
280
1
281
0
  0
ENDTAB
  0
ENDSEC
  0
SECTION
  2
BLOCKS
  0
BLOCK
  5
18
330
17
100
AcDbEntity
  8
0
100
AcDbBlockBegin
  2
*Model_Space
 70
0
 10
0.0
 20
0.0
 30
0.0
  3
*Model_Space
  1

  0
ENDBLK
  5
19
330
17
100
AcDbEntity
  8
0
100
AcDbBlockEnd
  0
BLOCK
  5
1C
330
1B
100
AcDbEntity
  8
0
100
AcDbBlockBegin
  2
*Paper_Space
 70
0
 10
0.0
 20
0.0
 30
0.0
  3
*Paper_Space
  1

  0
ENDBLK
  5
1D
330
1B
100
AcDbEntity
  8
0
100
AcDbBlockEnd
  0
BLOCK
  5
75
330
74
100
AcDbEntity
  8
0
100
AcDbBlockBegin
  2
_ARCHTICK
 70
0
 10
0.0
 20
0.0
 30
0.0
  3
_ARCHTICK
  1

  0
LWPOLYLINE
  5
77
330
74
100
AcDbEntity
  8
0
  6
BYBLOCK
 62
0
100
AcDbPolyline
 90
2
 70
0
 43
0.15
 10
-0.5
 20
-0.5
 10
0.5
 20
0.5
  0
ENDBLK
  5
76
330
74
100
AcDbEntity
  8
0
100
AcDbBlockEnd
  0
BLOCK
  5
79
330
78
100
AcDbEntity
  8
0
100
AcDbBlockBegin
  2
_CLOSEDFILLED
 70
0
 10
0.0
 20
0.0
 30
0.0
  3
_CLOSEDFILLED
  1

  0
SOLID
  5
7B
330
78
100
AcDbEntity
  8
0
  6
BYBLOCK
 62
0
100
AcDbTrace
 10
-1.0
 20
0.16439898372402537
 30
0.0
 11
0.0
 21
0.0
 31
0.0
 12
-1.0
 22
-0.16439898372402537
 32
0.0
 13
-1.0
 23
-0.16439898372402537
 33
0.0
  0
ENDBLK
  5
7A
330
78
100
AcDbEntity
  8
0
100
AcDbBlockEnd
  0
BLOCK
  5
85
330
84
100
AcDbEntity
  8
0
100
AcDbBlockBegin
  2
_CLOSEDBLANK
 70
0
 10
0.0
 20
0.0
 30
0.0
  3
_CLOSEDBLANK
  1

  0
LWPOLYLINE
  5
87
330
84
100
AcDbEntity
  8
0
  6
BYBLOCK
 62
0
100
AcDbPolyline
 90
3
 70
1
 10
-1.0
 20
0.16439898372402537
 10
0.0
 20
0.0
 10
-1.0
 20
-0.16439898372402537
  0
ENDBLK
  5
86
330
84
100
AcDbEntity
  8
0
100
AcDbBlockEnd
  0
BLOCK
  5
91
330
90
100
AcDbEntity
  8
0
100
AcDbBlockBegin
  2
DEVICE_BUBBLE
 70
2
 10
0.0
 20
0.0
 30
0.0
  3
DEVICE_BUBBLE
  1

  0
CIRCLE
  5
93
330
90
100
AcDbEntity
  8
0
100
AcDbCircle
 10
-0.0076230149297771
 20
0.0038114376397971
 30
0.0
 40
0.217314968347708
  0
ATTDEF
  5
94
330
90
100
AcDbEntity
  8
0
100
AcDbText
 10
-0.1715320898920254
 20
-0.0990484842091064
 30
0.0
 40
0.2
  1

  7
OpenSans
100
AcDbAttributeDefinition
  3

  2
DB
 70
0
280
1
  0
ENDBLK
  5
92
330
90
100
AcDbEntity
  8
0
100
AcDbBlockEnd
  0
BLOCK
  5
96
330
95
100
AcDbEntity
  8
0
100
AcDbBlockBegin
  2
HGND2
 70
2
 10
0.0
 20
0.0
 30
0.0
  3
HGND2
  1

  0
LINE
  5
98
330
95
100
AcDbEntity
  8
0
100
AcDbLine
 10
0.0
 20
0.09375
 30
0.0
 11
0.0
 21
-0.09375
 31
0.0
  0
LINE
  5
99
330
95
100
AcDbEntity
  8
0
100
AcDbLine
 10
0.046875
 20
0.0625
 30
0.0
 11
0.046875
 21
-0.0625
 31
0.0
  0
LINE
  5
9A
330
95
100
AcDbEntity
  8
0
100
AcDbLine
 10
0.09375
 20
0.03125
 30
0.0
 11
0.09375
 21
-0.03125
 31
0.0
  0
ATTDEF
  5
9B
330
95
100
AcDbEntity
  8
0
100
AcDbText
 10
0.0
 20
0.0
 30
0.0
 40
0.01
  1

  7
WD
100
AcDbAttributeDefinition
  3

  2
X4TERM01
 70
1
  0
ENDBLK
  5
97
330
95
100
AcDbEntity
  8
0
100
AcDbBlockEnd
  0
BLOCK
  5
9D
330
9C
100
AcDbEntity
  8
0
100
AcDbBlockBegin
  2
VCN1PJ
 70
2
 10
0.0
 20
0.0
 30
0.0
  3
VCN1PJ
  1

  0
LINE
  5
9F
330
9C
100
AcDbEntity
  8
0
100
AcDbLine
 10
0.0
 20
-0.03125
 30
0.0
 11
-0.0625
 21
-0.125
 31
0.0
  0
LINE
  5
A0
330
9C
100
AcDbEntity
  8
0
100
AcDbLine
 10
0.0
 20
-0.03125
 30
0.0
 11
0.0625
 21
-0.125
 31
0.0
  0
LINE
  5
A1
330
9C
100
AcDbEntity
  8
0
100
AcDbLine
 10
0.0
 20
0.0625
 30
0.0
 11
-0.09375
 21
-0.0625
 31
0.0
  0
LINE
  5
A2
330
9C
100
AcDbEntity
  8
0
100
AcDbLine
 10
0.0
 20
0.0625
 30
0.0
 11
0.09375
 21
-0.0625
 31
0.0
  0
LINE
  5
A3
330
9C
100
AcDbEntity
  8
0
100
AcDbLine
 10
0.0
 20
-0.03125
 30
0.0
 11
0.0
 21
-0.09375
 31
0.0
  0
ATTDEF
  5
A4
330
9C
100
AcDbEntity
  8
0
100
AcDbText
 10
0.2291666666666667
 20
0.8498017589547741
 30
0.0
 40
0.125
  1

  7
WD
 41
0.7
 72
2
 11
0.2291666666666667
 21
0.8498017589547741
 31
0.0
100
AcDbAttributeDefinition
  3

  2
INST
 70
0
  0
ATTDEF
  5
A5
330
9C
100
AcDbEntity
  8
0
100
AcDbText
 10
0.0130729268949868
 20
-0.1146401272584949
 30
0.0
 40
0.01
  1
P
  7
WD
100
AcDbAttributeDefinition
  3

  2
X8TERMDESC01
 70
1
  0
ATTDEF
  5
A6
330
9C
100
AcDbEntity
  8
0
100
AcDbText
 10
0.0261458644990533
 20
0.0416098677706964
 30
0.0
 40
0.01
  1
J
  7
WD
100
AcDbAttributeDefinition
  3

  2
X2TERMDESC02
 70
1
  0
ATTDEF
  5
A7
330
9C
100
AcDbEntity
  8
0
  6
Continuous
100
AcDbText
 10
-0.1090752636275756
 20
-0.0139434821641545
 30
0.0
 40
0.01
  1

  7
WD
 72
1
 11
-0.1090752636275756
 21
-0.0139434821641545
 31
0.0
100
AcDbAttributeDefinition
  3

  2
ASSYCODE
 70
9
  0
ATTDEF
  5
A8
330
9C
100
AcDbEntity
  8
0
100
AcDbText
 10
-0.125
 20
-0.0625
 30
0.0
 40
0.01
  1

  7
WD
100
AcDbAttributeDefinition
  3

  2
X4LINK
 70
0
  0
ATTDEF
  5
A9
330
9C
100
AcDbEntity
  8
0
100
AcDbText
 10
0.125
 20
-0.0625
 30
0.0
 40
0.01
  1

  7
WD
100
AcDbAttributeDefinition
  3

  2
X1LINK
 70
0
  0
ATTDEF
  5
AA
330
9C
100
AcDbEntity
  8
0
100
AcDbText
 10
-0.0625
 20
0.6802017589547742
 30
0.0
 40
0.125
  1

  7
WD
 41
0.7
 72
2
 11
-0.0625
 21
0.6802017589547742
 31
0.0
100
AcDbAttributeDefinition
  3

  2
LOC
 70
0
  0
ATTDEF
  5
AB
330
9C
100
AcDbEntity
  8
0
  6
Continuous
100
AcDbText
 10
-0.1086068915503407
 20
3.92832228555e-05
 30
0.0
 40
0.01
  1

  7
WD
 72
1
 11
-0.1086068915503407
 21
3.92832228555e-05
 31
0.0
100
AcDbAttributeDefinition
  3

  2
MFG
 70
9
  0
ATTDEF
  5
AC
330
9C
100
AcDbEntity
  8
0
  6
Continuous
100
AcDbText
 10
-0.1066618459104218
 20
0.0194810369303064
 30
0.0
 40
0.01
  1

  7
WD
 72
1
 11
-0.1066618459104218
 21
0.0194810369303064
 31
0.0
100
AcDbAttributeDefinition
  3

  2
CAT
 70
9
  0
ATTDEF
  5
AD
330
9C
100
AcDbEntity
  8
0
100
AcDbText
 10
-0.131715111848772
 20
0.0636574527900694
 30
0.0
 40
0.01
  1
PJ
  7
WD
100
AcDbAttributeDefinition
  3

  2
FAMILY
 70
9
  0
ATTDEF
  5
AE
330
9C
100
AcDbEntity
  8
0
100
AcDbText
 10
-0.0625
 20
0.3542789046476642
 30
0.0
 40
0.125
  1

  7
WD
 41
0.7
 72
2
 11
-0.0625
 21
0.3542789046476642
 31
0.0
100
AcDbAttributeDefinition
  3

  2
DESC2
 70
0
  0
ATTDEF
  5
AF
330
9C
100
AcDbEntity
  8
0
100
AcDbText
 10
-0.0625
 20
0.5105253318012193
 30
0.0
 40
0.125
  1

  7
WD
 41
0.7
 72
2
 11
-0.0625
 21
0.5105253318012193
 31
0.0
100
AcDbAttributeDefinition
  3

  2
DESC1
 70
0
  0
ATTDEF
  5
B0
330
9C
100
AcDbEntity
  8
0
100
AcDbText
 10
-0.2708333333333334
 20
0.09375
 30
0.0
 40
0.125
  1
PJ
  7
WD
 72
2
 11
-0.0625
 21
0.09375
 31
0.0
100
AcDbAttributeDefinition
  3

  2
TAG1
 70
0
  0
ATTDEF
  5
B1
330
9C
100
AcDbEntity
  8
0
  6
Continuous
100
AcDbText
 10
0.047
 20
-0.28125
 30
0.0
 40
0.125
  1
1
  7
WD
 11
0.047
 21
-0.15625
 31
0.0
100
AcDbAttributeDefinition
  3

  2
TERM01
 70
8
 74
3
  0
ATTDEF
  5
B2
330
9C
100
AcDbEntity
  8
0
100
AcDbText
 10
0.0
 20
-0.09375
 30
0.0
 40
0.0125
  1

  7
WD
100
AcDbAttributeDefinition
  3

  2
X8TERM01
 70
1
  0
ATTDEF
  5
B3
330
9C
100
AcDbEntity
  8
0
100
AcDbText
 10
0.0
 20
0.0625
 30
0.0
 40
0.0125
  1

  7
WD
100
AcDbAttributeDefinition
  3

  2
X2TERM02
 70
1
  0
ATTDEF
  5
B4
330
9C
100
AcDbEntity
  8
0
  6
Continuous
100
AcDbText
 10
0.047
 20
0.0625
 30
0.0
 40
0.125
  1
1
  7
WD
100
AcDbAttributeDefinition
  3

  2
TERM02
 70
8
  0
ATTDEF
  5
B5
330
9C
100
AcDbEntity
  8
0
100
AcDbText
 10
-0.131715111848772
 20
0.045025320458437
 30
0.0
 40
0.01
  1
VC0
  7
WD
100
AcDbAttributeDefinition
  3

  2
WDBLKNAM
 70
9
  0
ENDBLK
  5
9E
330
9C
100
AcDbEntity
  8
0
100
AcDbBlockEnd
  0
BLOCK
  5
B7
330
B6
100
AcDbEntity
  8
0
100
AcDbBlockBegin
  2
VFU1
 70
2
 10
0.0
 20
0.0
 30
0.0
  3
VFU1
  1

  0
LINE
  5
B9
330
B6
100
AcDbEntity
  8
0
100
AcDbLine
 10
0.078125
 20
-0.1875
 30
0.0
 11
-0.078125
 21
-0.1875
 31
0.0
  0
LINE
  5
BA
330
B6
100
AcDbEntity
  8
0
100
AcDbLine
 10
-0.078125
 20
-0.1875
 30
0.0
 11
-0.078125
 21
0.1875
 31
0.0
  0
LINE
  5
BB
330
B6
100
AcDbEntity
  8
0
100
AcDbLine
 10
-0.078125
 20
0.1875
 30
0.0
 11
0.078125
 21
0.1875
 31
0.0
  0
LINE
  5
BC
330
B6
100
AcDbEntity
  8
0
100
AcDbLine
 10
0.078125
 20
0.1875
 30
0.0
 11
0.078125
 21
-0.1875
 31
0.0
  0
LINE
  5
BD
330
B6
100
AcDbEntity
  8
0
100
AcDbLine
 10
-0.078125
 20
-0.15625
 30
0.0
 11
0.078125
 21
-0.15625
 31
0.0
  0
LINE
  5
BE
330
B6
100
AcDbEntity
  8
0
100
AcDbLine
 10
-0.078125
 20
0.15625
 30
0.0
 11
0.078125
 21
0.15625
 31
0.0
  0
ATTDEF
  5
BF
330
B6
100
AcDbEntity
  8
0
100
AcDbText
 10
0.2812499989574033
 20
-0.3749999992913386
 30
0.0
 40
0.0625
  1

  7
WD
 41
0.7
100
AcDbAttributeDefinition
  3

  2
DESC3
 70
0
  0
ATTDEF
  5
C0
330
B6
100
AcDbEntity
  8
0
100
AcDbText
 10
0.2812499989574033
 20
-0.290415342967703
 30
0.0
 40
0.0625
  1

  7
WD
 41
0.7
100
AcDbAttributeDefinition
  3

  2
DESC2
 70
0
  0
ATTDEF
  5
C1
330
B6
100
AcDbEntity
  8
0
100
AcDbText
 10
0.2812499989574033
 20
-0.1962550637799636
 30
0.0
 40
0.0625
  1

  7
WD
 41
0.7
100
AcDbAttributeDefinition
  3

  2
DESC1
 70
0
  0
ATTDEF
  5
C2
330
B6
100
AcDbEntity
  8
0
100
AcDbText
 10
0.28125
 20
0.162925
 30
0.0
 40
0.0625
  1

  7
WD
 41
0.7
100
AcDbAttributeDefinition
  3

  2
INST
 70
0
  0
ATTDEF
  5
C3
330
B6
100
AcDbEntity
  8
0
 62
7
100
AcDbText
 10
-0.125
 20
0.0
 30
0.0
 40
0.01
  1

  7
WD
100
AcDbAttributeDefinition
  3

  2
X4LINK
 70
0
  0
ATTDEF
  5
C4
330
B6
100
AcDbEntity
  8
0
 62
7
100
AcDbText
 10
0.140625
 20
0.0
 30
0.0
 40
0.01
  1

  7
WD
100
AcDbAttributeDefinition
  3

  2
X1LINK
 70
0
  0
ATTDEF
  5
C5
330
B6
100
AcDbEntity
  8
0
  6
Continuous
100
AcDbText
 10
-0.0984836324360505
 20
-0.1080596515661348
 30
0.0
 40
0.01
  1

  7
WD
 72
1
 11
-0.0984836324360505
 21
-0.1080596515661348
 31
0.0
100
AcDbAttributeDefinition
  3

  2
ASSYCODE
 70
9
  0
ATTDEF
  5
C6
330
B6
100
AcDbEntity
  8
0
100
AcDbText
 10
0.1581914379730698
 20
-0.0606249999999502
 30
0.0
 40
0.109375
  1
FU
  7
WD
 41
0.9
100
AcDbAttributeDefinition
  3

  2
TAG1
 70
0
  0
ATTDEF
  5
C7
330
B6
100
AcDbEntity
  8
0
100
AcDbText
 10
0.28125
 20
0.078125
 30
0.0
 40
0.0625
  1

  7
WD
 41
0.7
100
AcDbAttributeDefinition
  3

  2
LOC
 70
0
  0
ATTDEF
  5
C8
330
B6
100
AcDbEntity
  8
0
  6
Continuous
100
AcDbText
 10
-0.0549703791556545
 20
0.2066266160049203
 30
0.0
 40
0.0625
  1

  7
WD
 72
2
 11
-0.0549703791556545
 21
0.2066266160049203
 31
0.0
100
AcDbAttributeDefinition
  3

  2
TERM01
 70
8
  0
ATTDEF
  5
C9
330
B6
100
AcDbEntity
  8
0
  6
Continuous
100
AcDbText
 10
-0.0407012216079946
 20
-0.2759470306509962
 30
0.0
 40
0.0625
  1

  7
WD
 72
2
 11
-0.0407012216079946
 21
-0.2134470306509962
 31
0.0
100
AcDbAttributeDefinition
  3

  2
TERM02
 70
8
 74
3
  0
ATTDEF
  5
CA
330
B6
100
AcDbEntity
  8
0
 62
7
100
AcDbText
 10
0.0
 20
0.1875
 30
0.0
 40
0.0109375
  1

  7
WD
100
AcDbAttributeDefinition
  3

  2
X2TERM01
 70
1
  0
ATTDEF
  5
CB
330
B6
100
AcDbEntity
  8
0
 62
7
100
AcDbText
 10
0.0
 20
-0.1875
 30
0.0
 40
0.0109375
  1

  7
WD
100
AcDbAttributeDefinition
  3

  2
X8TERM02
 70
1
  0
ATTDEF
  5
CC
330
B6
100
AcDbEntity
  8
0
100
AcDbText
 10
-0.0962835856596718
 20
-0.0364595424723361
 30
0.0
 40
0.01
  1
FU
  7
WD
 72
2
 11
-0.0796169189930052
 21
-0.0364595424723361
 31
0.0
100
AcDbAttributeDefinition
  3

  2
FAMILY
 70
9
  0
ATTDEF
  5
CD
330
B6
100
AcDbEntity
  8
0
  6
Continuous
100
AcDbText
 10
-0.0796169189930052
 20
-0.0731262091390027
 30
0.0
 40
0.01
  1

  7
WD
 72
2
 11
-0.0796169189930052
 21
-0.0731262091390027
 31
0.0
100
AcDbAttributeDefinition
  3

  2
CAT
 70
9
  0
ATTDEF
  5
CE
330
B6
100
AcDbEntity
  8
0
  6
Continuous
100
AcDbText
 10
-0.0796169189930052
 20
-0.0881262091390027
 30
0.0
 40
0.01
  1

  7
WD
 72
2
 11
-0.0796169189930052
 21
-0.0881262091390027
 31
0.0
100
AcDbAttributeDefinition
  3

  2
MFG
 70
9
  0
ATTDEF
  5
CF
330
B6
100
AcDbEntity
  8
0
100
AcDbText
 10
0.046875
 20
0.0
 30
0.0
 40
0.09375
  1

 50
90.0
  7
WD
 41
0.7
 72
1
 11
0.0
 21
0.0
 31
0.0
100
AcDbAttributeDefinition
  3

  2
RATING1
 70
0
 74
2
  0
ENDBLK
  5
B8
330
B6
100
AcDbEntity
  8
0
100
AcDbBlockEnd
  0
BLOCK
  5
D1
330
D0
100
AcDbEntity
  8
0
100
AcDbBlockBegin
  2
VXF1CT
 70
2
 10
0.0
 20
0.0
 30
0.0
  3
VXF1CT
  1

  0
ARC
  5
D3
330
D0
100
AcDbEntity
  8
0
100
AcDbCircle
 10
-0.34375
 20
-0.125
 30
0.0
 40
0.125
100
AcDbArc
 50
90.0
 51
270.0
  0
ARC
  5
D4
330
D0
100
AcDbEntity
  8
0
100
AcDbCircle
 10
-0.34375
 20
0.125
 30
0.0
 40
0.125
100
AcDbArc
 50
90.0
 51
270.0
  0
LINE
  5
D5
330
D0
100
AcDbEntity
  8
0
100
AcDbLine
 10
-0.34375
 20
0.0
 30
0.0
 11
-0.28125
 21
0.0
 31
0.0
  0
LINE
  5
D6
330
D0
100
AcDbEntity
  8
0
100
AcDbLine
 10
-0.34375
 20
-0.25
 30
0.0
 11
-0.0321974015839574
 21
-0.25
 31
0.0
  0
LINE
  5
D7
330
D0
100
AcDbEntity
  8
0
100
AcDbLine
 10
-0.34375
 20
0.25
 30
0.0
 11
-0.0321974015839574
 21
0.25
 31
0.0
  0
CIRCLE
  5
D8
330
D0
100
AcDbEntity
  8
0
100
AcDbCircle
 10
0.0
 20
0.2490382372998621
 30
0.0
 40
0.032211762700138
  0
CIRCLE
  5
D9
330
D0
100
AcDbEntity
  8
0
100
AcDbCircle
 10
0.0
 20
-0.2490382372998621
 30
0.0
 40
0.032211762700138
  0
ATTDEF
  5
DA
330
D0
100
AcDbEntity
  8
0
100
AcDbText
 10
-0.2270833333333333
 20
-0.421875
 30
0.0
 40
0.125
  1

  7
WD
 41
0.7
 72
1
 11
-0.2270833333333333
 21
-0.421875
 31
0.0
100
AcDbAttributeDefinition
  3

  2
INST
 70
0
  0
ATTDEF
  5
DB
330
D0
100
AcDbEntity
  8
0
100
AcDbText
 10
0.0
 20
-0.2831735254002758
 30
0.0
 40
0.0125
  1

  7
WD
100
AcDbAttributeDefinition
  3

  2
X8TERM01
 70
1
  0
ATTDEF
  5
DC
330
D0
100
AcDbEntity
  8
0
100
AcDbText
 10
0.0322117627001379
 20
-0.2509617627001379
 30
0.0
 40
0.0125
  1

  7
WD
100
AcDbAttributeDefinition
  3

  2
X1TERM01
 70
1
  0
ATTDEF
  5
DD
330
D0
100
AcDbEntity
  8
0
  6
Continuous
100
AcDbText
 10
-0.0549378303809576
 20
-0.2305439677362169
 30
0.0
 40
0.125
  1

  7
WD
 72
2
 11
-0.0549378303809576
 21
-0.2305439677362169
 31
0.0
100
AcDbAttributeDefinition
  3

  2
TERM01
 70
8
  0
ATTDEF
  5
DE
330
D0
100
AcDbEntity
  8
0
  6
Continuous
100
AcDbText
 10
-0.0449930830489329
 20
0.2669657848838338
 30
0.0
 40
0.125
  1

  7
WD
 72
2
 11
-0.0449930830489329
 21
0.2669657848838338
 31
0.0
100
AcDbAttributeDefinition
  3

  2
TERM02
 70
8
  0
ATTDEF
  5
DF
330
D0
100
AcDbEntity
  8
0
100
AcDbText
 10
0.0322117627001379
 20
0.2490382372998621
 30
0.0
 40
0.0125
  1

  7
WD
100
AcDbAttributeDefinition
  3

  2
X1TERM02
 70
1
  0
ATTDEF
  5
E0
330
D0
100
AcDbEntity
  8
0
100
AcDbText
 10
0.0
 20
0.28125
 30
0.0
 40
0.0125
  1

  7
WD
100
AcDbAttributeDefinition
  3

  2
X2TERM02
 70
1
  0
ATTDEF
  5
E1
330
D0
100
AcDbEntity
  8
0
100
AcDbText
 10
0.28125
 20
-0.125
 30
0.0
 40
0.125
  1

  7
WD
 41
0.7
100
AcDbAttributeDefinition
  3

  2
RATING1
 70
0
  0
ATTDEF
  5
E2
330
D0
100
AcDbEntity
  8
0
100
AcDbText
 10
0.28125
 20
0.03125
 30
0.0
 40
0.125
  1
XF
  7
WD
100
AcDbAttributeDefinition
  3

  2
TAG1
 70
0
  0
ATTDEF
  5
E3
330
D0
100
AcDbEntity
  8
0
100
AcDbText
 10
-0.200529377727209
 20
-0.7572946681987807
 30
0.0
 40
0.125
  1

  7
WD
 41
0.7
 72
1
 11
-0.200529377727209
 21
-0.7572946681987807
 31
0.0
100
AcDbAttributeDefinition
  3

  2
DESC1
 70
0
  0
ATTDEF
  5
E4
330
D0
100
AcDbEntity
  8
0
100
AcDbText
 10
-0.200529377727209
 20
-0.913541095352336
 30
0.0
 40
0.125
  1

  7
WD
 41
0.7
 72
1
 11
-0.200529377727209
 21
-0.913541095352336
 31
0.0
100
AcDbAttributeDefinition
  3

  2
DESC2
 70
0
  0
ATTDEF
  5
E5
330
D0
100
AcDbEntity
  8
0
100
AcDbText
 10
-0.200529377727209
 20
-0.601048241045226
 30
0.0
 40
0.125
  1

  7
WD
 41
0.7
 72
1
 11
-0.200529377727209
 21
-0.601048241045226
 31
0.0
100
AcDbAttributeDefinition
  3

  2
LOC
 70
0
  0
ATTDEF
  5
E6
330
D0
100
AcDbEntity
  8
0
  6
Continuous
100
AcDbText
 10
-0.1709301751010279
 20
0.1189553503863717
 30
0.0
 40
0.01
  1

  7
WD
 72
1
 11
-0.1709301751010279
 21
0.1189553503863717
 31
0.0
100
AcDbAttributeDefinition
  3

  2
ASSYCODE
 70
9
  0
ATTDEF
  5
E7
330
D0
100
AcDbEntity
  8
0
100
AcDbText
 10
-0.1927083333333333
 20
-0.046875
 30
0.0
 40
0.125
  1
C.T.
  7
WD
 72
1
 11
-0.046875
 21
-0.046875
 31
0.0
100
AcDbAttributeDefinition
  3

  2
TYPE
 70
0
  0
ATTDEF
  5
E8
330
D0
100
AcDbEntity
  8
0
100
AcDbText
 10
-0.1958072240996325
 20
0.1906902937183689
 30
0.0
 40
0.01
  1
XF
  7
WD
100
AcDbAttributeDefinition
  3

  2
FAMILY
 70
9
  0
ATTDEF
  5
E9
330
D0
100
AcDbEntity
  8
0
  6
Continuous
100
AcDbText
 10
-0.1707539581612827
 20
0.1621388778586058
 30
0.0
 40
0.01
  1

  7
WD
 72
1
 11
-0.1707539581612827
 21
0.1621388778586058
 31
0.0
100
AcDbAttributeDefinition
  3

  2
CAT
 70
9
  0
ATTDEF
  5
EA
330
D0
100
AcDbEntity
  8
0
  6
Continuous
100
AcDbText
 10
-0.1726990038012013
 20
0.1426971241511551
 30
0.0
 40
0.01
  1

  7
WD
 72
1
 11
-0.1726990038012013
 21
0.1426971241511551
 31
0.0
100
AcDbAttributeDefinition
  3

  2
MFG
 70
9
  0
ENDBLK
  5
D2
330
D0
100
AcDbEntity
  8
0
100
AcDbBlockEnd
  0
BLOCK
  5
EC
330
EB
100
AcDbEntity
  8
0
100
AcDbBlockBegin
  2
VXF1T1_1-
 70
2
 10
0.0
 20
0.0
 30
0.0
  3
VXF1T1_1-
  1

  0
ATTDEF
  5
EE
330
EB
100
AcDbEntity
  8
0
100
AcDbText
 10
0.203125
 20
0.28125
 30
0.0
 40
0.125
  1

  7
WD
 41
0.85
100
AcDbAttributeDefinition
  3

  2
INST
 70
0
  0
ATTDEF
  5
EF
330
EB
100
AcDbEntity
  8
0
  6
Continuous
100
AcDbText
 10
-0.2157796356183921
 20
-0.0905248358372156
 30
0.0
 40
0.01
  1

  7
WD
 72
1
 11
-0.2157796356183921
 21
-0.0905248358372156
 31
0.0
100
AcDbAttributeDefinition
  3

  2
ASSYCODE
 70
9
  0
ATTDEF
  5
F0
330
EB
100
AcDbEntity
  8
0
100
AcDbText
 10
-0.28125
 20
0.03125
 30
0.0
 40
0.125
  1

  7
WD
 41
0.85
 72
2
 11
-0.28125
 21
0.03125
 31
0.0
100
AcDbAttributeDefinition
  3

  2
RATING1
 70
0
  0
ATTDEF
  5
F1
330
EB
100
AcDbEntity
  8
0
100
AcDbText
 10
0.203125
 20
-0.40625
 30
0.0
 40
0.125
  1

  7
WD
 41
0.85
100
AcDbAttributeDefinition
  3

  2
DESC2
 70
0
  0
ATTDEF
  5
F2
330
EB
100
AcDbEntity
  8
0
100
AcDbText
 10
0.203125
 20
-0.234375
 30
0.0
 40
0.125
  1

  7
WD
 41
0.85
100
AcDbAttributeDefinition
  3

  2
DESC1
 70
0
  0
ATTDEF
  5
F3
330
EB
100
AcDbEntity
  8
0
100
AcDbText
 10
0.2050664379730698
 20
-0.0606249999999502
 30
0.0
 40
0.125
  1
XF
  7
WD
 41
0.85
100
AcDbAttributeDefinition
  3

  2
TAG1
 70
0
  0
ATTDEF
  5
F4
330
EB
100
AcDbEntity
  8
0
100
AcDbText
 10
0.203125
 20
0.109375
 30
0.0
 40
0.125
  1

  7
WD
 41
0.85
100
AcDbAttributeDefinition
  3

  2
LOC
 70
0
  0
ATTDEF
  5
F5
330
EB
100
AcDbEntity
  8
0
  6
Continuous
100
AcDbText
 10
-0.2046169189930051
 20
-0.0725012091390027
 30
0.0
 40
0.01
  1

  7
WD
 72
2
 11
-0.2046169189930051
 21
-0.0725012091390027
 31
0.0
100
AcDbAttributeDefinition
  3

  2
MFG
 70
9
  0
ATTDEF
  5
F6
330
EB
100
AcDbEntity
  8
0
  6
Continuous
100
AcDbText
 10
-0.2046169189930051
 20
-0.0575012091390027
 30
0.0
 40
0.01
  1

  7
WD
 72
2
 11
-0.2046169189930051
 21
-0.0575012091390027
 31
0.0
100
AcDbAttributeDefinition
  3

  2
CAT
 70
9
  0
ATTDEF
  5
F7
330
EB
100
AcDbEntity
  8
0
100
AcDbText
 10
-0.2212835856596718
 20
-0.0208345424723361
 30
0.0
 40
0.01
  1
XF
  7
WD
 72
2
 11
-0.2046169189930051
 21
-0.0208345424723361
 31
0.0
100
AcDbAttributeDefinition
  3

  2
FAMILY
 70
9
  0
ATTDEF
  5
F8
330
EB
100
AcDbEntity
  8
0
 62
7
100
AcDbText
 10
0.0
 20
-0.15625
 30
0.0
 40
0.0125
  1

  7
WD
100
AcDbAttributeDefinition
  3

  2
X8TERM02
 70
1
  0
ATTDEF
  5
F9
330
EB
100
AcDbEntity
  8
0
 62
7
100
AcDbText
 10
0.0
 20
0.15625
 30
0.0
 40
0.0125
  1

  7
WD
100
AcDbAttributeDefinition
  3

  2
X2TERM01
 70
1
  0
ATTDEF
  5
FA
330
EB
100
AcDbEntity
  8
0
  6
Continuous
100
AcDbText
 10
-0.0407012216079947
 20
-0.3384470306509963
 30
0.0
 40
0.125
  1

  7
WD
 41
0.85
 72
2
 11
-0.0407012216079947
 21
-0.2134470306509962
 31
0.0
100
AcDbAttributeDefinition
  3

  2
TERM02
 70
8
 74
3
  0
ATTDEF
  5
FB
330
EB
100
AcDbEntity
  8
0
  6
Continuous
100
AcDbText
 10
-0.0549703791556545
 20
0.2378766160049203
 30
0.0
 40
0.125
  1

  7
WD
 41
0.85
 72
2
 11
-0.0549703791556545
 21
0.2378766160049203
 31
0.0
100
AcDbAttributeDefinition
  3

  2
TERM01
 70
8
  0
ATTDEF
  5
FC
330
EB
100
AcDbEntity
  8
0
100
AcDbText
 10
-0.2046169189930051
 20
-0.137611882760555
 30
0.0
 40
0.01
  1
1-
  7
WD
 72
2
 11
-0.1912835856596718
 21
-0.137611882760555
 31
0.0
100
AcDbAttributeDefinition
  3

  2
WDTYPE
 70
9
  0
ATTDEF
  5
FD
330
EB
100
AcDbEntity
  8
0
100
AcDbText
 10
0.203125
 20
-0.578125
 30
0.0
 40
0.125
  1

  7
WD
 41
0.85
100
AcDbAttributeDefinition
  3

  2
DESC3
 70
0
  0
ATTDEF
  5
FE
330
EB
100
AcDbEntity
  8
0
100
AcDbText
 10
-0.1912835856596718
 20
-0.153236882760555
 30
0.0
 40
0.01
  1

  7
WD
 72
2
 11
-0.1912835856596718
 21
-0.153236882760555
 31
0.0
100
AcDbAttributeDefinition
  3

  2
WDBLKNAM
 70
9
  0
ATTDEF
  5
FF
330
EB
100
AcDbEntity
  8
0
100
AcDbText
 10
-0.28125
 20
-0.140625
 30
0.0
 40
0.125
  1

  7
WD
 41
0.85
 72
2
 11
-0.28125
 21
-0.140625
 31
0.0
100
AcDbAttributeDefinition
  3

  2
RATING2
 70
0
  0
LWPOLYLINE
  5
100
330
EB
100
AcDbEntity
  8
0
100
AcDbPolyline
 90
2
 70
0
 43
0.0125
 10
-0.140625
 20
-0.015625
 10
0.140625
 20
-0.015625
  0
LWPOLYLINE
  5
101
330
EB
100
AcDbEntity
  8
0
100
AcDbPolyline
 90
2
 70
0
 43
0.0125
 10
-0.140625
 20
0.015625
 10
0.140625
 20
0.015625
  0
LWPOLYLINE
  5
102
330
EB
100
AcDbEntity
  8
0
100
AcDbPolyline
 90
2
 70
0
 43
0.0125
 10
4.9993274214e-06
 20
-0.1249986216425859
 42
1.000008755414071
 10
-0.1562450006121466
 20
-0.1250027463848736
  0
LWPOLYLINE
  5
103
330
EB
100
AcDbEntity
  8
0
100
AcDbPolyline
 90
2
 70
0
 43
0.0125
 10
0.1562450006482603
 20
-0.1249986216425859
 42
1.000008755414071
 10
-4.9992913077e-06
 20
-0.1250027463848736
  0
LWPOLYLINE
  5
104
330
EB
100
AcDbEntity
  8
0
100
AcDbPolyline
 90
2
 70
0
 43
0.0125
 10
0.15625
 20
-0.15625
 10
0.15625
 20
-0.125
  0
LWPOLYLINE
  5
105
330
EB
100
AcDbEntity
  8
0
100
AcDbPolyline
 90
2
 70
0
 43
0.0125
 10
0.0
 20
-0.15625
 10
0.0
 20
-0.125
  0
LWPOLYLINE
  5
106
330
EB
100
AcDbEntity
  8
0
100
AcDbPolyline
 90
2
 70
0
 43
0.0125
 10
-0.15625
 20
-0.15625
 10
-0.15625
 20
-0.125
  0
LWPOLYLINE
  5
107
330
EB
100
AcDbEntity
  8
0
100
AcDbPolyline
 90
2
 70
0
 43
0.0125
 10
-0.15625
 20
0.15625
 10
-0.15625
 20
0.125
  0
LWPOLYLINE
  5
108
330
EB
100
AcDbEntity
  8
0
100
AcDbPolyline
 90
2
 70
0
 43
0.0125
 10
-0.1562450006604195
 20
0.125
 42
1.000009054788699
 10
4.9993267698e-06
 20
0.125001414804329
  0
LWPOLYLINE
  5
109
330
EB
100
AcDbEntity
  8
0
100
AcDbPolyline
 90
2
 70
0
 43
0.0125
 10
0.0
 20
0.15625
 10
0.0
 20
0.125
  0
LWPOLYLINE
  5
10A
330
EB
100
AcDbEntity
  8
0
100
AcDbPolyline
 90
2
 70
0
 43
0.0125
 10
-4.9993395805e-06
 20
0.125
 42
1.000009054788699
 10
0.1562450006476088
 20
0.125001414804329
  0
LWPOLYLINE
  5
10B
330
EB
100
AcDbEntity
  8
0
100
AcDbPolyline
 90
2
 70
0
 43
0.0125
 10
0.15625
 20
0.15625
 10
0.15625
 20
0.125
  0
ENDBLK
  5
ED
330
EB
100
AcDbEntity
  8
0
100
AcDbBlockEnd
  0
BLOCK
  5
10D
330
10C
100
AcDbEntity
  8
0
100
AcDbBlockBegin
  2
WDDOT
 70
0
 10
0.0
 20
0.0
 30
0.0
  3
WDDOT
  1

  0
CIRCLE
  5
10F
330
10C
100
AcDbEntity
  8
0
100
AcDbCircle
 10
0.0
 20
0.0
 30
0.0
 40
0.0300000000000003
  0
CIRCLE
  5
110
330
10C
100
AcDbEntity
  8
0
100
AcDbCircle
 10
0.0
 20
0.0
 30
0.0
 40
0.0187012496499282
  0
CIRCLE
  5
111
330
10C
100
AcDbEntity
  8
0
100
AcDbCircle
 10
0.0
 20
0.0
 30
0.0
 40
0.0092948236686489
  0
ENDBLK
  5
10E
330
10C
100
AcDbEntity
  8
0
100
AcDbBlockEnd
  0
ENDSEC
  0
SECTION
  2
ENTITIES
  0
LWPOLYLINE
  5
113
330
17
100
AcDbEntity
  8
SLD_CUBICLE
100
AcDbPolyline
 90
4
 70
1
 10
0.0
 20
22.51
 10
5.6
 20
22.51
 10
5.6
 20
11.01
 10
0.0
 20
11.01
  0
LINE
  5
114
330
17
100
AcDbEntity
  8
SLD_WIRE
100
AcDbLine
 10
2.5
 20
23.2
 30
0.0
 11
2.5
 21
16.179999999999996
 31
0.0
  0
LINE
  5
115
330
17
100
AcDbEntity
  8
SLD_WIRE
100
AcDbLine
 10
2.5
 20
15.992499999999996
 30
0.0
 11
2.5
 21
15.542499999999997
 31
0.0
  0
LINE
  5
116
330
17
100
AcDbEntity
  8
SLD_WIRE
100
AcDbLine
 10
2.5
 20
14.622499999999997
 30
0.0
 11
2.5
 21
14.172499999999998
 31
0.0
  0
LINE
  5
117
330
17
100
AcDbEntity
  8
SLD_WIRE
100
AcDbLine
 10
2.5
 20
13.984999999999998
 30
0.0
 11
2.5
 21
11.6
 31
0.0
  0
INSERT
  5
118
330
17
100
AcDbEntity
  8
SLD_SYMS
100
AcDbBlockReference
 66
1
  2
VCN1PJ
 10
2.5
 20
23.1375
 30
0.0
 50
180.0
  0
ATTRIB
  5
11A
330
17
100
AcDbEntity
  8
0
100
AcDbText
 10
2.270833333333333
 20
22.287698241045224
 30
0.0
 40
0.125
  1

 50
180.0
  7
WD
 41
0.7
 72
2
 11
2.270833333333333
 21
22.287698241045224
 31
0.0
100
AcDbAttribute
  2
INST
 70
1
  0
ATTRIB
  5
11B
330
17
100
AcDbEntity
  8
0
100
AcDbText
 10
2.4869270731050133
 20
23.252140127258492
 30
0.0
 40
0.01
  1

 50
180.0
  7
WD
 11
2.4869270731050133
 21
23.252140127258492
 31
0.0
100
AcDbAttribute
  2
X8TERMDESC01
 70
1
  0
ATTRIB
  5
11C
330
17
100
AcDbEntity
  8
0
100
AcDbText
 10
2.4738541355009467
 20
23.095890132229304
 30
0.0
 40
0.01
  1

 50
180.0
  7
WD
 11
2.4738541355009467
 21
23.095890132229304
 31
0.0
100
AcDbAttribute
  2
X2TERMDESC02
 70
1
  0
ATTRIB
  5
11D
330
17
100
AcDbEntity
  8
0
  6
Continuous
100
AcDbText
 10
2.6090752636275756
 20
23.151443482164154
 30
0.0
 40
0.01
  1

 50
180.0
  7
WD
 72
1
 11
2.6090752636275756
 21
23.151443482164154
 31
0.0
100
AcDbAttribute
  2
ASSYCODE
 70
9
  0
ATTRIB
  5
11E
330
17
100
AcDbEntity
  8
0
100
AcDbText
 10
2.625
 20
23.2
 30
0.0
 40
0.01
  1

 50
180.0
  7
WD
 11
2.625
 21
23.2
 31
0.0
100
AcDbAttribute
  2
X4LINK
 70
1
  0
ATTRIB
  5
11F
330
17
100
AcDbEntity
  8
0
100
AcDbText
 10
2.375
 20
23.2
 30
0.0
 40
0.01
  1

 50
180.0
  7
WD
 11
2.375
 21
23.2
 31
0.0
100
AcDbAttribute
  2
X1LINK
 70
1
  0
ATTRIB
  5
120
330
17
100
AcDbEntity
  8
0
100
AcDbText
 10
2.5625
 20
22.457298241045226
 30
0.0
 40
0.125
  1

 50
180.0
  7
WD
 41
0.7
 72
2
 11
2.5625
 21
22.457298241045226
 31
0.0
100
AcDbAttribute
  2
LOC
 70
1
  0
ATTRIB
  5
121
330
17
100
AcDbEntity
  8
0
  6
Continuous
100
AcDbText
 10
2.6086068915503406
 20
23.137460716777145
 30
0.0
 40
0.01
  1

 50
180.0
  7
WD
 72
1
 11
2.6086068915503406
 21
23.137460716777145
 31
0.0
100
AcDbAttribute
  2
MFG
 70
9
  0
ATTRIB
  5
122
330
17
100
AcDbEntity
  8
0
  6
Continuous
100
AcDbText
 10
2.6066618459104216
 20
23.118018963069694
 30
0.0
 40
0.01
  1

 50
180.0
  7
WD
 72
1
 11
2.6066618459104216
 21
23.118018963069694
 31
0.0
100
AcDbAttribute
  2
CAT
 70
9
  0
ATTRIB
  5
123
330
17
100
AcDbEntity
  8
0
100
AcDbText
 10
2.631715111848772
 20
23.07384254720993
 30
0.0
 40
0.01
  1

 50
180.0
  7
WD
 11
2.631715111848772
 21
23.07384254720993
 31
0.0
100
AcDbAttribute
  2
FAMILY
 70
9
  0
ATTRIB
  5
124
330
17
100
AcDbEntity
  8
0
100
AcDbText
 10
2.5625
 20
22.783221095352335
 30
0.0
 40
0.125
  1

 50
180.0
  7
WD
 41
0.7
 72
2
 11
2.5625
 21
22.783221095352335
 31
0.0
100
AcDbAttribute
  2
DESC2
 70
1
  0
ATTRIB
  5
125
330
17
100
AcDbEntity
  8
0
100
AcDbText
 10
2.5625
 20
22.62697466819878
 30
0.0
 40
0.125
  1

 50
180.0
  7
WD
 41
0.7
 72
2
 11
2.5625
 21
22.62697466819878
 31
0.0
100
AcDbAttribute
  2
DESC1
 70
1
  0
ATTRIB
  5
126
330
17
100
AcDbEntity
  8
0
100
AcDbText
 10
2.7708333333333335
 20
23.04375
 30
0.0
 40
0.125
  1

 50
180.0
  7
WD
 72
2
 11
2.5625
 21
23.04375
 31
0.0
100
AcDbAttribute
  2
TAG1
 70
1
  0
ATTRIB
  5
127
330
17
100
AcDbEntity
  8
0
  6
Continuous
100
AcDbText
 10
2.453
 20
23.41875
 30
0.0
 40
0.125
  1

 50
180.0
  7
WD
 11
2.453
 21
23.29375
 31
0.0
100
AcDbAttribute
  2
TERM01
 70
9
 74
3
  0
ATTRIB
  5
128
330
17
100
AcDbEntity
  8
0
100
AcDbText
 10
2.5
 20
23.23125
 30
0.0
 40
0.0125
  1

 50
180.0
  7
WD
 11
2.5
 21
23.23125
 31
0.0
100
AcDbAttribute
  2
X8TERM01
 70
1
  0
ATTRIB
  5
129
330
17
100
AcDbEntity
  8
0
100
AcDbText
 10
2.5
 20
23.075
 30
0.0
 40
0.0125
  1

 50
180.0
  7
WD
 11
2.5
 21
23.075
 31
0.0
100
AcDbAttribute
  2
X2TERM02
 70
1
  0
ATTRIB
  5
12A
330
17
100
AcDbEntity
  8
0
  6
Continuous
100
AcDbText
 10
2.453
 20
23.075
 30
0.0
 40
0.125
  1

 50
180.0
  7
WD
 11
2.453
 21
23.075
 31
0.0
100
AcDbAttribute
  2
TERM02
 70
9
  0
ATTRIB
  5
12B
330
17
100
AcDbEntity
  8
0
100
AcDbText
 10
2.631715111848772
 20
23.092474679541564
 30
0.0
 40
0.01
  1

 50
180.0
  7
WD
 11
2.631715111848772
 21
23.092474679541564
 31
0.0
100
AcDbAttribute
  2
WDBLKNAM
 70
9
  0
SEQEND
  5
119
330
118
100
AcDbEntity
  8
SLD_SYMS
  0
INSERT
  5
12C
330
17
100
AcDbEntity
  8
SLD_SYMS
100
AcDbBlockReference
  2
WDDOT
 10
2.5
 20
21.2825
 30
0.0
  0
INSERT
  5
12E
330
17
100
AcDbEntity
  8
SLD_SYMS
100
AcDbBlockReference
  2
WDDOT
 10
2.5
 20
19.822499999999998
 30
0.0
  0
INSERT
  5
130
330
17
100
AcDbEntity
  8
SLD_SYMS
100
AcDbBlockReference
 66
1
  2
VXF1CT
 10
2.692
 20
17.961249999999996
 30
0.0
  0
ATTRIB
  5
132
330
17
100
AcDbEntity
  8
0
100
AcDbText
 10
2.464916666666667
 20
17.539374999999996
 30
0.0
 40
0.125
  1

  7
WD
 41
0.7
 72
1
 11
2.464916666666667
 21
17.539374999999996
 31
0.0
100
AcDbAttribute
  2
INST
 70
1
  0
ATTRIB
  5
133
330
17
100
AcDbEntity
  8
0
100
AcDbText
 10
2.692
 20
17.67807647459972
 30
0.0
 40
0.0125
  1

  7
WD
 11
2.692
 21
17.67807647459972
 31
0.0
100
AcDbAttribute
  2
X8TERM01
 70
1
  0
ATTRIB
  5
134
330
17
100
AcDbEntity
  8
0
100
AcDbText
 10
2.724211762700138
 20
17.710288237299856
 30
0.0
 40
0.0125
  1

  7
WD
 11
2.724211762700138
 21
17.710288237299856
 31
0.0
100
AcDbAttribute
  2
X1TERM01
 70
1
  0
ATTRIB
  5
135
330
17
100
AcDbEntity
  8
0
  6
Continuous
100
AcDbText
 10
2.6370621696190426
 20
17.73070603226378
 30
0.0
 40
0.125
  1

  7
WD
 72
2
 11
2.6370621696190426
 21
17.73070603226378
 31
0.0
100
AcDbAttribute
  2
TERM01
 70
9
  0
ATTRIB
  5
136
330
17
100
AcDbEntity
  8
0
  6
Continuous
100
AcDbText
 10
2.6470069169510673
 20
18.22821578488383
 30
0.0
 40
0.125
  1

  7
WD
 72
2
 11
2.6470069169510673
 21
18.22821578488383
 31
0.0
100
AcDbAttribute
  2
TERM02
 70
9
  0
ATTRIB
  5
137
330
17
100
AcDbEntity
  8
0
100
AcDbText
 10
2.724211762700138
 20
18.21028823729986
 30
0.0
 40
0.0125
  1

  7
WD
 11
2.724211762700138
 21
18.21028823729986
 31
0.0
100
AcDbAttribute
  2
X1TERM02
 70
1
  0
ATTRIB
  5
138
330
17
100
AcDbEntity
  8
0
100
AcDbText
 10
2.692
 20
18.242499999999996
 30
0.0
 40
0.0125
  1

  7
WD
 11
2.692
 21
18.242499999999996
 31
0.0
100
AcDbAttribute
  2
X2TERM02
 70
1
  0
ATTRIB
  5
139
330
17
100
AcDbEntity
  8
0
100
AcDbText
 10
2.97325
 20
17.836249999999996
 30
0.0
 40
0.125
  1

  7
WD
 41
0.7
 11
2.97325
 21
17.836249999999996
 31
0.0
100
AcDbAttribute
  2
RATING1
 70
1
  0
ATTRIB
  5
13A
330
17
100
AcDbEntity
  8
0
100
AcDbText
 10
2.97325
 20
17.992499999999996
 30
0.0
 40
0.125
  1

  7
WD
 11
2.97325
 21
17.992499999999996
 31
0.0
100
AcDbAttribute
  2
TAG1
 70
1
  0
ATTRIB
  5
13B
330
17
100
AcDbEntity
  8
0
100
AcDbText
 10
1.3920000000000001
 20
17.941249999999997
 30
0.0
 40
0.125
  1
1000:5A (3)
  7
WD
 41
0.7
 72
1
 11
1.3920000000000001
 21
17.941249999999997
 31
0.0
100
AcDbAttribute
  2
DESC1
 70
0
  0
ATTRIB
  5
13C
330
17
100
AcDbEntity
  8
0
100
AcDbText
 10
1.2720000000000002
 20
17.781249999999996
 30
0.0
 40
0.125
  1
CT C400
  7
WD
 41
0.7
 72
1
 11
1.2720000000000002
 21
17.781249999999996
 31
0.0
100
AcDbAttribute
  2
DESC2
 70
0
  0
ATTRIB
  5
13D
330
17
100
AcDbEntity
  8
0
100
AcDbText
 10
2.491470622272791
 20
17.36020175895477
 30
0.0
 40
0.125
  1

  7
WD
 41
0.7
 72
1
 11
2.491470622272791
 21
17.36020175895477
 31
0.0
100
AcDbAttribute
  2
LOC
 70
1
  0
ATTRIB
  5
13E
330
17
100
AcDbEntity
  8
0
  6
Continuous
100
AcDbText
 10
2.5210698248989725
 20
18.08020535038637
 30
0.0
 40
0.01
  1

  7
WD
 72
1
 11
2.5210698248989725
 21
18.08020535038637
 31
0.0
100
AcDbAttribute
  2
ASSYCODE
 70
9
  0
ATTRIB
  5
13F
330
17
100
AcDbEntity
  8
0
100
AcDbText
 10
2.4992916666666667
 20
17.914374999999996
 30
0.0
 40
0.125
  1

  7
WD
 72
1
 11
2.645125
 21
17.914374999999996
 31
0.0
100
AcDbAttribute
  2
TYPE
 70
1
  0
ATTRIB
  5
140
330
17
100
AcDbEntity
  8
0
100
AcDbText
 10
2.4961927759003677
 20
18.151940293718365
 30
0.0
 40
0.01
  1

  7
WD
 11
2.4961927759003677
 21
18.151940293718365
 31
0.0
100
AcDbAttribute
  2
FAMILY
 70
9
  0
ATTRIB
  5
141
330
17
100
AcDbEntity
  8
0
  6
Continuous
100
AcDbText
 10
2.5212460418387175
 20
18.123388877858602
 30
0.0
 40
0.01
  1

  7
WD
 72
1
 11
2.5212460418387175
 21
18.123388877858602
 31
0.0
100
AcDbAttribute
  2
CAT
 70
9
  0
ATTRIB
  5
142
330
17
100
AcDbEntity
  8
0
  6
Continuous
100
AcDbText
 10
2.519300996198799
 20
18.10394712415115
 30
0.0
 40
0.01
  1

  7
WD
 72
1
 11
2.519300996198799
 21
18.10394712415115
 31
0.0
100
AcDbAttribute
  2
MFG
 70
9
  0
SEQEND
  5
131
330
130
100
AcDbEntity
  8
SLD_SYMS
  0
INSERT
  5
143
330
17
100
AcDbEntity
  8
SLD_SYMS
100
AcDbBlockReference
  2
WDDOT
 10
2.549
 20
18.256249999999998
 30
0.0
  0
INSERT
  5
145
330
17
100
AcDbEntity
  8
SLD_SYMS
100
AcDbBlockReference
 66
1
  2
VCN1PJ
 10
2.5
 20
16.117499999999996
 30
0.0
  0
ATTRIB
  5
147
330
17
100
AcDbEntity
  8
0
100
AcDbText
 10
2.7291666666666665
 20
16.967301758954772
 30
0.0
 40
0.125
  1

  7
WD
 41
0.7
 72
2
 11
2.7291666666666665
 21
16.967301758954772
 31
0.0
100
AcDbAttribute
  2
INST
 70
1
  0
ATTRIB
  5
148
330
17
100
AcDbEntity
  8
0
100
AcDbText
 10
2.5130729268949867
 20
16.002859872741503
 30
0.0
 40
0.01
  1

  7
WD
 11
2.5130729268949867
 21
16.002859872741503
 31
0.0
100
AcDbAttribute
  2
X8TERMDESC01
 70
1
  0
ATTRIB
  5
149
330
17
100
AcDbEntity
  8
0
100
AcDbText
 10
2.5261458644990533
 20
16.15910986777069
 30
0.0
 40
0.01
  1

  7
WD
 11
2.5261458644990533
 21
16.15910986777069
 31
0.0
100
AcDbAttribute
  2
X2TERMDESC02
 70
1
  0
ATTRIB
  5
14A
330
17
100
AcDbEntity
  8
0
  6
Continuous
100
AcDbText
 10
2.3909247363724244
 20
16.10355651783584
 30
0.0
 40
0.01
  1

  7
WD
 72
1
 11
2.3909247363724244
 21
16.10355651783584
 31
0.0
100
AcDbAttribute
  2
ASSYCODE
 70
9
  0
ATTRIB
  5
14B
330
17
100
AcDbEntity
  8
0
100
AcDbText
 10
2.375
 20
16.054999999999996
 30
0.0
 40
0.01
  1

  7
WD
 11
2.375
 21
16.054999999999996
 31
0.0
100
AcDbAttribute
  2
X4LINK
 70
1
  0
ATTRIB
  5
14C
330
17
100
AcDbEntity
  8
0
100
AcDbText
 10
2.625
 20
16.054999999999996
 30
0.0
 40
0.01
  1

  7
WD
 11
2.625
 21
16.054999999999996
 31
0.0
100
AcDbAttribute
  2
X1LINK
 70
1
  0
ATTRIB
  5
14D
330
17
100
AcDbEntity
  8
0
100
AcDbText
 10
2.4375
 20
16.79770175895477
 30
0.0
 40
0.125
  1

  7
WD
 41
0.7
 72
2
 11
2.4375
 21
16.79770175895477
 31
0.0
100
AcDbAttribute
  2
LOC
 70
1
  0
ATTRIB
  5
14E
330
17
100
AcDbEntity
  8
0
  6
Continuous
100
AcDbText
 10
2.3913931084496594
 20
16.11753928322285
 30
0.0
 40
0.01
  1

  7
WD
 72
1
 11
2.3913931084496594
 21
16.11753928322285
 31
0.0
100
AcDbAttribute
  2
MFG
 70
9
  0
ATTRIB
  5
14F
330
17
100
AcDbEntity
  8
0
  6
Continuous
100
AcDbText
 10
2.3933381540895784
 20
16.1369810369303
 30
0.0
 40
0.01
  1

  7
WD
 72
1
 11
2.3933381540895784
 21
16.1369810369303
 31
0.0
100
AcDbAttribute
  2
CAT
 70
9
  0
ATTRIB
  5
150
330
17
100
AcDbEntity
  8
0
100
AcDbText
 10
2.368284888151228
 20
16.181157452790064
 30
0.0
 40
0.01
  1

  7
WD
 11
2.368284888151228
 21
16.181157452790064
 31
0.0
100
AcDbAttribute
  2
FAMILY
 70
9
  0
ATTRIB
  5
151
330
17
100
AcDbEntity
  8
0
100
AcDbText
 10
2.4375
 20
16.47177890464766
 30
0.0
 40
0.125
  1

  7
WD
 41
0.7
 72
2
 11
2.4375
 21
16.47177890464766
 31
0.0
100
AcDbAttribute
  2
DESC2
 70
1
  0
ATTRIB
  5
152
330
17
100
AcDbEntity
  8
0
100
AcDbText
 10
2.4375
 20
16.628025331801215
 30
0.0
 40
0.125
  1

  7
WD
 41
0.7
 72
2
 11
2.4375
 21
16.628025331801215
 31
0.0
100
AcDbAttribute
  2
DESC1
 70
1
  0
ATTRIB
  5
153
330
17
100
AcDbEntity
  8
0
100
AcDbText
 10
2.2291666666666665
 20
16.211249999999996
 30
0.0
 40
0.125
  1

  7
WD
 72
2
 11
2.4375
 21
16.211249999999996
 31
0.0
100
AcDbAttribute
  2
TAG1
 70
1
  0
ATTRIB
  5
154
330
17
100
AcDbEntity
  8
0
  6
Continuous
100
AcDbText
 10
2.547
 20
15.836249999999996
 30
0.0
 40
0.125
  1

  7
WD
 11
2.547
 21
15.961249999999996
 31
0.0
100
AcDbAttribute
  2
TERM01
 70
9
 74
3
  0
ATTRIB
  5
155
330
17
100
AcDbEntity
  8
0
100
AcDbText
 10
2.5
 20
16.023749999999996
 30
0.0
 40
0.0125
  1

  7
WD
 11
2.5
 21
16.023749999999996
 31
0.0
100
AcDbAttribute
  2
X8TERM01
 70
1
  0
ATTRIB
  5
156
330
17
100
AcDbEntity
  8
0
100
AcDbText
 10
2.5
 20
16.179999999999996
 30
0.0
 40
0.0125
  1

  7
WD
 11
2.5
 21
16.179999999999996
 31
0.0
100
AcDbAttribute
  2
X2TERM02
 70
1
  0
ATTRIB
  5
157
330
17
100
AcDbEntity
  8
0
  6
Continuous
100
AcDbText
 10
2.547
 20
16.179999999999996
 30
0.0
 40
0.125
  1

  7
WD
 11
2.547
 21
16.179999999999996
 31
0.0
100
AcDbAttribute
  2
TERM02
 70
9
  0
ATTRIB
  5
158
330
17
100
AcDbEntity
  8
0
100
AcDbText
 10
2.368284888151228
 20
16.162525320458432
 30
0.0
 40
0.01
  1

  7
WD
 11
2.368284888151228
 21
16.162525320458432
 31
0.0
100
AcDbAttribute
  2
WDBLKNAM
 70
9
  0
SEQEND
  5
146
330
145
100
AcDbEntity
  8
SLD_SYMS
  0
LWPOLYLINE
  5
159
330
17
100
AcDbEntity
  8
SLD_SYMS
100
AcDbPolyline
 90
4
 70
1
 10
2.1
 20
15.542499999999997
 10
2.9000000000000004
 20
15.542499999999997
 10
2.9000000000000004
 20
14.622499999999997
 10
2.1
 20
14.622499999999997
  0
INSERT
  5
15A
330
17
100
AcDbEntity
  8
SLD_SYMS
100
AcDbBlockReference
 66
1
  2
VCN1PJ
 10
2.5
 20
14.109999999999998
 30
0.0
  0
ATTRIB
  5
15C
330
17
100
AcDbEntity
  8
0
100
AcDbText
 10
2.7291666666666665
 20
14.959801758954772
 30
0.0
 40
0.125
  1

  7
WD
 41
0.7
 72
2
 11
2.7291666666666665
 21
14.959801758954772
 31
0.0
100
AcDbAttribute
  2
INST
 70
1
  0
ATTRIB
  5
15D
330
17
100
AcDbEntity
  8
0
100
AcDbText
 10
2.5130729268949867
 20
13.995359872741503
 30
0.0
 40
0.01
  1

  7
WD
 11
2.5130729268949867
 21
13.995359872741503
 31
0.0
100
AcDbAttribute
  2
X8TERMDESC01
 70
1
  0
ATTRIB
  5
15E
330
17
100
AcDbEntity
  8
0
100
AcDbText
 10
2.5261458644990533
 20
14.151609867770693
 30
0.0
 40
0.01
  1

  7
WD
 11
2.5261458644990533
 21
14.151609867770693
 31
0.0
100
AcDbAttribute
  2
X2TERMDESC02
 70
1
  0
ATTRIB
  5
15F
330
17
100
AcDbEntity
  8
0
  6
Continuous
100
AcDbText
 10
2.3909247363724244
 20
14.096056517835843
 30
0.0
 40
0.01
  1

  7
WD
 72
1
 11
2.3909247363724244
 21
14.096056517835843
 31
0.0
100
AcDbAttribute
  2
ASSYCODE
 70
9
  0
ATTRIB
  5
160
330
17
100
AcDbEntity
  8
0
100
AcDbText
 10
2.375
 20
14.047499999999998
 30
0.0
 40
0.01
  1

  7
WD
 11
2.375
 21
14.047499999999998
 31
0.0
100
AcDbAttribute
  2
X4LINK
 70
1
  0
ATTRIB
  5
161
330
17
100
AcDbEntity
  8
0
100
AcDbText
 10
2.625
 20
14.047499999999998
 30
0.0
 40
0.01
  1

  7
WD
 11
2.625
 21
14.047499999999998
 31
0.0
100
AcDbAttribute
  2
X1LINK
 70
1
  0
ATTRIB
  5
162
330
17
100
AcDbEntity
  8
0
100
AcDbText
 10
2.4375
 20
14.790201758954773
 30
0.0
 40
0.125
  1

  7
WD
 41
0.7
 72
2
 11
2.4375
 21
14.790201758954773
 31
0.0
100
AcDbAttribute
  2
LOC
 70
1
  0
ATTRIB
  5
163
330
17
100
AcDbEntity
  8
0
  6
Continuous
100
AcDbText
 10
2.3913931084496594
 20
14.110039283222854
 30
0.0
 40
0.01
  1

  7
WD
 72
1
 11
2.3913931084496594
 21
14.110039283222854
 31
0.0
100
AcDbAttribute
  2
MFG
 70
9
  0
ATTRIB
  5
164
330
17
100
AcDbEntity
  8
0
  6
Continuous
100
AcDbText
 10
2.3933381540895784
 20
14.129481036930304
 30
0.0
 40
0.01
  1

  7
WD
 72
1
 11
2.3933381540895784
 21
14.129481036930304
 31
0.0
100
AcDbAttribute
  2
CAT
 70
9
  0
ATTRIB
  5
165
330
17
100
AcDbEntity
  8
0
100
AcDbText
 10
2.368284888151228
 20
14.173657452790067
 30
0.0
 40
0.01
  1

  7
WD
 11
2.368284888151228
 21
14.173657452790067
 31
0.0
100
AcDbAttribute
  2
FAMILY
 70
9
  0
ATTRIB
  5
166
330
17
100
AcDbEntity
  8
0
100
AcDbText
 10
2.4375
 20
14.464278904647662
 30
0.0
 40
0.125
  1

  7
WD
 41
0.7
 72
2
 11
2.4375
 21
14.464278904647662
 31
0.0
100
AcDbAttribute
  2
DESC2
 70
1
  0
ATTRIB
  5
167
330
17
100
AcDbEntity
  8
0
100
AcDbText
 10
2.4375
 20
14.620525331801216
 30
0.0
 40
0.125
  1

  7
WD
 41
0.7
 72
2
 11
2.4375
 21
14.620525331801216
 31
0.0
100
AcDbAttribute
  2
DESC1
 70
1
  0
ATTRIB
  5
168
330
17
100
AcDbEntity
  8
0
100
AcDbText
 10
2.2291666666666665
 20
14.203749999999998
 30
0.0
 40
0.125
  1

  7
WD
 72
2
 11
2.4375
 21
14.203749999999998
 31
0.0
100
AcDbAttribute
  2
TAG1
 70
1
  0
ATTRIB
  5
169
330
17
100
AcDbEntity
  8
0
  6
Continuous
100
AcDbText
 10
2.547
 20
13.828749999999998
 30
0.0
 40
0.125
  1

  7
WD
 11
2.547
 21
13.953749999999998
 31
0.0
100
AcDbAttribute
  2
TERM01
 70
9
 74
3
  0
ATTRIB
  5
16A
330
17
100
AcDbEntity
  8
0
100
AcDbText
 10
2.5
 20
14.016249999999998
 30
0.0
 40
0.0125
  1

  7
WD
 11
2.5
 21
14.016249999999998
 31
0.0
100
AcDbAttribute
  2
X8TERM01
 70
1
  0
ATTRIB
  5
16B
330
17
100
AcDbEntity
  8
0
100
AcDbText
 10
2.5
 20
14.172499999999998
 30
0.0
 40
0.0125
  1

  7
WD
 11
2.5
 21
14.172499999999998
 31
0.0
100
AcDbAttribute
  2
X2TERM02
 70
1
  0
ATTRIB
  5
16C
330
17
100
AcDbEntity
  8
0
  6
Continuous
100
AcDbText
 10
2.547
 20
14.172499999999998
 30
0.0
 40
0.125
  1

  7
WD
 11
2.547
 21
14.172499999999998
 31
0.0
100
AcDbAttribute
  2
TERM02
 70
9
  0
ATTRIB
  5
16D
330
17
100
AcDbEntity
  8
0
100
AcDbText
 10
2.368284888151228
 20
14.155025320458435
 30
0.0
 40
0.01
  1

  7
WD
 11
2.368284888151228
 21
14.155025320458435
 31
0.0
100
AcDbAttribute
  2
WDBLKNAM
 70
9
  0
SEQEND
  5
15B
330
15A
100
AcDbEntity
  8
SLD_SYMS
  0
INSERT
  5
16E
330
17
100
AcDbEntity
  8
SLD_SYMS
100
AcDbBlockReference
 66
1
  2
VCN1PJ
 10
2.5
 20
11.722499999999997
 30
0.0
  0
ATTRIB
  5
170
330
17
100
AcDbEntity
  8
0
100
AcDbText
 10
2.7291666666666665
 20
12.57230175895477
 30
0.0
 40
0.125
  1

  7
WD
 41
0.7
 72
2
 11
2.7291666666666665
 21
12.57230175895477
 31
0.0
100
AcDbAttribute
  2
INST
 70
1
  0
ATTRIB
  5
171
330
17
100
AcDbEntity
  8
0
100
AcDbText
 10
2.5130729268949867
 20
11.607859872741502
 30
0.0
 40
0.01
  1

  7
WD
 11
2.5130729268949867
 21
11.607859872741502
 31
0.0
100
AcDbAttribute
  2
X8TERMDESC01
 70
1
  0
ATTRIB
  5
172
330
17
100
AcDbEntity
  8
0
100
AcDbText
 10
2.5261458644990533
 20
11.764109867770692
 30
0.0
 40
0.01
  1

  7
WD
 11
2.5261458644990533
 21
11.764109867770692
 31
0.0
100
AcDbAttribute
  2
X2TERMDESC02
 70
1
  0
ATTRIB
  5
173
330
17
100
AcDbEntity
  8
0
  6
Continuous
100
AcDbText
 10
2.3909247363724244
 20
11.708556517835842
 30
0.0
 40
0.01
  1

  7
WD
 72
1
 11
2.3909247363724244
 21
11.708556517835842
 31
0.0
100
AcDbAttribute
  2
ASSYCODE
 70
9
  0
ATTRIB
  5
174
330
17
100
AcDbEntity
  8
0
100
AcDbText
 10
2.375
 20
11.659999999999997
 30
0.0
 40
0.01
  1

  7
WD
 11
2.375
 21
11.659999999999997
 31
0.0
100
AcDbAttribute
  2
X4LINK
 70
1
  0
ATTRIB
  5
175
330
17
100
AcDbEntity
  8
0
100
AcDbText
 10
2.625
 20
11.659999999999997
 30
0.0
 40
0.01
  1

  7
WD
 11
2.625
 21
11.659999999999997
 31
0.0
100
AcDbAttribute
  2
X1LINK
 70
1
  0
ATTRIB
  5
176
330
17
100
AcDbEntity
  8
0
100
AcDbText
 10
2.4375
 20
12.402701758954771
 30
0.0
 40
0.125
  1

  7
WD
 41
0.7
 72
2
 11
2.4375
 21
12.402701758954771
 31
0.0
100
AcDbAttribute
  2
LOC
 70
1
  0
ATTRIB
  5
177
330
17
100
AcDbEntity
  8
0
  6
Continuous
100
AcDbText
 10
2.3913931084496594
 20
11.722539283222853
 30
0.0
 40
0.01
  1

  7
WD
 72
1
 11
2.3913931084496594
 21
11.722539283222853
 31
0.0
100
AcDbAttribute
  2
MFG
 70
9
  0
ATTRIB
  5
178
330
17
100
AcDbEntity
  8
0
  6
Continuous
100
AcDbText
 10
2.3933381540895784
 20
11.741981036930303
 30
0.0
 40
0.01
  1

  7
WD
 72
1
 11
2.3933381540895784
 21
11.741981036930303
 31
0.0
100
AcDbAttribute
  2
CAT
 70
9
  0
ATTRIB
  5
179
330
17
100
AcDbEntity
  8
0
100
AcDbText
 10
2.368284888151228
 20
11.786157452790066
 30
0.0
 40
0.01
  1

  7
WD
 11
2.368284888151228
 21
11.786157452790066
 31
0.0
100
AcDbAttribute
  2
FAMILY
 70
9
  0
ATTRIB
  5
17A
330
17
100
AcDbEntity
  8
0
100
AcDbText
 10
2.4375
 20
12.07677890464766
 30
0.0
 40
0.125
  1

  7
WD
 41
0.7
 72
2
 11
2.4375
 21
12.07677890464766
 31
0.0
100
AcDbAttribute
  2
DESC2
 70
1
  0
ATTRIB
  5
17B
330
17
100
AcDbEntity
  8
0
100
AcDbText
 10
2.4375
 20
12.233025331801215
 30
0.0
 40
0.125
  1

  7
WD
 41
0.7
 72
2
 11
2.4375
 21
12.233025331801215
 31
0.0
100
AcDbAttribute
  2
DESC1
 70
1
  0
ATTRIB
  5
17C
330
17
100
AcDbEntity
  8
0
100
AcDbText
 10
2.2291666666666665
 20
11.816249999999997
 30
0.0
 40
0.125
  1

  7
WD
 72
2
 11
2.4375
 21
11.816249999999997
 31
0.0
100
AcDbAttribute
  2
TAG1
 70
1
  0
ATTRIB
  5
17D
330
17
100
AcDbEntity
  8
0
  6
Continuous
100
AcDbText
 10
2.547
 20
11.441249999999997
 30
0.0
 40
0.125
  1

  7
WD
 11
2.547
 21
11.566249999999997
 31
0.0
100
AcDbAttribute
  2
TERM01
 70
9
 74
3
  0
ATTRIB
  5
17E
330
17
100
AcDbEntity
  8
0
100
AcDbText
 10
2.5
 20
11.628749999999997
 30
0.0
 40
0.0125
  1

  7
WD
 11
2.5
 21
11.628749999999997
 31
0.0
100
AcDbAttribute
  2
X8TERM01
 70
1
  0
ATTRIB
  5
17F
330
17
100
AcDbEntity
  8
0
100
AcDbText
 10
2.5
 20
11.784999999999997
 30
0.0
 40
0.0125
  1

  7
WD
 11
2.5
 21
11.784999999999997
 31
0.0
100
AcDbAttribute
  2
X2TERM02
 70
1
  0
ATTRIB
  5
180
330
17
100
AcDbEntity
  8
0
  6
Continuous
100
AcDbText
 10
2.547
 20
11.784999999999997
 30
0.0
 40
0.125
  1

  7
WD
 11
2.547
 21
11.784999999999997
 31
0.0
100
AcDbAttribute
  2
TERM02
 70
9
  0
ATTRIB
  5
181
330
17
100
AcDbEntity
  8
0
100
AcDbText
 10
2.368284888151228
 20
11.767525320458434
 30
0.0
 40
0.01
  1

  7
WD
 11
2.368284888151228
 21
11.767525320458434
 31
0.0
100
AcDbAttribute
  2
WDBLKNAM
 70
9
  0
SEQEND
  5
16F
330
16E
100
AcDbEntity
  8
SLD_SYMS
  0
LINE
  5
182
330
17
100
AcDbEntity
  8
SLD_WIRE
100
AcDbLine
 10
2.5
 20
21.2825
 30
0.0
 11
4.1
 21
21.2825
 31
0.0
  0
LINE
  5
183
330
17
100
AcDbEntity
  8
SLD_WIRE
100
AcDbLine
 10
4.1
 20
21.2825
 30
0.0
 11
4.1
 21
19.5825
 31
0.0
  0
INSERT
  5
184
330
17
100
AcDbEntity
  8
SLD_SYMS
100
AcDbBlockReference
 66
1
  2
VFU1
 10
4.1
 20
20.732499999999998
 30
0.0
  0
ATTRIB
  5
186
330
17
100
AcDbEntity
  8
0
100
AcDbText
 10
4.3812499989574025
 20
20.357500000708658
 30
0.0
 40
0.0625
  1

  7
WD
 41
0.7
 11
4.3812499989574025
 21
20.357500000708658
 31
0.0
100
AcDbAttribute
  2
DESC3
 70
1
  0
ATTRIB
  5
187
330
17
100
AcDbEntity
  8
0
100
AcDbText
 10
4.3812499989574025
 20
20.442084657032296
 30
0.0
 40
0.0625
  1

  7
WD
 41
0.7
 11
4.3812499989574025
 21
20.442084657032296
 31
0.0
100
AcDbAttribute
  2
DESC2
 70
1
  0
ATTRIB
  5
188
330
17
100
AcDbEntity
  8
0
100
AcDbText
 10
4.3812499989574025
 20
20.536244936220033
 30
0.0
 40
0.0625
  1

  7
WD
 41
0.7
 11
4.3812499989574025
 21
20.536244936220033
 31
0.0
100
AcDbAttribute
  2
DESC1
 70
1
  0
ATTRIB
  5
189
330
17
100
AcDbEntity
  8
0
100
AcDbText
 10
4.38125
 20
20.895425
 30
0.0
 40
0.0625
  1

  7
WD
 41
0.7
 11
4.38125
 21
20.895425
 31
0.0
100
AcDbAttribute
  2
INST
 70
1
  0
ATTRIB
  5
18A
330
17
100
AcDbEntity
  8
0
 62
7
100
AcDbText
 10
3.9749999999999996
 20
20.732499999999998
 30
0.0
 40
0.01
  1

  7
WD
 11
3.9749999999999996
 21
20.732499999999998
 31
0.0
100
AcDbAttribute
  2
X4LINK
 70
1
  0
ATTRIB
  5
18B
330
17
100
AcDbEntity
  8
0
 62
7
100
AcDbText
 10
4.240625
 20
20.732499999999998
 30
0.0
 40
0.01
  1

  7
WD
 11
4.240625
 21
20.732499999999998
 31
0.0
100
AcDbAttribute
  2
X1LINK
 70
1
  0
ATTRIB
  5
18C
330
17
100
AcDbEntity
  8
0
  6
Continuous
100
AcDbText
 10
4.00151636756395
 20
20.624440348433865
 30
0.0
 40
0.01
  1

  7
WD
 72
1
 11
4.00151636756395
 21
20.624440348433865
 31
0.0
100
AcDbAttribute
  2
ASSYCODE
 70
9
  0
ATTRIB
  5
18D
330
17
100
AcDbEntity
  8
0
100
AcDbText
 10
4.258191437973069
 20
20.671875000000046
 30
0.0
 40
0.109375
  1

  7
WD
 41
0.9
 11
4.258191437973069
 21
20.671875000000046
 31
0.0
100
AcDbAttribute
  2
TAG1
 70
1
  0
ATTRIB
  5
18E
330
17
100
AcDbEntity
  8
0
100
AcDbText
 10
4.38125
 20
20.810624999999998
 30
0.0
 40
0.0625
  1

  7
WD
 41
0.7
 11
4.38125
 21
20.810624999999998
 31
0.0
100
AcDbAttribute
  2
LOC
 70
1
  0
ATTRIB
  5
18F
330
17
100
AcDbEntity
  8
0
  6
Continuous
100
AcDbText
 10
4.045029620844345
 20
20.93912661600492
 30
0.0
 40
0.0625
  1

  7
WD
 72
2
 11
4.045029620844345
 21
20.93912661600492
 31
0.0
100
AcDbAttribute
  2
TERM01
 70
9
  0
ATTRIB
  5
190
330
17
100
AcDbEntity
  8
0
  6
Continuous
100
AcDbText
 10
4.059298778392005
 20
20.456552969349
 30
0.0
 40
0.0625
  1

  7
WD
 72
2
 11
4.059298778392005
 21
20.519052969349
 31
0.0
100
AcDbAttribute
  2
TERM02
 70
9
 74
3
  0
ATTRIB
  5
191
330
17
100
AcDbEntity
  8
0
 62
7
100
AcDbText
 10
4.1
 20
20.919999999999998
 30
0.0
 40
0.0109375
  1

  7
WD
 11
4.1
 21
20.919999999999998
 31
0.0
100
AcDbAttribute
  2
X2TERM01
 70
1
  0
ATTRIB
  5
192
330
17
100
AcDbEntity
  8
0
 62
7
100
AcDbText
 10
4.1
 20
20.544999999999998
 30
0.0
 40
0.0109375
  1

  7
WD
 11
4.1
 21
20.544999999999998
 31
0.0
100
AcDbAttribute
  2
X8TERM02
 70
1
  0
ATTRIB
  5
193
330
17
100
AcDbEntity
  8
0
100
AcDbText
 10
4.003716414340328
 20
20.696040457527662
 30
0.0
 40
0.01
  1

  7
WD
 72
2
 11
4.020383081006995
 21
20.696040457527662
 31
0.0
100
AcDbAttribute
  2
FAMILY
 70
9
  0
ATTRIB
  5
194
330
17
100
AcDbEntity
  8
0
  6
Continuous
100
AcDbText
 10
4.020383081006995
 20
20.659373790860997
 30
0.0
 40
0.01
  1

  7
WD
 72
2
 11
4.020383081006995
 21
20.659373790860997
 31
0.0
100
AcDbAttribute
  2
CAT
 70
9
  0
ATTRIB
  5
195
330
17
100
AcDbEntity
  8
0
  6
Continuous
100
AcDbText
 10
4.020383081006995
 20
20.644373790860996
 30
0.0
 40
0.01
  1

  7
WD
 72
2
 11
4.020383081006995
 21
20.644373790860996
 31
0.0
100
AcDbAttribute
  2
MFG
 70
9
  0
ATTRIB
  5
196
330
17
100
AcDbEntity
  8
0
100
AcDbText
 10
4.239999999999999
 20
20.702499999999997
 30
0.0
 40
0.09375
  1
6A
 50
90.0
  7
WD
 41
0.7
 72
1
 11
4.239999999999999
 21
20.702499999999997
 31
0.0
100
AcDbAttribute
  2
RATING1
 70
0
 74
2
  0
SEQEND
  5
185
330
184
100
AcDbEntity
  8
SLD_SYMS
  0
INSERT
  5
197
330
17
100
AcDbEntity
  8
SLD_SYMS
100
AcDbBlockReference
 66
1
  2
VXF1T1_1-
 10
4.1
 20
20.1325
 30
0.0
  0
ATTRIB
  5
199
330
17
100
AcDbEntity
  8
0
100
AcDbText
 10
4.303125
 20
20.41375
 30
0.0
 40
0.125
  1

  7
WD
 41
0.85
 11
4.303125
 21
20.41375
 31
0.0
100
AcDbAttribute
  2
INST
 70
1
  0
ATTRIB
  5
19A
330
17
100
AcDbEntity
  8
0
  6
Continuous
100
AcDbText
 10
3.8842203643816076
 20
20.041975164162785
 30
0.0
 40
0.01
  1

  7
WD
 72
1
 11
3.8842203643816076
 21
20.041975164162785
 31
0.0
100
AcDbAttribute
  2
ASSYCODE
 70
9
  0
ATTRIB
  5
19B
330
17
100
AcDbEntity
  8
0
100
AcDbText
 10
3.8187499999999996
 20
20.16375
 30
0.0
 40
0.125
  1

  7
WD
 41
0.85
 72
2
 11
3.8187499999999996
 21
20.16375
 31
0.0
100
AcDbAttribute
  2
RATING1
 70
1
  0
ATTRIB
  5
19C
330
17
100
AcDbEntity
  8
0
100
AcDbText
 10
4.303125
 20
19.72625
 30
0.0
 40
0.125
  1

  7
WD
 41
0.85
 11
4.303125
 21
19.72625
 31
0.0
100
AcDbAttribute
  2
DESC2
 70
1
  0
ATTRIB
  5
19D
330
17
100
AcDbEntity
  8
0
100
AcDbText
 10
4.303125
 20
19.898125
 30
0.0
 40
0.125
  1

  7
WD
 41
0.85
 11
4.303125
 21
19.898125
 31
0.0
100
AcDbAttribute
  2
DESC1
 70
1
  0
ATTRIB
  5
19E
330
17
100
AcDbEntity
  8
0
100
AcDbText
 10
4.305066437973069
 20
20.07187500000005
 30
0.0
 40
0.125
  1

  7
WD
 41
0.85
 11
4.305066437973069
 21
20.07187500000005
 31
0.0
100
AcDbAttribute
  2
TAG1
 70
1
  0
ATTRIB
  5
19F
330
17
100
AcDbEntity
  8
0
100
AcDbText
 10
4.303125
 20
20.241875
 30
0.0
 40
0.125
  1

  7
WD
 41
0.85
 11
4.303125
 21
20.241875
 31
0.0
100
AcDbAttribute
  2
LOC
 70
1
  0
ATTRIB
  5
1A0
330
17
100
AcDbEntity
  8
0
  6
Continuous
100
AcDbText
 10
3.8953830810069947
 20
20.059998790861
 30
0.0
 40
0.01
  1

  7
WD
 72
2
 11
3.8953830810069947
 21
20.059998790861
 31
0.0
100
AcDbAttribute
  2
MFG
 70
9
  0
ATTRIB
  5
1A1
330
17
100
AcDbEntity
  8
0
  6
Continuous
100
AcDbText
 10
3.8953830810069947
 20
20.074998790861
 30
0.0
 40
0.01
  1

  7
WD
 72
2
 11
3.8953830810069947
 21
20.074998790861
 31
0.0
100
AcDbAttribute
  2
CAT
 70
9
  0
ATTRIB
  5
1A2
330
17
100
AcDbEntity
  8
0
100
AcDbText
 10
3.8787164143403277
 20
20.111665457527664
 30
0.0
 40
0.01
  1

  7
WD
 72
2
 11
3.8953830810069947
 21
20.111665457527664
 31
0.0
100
AcDbAttribute
  2
FAMILY
 70
9
  0
ATTRIB
  5
1A3
330
17
100
AcDbEntity
  8
0
 62
7
100
AcDbText
 10
4.1
 20
19.97625
 30
0.0
 40
0.0125
  1

  7
WD
 11
4.1
 21
19.97625
 31
0.0
100
AcDbAttribute
  2
X8TERM02
 70
1
  0
ATTRIB
  5
1A4
330
17
100
AcDbEntity
  8
0
 62
7
100
AcDbText
 10
4.1
 20
20.28875
 30
0.0
 40
0.0125
  1

  7
WD
 11
4.1
 21
20.28875
 31
0.0
100
AcDbAttribute
  2
X2TERM01
 70
1
  0
ATTRIB
  5
1A5
330
17
100
AcDbEntity
  8
0
  6
Continuous
100
AcDbText
 10
4.059298778392005
 20
19.794052969349003
 30
0.0
 40
0.125
  1

  7
WD
 41
0.85
 72
2
 11
4.059298778392005
 21
19.919052969349003
 31
0.0
100
AcDbAttribute
  2
TERM02
 70
9
 74
3
  0
ATTRIB
  5
1A6
330
17
100
AcDbEntity
  8
0
  6
Continuous
100
AcDbText
 10
4.045029620844345
 20
20.370376616004922
 30
0.0
 40
0.125
  1

  7
WD
 41
0.85
 72
2
 11
4.045029620844345
 21
20.370376616004922
 31
0.0
100
AcDbAttribute
  2
TERM01
 70
9
  0
ATTRIB
  5
1A7
330
17
100
AcDbEntity
  8
0
100
AcDbText
 10
3.8953830810069947
 20
19.994888117239444
 30
0.0
 40
0.01
  1

  7
WD
 72
2
 11
3.908716414340328
 21
19.994888117239444
 31
0.0
100
AcDbAttribute
  2
WDTYPE
 70
9
  0
ATTRIB
  5
1A8
330
17
100
AcDbEntity
  8
0
100
AcDbText
 10
4.303125
 20
19.554375
 30
0.0
 40
0.125
  1

  7
WD
 41
0.85
 11
4.303125
 21
19.554375
 31
0.0
100
AcDbAttribute
  2
DESC3
 70
1
  0
ATTRIB
  5
1A9
330
17
100
AcDbEntity
  8
0
100
AcDbText
 10
3.908716414340328
 20
19.979263117239444
 30
0.0
 40
0.01
  1

  7
WD
 72
2
 11
3.908716414340328
 21
19.979263117239444
 31
0.0
100
AcDbAttribute
  2
WDBLKNAM
 70
9
  0
ATTRIB
  5
1AA
330
17
100
AcDbEntity
  8
0
100
AcDbText
 10
3.8187499999999996
 20
19.991875
 30
0.0
 40
0.125
  1

  7
WD
 41
0.85
 72
2
 11
3.8187499999999996
 21
19.991875
 31
0.0
100
AcDbAttribute
  2
RATING2
 70
1
  0
SEQEND
  5
198
330
197
100
AcDbEntity
  8
SLD_SYMS
  0
INSERT
  5
1AB
330
17
100
AcDbEntity
  8
SLD_SYMS
100
AcDbBlockReference
 66
1
  2
HGND2
 10
4.05
 20
19.5825
 30
0.0
  0
ATTRIB
  5
1AD
330
17
100
AcDbEntity
  8
0
100
AcDbText
 10
4.05
 20
19.5825
 30
0.0
 40
0.01
  1

  7
WD
 11
4.05
 21
19.5825
 31
0.0
100
AcDbAttribute
  2
X4TERM01
 70
1
  0
SEQEND
  5
1AC
330
1AB
100
AcDbEntity
  8
SLD_SYMS
  0
MTEXT
  5
1AE
330
17
100
AcDbEntity
  8
SLD_TEXT
100
AcDbMText
 10
4.37
 20
20.2625
 30
0.0
 40
0.1
 41
0.0
 71
1
  1
PT 34.5kV/120V\P500VA (3)
  0
LINE
  5
1AF
330
17
100
AcDbEntity
  8
SLD_WIRE
100
AcDbLine
 10
2.5
 20
19.822499999999998
 30
0.0
 11
0.7
 21
19.822499999999998
 31
0.0
  0
LINE
  5
1B0
330
17
100
AcDbEntity
  8
SLD_WIRE
100
AcDbLine
 10
0.7
 20
19.822499999999998
 30
0.0
 11
0.7
 21
18.1225
 31
0.0
  0
INSERT
  5
1B1
330
17
100
AcDbEntity
  8
SLD_SYMS
100
AcDbBlockReference
 66
1
  2
VFU1
 10
0.7
 20
19.272499999999997
 30
0.0
  0
ATTRIB
  5
1B3
330
17
100
AcDbEntity
  8
0
100
AcDbText
 10
0.9812499989574033
 20
18.897500000708657
 30
0.0
 40
0.0625
  1

  7
WD
 41
0.7
 11
0.9812499989574033
 21
18.897500000708657
 31
0.0
100
AcDbAttribute
  2
DESC3
 70
1
  0
ATTRIB
  5
1B4
330
17
100
AcDbEntity
  8
0
100
AcDbText
 10
0.9812499989574033
 20
18.982084657032296
 30
0.0
 40
0.0625
  1

  7
WD
 41
0.7
 11
0.9812499989574033
 21
18.982084657032296
 31
0.0
100
AcDbAttribute
  2
DESC2
 70
1
  0
ATTRIB
  5
1B5
330
17
100
AcDbEntity
  8
0
100
AcDbText
 10
0.9812499989574033
 20
19.076244936220032
 30
0.0
 40
0.0625
  1

  7
WD
 41
0.7
 11
0.9812499989574033
 21
19.076244936220032
 31
0.0
100
AcDbAttribute
  2
DESC1
 70
1
  0
ATTRIB
  5
1B6
330
17
100
AcDbEntity
  8
0
100
AcDbText
 10
0.98125
 20
19.435425
 30
0.0
 40
0.0625
  1

  7
WD
 41
0.7
 11
0.98125
 21
19.435425
 31
0.0
100
AcDbAttribute
  2
INST
 70
1
  0
ATTRIB
  5
1B7
330
17
100
AcDbEntity
  8
0
 62
7
100
AcDbText
 10
0.575
 20
19.272499999999997
 30
0.0
 40
0.01
  1

  7
WD
 11
0.575
 21
19.272499999999997
 31
0.0
100
AcDbAttribute
  2
X4LINK
 70
1
  0
ATTRIB
  5
1B8
330
17
100
AcDbEntity
  8
0
 62
7
100
AcDbText
 10
0.840625
 20
19.272499999999997
 30
0.0
 40
0.01
  1

  7
WD
 11
0.840625
 21
19.272499999999997
 31
0.0
100
AcDbAttribute
  2
X1LINK
 70
1
  0
ATTRIB
  5
1B9
330
17
100
AcDbEntity
  8
0
  6
Continuous
100
AcDbText
 10
0.6015163675639494
 20
19.164440348433864
 30
0.0
 40
0.01
  1

  7
WD
 72
1
 11
0.6015163675639494
 21
19.164440348433864
 31
0.0
100
AcDbAttribute
  2
ASSYCODE
 70
9
  0
ATTRIB
  5
1BA
330
17
100
AcDbEntity
  8
0
100
AcDbText
 10
0.8581914379730697
 20
19.211875000000045
 30
0.0
 40
0.109375
  1

  7
WD
 41
0.9
 11
0.8581914379730697
 21
19.211875000000045
 31
0.0
100
AcDbAttribute
  2
TAG1
 70
1
  0
ATTRIB
  5
1BB
330
17
100
AcDbEntity
  8
0
100
AcDbText
 10
0.98125
 20
19.350624999999997
 30
0.0
 40
0.0625
  1

  7
WD
 41
0.7
 11
0.98125
 21
19.350624999999997
 31
0.0
100
AcDbAttribute
  2
LOC
 70
1
  0
ATTRIB
  5
1BC
330
17
100
AcDbEntity
  8
0
  6
Continuous
100
AcDbText
 10
0.6450296208443455
 20
19.47912661600492
 30
0.0
 40
0.0625
  1

  7
WD
 72
2
 11
0.6450296208443455
 21
19.47912661600492
 31
0.0
100
AcDbAttribute
  2
TERM01
 70
9
  0
ATTRIB
  5
1BD
330
17
100
AcDbEntity
  8
0
  6
Continuous
100
AcDbText
 10
0.6592987783920053
 20
18.996552969349
 30
0.0
 40
0.0625
  1

  7
WD
 72
2
 11
0.6592987783920053
 21
19.059052969349
 31
0.0
100
AcDbAttribute
  2
TERM02
 70
9
 74
3
  0
ATTRIB
  5
1BE
330
17
100
AcDbEntity
  8
0
 62
7
100
AcDbText
 10
0.7
 20
19.459999999999997
 30
0.0
 40
0.0109375
  1

  7
WD
 11
0.7
 21
19.459999999999997
 31
0.0
100
AcDbAttribute
  2
X2TERM01
 70
1
  0
ATTRIB
  5
1BF
330
17
100
AcDbEntity
  8
0
 62
7
100
AcDbText
 10
0.7
 20
19.084999999999997
 30
0.0
 40
0.0109375
  1

  7
WD
 11
0.7
 21
19.084999999999997
 31
0.0
100
AcDbAttribute
  2
X8TERM02
 70
1
  0
ATTRIB
  5
1C0
330
17
100
AcDbEntity
  8
0
100
AcDbText
 10
0.6037164143403282
 20
19.23604045752766
 30
0.0
 40
0.01
  1

  7
WD
 72
2
 11
0.6203830810069948
 21
19.23604045752766
 31
0.0
100
AcDbAttribute
  2
FAMILY
 70
9
  0
ATTRIB
  5
1C1
330
17
100
AcDbEntity
  8
0
  6
Continuous
100
AcDbText
 10
0.6203830810069948
 20
19.199373790860996
 30
0.0
 40
0.01
  1

  7
WD
 72
2
 11
0.6203830810069948
 21
19.199373790860996
 31
0.0
100
AcDbAttribute
  2
CAT
 70
9
  0
ATTRIB
  5
1C2
330
17
100
AcDbEntity
  8
0
  6
Continuous
100
AcDbText
 10
0.6203830810069948
 20
19.184373790860995
 30
0.0
 40
0.01
  1

  7
WD
 72
2
 11
0.6203830810069948
 21
19.184373790860995
 31
0.0
100
AcDbAttribute
  2
MFG
 70
9
  0
ATTRIB
  5
1C3
330
17
100
AcDbEntity
  8
0
100
AcDbText
 10
0.84
 20
19.242499999999996
 30
0.0
 40
0.09375
  1
2A
 50
90.0
  7
WD
 41
0.7
 72
1
 11
0.84
 21
19.242499999999996
 31
0.0
100
AcDbAttribute
  2
RATING1
 70
0
 74
2
  0
SEQEND
  5
1B2
330
1B1
100
AcDbEntity
  8
SLD_SYMS
  0
INSERT
  5
1C4
330
17
100
AcDbEntity
  8
SLD_SYMS
100
AcDbBlockReference
 66
1
  2
VXF1T1_1-
 10
0.7
 20
18.6725
 30
0.0
  0
ATTRIB
  5
1C6
330
17
100
AcDbEntity
  8
0
100
AcDbText
 10
0.903125
 20
18.95375
 30
0.0
 40
0.125
  1

  7
WD
 41
0.85
 11
0.903125
 21
18.95375
 31
0.0
100
AcDbAttribute
  2
INST
 70
1
  0
ATTRIB
  5
1C7
330
17
100
AcDbEntity
  8
0
  6
Continuous
100
AcDbText
 10
0.48422036438160787
 20
18.581975164162785
 30
0.0
 40
0.01
  1

  7
WD
 72
1
 11
0.48422036438160787
 21
18.581975164162785
 31
0.0
100
AcDbAttribute
  2
ASSYCODE
 70
9
  0
ATTRIB
  5
1C8
330
17
100
AcDbEntity
  8
0
100
AcDbText
 10
0.41874999999999996
 20
18.70375
 30
0.0
 40
0.125
  1

  7
WD
 41
0.85
 72
2
 11
0.41874999999999996
 21
18.70375
 31
0.0
100
AcDbAttribute
  2
RATING1
 70
1
  0
ATTRIB
  5
1C9
330
17
100
AcDbEntity
  8
0
100
AcDbText
 10
0.903125
 20
18.26625
 30
0.0
 40
0.125
  1

  7
WD
 41
0.85
 11
0.903125
 21
18.26625
 31
0.0
100
AcDbAttribute
  2
DESC2
 70
1
  0
ATTRIB
  5
1CA
330
17
100
AcDbEntity
  8
0
100
AcDbText
 10
0.903125
 20
18.438125
 30
0.0
 40
0.125
  1

  7
WD
 41
0.85
 11
0.903125
 21
18.438125
 31
0.0
100
AcDbAttribute
  2
DESC1
 70
1
  0
ATTRIB
  5
1CB
330
17
100
AcDbEntity
  8
0
100
AcDbText
 10
0.9050664379730697
 20
18.611875000000047
 30
0.0
 40
0.125
  1

  7
WD
 41
0.85
 11
0.9050664379730697
 21
18.611875000000047
 31
0.0
100
AcDbAttribute
  2
TAG1
 70
1
  0
ATTRIB
  5
1CC
330
17
100
AcDbEntity
  8
0
100
AcDbText
 10
0.903125
 20
18.781875
 30
0.0
 40
0.125
  1

  7
WD
 41
0.85
 11
0.903125
 21
18.781875
 31
0.0
100
AcDbAttribute
  2
LOC
 70
1
  0
ATTRIB
  5
1CD
330
17
100
AcDbEntity
  8
0
  6
Continuous
100
AcDbText
 10
0.49538308100699485
 20
18.599998790860997
 30
0.0
 40
0.01
  1

  7
WD
 72
2
 11
0.49538308100699485
 21
18.599998790860997
 31
0.0
100
AcDbAttribute
  2
MFG
 70
9
  0
ATTRIB
  5
1CE
330
17
100
AcDbEntity
  8
0
  6
Continuous
100
AcDbText
 10
0.49538308100699485
 20
18.614998790860998
 30
0.0
 40
0.01
  1

  7
WD
 72
2
 11
0.49538308100699485
 21
18.614998790860998
 31
0.0
100
AcDbAttribute
  2
CAT
 70
9
  0
ATTRIB
  5
1CF
330
17
100
AcDbEntity
  8
0
100
AcDbText
 10
0.4787164143403282
 20
18.651665457527663
 30
0.0
 40
0.01
  1

  7
WD
 72
2
 11
0.49538308100699485
 21
18.651665457527663
 31
0.0
100
AcDbAttribute
  2
FAMILY
 70
9
  0
ATTRIB
  5
1D0
330
17
100
AcDbEntity
  8
0
 62
7
100
AcDbText
 10
0.7
 20
18.51625
 30
0.0
 40
0.0125
  1

  7
WD
 11
0.7
 21
18.51625
 31
0.0
100
AcDbAttribute
  2
X8TERM02
 70
1
  0
ATTRIB
  5
1D1
330
17
100
AcDbEntity
  8
0
 62
7
100
AcDbText
 10
0.7
 20
18.82875
 30
0.0
 40
0.0125
  1

  7
WD
 11
0.7
 21
18.82875
 31
0.0
100
AcDbAttribute
  2
X2TERM01
 70
1
  0
ATTRIB
  5
1D2
330
17
100
AcDbEntity
  8
0
  6
Continuous
100
AcDbText
 10
0.6592987783920052
 20
18.334052969349003
 30
0.0
 40
0.125
  1

  7
WD
 41
0.85
 72
2
 11
0.6592987783920052
 21
18.459052969349003
 31
0.0
100
AcDbAttribute
  2
TERM02
 70
9
 74
3
  0
ATTRIB
  5
1D3
330
17
100
AcDbEntity
  8
0
  6
Continuous
100
AcDbText
 10
0.6450296208443455
 20
18.91037661600492
 30
0.0
 40
0.125
  1

  7
WD
 41
0.85
 72
2
 11
0.6450296208443455
 21
18.91037661600492
 31
0.0
100
AcDbAttribute
  2
TERM01
 70
9
  0
ATTRIB
  5
1D4
330
17
100
AcDbEntity
  8
0
100
AcDbText
 10
0.49538308100699485
 20
18.534888117239444
 30
0.0
 40
0.01
  1

  7
WD
 72
2
 11
0.5087164143403282
 21
18.534888117239444
 31
0.0
100
AcDbAttribute
  2
WDTYPE
 70
9
  0
ATTRIB
  5
1D5
330
17
100
AcDbEntity
  8
0
100
AcDbText
 10
0.903125
 20
18.094375
 30
0.0
 40
0.125
  1

  7
WD
 41
0.85
 11
0.903125
 21
18.094375
 31
0.0
100
AcDbAttribute
  2
DESC3
 70
1
  0
ATTRIB
  5
1D6
330
17
100
AcDbEntity
  8
0
100
AcDbText
 10
0.5087164143403282
 20
18.519263117239444
 30
0.0
 40
0.01
  1

  7
WD
 72
2
 11
0.5087164143403282
 21
18.519263117239444
 31
0.0
100
AcDbAttribute
  2
WDBLKNAM
 70
9
  0
ATTRIB
  5
1D7
330
17
100
AcDbEntity
  8
0
100
AcDbText
 10
0.41874999999999996
 20
18.531875
 30
0.0
 40
0.125
  1

  7
WD
 41
0.85
 72
2
 11
0.41874999999999996
 21
18.531875
 31
0.0
100
AcDbAttribute
  2
RATING2
 70
1
  0
SEQEND
  5
1C5
330
1C4
100
AcDbEntity
  8
SLD_SYMS
  0
INSERT
  5
1D8
330
17
100
AcDbEntity
  8
SLD_SYMS
100
AcDbBlockReference
 66
1
  2
HGND2
 10
0.6499999999999999
 20
18.1225
 30
0.0
  0
ATTRIB
  5
1DA
330
17
100
AcDbEntity
  8
0
100
AcDbText
 10
0.6499999999999999
 20
18.1225
 30
0.0
 40
0.01
  1

  7
WD
 11
0.6499999999999999
 21
18.1225
 31
0.0
100
AcDbAttribute
  2
X4TERM01
 70
1
  0
SEQEND
  5
1D9
330
1D8
100
AcDbEntity
  8
SLD_SYMS
  0
MTEXT
  5
1DB
330
17
100
AcDbEntity
  8
SLD_TEXT
100
AcDbMText
 10
0.1499999999999999
 20
20.2425
 30
0.0
 40
0.1
 41
0.0
 71
1
  1
CPT 34.5kV/120V\P2500VA FUSED
  0
INSERT
  5
1DC
330
17
100
AcDbEntity
  8
SLD_SYMS
100
AcDbBlockReference
 66
1
  2
DEVICE_BUBBLE
 10
3.55
 20
18.211249999999996
 30
0.0
  0
ATTRIB
  5
1DE
330
17
100
AcDbEntity
  8
0
100
AcDbText
 10
3.3784679101079744
 20
18.11220151579089
 30
0.0
 40
0.2
  1
51
  7
OpenSans
 11
3.3784679101079744
 21
18.11220151579089
 31
0.0
100
AcDbAttribute
  2
DB
 70
0
280
1
  0
SEQEND
  5
1DD
330
1DC
100
AcDbEntity
  8
SLD_SYMS
  0
LINE
  5
1DF
330
17
100
AcDbEntity
  8
SLD_CONTROL
100
AcDbLine
 10
2.74
 20
18.211249999999996
 30
0.0
 11
3.3329999999999997
 21
18.211249999999996
 31
0.0
  0
LWPOLYLINE
  5
1E0
330
17
100
AcDbEntity
  8
SLD_SYMS
100
AcDbPolyline
 90
4
 70
1
 10
3.2199999999999998
 20
17.341249999999995
 10
3.8
 20
17.341249999999995
 10
3.8
 20
17.001249999999995
 10
3.2199999999999998
 20
17.001249999999995
  0
MTEXT
  5
1E1
330
17
100
AcDbEntity
  8
SLD_TEXT
100
AcDbMText
 10
3.51
 20
17.241249999999997
 30
0.0
 40
0.085
 41
0.0
 71
1
  1
\pxqc;FT-1
  0
CIRCLE
  5
1E2
330
17
100
AcDbEntity
  8
SLD_SYMS
100
AcDbCircle
 10
1.35
 20
13.509999999999998
 30
0.0
 40
0.135
  0
MTEXT
  5
1E3
330
17
100
AcDbEntity
  8
SLD_TEXT
100
AcDbMText
 10
1.35
 20
13.609999999999998
 30
0.0
 40
0.095
 41
0.0
 71
1
  1
\pxqc;86
  0
LINE
  5
1E4
330
17
100
AcDbEntity
  8
SLD_CONTROL
100
AcDbLine
 10
1.485
 20
13.509999999999998
 30
0.0
 11
2.5
 21
13.509999999999998
 31
0.0
  0
MTEXT
  5
1E5
330
17
100
AcDbEntity
  8
SLD_TEXT
100
AcDbMText
 10
2.5
 20
24.4
 30
0.0
 40
0.18
 41
0.0
 71
1
  1
\pxqc;UNIT 1
  0
MTEXT
  5
1E6
330
17
100
AcDbEntity
  8
SLD_TEXT
100
AcDbMText
 10
0.20000000000000018
 20
15.3
 30
0.0
 40
0.13
 41
0.0
 71
1
  1
52-M1\P38kV\P1250A\P31.5kA
  0
MTEXT
  5
1E7
330
17
100
AcDbEntity
  8
SLD_TEXT
100
AcDbMText
 10
3.95
 20
16.92
 30
0.0
 40
0.11
 41
0.0
 71
1
  1
SEL-751\PFEEDER\PPROTECTION\PRELAY
  0
MTEXT
  5
1E8
330
17
100
AcDbEntity
  8
SLD_TEXT
100
AcDbMText
 10
2.5
 20
10.8
 30
0.0
 40
0.13
 41
0.0
 71
1
  1
\pxqc;FEEDER
  0
ENDSEC
  0
SECTION
  2
OBJECTS
  0
DICTIONARY
  5
A
330
0
100
AcDbDictionary
281
1
  3
ACAD_COLOR
350
B
  3
ACAD_GROUP
350
C
  3
ACAD_LAYOUT
350
D
  3
ACAD_MATERIAL
350
E
  3
ACAD_MLEADERSTYLE
350
F
  3
ACAD_MLINESTYLE
350
10
  3
ACAD_PLOTSETTINGS
350
11
  3
ACAD_PLOTSTYLENAME
350
12
  3
ACAD_SCALELIST
350
14
  3
ACAD_TABLESTYLE
350
15
  3
ACAD_VISUALSTYLE
350
16
  3
EZDXF_META
350
2D
  0
DICTIONARY
  5
B
330
A
100
AcDbDictionary
281
1
  0
DICTIONARY
  5
C
330
A
100
AcDbDictionary
281
1
  0
DICTIONARY
  5
D
330
A
100
AcDbDictionary
281
1
  3
Model
350
1A
  3
Layout1
350
1E
  0
DICTIONARY
  5
E
330
A
100
AcDbDictionary
281
1
  3
ByBlock
350
1F
  3
ByLayer
350
20
  3
Global
350
21
  0
DICTIONARY
  5
F
330
A
100
AcDbDictionary
281
1
  3
Standard
350
2C
  0
DICTIONARY
  5
10
330
A
100
AcDbDictionary
281
1
  3
Standard
350
22
  0
DICTIONARY
  5
11
330
A
100
AcDbDictionary
281
1
  0
ACDBDICTIONARYWDFLT
  5
12
330
A
100
AcDbDictionary
281
1
  3
Normal
350
13
100
AcDbDictionaryWithDefault
340
13
  0
ACDBPLACEHOLDER
  5
13
330
12
  0
DICTIONARY
  5
14
330
A
100
AcDbDictionary
281
1
  0
DICTIONARY
  5
15
330
A
100
AcDbDictionary
281
1
  0
DICTIONARY
  5
16
330
A
100
AcDbDictionary
281
1
  3
2dWireframe
350
5A
  3
Basic
350
5B
  3
Brighten
350
5C
  3
ColorChange
350
5D
  3
Conceptual
350
5E
  3
Dim
350
5F
  3
EdgeColorOff
350
60
  3
Facepattern
350
61
  3
Flat
350
62
  3
FlatWithEdges
350
63
  3
Gouraud
350
64
  3
GouraudWithEdges
350
65
  3
Hidden
350
66
  3
JitterOff
350
67
  3
Linepattern
350
68
  3
Modeling
350
69
  3
OverhangOff
350
6A
  3
Realistic
350
6B
  3
Shaded
350
6C
  3
Shaded with edges
350
6D
  3
Shades of Gray
350
6E
  3
Sketchy
350
6F
  3
Thicken
350
70
  3
Wireframe
350
71
  3
X-Ray
350
72
  0
LAYOUT
  5
1A
330
D
100
AcDbPlotSettings
  1

  4
A3
  6

 40
7.5
 41
20.0
 42
7.5
 43
20.0
 44
420.0
 45
297.0
 46
0.0
 47
0.0
 48
0.0
 49
0.0
140
0.0
141
0.0
142
1.0
143
1.0
 70
1024
 72
1
 73
0
 74
5
  7

 75
16
 76
0
 77
2
 78
300
147
1.0
148
0.0
149
0.0
100
AcDbLayout
  1
Model
 70
1
 71
0
 10
0.0
 20
0.0
 11
420.0
 21
297.0
 12
0.0
 22
0.0
 32
0.0
 14
1e+20
 24
1e+20
 34
1e+20
 15
-1e+20
 25
-1e+20
 35
-1e+20
146
0.0
 13
0.0
 23
0.0
 33
0.0
 16
1.0
 26
0.0
 36
0.0
 17
0.0
 27
1.0
 37
0.0
 76
1
330
17
  0
LAYOUT
  5
1E
330
D
100
AcDbPlotSettings
  1

  4
A3
  6

 40
7.5
 41
20.0
 42
7.5
 43
20.0
 44
420.0
 45
297.0
 46
0.0
 47
0.0
 48
0.0
 49
0.0
140
0.0
141
0.0
142
1.0
143
1.0
 70
0
 72
1
 73
0
 74
5
  7

 75
16
 76
0
 77
2
 78
300
147
1.0
148
0.0
149
0.0
100
AcDbLayout
  1
Layout1
 70
1
 71
1
 10
0.0
 20
0.0
 11
420.0
 21
297.0
 12
0.0
 22
0.0
 32
0.0
 14
1e+20
 24
1e+20
 34
1e+20
 15
-1e+20
 25
-1e+20
 35
-1e+20
146
0.0
 13
0.0
 23
0.0
 33
0.0
 16
1.0
 26
0.0
 36
0.0
 17
0.0
 27
1.0
 37
0.0
 76
1
330
1B
  0
MATERIAL
  5
1F
102
{ACAD_REACTORS
330
E
102
}
330
E
100
AcDbMaterial
  1
ByBlock
  2

 70
0
 40
1.0
 71
1
 41
1.0
 91
-1023410177
 42
1.0
 72
1
  3

 73
1
 74
1
 75
1
 44
0.5
 73
0
 45
1.0
 46
1.0
 77
1
  4

 78
1
 79
1
170
1
 48
1.0
171
1
  6

172
1
173
1
174
1
140
1.0
141
1.0
175
1
  7

176
1
177
1
178
1
143
1.0
179
1
  8

270
1
271
1
272
1
145
1.0
146
1.0
273
1
  9

274
1
275
1
276
1
 42
1.0
 72
1
  3

 73
1
 74
1
 75
1
 94
63
  0
MATERIAL
  5
20
102
{ACAD_REACTORS
330
E
102
}
330
E
100
AcDbMaterial
  1
ByLayer
  2

 70
0
 40
1.0
 71
1
 41
1.0
 91
-1023410177
 42
1.0
 72
1
  3

 73
1
 74
1
 75
1
 44
0.5
 73
0
 45
1.0
 46
1.0
 77
1
  4

 78
1
 79
1
170
1
 48
1.0
171
1
  6

172
1
173
1
174
1
140
1.0
141
1.0
175
1
  7

176
1
177
1
178
1
143
1.0
179
1
  8

270
1
271
1
272
1
145
1.0
146
1.0
273
1
  9

274
1
275
1
276
1
 42
1.0
 72
1
  3

 73
1
 74
1
 75
1
 94
63
  0
MATERIAL
  5
21
102
{ACAD_REACTORS
330
E
102
}
330
E
100
AcDbMaterial
  1
Global
  2

 70
0
 40
1.0
 71
1
 41
1.0
 91
-1023410177
 42
1.0
 72
1
  3

 73
1
 74
1
 75
1
 44
0.5
 73
0
 45
1.0
 46
1.0
 77
1
  4

 78
1
 79
1
170
1
 48
1.0
171
1
  6

172
1
173
1
174
1
140
1.0
141
1.0
175
1
  7

176
1
177
1
178
1
143
1.0
179
1
  8

270
1
271
1
272
1
145
1.0
146
1.0
273
1
  9

274
1
275
1
276
1
 42
1.0
 72
1
  3

 73
1
 74
1
 75
1
 94
63
  0
MLINESTYLE
  5
22
102
{ACAD_REACTORS
330
10
102
}
330
10
100
AcDbMlineStyle
  2
Standard
 70
0
  3

 62
256
 51
90.0
 52
90.0
 71
2
 49
0.5
 62
256
  6
BYLAYER
 49
-0.5
 62
256
  6
BYLAYER
  0
MLEADERSTYLE
  5
2C
102
{ACAD_REACTORS
330
F
102
}
330
F
100
AcDbMLeaderStyle
179
2
170
2
171
1
172
0
 90
2
 40
0.0
 41
0.0
173
1
 91
-1056964608
 92
-2
290
1
 42
2.0
291
1
 43
8.0
  3
Standard
 44
4.0
300

342
29
174
1
175
1
176
0
178
1
 93
-1056964608
 45
4.0
292
0
297
0
 46
4.0
 94
-1056964608
 47
1.0
 49
1.0
140
1.0
294
1
141
0.0
177
0
142
1.0
295
0
296
0
143
3.75
271
0
272
9
273
9
  0
DICTIONARY
  5
2D
330
A
100
AcDbDictionary
280
1
281
1
  3
CREATED_BY_EZDXF
350
2E
  3
WRITTEN_BY_EZDXF
350
1EB
  0
DICTIONARYVAR
  5
2E
330
2D
100
DictionaryVariables
280
0
  1
1.4.4 @ 2026-08-07T22:06:01.034446+00:00
  0
VISUALSTYLE
  5
5A
102
{ACAD_REACTORS
330
16
102
}
330
16
100
AcDbVisualStyle
  2
2dWireframe
 70
4
177
3
291
0
 70
58
 90
2
176
1
 90
2
176
1
 90
0
176
1
 90
0
176
1
 40
0.6
176
1
 40
30.0
176
1
 62
7
420
16777215
176
1
 90
1
176
1
 90
4
176
1
 62
7
176
1
 62
257
176
1
 90
1
176
1
 90
1
176
1
 40
1.0
176
1
 90
8
176
1
 62
7
176
1
 40
1.0
176
1
 90
1
176
1
 90
6
176
1
 90
2
176
1
 62
7
176
1
 90
5
176
1
 90
0
176
1
 90
0
176
1
290
0
176
1
 90
1
176
1
 40
0.0
176
1
 90
0
176
1
290
1
176
1
290
1
176
1
290
0
176
1
290
0
176
1
290
0
176
1
290
0
176
1
290
0
176
1
290
0
176
1
290
0
176
1
 90
50
176
1
 40
0.0
176
1
 40
1.0
176
1
 90
0
176
1
 62
18
420
0
176
1
 90
50
176
1
 90
3
176
1
 62
5
420
255
176
1
290
0
176
1
 90
50
176
1
 90
50
176
1
 90
50
176
1
290
0
176
1
 90
50
176
1
 62
256
176
0
 40
1.0
176
0
 90
2
176
1
  1
strokes_ogs.tif
176
1
290
0
176
1
 40
1.0
176
1
 40
1.0
176
1
  0
VISUALSTYLE
  5
5B
102
{ACAD_REACTORS
330
16
102
}
330
16
100
AcDbVisualStyle
  2
Basic
 70
7
177
3
291
1
 70
58
 90
2
176
1
 90
2
176
1
 90
0
176
1
 90
1
176
1
 40
0.6
176
1
 40
30.0
176
1
 62
7
420
16777215
176
1
 90
1
176
1
 90
4
176
1
 62
7
176
1
 62
257
176
1
 90
1
176
1
 90
1
176
1
 40
1.0
176
1
 90
8
176
1
 62
7
176
1
 40
1.0
176
1
 90
1
176
1
 90
6
176
1
 90
2
176
1
 62
7
176
1
 90
5
176
1
 90
0
176
1
 90
0
176
1
290
0
176
1
 90
1
176
1
 40
0.0
176
1
 90
0
176
1
290
0
176
1
290
1
176
1
290
1
176
1
290
0
176
1
290
0
176
1
290
0
176
1
290
0
176
1
290
0
176
1
290
0
176
1
 90
50
176
1
 40
0.0
176
1
 40
1.0
176
1
 90
0
176
1
 62
18
420
0
176
1
 90
50
176
1
 90
3
176
1
 62
5
420
255
176
1
290
0
176
1
 90
50
176
1
 90
50
176
1
 90
50
176
1
290
0
176
1
 90
50
176
1
 62
256
176
0
 40
1.0
176
0
 90
2
176
1
  1
strokes_ogs.tif
176
1
290
0
176
1
 40
1.0
176
1
 40
1.0
176
1
  0
VISUALSTYLE
  5
5C
102
{ACAD_REACTORS
330
16
102
}
330
16
100
AcDbVisualStyle
  2
Brighten
 70
12
177
3
291
1
 70
58
 90
2
176
1
 90
2
176
1
 90
0
176
1
 90
2
176
1
 40
0.6
176
1
 40
30.0
176
1
 62
7
420
16777215
176
1
 90
1
176
1
 90
4
176
1
 62
7
176
1
 62
257
176
1
 90
1
176
1
 90
1
176
1
 40
1.0
176
1
 90
8
176
1
 62
7
176
1
 40
1.0
176
1
 90
1
176
1
 90
6
176
1
 90
2
176
1
 62
7
176
1
 90
5
176
1
 90
0
176
1
 90
0
176
1
290
0
176
1
 90
1
176
1
 40
0.0
176
1
 90
0
176
1
290
0
176
1
290
1
176
1
290
1
176
1
290
0
176
1
290
0
176
1
290
0
176
1
290
0
176
1
290
0
176
1
290
0
176
1
 90
50
176
1
 40
0.0
176
1
 40
1.0
176
1
 90
0
176
1
 62
18
420
0
176
1
 90
50
176
1
 90
3
176
1
 62
5
420
255
176
1
290
0
176
1
 90
50
176
1
 90
50
176
1
 90
50
176
1
290
0
176
1
 90
50
176
1
 62
256
176
0
 40
1.0
176
0
 90
2
176
1
  1
strokes_ogs.tif
176
1
290
0
176
1
 40
1.0
176
1
 40
1.0
176
1
  0
VISUALSTYLE
  5
5D
102
{ACAD_REACTORS
330
16
102
}
330
16
100
AcDbVisualStyle
  2
ColorChange
 70
16
177
3
291
1
 70
58
 90
2
176
1
 90
2
176
1
 90
0
176
1
 90
2
176
1
 40
0.6
176
1
 40
30.0
176
1
 62
7
420
16777215
176
1
 90
1
176
1
 90
4
176
1
 62
7
176
1
 62
257
176
1
 90
1
176
1
 90
1
176
1
 40
1.0
176
1
 90
8
176
1
 62
7
176
1
 40
1.0
176
1
 90
1
176
1
 90
6
176
1
 90
2
176
1
 62
7
176
1
 90
5
176
1
 90
0
176
1
 90
0
176
1
290
0
176
1
 90
1
176
1
 40
0.0
176
1
 90
0
176
1
290
0
176
1
290
1
176
1
290
1
176
1
290
0
176
1
290
0
176
1
290
0
176
1
290
0
176
1
290
0
176
1
290
0
176
1
 90
50
176
1
 40
0.0
176
1
 40
1.0
176
1
 90
0
176
1
 62
18
420
0
176
1
 90
50
176
1
 90
3
176
1
 62
5
420
255
176
1
290
0
176
1
 90
50
176
1
 90
50
176
1
 90
50
176
1
290
0
176
1
 90
50
176
1
 62
256
176
0
 40
1.0
176
0
 90
2
176
1
  1
strokes_ogs.tif
176
1
290
0
176
1
 40
1.0
176
1
 40
1.0
176
1
  0
VISUALSTYLE
  5
5E
102
{ACAD_REACTORS
330
16
102
}
330
16
100
AcDbVisualStyle
  2
Conceptual
 70
9
177
3
291
0
 70
58
 90
2
176
1
 90
2
176
1
 90
0
176
1
 90
3
176
1
 40
0.6
176
1
 40
30.0
176
1
 62
7
420
16777215
176
1
 90
1
176
1
 90
4
176
1
 62
7
176
1
 62
257
176
1
 90
1
176
1
 90
1
176
1
 40
1.0
176
1
 90
8
176
1
 62
7
176
1
 40
1.0
176
1
 90
1
176
1
 90
6
176
1
 90
2
176
1
 62
7
176
1
 90
5
176
1
 90
0
176
1
 90
0
176
1
290
0
176
1
 90
1
176
1
 40
0.0
176
1
 90
0
176
1
290
0
176
1
290
1
176
1
290
1
176
1
290
0
176
1
290
0
176
1
290
0
176
1
290
0
176
1
290
0
176
1
290
0
176
1
 90
50
176
1
 40
0.0
176
1
 40
1.0
176
1
 90
0
176
1
 62
18
420
0
176
1
 90
50
176
1
 90
3
176
1
 62
5
420
255
176
1
290
0
176
1
 90
50
176
1
 90
50
176
1
 90
50
176
1
290
0
176
1
 90
50
176
1
 62
256
176
0
 40
1.0
176
0
 90
2
176
1
  1
strokes_ogs.tif
176
1
290
0
176
1
 40
1.0
176
1
 40
1.0
176
1
  0
VISUALSTYLE
  5
5F
102
{ACAD_REACTORS
330
16
102
}
330
16
100
AcDbVisualStyle
  2
Dim
 70
11
177
3
291
1
 70
58
 90
2
176
1
 90
2
176
1
 90
0
176
1
 90
2
176
1
 40
0.6
176
1
 40
30.0
176
1
 62
7
420
16777215
176
1
 90
1
176
1
 90
4
176
1
 62
7
176
1
 62
257
176
1
 90
1
176
1
 90
1
176
1
 40
1.0
176
1
 90
8
176
1
 62
7
176
1
 40
1.0
176
1
 90
1
176
1
 90
6
176
1
 90
2
176
1
 62
7
176
1
 90
5
176
1
 90
0
176
1
 90
0
176
1
290
0
176
1
 90
1
176
1
 40
0.0
176
1
 90
0
176
1
290
0
176
1
290
1
176
1
290
1
176
1
290
0
176
1
290
0
176
1
290
0
176
1
290
0
176
1
290
0
176
1
290
0
176
1
 90
50
176
1
 40
0.0
176
1
 40
1.0
176
1
 90
0
176
1
 62
18
420
0
176
1
 90
50
176
1
 90
3
176
1
 62
5
420
255
176
1
290
0
176
1
 90
50
176
1
 90
50
176
1
 90
50
176
1
290
0
176
1
 90
50
176
1
 62
256
176
0
 40
1.0
176
0
 90
2
176
1
  1
strokes_ogs.tif
176
1
290
0
176
1
 40
1.0
176
1
 40
1.0
176
1
  0
VISUALSTYLE
  5
60
102
{ACAD_REACTORS
330
16
102
}
330
16
100
AcDbVisualStyle
  2
EdgeColorOff
 70
22
177
3
291
1
 70
58
 90
2
176
1
 90
2
176
1
 90
0
176
1
 90
2
176
1
 40
0.6
176
1
 40
30.0
176
1
 62
7
420
16777215
176
1
 90
1
176
1
 90
4
176
1
 62
7
176
1
 62
257
176
1
 90
1
176
1
 90
1
176
1
 40
1.0
176
1
 90
8
176
1
 62
7
176
1
 40
1.0
176
1
 90
1
176
1
 90
6
176
1
 90
2
176
1
 62
7
176
1
 90
5
176
1
 90
0
176
1
 90
0
176
1
290
0
176
1
 90
1
176
1
 40
0.0
176
1
 90
0
176
1
290
0
176
1
290
1
176
1
290
1
176
1
290
0
176
1
290
0
176
1
290
0
176
1
290
0
176
1
290
0
176
1
290
0
176
1
 90
50
176
1
 40
0.0
176
1
 40
1.0
176
1
 90
0
176
1
 62
18
420
0
176
1
 90
50
176
1
 90
3
176
1
 62
5
420
255
176
1
290
0
176
1
 90
50
176
1
 90
50
176
1
 90
50
176
1
290
0
176
1
 90
50
176
1
 62
256
176
0
 40
1.0
176
0
 90
2
176
1
  1
strokes_ogs.tif
176
1
290
0
176
1
 40
1.0
176
1
 40
1.0
176
1
  0
VISUALSTYLE
  5
61
102
{ACAD_REACTORS
330
16
102
}
330
16
100
AcDbVisualStyle
  2
Facepattern
 70
15
177
3
291
1
 70
58
 90
2
176
1
 90
2
176
1
 90
0
176
1
 90
2
176
1
 40
0.6
176
1
 40
30.0
176
1
 62
7
420
16777215
176
1
 90
1
176
1
 90
4
176
1
 62
7
176
1
 62
257
176
1
 90
1
176
1
 90
1
176
1
 40
1.0
176
1
 90
8
176
1
 62
7
176
1
 40
1.0
176
1
 90
1
176
1
 90
6
176
1
 90
2
176
1
 62
7
176
1
 90
5
176
1
 90
0
176
1
 90
0
176
1
290
0
176
1
 90
1
176
1
 40
0.0
176
1
 90
0
176
1
290
0
176
1
290
1
176
1
290
1
176
1
290
0
176
1
290
0
176
1
290
0
176
1
290
0
176
1
290
0
176
1
290
0
176
1
 90
50
176
1
 40
0.0
176
1
 40
1.0
176
1
 90
0
176
1
 62
18
420
0
176
1
 90
50
176
1
 90
3
176
1
 62
5
420
255
176
1
290
0
176
1
 90
50
176
1
 90
50
176
1
 90
50
176
1
290
0
176
1
 90
50
176
1
 62
256
176
0
 40
1.0
176
0
 90
2
176
1
  1
strokes_ogs.tif
176
1
290
0
176
1
 40
1.0
176
1
 40
1.0
176
1
  0
VISUALSTYLE
  5
62
102
{ACAD_REACTORS
330
16
102
}
330
16
100
AcDbVisualStyle
  2
Flat
 70
0
177
3
291
1
 70
58
 90
2
176
1
 90
2
176
1
 90
0
176
1
 90
2
176
1
 40
0.6
176
1
 40
30.0
176
1
 62
7
420
16777215
176
1
 90
1
176
1
 90
4
176
1
 62
7
176
1
 62
257
176
1
 90
1
176
1
 90
1
176
1
 40
1.0
176
1
 90
8
176
1
 62
7
176
1
 40
1.0
176
1
 90
1
176
1
 90
6
176
1
 90
2
176
1
 62
7
176
1
 90
5
176
1
 90
0
176
1
 90
0
176
1
290
0
176
1
 90
1
176
1
 40
0.0
176
1
 90
0
176
1
290
0
176
1
290
1
176
1
290
1
176
1
290
0
176
1
290
0
176
1
290
0
176
1
290
0
176
1
290
0
176
1
290
0
176
1
 90
50
176
1
 40
0.0
176
1
 40
1.0
176
1
 90
0
176
1
 62
18
420
0
176
1
 90
50
176
1
 90
3
176
1
 62
5
420
255
176
1
290
0
176
1
 90
50
176
1
 90
50
176
1
 90
50
176
1
290
0
176
1
 90
50
176
1
 62
256
176
0
 40
1.0
176
0
 90
2
176
1
  1
strokes_ogs.tif
176
1
290
0
176
1
 40
1.0
176
1
 40
1.0
176
1
  0
VISUALSTYLE
  5
63
102
{ACAD_REACTORS
330
16
102
}
330
16
100
AcDbVisualStyle
  2
FlatWithEdges
 70
1
177
3
291
1
 70
58
 90
2
176
1
 90
2
176
1
 90
0
176
1
 90
2
176
1
 40
0.6
176
1
 40
30.0
176
1
 62
7
420
16777215
176
1
 90
1
176
1
 90
4
176
1
 62
7
176
1
 62
257
176
1
 90
1
176
1
 90
1
176
1
 40
1.0
176
1
 90
8
176
1
 62
7
176
1
 40
1.0
176
1
 90
1
176
1
 90
6
176
1
 90
2
176
1
 62
7
176
1
 90
5
176
1
 90
0
176
1
 90
0
176
1
290
0
176
1
 90
1
176
1
 40
0.0
176
1
 90
0
176
1
290
0
176
1
290
1
176
1
290
1
176
1
290
0
176
1
290
0
176
1
290
0
176
1
290
0
176
1
290
0
176
1
290
0
176
1
 90
50
176
1
 40
0.0
176
1
 40
1.0
176
1
 90
0
176
1
 62
18
420
0
176
1
 90
50
176
1
 90
3
176
1
 62
5
420
255
176
1
290
0
176
1
 90
50
176
1
 90
50
176
1
 90
50
176
1
290
0
176
1
 90
50
176
1
 62
256
176
0
 40
1.0
176
0
 90
2
176
1
  1
strokes_ogs.tif
176
1
290
0
176
1
 40
1.0
176
1
 40
1.0
176
1
  0
VISUALSTYLE
  5
64
102
{ACAD_REACTORS
330
16
102
}
330
16
100
AcDbVisualStyle
  2
Gouraud
 70
2
177
3
291
1
 70
58
 90
2
176
1
 90
2
176
1
 90
0
176
1
 90
2
176
1
 40
0.6
176
1
 40
30.0
176
1
 62
7
420
16777215
176
1
 90
1
176
1
 90
4
176
1
 62
7
176
1
 62
257
176
1
 90
1
176
1
 90
1
176
1
 40
1.0
176
1
 90
8
176
1
 62
7
176
1
 40
1.0
176
1
 90
1
176
1
 90
6
176
1
 90
2
176
1
 62
7
176
1
 90
5
176
1
 90
0
176
1
 90
0
176
1
290
0
176
1
 90
1
176
1
 40
0.0
176
1
 90
0
176
1
290
0
176
1
290
1
176
1
290
1
176
1
290
0
176
1
290
0
176
1
290
0
176
1
290
0
176
1
290
0
176
1
290
0
176
1
 90
50
176
1
 40
0.0
176
1
 40
1.0
176
1
 90
0
176
1
 62
18
420
0
176
1
 90
50
176
1
 90
3
176
1
 62
5
420
255
176
1
290
0
176
1
 90
50
176
1
 90
50
176
1
 90
50
176
1
290
0
176
1
 90
50
176
1
 62
256
176
0
 40
1.0
176
0
 90
2
176
1
  1
strokes_ogs.tif
176
1
290
0
176
1
 40
1.0
176
1
 40
1.0
176
1
  0
VISUALSTYLE
  5
65
102
{ACAD_REACTORS
330
16
102
}
330
16
100
AcDbVisualStyle
  2
GouraudWithEdges
 70
3
177
3
291
1
 70
58
 90
2
176
1
 90
2
176
1
 90
0
176
1
 90
2
176
1
 40
0.6
176
1
 40
30.0
176
1
 62
7
420
16777215
176
1
 90
1
176
1
 90
4
176
1
 62
7
176
1
 62
257
176
1
 90
1
176
1
 90
1
176
1
 40
1.0
176
1
 90
8
176
1
 62
7
176
1
 40
1.0
176
1
 90
1
176
1
 90
6
176
1
 90
2
176
1
 62
7
176
1
 90
5
176
1
 90
0
176
1
 90
0
176
1
290
0
176
1
 90
1
176
1
 40
0.0
176
1
 90
0
176
1
290
0
176
1
290
1
176
1
290
1
176
1
290
0
176
1
290
0
176
1
290
0
176
1
290
0
176
1
290
0
176
1
290
0
176
1
 90
50
176
1
 40
0.0
176
1
 40
1.0
176
1
 90
0
176
1
 62
18
420
0
176
1
 90
50
176
1
 90
3
176
1
 62
5
420
255
176
1
290
0
176
1
 90
50
176
1
 90
50
176
1
 90
50
176
1
290
0
176
1
 90
50
176
1
 62
256
176
0
 40
1.0
176
0
 90
2
176
1
  1
strokes_ogs.tif
176
1
290
0
176
1
 40
1.0
176
1
 40
1.0
176
1
  0
VISUALSTYLE
  5
66
102
{ACAD_REACTORS
330
16
102
}
330
16
100
AcDbVisualStyle
  2
Hidden
 70
6
177
3
291
0
 70
58
 90
2
176
1
 90
2
176
1
 90
0
176
1
 90
1
176
1
 40
0.6
176
1
 40
30.0
176
1
 62
7
420
16777215
176
1
 90
1
176
1
 90
4
176
1
 62
7
176
1
 62
257
176
1
 90
1
176
1
 90
1
176
1
 40
1.0
176
1
 90
8
176
1
 62
7
176
1
 40
1.0
176
1
 90
1
176
1
 90
6
176
1
 90
2
176
1
 62
7
176
1
 90
5
176
1
 90
0
176
1
 90
0
176
1
290
0
176
1
 90
1
176
1
 40
0.0
176
1
 90
0
176
1
290
0
176
1
290
1
176
1
290
1
176
1
290
0
176
1
290
0
176
1
290
0
176
1
290
0
176
1
290
0
176
1
290
0
176
1
 90
50
176
1
 40
0.0
176
1
 40
1.0
176
1
 90
0
176
1
 62
18
420
0
176
1
 90
50
176
1
 90
3
176
1
 62
5
420
255
176
1
290
0
176
1
 90
50
176
1
 90
50
176
1
 90
50
176
1
290
0
176
1
 90
50
176
1
 62
256
176
0
 40
1.0
176
0
 90
2
176
1
  1
strokes_ogs.tif
176
1
290
0
176
1
 40
1.0
176
1
 40
1.0
176
1
  0
VISUALSTYLE
  5
67
102
{ACAD_REACTORS
330
16
102
}
330
16
100
AcDbVisualStyle
  2
JitterOff
 70
20
177
3
291
1
 70
58
 90
2
176
1
 90
2
176
1
 90
0
176
1
 90
2
176
1
 40
0.6
176
1
 40
30.0
176
1
 62
7
420
16777215
176
1
 90
1
176
1
 90
4
176
1
 62
7
176
1
 62
257
176
1
 90
1
176
1
 90
1
176
1
 40
1.0
176
1
 90
8
176
1
 62
7
176
1
 40
1.0
176
1
 90
1
176
1
 90
6
176
1
 90
2
176
1
 62
7
176
1
 90
5
176
1
 90
0
176
1
 90
0
176
1
290
0
176
1
 90
1
176
1
 40
0.0
176
1
 90
0
176
1
290
0
176
1
290
1
176
1
290
1
176
1
290
0
176
1
290
0
176
1
290
0
176
1
290
0
176
1
290
0
176
1
290
0
176
1
 90
50
176
1
 40
0.0
176
1
 40
1.0
176
1
 90
0
176
1
 62
18
420
0
176
1
 90
50
176
1
 90
3
176
1
 62
5
420
255
176
1
290
0
176
1
 90
50
176
1
 90
50
176
1
 90
50
176
1
290
0
176
1
 90
50
176
1
 62
256
176
0
 40
1.0
176
0
 90
2
176
1
  1
strokes_ogs.tif
176
1
290
0
176
1
 40
1.0
176
1
 40
1.0
176
1
  0
VISUALSTYLE
  5
68
102
{ACAD_REACTORS
330
16
102
}
330
16
100
AcDbVisualStyle
  2
Linepattern
 70
14
177
3
291
1
 70
58
 90
2
176
1
 90
2
176
1
 90
0
176
1
 90
2
176
1
 40
0.6
176
1
 40
30.0
176
1
 62
7
420
16777215
176
1
 90
1
176
1
 90
4
176
1
 62
7
176
1
 62
257
176
1
 90
1
176
1
 90
1
176
1
 40
1.0
176
1
 90
8
176
1
 62
7
176
1
 40
1.0
176
1
 90
1
176
1
 90
6
176
1
 90
2
176
1
 62
7
176
1
 90
5
176
1
 90
0
176
1
 90
0
176
1
290
0
176
1
 90
1
176
1
 40
0.0
176
1
 90
0
176
1
290
0
176
1
290
1
176
1
290
1
176
1
290
0
176
1
290
0
176
1
290
0
176
1
290
0
176
1
290
0
176
1
290
0
176
1
 90
50
176
1
 40
0.0
176
1
 40
1.0
176
1
 90
0
176
1
 62
18
420
0
176
1
 90
50
176
1
 90
3
176
1
 62
5
420
255
176
1
290
0
176
1
 90
50
176
1
 90
50
176
1
 90
50
176
1
290
0
176
1
 90
50
176
1
 62
256
176
0
 40
1.0
176
0
 90
2
176
1
  1
strokes_ogs.tif
176
1
290
0
176
1
 40
1.0
176
1
 40
1.0
176
1
  0
VISUALSTYLE
  5
69
102
{ACAD_REACTORS
330
16
102
}
330
16
100
AcDbVisualStyle
  2
Modeling
 70
10
177
3
291
0
 70
58
 90
2
176
1
 90
2
176
1
 90
0
176
1
 90
2
176
1
 40
0.6
176
1
 40
30.0
176
1
 62
7
420
16777215
176
1
 90
1
176
1
 90
4
176
1
 62
7
176
1
 62
257
176
1
 90
1
176
1
 90
1
176
1
 40
1.0
176
1
 90
8
176
1
 62
7
176
1
 40
1.0
176
1
 90
1
176
1
 90
6
176
1
 90
2
176
1
 62
7
176
1
 90
5
176
1
 90
0
176
1
 90
0
176
1
290
0
176
1
 90
1
176
1
 40
0.0
176
1
 90
0
176
1
290
0
176
1
290
1
176
1
290
1
176
1
290
0
176
1
290
0
176
1
290
0
176
1
290
0
176
1
290
0
176
1
290
0
176
1
 90
50
176
1
 40
0.0
176
1
 40
1.0
176
1
 90
0
176
1
 62
18
420
0
176
1
 90
50
176
1
 90
3
176
1
 62
5
420
255
176
1
290
0
176
1
 90
50
176
1
 90
50
176
1
 90
50
176
1
290
0
176
1
 90
50
176
1
 62
256
176
0
 40
1.0
176
0
 90
2
176
1
  1
strokes_ogs.tif
176
1
290
0
176
1
 40
1.0
176
1
 40
1.0
176
1
  0
VISUALSTYLE
  5
6A
102
{ACAD_REACTORS
330
16
102
}
330
16
100
AcDbVisualStyle
  2
OverhangOff
 70
21
177
3
291
1
 70
58
 90
2
176
1
 90
2
176
1
 90
0
176
1
 90
2
176
1
 40
0.6
176
1
 40
30.0
176
1
 62
7
420
16777215
176
1
 90
1
176
1
 90
4
176
1
 62
7
176
1
 62
257
176
1
 90
1
176
1
 90
1
176
1
 40
1.0
176
1
 90
8
176
1
 62
7
176
1
 40
1.0
176
1
 90
1
176
1
 90
6
176
1
 90
2
176
1
 62
7
176
1
 90
5
176
1
 90
0
176
1
 90
0
176
1
290
0
176
1
 90
1
176
1
 40
0.0
176
1
 90
0
176
1
290
0
176
1
290
1
176
1
290
1
176
1
290
0
176
1
290
0
176
1
290
0
176
1
290
0
176
1
290
0
176
1
290
0
176
1
 90
50
176
1
 40
0.0
176
1
 40
1.0
176
1
 90
0
176
1
 62
18
420
0
176
1
 90
50
176
1
 90
3
176
1
 62
5
420
255
176
1
290
0
176
1
 90
50
176
1
 90
50
176
1
 90
50
176
1
290
0
176
1
 90
50
176
1
 62
256
176
0
 40
1.0
176
0
 90
2
176
1
  1
strokes_ogs.tif
176
1
290
0
176
1
 40
1.0
176
1
 40
1.0
176
1
  0
VISUALSTYLE
  5
6B
102
{ACAD_REACTORS
330
16
102
}
330
16
100
AcDbVisualStyle
  2
Realistic
 70
8
177
3
291
0
 70
58
 90
2
176
1
 90
2
176
1
 90
0
176
1
 90
2
176
1
 40
0.6
176
1
 40
30.0
176
1
 62
7
420
16777215
176
1
 90
1
176
1
 90
4
176
1
 62
7
176
1
 62
257
176
1
 90
1
176
1
 90
1
176
1
 40
1.0
176
1
 90
8
176
1
 62
7
176
1
 40
1.0
176
1
 90
1
176
1
 90
6
176
1
 90
2
176
1
 62
7
176
1
 90
5
176
1
 90
0
176
1
 90
0
176
1
290
0
176
1
 90
1
176
1
 40
0.0
176
1
 90
0
176
1
290
0
176
1
290
1
176
1
290
1
176
1
290
0
176
1
290
0
176
1
290
0
176
1
290
0
176
1
290
0
176
1
290
0
176
1
 90
50
176
1
 40
0.0
176
1
 40
1.0
176
1
 90
0
176
1
 62
18
420
0
176
1
 90
50
176
1
 90
3
176
1
 62
5
420
255
176
1
290
0
176
1
 90
50
176
1
 90
50
176
1
 90
50
176
1
290
0
176
1
 90
50
176
1
 62
256
176
0
 40
1.0
176
0
 90
2
176
1
  1
strokes_ogs.tif
176
1
290
0
176
1
 40
1.0
176
1
 40
1.0
176
1
  0
VISUALSTYLE
  5
6C
102
{ACAD_REACTORS
330
16
102
}
330
16
100
AcDbVisualStyle
  2
Shaded
 70
27
177
3
291
0
 70
58
 90
2
176
1
 90
2
176
1
 90
0
176
1
 90
2
176
1
 40
0.6
176
1
 40
30.0
176
1
 62
7
420
16777215
176
1
 90
1
176
1
 90
4
176
1
 62
7
176
1
 62
257
176
1
 90
1
176
1
 90
1
176
1
 40
1.0
176
1
 90
8
176
1
 62
7
176
1
 40
1.0
176
1
 90
1
176
1
 90
6
176
1
 90
2
176
1
 62
7
176
1
 90
5
176
1
 90
0
176
1
 90
0
176
1
290
0
176
1
 90
1
176
1
 40
0.0
176
1
 90
0
176
1
290
0
176
1
290
1
176
1
290
1
176
1
290
0
176
1
290
0
176
1
290
0
176
1
290
0
176
1
290
0
176
1
290
0
176
1
 90
50
176
1
 40
0.0
176
1
 40
1.0
176
1
 90
0
176
1
 62
18
420
0
176
1
 90
50
176
1
 90
3
176
1
 62
5
420
255
176
1
290
0
176
1
 90
50
176
1
 90
50
176
1
 90
50
176
1
290
0
176
1
 90
50
176
1
 62
256
176
0
 40
1.0
176
0
 90
2
176
1
  1
strokes_ogs.tif
176
1
290
0
176
1
 40
1.0
176
1
 40
1.0
176
1
  0
VISUALSTYLE
  5
6D
102
{ACAD_REACTORS
330
16
102
}
330
16
100
AcDbVisualStyle
  2
Shaded with edges
 70
26
177
3
291
0
 70
58
 90
2
176
1
 90
2
176
1
 90
0
176
1
 90
2
176
1
 40
0.6
176
1
 40
30.0
176
1
 62
7
420
16777215
176
1
 90
1
176
1
 90
4
176
1
 62
7
176
1
 62
257
176
1
 90
1
176
1
 90
1
176
1
 40
1.0
176
1
 90
8
176
1
 62
7
176
1
 40
1.0
176
1
 90
1
176
1
 90
6
176
1
 90
2
176
1
 62
7
176
1
 90
5
176
1
 90
0
176
1
 90
0
176
1
290
0
176
1
 90
1
176
1
 40
0.0
176
1
 90
0
176
1
290
0
176
1
290
1
176
1
290
1
176
1
290
0
176
1
290
0
176
1
290
0
176
1
290
0
176
1
290
0
176
1
290
0
176
1
 90
50
176
1
 40
0.0
176
1
 40
1.0
176
1
 90
0
176
1
 62
18
420
0
176
1
 90
50
176
1
 90
3
176
1
 62
5
420
255
176
1
290
0
176
1
 90
50
176
1
 90
50
176
1
 90
50
176
1
290
0
176
1
 90
50
176
1
 62
256
176
0
 40
1.0
176
0
 90
2
176
1
  1
strokes_ogs.tif
176
1
290
0
176
1
 40
1.0
176
1
 40
1.0
176
1
  0
VISUALSTYLE
  5
6E
102
{ACAD_REACTORS
330
16
102
}
330
16
100
AcDbVisualStyle
  2
Shades of Gray
 70
23
177
3
291
0
 70
58
 90
2
176
1
 90
2
176
1
 90
0
176
1
 90
2
176
1
 40
0.6
176
1
 40
30.0
176
1
 62
7
420
16777215
176
1
 90
1
176
1
 90
4
176
1
 62
7
176
1
 62
257
176
1
 90
1
176
1
 90
1
176
1
 40
1.0
176
1
 90
8
176
1
 62
7
176
1
 40
1.0
176
1
 90
1
176
1
 90
6
176
1
 90
2
176
1
 62
7
176
1
 90
5
176
1
 90
0
176
1
 90
0
176
1
290
0
176
1
 90
1
176
1
 40
0.0
176
1
 90
0
176
1
290
0
176
1
290
1
176
1
290
1
176
1
290
0
176
1
290
0
176
1
290
0
176
1
290
0
176
1
290
0
176
1
290
0
176
1
 90
50
176
1
 40
0.0
176
1
 40
1.0
176
1
 90
0
176
1
 62
18
420
0
176
1
 90
50
176
1
 90
3
176
1
 62
5
420
255
176
1
290
0
176
1
 90
50
176
1
 90
50
176
1
 90
50
176
1
290
0
176
1
 90
50
176
1
 62
256
176
0
 40
1.0
176
0
 90
2
176
1
  1
strokes_ogs.tif
176
1
290
0
176
1
 40
1.0
176
1
 40
1.0
176
1
  0
VISUALSTYLE
  5
6F
102
{ACAD_REACTORS
330
16
102
}
330
16
100
AcDbVisualStyle
  2
Sketchy
 70
24
177
3
291
0
 70
58
 90
2
176
1
 90
2
176
1
 90
0
176
1
 90
1
176
1
 40
0.6
176
1
 40
30.0
176
1
 62
7
420
16777215
176
1
 90
1
176
1
 90
4
176
1
 62
7
176
1
 62
257
176
1
 90
1
176
1
 90
1
176
1
 40
1.0
176
1
 90
8
176
1
 62
7
176
1
 40
1.0
176
1
 90
1
176
1
 90
6
176
1
 90
2
176
1
 62
7
176
1
 90
5
176
1
 90
0
176
1
 90
0
176
1
290
0
176
1
 90
1
176
1
 40
0.0
176
1
 90
0
176
1
290
0
176
1
290
1
176
1
290
1
176
1
290
0
176
1
290
0
176
1
290
0
176
1
290
0
176
1
290
0
176
1
290
0
176
1
 90
50
176
1
 40
0.0
176
1
 40
1.0
176
1
 90
0
176
1
 62
18
420
0
176
1
 90
50
176
1
 90
3
176
1
 62
5
420
255
176
1
290
0
176
1
 90
50
176
1
 90
50
176
1
 90
50
176
1
290
0
176
1
 90
50
176
1
 62
256
176
0
 40
1.0
176
0
 90
2
176
1
  1
strokes_ogs.tif
176
1
290
0
176
1
 40
1.0
176
1
 40
1.0
176
1
  0
VISUALSTYLE
  5
70
102
{ACAD_REACTORS
330
16
102
}
330
16
100
AcDbVisualStyle
  2
Thicken
 70
13
177
3
291
1
 70
58
 90
2
176
1
 90
2
176
1
 90
0
176
1
 90
2
176
1
 40
0.6
176
1
 40
30.0
176
1
 62
7
420
16777215
176
1
 90
1
176
1
 90
4
176
1
 62
7
176
1
 62
257
176
1
 90
1
176
1
 90
1
176
1
 40
1.0
176
1
 90
8
176
1
 62
7
176
1
 40
1.0
176
1
 90
1
176
1
 90
6
176
1
 90
2
176
1
 62
7
176
1
 90
5
176
1
 90
0
176
1
 90
0
176
1
290
0
176
1
 90
1
176
1
 40
0.0
176
1
 90
0
176
1
290
0
176
1
290
1
176
1
290
1
176
1
290
0
176
1
290
0
176
1
290
0
176
1
290
0
176
1
290
0
176
1
290
0
176
1
 90
50
176
1
 40
0.0
176
1
 40
1.0
176
1
 90
0
176
1
 62
18
420
0
176
1
 90
50
176
1
 90
3
176
1
 62
5
420
255
176
1
290
0
176
1
 90
50
176
1
 90
50
176
1
 90
50
176
1
290
0
176
1
 90
50
176
1
 62
256
176
0
 40
1.0
176
0
 90
2
176
1
  1
strokes_ogs.tif
176
1
290
0
176
1
 40
1.0
176
1
 40
1.0
176
1
  0
VISUALSTYLE
  5
71
102
{ACAD_REACTORS
330
16
102
}
330
16
100
AcDbVisualStyle
  2
Wireframe
 70
5
177
3
291
0
 70
58
 90
2
176
1
 90
2
176
1
 90
0
176
1
 90
0
176
1
 40
0.6
176
1
 40
30.0
176
1
 62
7
420
16777215
176
1
 90
1
176
1
 90
4
176
1
 62
7
176
1
 62
257
176
1
 90
1
176
1
 90
1
176
1
 40
1.0
176
1
 90
8
176
1
 62
7
176
1
 40
1.0
176
1
 90
1
176
1
 90
6
176
1
 90
2
176
1
 62
7
176
1
 90
5
176
1
 90
0
176
1
 90
0
176
1
290
0
176
1
 90
1
176
1
 40
0.0
176
1
 90
0
176
1
290
0
176
1
290
1
176
1
290
1
176
1
290
0
176
1
290
0
176
1
290
0
176
1
290
0
176
1
290
0
176
1
290
0
176
1
 90
50
176
1
 40
0.0
176
1
 40
1.0
176
1
 90
0
176
1
 62
18
420
0
176
1
 90
50
176
1
 90
3
176
1
 62
5
420
255
176
1
290
0
176
1
 90
50
176
1
 90
50
176
1
 90
50
176
1
290
0
176
1
 90
50
176
1
 62
256
176
0
 40
1.0
176
0
 90
2
176
1
  1
strokes_ogs.tif
176
1
290
0
176
1
 40
1.0
176
1
 40
1.0
176
1
  0
VISUALSTYLE
  5
72
102
{ACAD_REACTORS
330
16
102
}
330
16
100
AcDbVisualStyle
  2
X-Ray
 70
25
177
3
291
0
 70
58
 90
2
176
1
 90
2
176
1
 90
0
176
1
 90
2
176
1
 40
0.5
176
1
 40
30.0
176
1
 62
7
420
16777215
176
1
 90
1
176
1
 90
4
176
1
 62
7
176
1
 62
257
176
1
 90
1
176
1
 90
1
176
1
 40
1.0
176
1
 90
8
176
1
 62
7
176
1
 40
1.0
176
1
 90
1
176
1
 90
6
176
1
 90
2
176
1
 62
7
176
1
 90
5
176
1
 90
0
176
1
 90
0
176
1
290
0
176
1
 90
1
176
1
 40
0.0
176
1
 90
0
176
1
290
0
176
1
290
1
176
1
290
1
176
1
290
0
176
1
290
0
176
1
290
0
176
1
290
0
176
1
290
0
176
1
290
0
176
1
 90
50
176
1
 40
0.0
176
1
 40
1.0
176
1
 90
0
176
1
 62
18
420
0
176
1
 90
50
176
1
 90
3
176
1
 62
5
420
255
176
1
290
0
176
1
 90
50
176
1
 90
50
176
1
 90
50
176
1
290
0
176
1
 90
50
176
1
 62
256
176
0
 40
1.0
176
0
 90
2
176
1
  1
strokes_ogs.tif
176
1
290
0
176
1
 40
1.0
176
1
 40
1.0
176
1
  0
DICTIONARYVAR
  5
1EB
330
2D
100
DictionaryVariables
280
0
  1
1.4.4 @ 2026-08-07T22:06:01.094268+00:00
  0
ENDSEC
  0
EOF
