  0
SECTION
  2
HEADER
  9
$ACADVER
  1
AC1024
  9
$ACADMAINTVER
 70
6
  9
$DWGCODEPAGE
  3
ANSI_1252
  9
$LASTSAVEDBY
  1
ezdxf
  9
$INSBASE
 10
0.0
 20
0.0
 30
0.0
  9
$EXTMIN
 10
1e+20
 20
1e+20
 30
1e+20
  9
$EXTMAX
 10
-1e+20
 20
-1e+20
 30
-1e+20
  9
$LIMMIN
 10
0.0
 20
0.0
  9
$LIMMAX
 10
420.0
 20
297.0
  9
$ORTHOMODE
 70
0
  9
$REGENMODE
 70
1
  9
$FILLMODE
 70
1
  9
$QTEXTMODE
 70
0
  9
$MIRRTEXT
 70
1
  9
$LTSCALE
 40
1.0
  9
$ATTMODE
 70
1
  9
$TEXTSIZE
 40
2.5
  9
$TRACEWID
 40
1.0
  9
$TEXTSTYLE
  7
Standard
  9
$CLAYER
  8
0
  9
$CELTYPE
  6
ByLayer
  9
$CECOLOR
 62
256
  9
$CELTSCALE
 40
1.0
  9
$DISPSILH
 70
0
  9
$DIMSCALE
 40
1.0
  9
$DIMASZ
 40
2.5
  9
$DIMEXO
 40
0.625
  9
$DIMDLI
 40
3.75
  9
$DIMRND
 40
0.0
  9
$DIMDLE
 40
0.0
  9
$DIMEXE
 40
1.25
  9
$DIMTP
 40
0.0
  9
$DIMTM
 40
0.0
  9
$DIMTXT
 40
2.5
  9
$DIMCEN
 40
2.5
  9
$DIMTSZ
 40
0.0
  9
$DIMTOL
 70
0
  9
$DIMLIM
 70
0
  9
$DIMTIH
 70
0
  9
$DIMTOH
 70
0
  9
$DIMSE1
 70
0
  9
$DIMSE2
 70
0
  9
$DIMTAD
 70
1
  9
$DIMZIN
 70
8
  9
$DIMBLK
  1

  9
$DIMASO
 70
1
  9
$DIMSHO
 70
1
  9
$DIMPOST
  1

  9
$DIMAPOST
  1

  9
$DIMALT
 70
0
  9
$DIMALTD
 70
3
  9
$DIMALTF
 40
0.03937007874
  9
$DIMLFAC
 40
1.0
  9
$DIMTOFL
 70
1
  9
$DIMTVP
 40
0.0
  9
$DIMTIX
 70
0
  9
$DIMSOXD
 70
0
  9
$DIMSAH
 70
0
  9
$DIMBLK1
  1

  9
$DIMBLK2
  1

  9
$DIMSTYLE
  2
ISO-25
  9
$DIMCLRD
 70
0
  9
$DIMCLRE
 70
0
  9
$DIMCLRT
 70
0
  9
$DIMTFAC
 40
1.0
  9
$DIMGAP
 40
0.625
  9
$DIMJUST
 70
0
  9
$DIMSD1
 70
0
  9
$DIMSD2
 70
0
  9
$DIMTOLJ
 70
0
  9
$DIMTZIN
 70
8
  9
$DIMALTZ
 70
0
  9
$DIMALTTZ
 70
0
  9
$DIMUPT
 70
0
  9
$DIMDEC
 70
2
  9
$DIMTDEC
 70
2
  9
$DIMALTU
 70
2
  9
$DIMALTTD
 70
3
  9
$DIMTXSTY
  7
Standard
  9
$DIMAUNIT
 70
0
  9
$DIMADEC
 70
0
  9
$DIMALTRND
 40
0.0
  9
$DIMAZIN
 70
0
  9
$DIMDSEP
 70
44
  9
$DIMATFIT
 70
3
  9
$DIMFRAC
 70
0
  9
$DIMLDRBLK
  1

  9
$DIMLUNIT
 70
2
  9
$DIMLWD
 70
-2
  9
$DIMLWE
 70
-2
  9
$DIMTMOVE
 70
0
  9
$DIMFXL
 40
1.0
  9
$DIMFXLON
 70
0
  9
$DIMJOGANG
 40
0.785398163397
  9
$DIMTFILL
 70
0
  9
$DIMTFILLCLR
 70
0
  9
$DIMARCSYM
 70
0
  9
$DIMLTYPE
  6

  9
$DIMLTEX1
  6

  9
$DIMLTEX2
  6

  9
$DIMTXTDIRECTION
 70
0
  9
$LUNITS
 70
2
  9
$LUPREC
 70
4
  9
$SKETCHINC
 40
1.0
  9
$FILLETRAD
 40
10.0
  9
$AUNITS
 70
0
  9
$AUPREC
 70
2
  9
$MENU
  1
.
  9
$ELEVATION
 40
0.0
  9
$PELEVATION
 40
0.0
  9
$THICKNESS
 40
0.0
  9
$LIMCHECK
 70
0
  9
$CHAMFERA
 40
0.0
  9
$CHAMFERB
 40
0.0
  9
$CHAMFERC
 40
0.0
  9
$CHAMFERD
 40
0.0
  9
$SKPOLY
 70
0
  9
$TDCREATE
 40
2461255.5628125
  9
$TDUCREATE
 40
2458532.153996898
  9
$TDUPDATE
 40
2461255.5628125
  9
$TDUUPDATE
 40
2458532.1544311
  9
$TDINDWG
 40
0.0
  9
$TDUSRTIMER
 40
0.0
  9
$USRTIMER
 70
1
  9
$ANGBASE
 50
0.0
  9
$ANGDIR
 70
0
  9
$PDMODE
 70
0
  9
$PDSIZE
 40
0.0
  9
$PLINEWID
 40
0.0
  9
$SPLFRAME
 70
0
  9
$SPLINETYPE
 70
6
  9
$SPLINESEGS
 70
8
  9
$HANDSEED
  5
EE
  9
$SURFTAB1
 70
6
  9
$SURFTAB2
 70
6
  9
$SURFTYPE
 70
6
  9
$SURFU
 70
6
  9
$SURFV
 70
6
  9
$UCSBASE
  2

  9
$UCSNAME
  2

  9
$UCSORG
 10
0.0
 20
0.0
 30
0.0
  9
$UCSXDIR
 10
1.0
 20
0.0
 30
0.0
  9
$UCSYDIR
 10
0.0
 20
1.0
 30
0.0
  9
$UCSORTHOREF
  2

  9
$UCSORTHOVIEW
 70
0
  9
$UCSORGTOP
 10
0.0
 20
0.0
 30
0.0
  9
$UCSORGBOTTOM
 10
0.0
 20
0.0
 30
0.0
  9
$UCSORGLEFT
 10
0.0
 20
0.0
 30
0.0
  9
$UCSORGRIGHT
 10
0.0
 20
0.0
 30
0.0
  9
$UCSORGFRONT
 10
0.0
 20
0.0
 30
0.0
  9
$UCSORGBACK
 10
0.0
 20
0.0
 30
0.0
  9
$PUCSBASE
  2

  9
$PUCSNAME
  2

  9
$PUCSORG
 10
0.0
 20
0.0
 30
0.0
  9
$PUCSXDIR
 10
1.0
 20
0.0
 30
0.0
  9
$PUCSYDIR
 10
0.0
 20
1.0
 30
0.0
  9
$PUCSORTHOREF
  2

  9
$PUCSORTHOVIEW
 70
0
  9
$PUCSORGTOP
 10
0.0
 20
0.0
 30
0.0
  9
$PUCSORGBOTTOM
 10
0.0
 20
0.0
 30
0.0
  9
$PUCSORGLEFT
 10
0.0
 20
0.0
 30
0.0
  9
$PUCSORGRIGHT
 10
0.0
 20
0.0
 30
0.0
  9
$PUCSORGFRONT
 10
0.0
 20
0.0
 30
0.0
  9
$PUCSORGBACK
 10
0.0
 20
0.0
 30
0.0
  9
$USERI1
 70
0
  9
$USERI2
 70
0
  9
$USERI3
 70
0
  9
$USERI4
 70
0
  9
$USERI5
 70
0
  9
$USERR1
 40
0.0
  9
$USERR2
 40
0.0
  9
$USERR3
 40
0.0
  9
$USERR4
 40
0.0
  9
$USERR5
 40
0.0
  9
$WORLDVIEW
 70
1
  9
$SHADEDGE
 70
3
  9
$SHADEDIF
 70
70
  9
$TILEMODE
 70
1
  9
$MAXACTVP
 70
64
  9
$PINSBASE
 10
0.0
 20
0.0
 30
0.0
  9
$PLIMCHECK
 70
0
  9
$PEXTMIN
 10
1e+20
 20
1e+20
 30
1e+20
  9
$PEXTMAX
 10
-1e+20
 20
-1e+20
 30
-1e+20
  9
$PLIMMIN
 10
0.0
 20
0.0
  9
$PLIMMAX
 10
420.0
 20
297.0
  9
$UNITMODE
 70
0
  9
$VISRETAIN
 70
1
  9
$PLINEGEN
 70
0
  9
$PSLTSCALE
 70
1
  9
$TREEDEPTH
 70
3020
  9
$CMLSTYLE
  2
Standard
  9
$CMLJUST
 70
0
  9
$CMLSCALE
 40
20.0
  9
$PROXYGRAPHICS
 70
1
  9
$MEASUREMENT
 70
1
  9
$CELWEIGHT
370
-1
  9
$ENDCAPS
280
0
  9
$JOINSTYLE
280
0
  9
$LWDISPLAY
290
0
  9
$INSUNITS
 70
6
  9
$HYPERLINKBASE
  1

  9
$STYLESHEET
  1

  9
$XEDIT
290
1
  9
$CEPSNTYPE
380
0
  9
$PSTYLEMODE
290
1
  9
$FINGERPRINTGUID
  2
{D7324A4A-C07B-40E5-B44D-CE8EBA50FA22}
  9
$VERSIONGUID
  2
{B9CCB1D7-CEB5-4C49-BFC5-47F502249FDB}
  9
$EXTNAMES
290
1
  9
$PSVPSCALE
 40
0.0
  9
$OLESTARTUP
290
0
  9
$SORTENTS
280
127
  9
$INDEXCTL
280
0
  9
$HIDETEXT
280
1
  9
$XCLIPFRAME
280
1
  9
$HALOGAP
280
0
  9
$OBSCOLOR
 70
257
  9
$OBSLTYPE
280
0
  9
$INTERSECTIONDISPLAY
280
0
  9
$INTERSECTIONCOLOR
 70
257
  9
$DIMASSOC
280
2
  9
$PROJECTNAME
  1

  9
$CAMERADISPLAY
290
0
  9
$LENSLENGTH
 40
50.0
  9
$CAMERAHEIGHT
 40
0.0
  9
$STEPSPERSEC
 40
24.0
  9
$STEPSIZE
 40
100.0
  9
$3DDWFPREC
 40
2.0
  9
$PSOLWIDTH
 40
0.005
  9
$PSOLHEIGHT
 40
0.08
  9
$LOFTANG1
 40
1.570796326795
  9
$LOFTANG2
 40
1.570796326795
  9
$LOFTMAG1
 40
0.0
  9
$LOFTMAG2
 40
0.0
  9
$LOFTPARAM
 70
7
  9
$LOFTNORMALS
280
1
  9
$LATITUDE
 40
37.795
  9
$LONGITUDE
 40
-122.394
  9
$NORTHDIRECTION
 40
0.0
  9
$TIMEZONE
 70
-8000
  9
$LIGHTGLYPHDISPLAY
280
1
  9
$TILEMODELIGHTSYNCH
280
1
  9
$CMATERIAL
347
20
  9
$SOLIDHIST
280
0
  9
$SHOWHIST
280
1
  9
$DWFFRAME
280
2
  9
$DGNFRAME
280
2
  9
$REALWORLDSCALE
290
1
  9
$INTERFERECOLOR
 62
256
  9
$CSHADOW
280
0
  9
$SHADOWPLANELOCATION
 40
0.0
  0
ENDSEC
  0
SECTION
  2
CLASSES
  0
CLASS
  1
ACDBDICTIONARYWDFLT
  2
AcDbDictionaryWithDefault
  3
ObjectDBX Classes
 90
0
 91
0
280
0
281
0
  0
CLASS
  1
SUN
  2
AcDbSun
  3
SCENEOE
 90
1153
 91
0
280
0
281
0
  0
CLASS
  1
VISUALSTYLE
  2
AcDbVisualStyle
  3
ObjectDBX Classes
 90
4095
 91
0
280
0
281
0
  0
CLASS
  1
MATERIAL
  2
AcDbMaterial
  3
ObjectDBX Classes
 90
1153
 91
0
280
0
281
0
  0
CLASS
  1
SCALE
  2
AcDbScale
  3
ObjectDBX Classes
 90
1153
 91
0
280
0
281
0
  0
CLASS
  1
TABLESTYLE
  2
AcDbTableStyle
  3
ObjectDBX Classes
 90
4095
 91
0
280
0
281
0
  0
CLASS
  1
MLEADERSTYLE
  2
AcDbMLeaderStyle
  3
ACDB_MLEADERSTYLE_CLASS
 90
4095
 91
0
280
0
281
0
  0
CLASS
  1
DICTIONARYVAR
  2
AcDbDictionaryVar
  3
ObjectDBX Classes
 90
0
 91
0
280
0
281
0
  0
CLASS
  1
CELLSTYLEMAP
  2
AcDbCellStyleMap
  3
ObjectDBX Classes
 90
1152
 91
0
280
0
281
0
  0
CLASS
  1
MENTALRAYRENDERSETTINGS
  2
AcDbMentalRayRenderSettings
  3
SCENEOE
 90
1024
 91
0
280
0
281
0
  0
CLASS
  1
ACDBDETAILVIEWSTYLE
  2
AcDbDetailViewStyle
  3
ObjectDBX Classes
 90
1025
 91
0
280
0
281
0
  0
CLASS
  1
ACDBSECTIONVIEWSTYLE
  2
AcDbSectionViewStyle
  3
ObjectDBX Classes
 90
1025
 91
0
280
0
281
0
  0
CLASS
  1
RASTERVARIABLES
  2
AcDbRasterVariables
  3
ISM
 90
0
 91
0
280
0
281
0
  0
CLASS
  1
ACDBPLACEHOLDER
  2
AcDbPlaceHolder
  3
ObjectDBX Classes
 90
0
 91
0
280
0
281
0
  0
CLASS
  1
LAYOUT
  2
AcDbLayout
  3
ObjectDBX Classes
 90
0
 91
0
280
0
281
0
  0
ENDSEC
  0
SECTION
  2
TABLES
  0
TABLE
  2
VPORT
  5
8
330
0
100
AcDbSymbolTable
 70
1
  0
VPORT
  5
23
330
8
100
AcDbSymbolTableRecord
100
AcDbViewportTableRecord
  2
*Active
 70
0
 10
0.0
 20
0.0
 11
1.0
 21
1.0
 12
0.0
 22
0.0
 13
0.0
 23
0.0
 14
0.5
 24
0.5
 15
0.5
 25
0.5
 16
0.0
 26
0.0
 36
1.0
 17
0.0
 27
0.0
 37
0.0
 40
1000.0
 41
1.34
 42
50.0
 43
0.0
 44
0.0
 50
0.0
 51
0.0
 71
0
 72
1000
 73
1
 74
3
 75
0
 76
0
 77
0
 78
0
281
0
 65
0
146
0.0
  0
ENDTAB
  0
TABLE
  2
LTYPE
  5
2
330
0
100
AcDbSymbolTable
 70
3
  0
LTYPE
  5
24
330
2
100
AcDbSymbolTableRecord
100
AcDbLinetypeTableRecord
  2
ByBlock
 70
0
  3

 72
65
 73
0
 40
0.0
  0
LTYPE
  5
25
330
2
100
AcDbSymbolTableRecord
100
AcDbLinetypeTableRecord
  2
ByLayer
 70
0
  3

 72
65
 73
0
 40
0.0
  0
LTYPE
  5
26
330
2
100
AcDbSymbolTableRecord
100
AcDbLinetypeTableRecord
  2
Continuous
 70
0
  3

 72
65
 73
0
 40
0.0
  0
ENDTAB
  0
TABLE
  2
LAYER
  5
1
330
0
100
AcDbSymbolTable
 70
5
  0
LAYER
  5
27
330
1
100
AcDbSymbolTableRecord
100
AcDbLayerTableRecord
  2
0
 70
0
 62
7
  6
Continuous
370
-3
390
13
347
21
  0
LAYER
  5
28
330
1
100
AcDbSymbolTableRecord
100
AcDbLayerTableRecord
  2
Defpoints
 70
0
 62
7
  6
Continuous
290
0
370
-3
390
13
347
21
  0
LAYER
  5
2F
330
1
100
AcDbSymbolTableRecord
100
AcDbLayerTableRecord
  2
SLD
 70
0
 62
7
  6
Continuous
370
-3
390
13
347
21
  0
LAYER
  5
C9
330
1
100
AcDbSymbolTableRecord
100
AcDbLayerTableRecord
  2
WIRES
 70
0
 62
7
  6
Continuous
370
-3
390
F
347
98
348
0
  0
LAYER
  5
CA
330
1
100
AcDbSymbolTableRecord
100
AcDbLayerTableRecord
  2
SYMS
 70
0
 62
7
  6
Continuous
370
-3
390
F
347
98
348
0
  0
ENDTAB
  0
TABLE
  2
STYLE
  5
5
330
0
100
AcDbSymbolTable
 70
2
  0
STYLE
  5
29
330
5
100
AcDbSymbolTableRecord
100
AcDbTextStyleTableRecord
  2
Standard
 70
0
 40
0.0
 41
1.0
 50
0.0
 71
0
 42
2.5
  3
txt
  4

  0
STYLE
  5
CB
330
5
100
AcDbSymbolTableRecord
100
AcDbTextStyleTableRecord
  2
WD
 70
0
 40
0.0
 41
1.0
 50
0.0
 71
0
 42
0.15
  3
txt
  4

  0
ENDTAB
  0
TABLE
  2
VIEW
  5
7
330
0
100
AcDbSymbolTable
 70
0
  0
ENDTAB
  0
TABLE
  2
UCS
  5
6
330
0
100
AcDbSymbolTable
 70
0
  0
ENDTAB
  0
TABLE
  2
APPID
  5
3
330
0
100
AcDbSymbolTable
 70
3
  0
APPID
  5
2A
330
3
100
AcDbSymbolTableRecord
100
AcDbRegAppTableRecord
  2
ACAD
 70
0
  0
APPID
  5
EB
330
3
100
AcDbSymbolTableRecord
100
AcDbRegAppTableRecord
  2
HATCHBACKGROUNDCOLOR
 70
0
  0
APPID
  5
EC
330
3
100
AcDbSymbolTableRecord
100
AcDbRegAppTableRecord
  2
EZDXF
 70
0
  0
ENDTAB
  0
TABLE
  2
DIMSTYLE
  5
4
330
0
100
AcDbSymbolTable
 70
1
100
AcDbDimStyleTable
  0
DIMSTYLE
105
2B
330
4
100
AcDbSymbolTableRecord
100
AcDbDimStyleTableRecord
  2
Standard
 70
0
 40
1.0
 41
2.5
 42
0.625
 43
3.75
 44
1.25
 45
0.0
 46
0.0
 47
0.0
 48
0.0
 49
2.5
140
2.5
141
2.5
142
0.0
143
0.03937007874
144
1.0
145
0.0
146
1.0
147
0.625
148
0.0
 69
0
 70
0
 71
0
 72
0
 73
0
 74
0
 75
0
 76
0
 77
1
 78
8
 79
3
170
0
171
3
172
1
173
0
174
0
175
0
176
0
177
0
178
0
179
2
271
2
272
2
273
2
274
3
275
0
276
0
277
2
278
44
279
0
280
0
281
0
282
0
283
0
284
8
285
0
286
0
288
0
289
3
290
0
371
-2
372
-2
  0
ENDTAB
  0
TABLE
  2
BLOCK_RECORD
  5
9
330
0
100
AcDbSymbolTable
 70
6
  0
BLOCK_RECORD
  5
17
330
9
100
AcDbSymbolTableRecord
100
AcDbBlockTableRecord
  2
*Model_Space
340
1A
 70
0
280
1
281
0
  0
BLOCK_RECORD
  5
1B
330
9
100
AcDbSymbolTableRecord
100
AcDbBlockTableRecord
  2
*Paper_Space
340
1E
 70
0
280
1
281
0
  0
BLOCK_RECORD
  5
30
330
9
100
AcDbSymbolTableRecord
100
AcDbBlockTableRecord
  2
FEEDER_CELL
340
0
 70
0
280
1
281
0
  0
BLOCK_RECORD
  5
8E
330
9
100
AcDbSymbolTableRecord
100
AcDbBlockTableRecord
  2
VXF1CT
340
0
 70
0
280
1
281
0
  0
BLOCK_RECORD
  5
A9
330
9
100
AcDbSymbolTableRecord
100
AcDbBlockTableRecord
  2
WDDOT
340
0
 70
0
280
1
281
0
  0
BLOCK_RECORD
  5
AF
330
9
100
AcDbSymbolTableRecord
100
AcDbBlockTableRecord
  2
VCN1PJ
340
0
 70
0
280
1
281
0
  0
ENDTAB
  0
ENDSEC
  0
SECTION
  2
BLOCKS
  0
BLOCK
  5
18
330
17
100
AcDbEntity
  8
0
100
AcDbBlockBegin
  2
*Model_Space
 70
0
 10
0.0
 20
0.0
 30
0.0
  3
*Model_Space
  1

  0
ENDBLK
  5
19
330
17
100
AcDbEntity
  8
0
100
AcDbBlockEnd
  0
BLOCK
  5
1C
330
1B
100
AcDbEntity
  8
0
100
AcDbBlockBegin
  2
*Paper_Space
 70
0
 10
0.0
 20
0.0
 30
0.0
  3
*Paper_Space
  1

  0
ENDBLK
  5
1D
330
1B
100
AcDbEntity
  8
0
100
AcDbBlockEnd
  0
BLOCK
  5
31
330
30
100
AcDbEntity
  8
0
100
AcDbBlockBegin
  2
FEEDER_CELL
 70
2
 10
0.0
 20
0.0
 30
0.0
  3
FEEDER_CELL
  1

  0
INSERT
  5
33
330
30
100
AcDbEntity
  8
SYMS
 62
7
 48
0.2
100
AcDbBlockReference
 66
1
  2
VXF1CT
 10
-0.2021278513552884
 20
-3.200698352210409
 30
0.0
 50
180.0
  0
ATTRIB
  5
34
330
33
100
AcDbEntity
  8
LOC
100
AcDbText
 10
0.0249554819780373
 20
-2.778823352210409
 30
0.0
 40
0.125
  1

 50
180.0
  7
WD
 41
0.7
 72
1
 11
0.0249554819780373
 21
-2.778823352210409
 31
0.0
100
AcDbAttribute
  2
INST
 70
0
  0
ATTRIB
  5
35
330
33
100
AcDbEntity
  8
MISC
100
AcDbText
 10
-0.2021278513552884
 20
-2.917524826810133
 30
0.0
 40
0.0125
  1

 50
180.0
  7
WD
100
AcDbAttribute
  2
X8TERM01
 70
1
  0
ATTRIB
  5
36
330
33
100
AcDbEntity
  8
MISC
100
AcDbText
 10
-0.2343396140554317
 20
-2.949736589510273
 30
0.0
 40
0.0125
  1

 50
180.0
  7
WD
100
AcDbAttribute
  2
X1TERM01
 70
1
  0
ATTRIB
  5
37
330
33
100
AcDbEntity
  8
TERMS
  6
Continuous
100
AcDbText
 10
-0.147190020974338
 20
-2.970154384474191
 30
0.0
 40
0.125
  1

 50
180.0
  7
WD
 72
2
 11
-0.147190020974338
 21
-2.970154384474191
 31
0.0
100
AcDbAttribute
  2
TERM01
 70
8
  0
ATTRIB
  5
38
330
33
100
AcDbEntity
  8
TERMS
  6
Continuous
100
AcDbText
 10
-0.157134768306352
 20
-3.467664137094242
 30
0.0
 40
0.125
  1

 50
180.0
  7
WD
 72
2
 11
-0.157134768306352
 21
-3.467664137094242
 31
0.0
100
AcDbAttribute
  2
TERM02
 70
8
  0
ATTRIB
  5
39
330
33
100
AcDbEntity
  8
MISC
100
AcDbText
 10
-0.2343396140554317
 20
-3.449736589510273
 30
0.0
 40
0.0125
  1

 50
180.0
  7
WD
100
AcDbAttribute
  2
X1TERM02
 70
1
  0
ATTRIB
  5
3A
330
33
100
AcDbEntity
  8
MISC
100
AcDbText
 10
-0.2021278513552884
 20
-3.481948352210409
 30
0.0
 40
0.0125
  1

 50
180.0
  7
WD
100
AcDbAttribute
  2
X2TERM02
 70
1
  0
ATTRIB
  5
3B
330
33
100
AcDbEntity
  8
MISC
100
AcDbText
 10
-0.4833778513552885
 20
-3.075698352210409
 30
0.0
 40
0.125
  1

 50
180.0
  7
WD
 41
0.7
100
AcDbAttribute
  2
RATING1
 70
0
  0
ATTRIB
  5
3C
330
33
100
AcDbEntity
  8
TAGS
100
AcDbText
 10
0.9153535502281293
 20
-3.348644065116801
 30
0.0
 40
0.125
  1

 50
180.0
  7
WD
100
AcDbAttribute
  2
TAG1
 70
1
  0
ATTRIB
  5
3D
330
33
100
AcDbEntity
  8
DESC
100
AcDbText
 10
0.7089462351957501
 20
-3.183332706575711
 30
0.0
 40
0.125
  1

 50
180.0
  7
WD
 41
0.7
 72
1
 11
0.7089462351957501
 21
-3.183332706575711
 31
0.0
100
AcDbAttribute
  2
DESC1
 70
0
  0
ATTRIB
  5
3E
330
33
100
AcDbEntity
  8
DESC
100
AcDbText
 10
0.7762441428894498
 20
-3.022614552701988
 30
0.0
 40
0.125
  1

 50
180.0
  7
WD
 41
0.7
 72
1
 11
0.7762441428894498
 21
-3.022614552701988
 31
0.0
100
AcDbAttribute
  2
DESC2
 70
0
  0
ATTRIB
  5
3F
330
33
100
AcDbEntity
  8
LOC
100
AcDbText
 10
-0.0015984736280812
 20
-2.599650111165182
 30
0.0
 40
0.125
  1

 50
180.0
  7
WD
 41
0.7
 72
1
 11
-0.0015984736280812
 21
-2.599650111165182
 31
0.0
100
AcDbAttribute
  2
LOC
 70
0
  0
ATTRIB
  5
40
330
33
100
AcDbEntity
  8
MISC
  6
Continuous
100
AcDbText
 10
-0.0311976762542541
 20
-3.319653702596781
 30
0.0
 40
0.01
  1

 50
180.0
  7
WD
 72
1
 11
-0.0311976762542541
 21
-3.319653702596781
 31
0.0
100
AcDbAttribute
  2
ASSYCODE
 70
9
  0
ATTRIB
  5
41
330
33
100
AcDbEntity
  8
MISC
100
AcDbText
 10
-0.1552528513552884
 20
-3.153823352210409
 30
0.0
 40
0.125
  1

 50
180.0
  7
WD
 72
1
 11
-0.1552528513552884
 21
-3.153823352210409
 31
0.0
100
AcDbAttribute
  2
TYPE
 70
1
  0
ATTRIB
  5
42
330
33
100
AcDbEntity
  8
MISC
100
AcDbText
 10
-0.0063206272556497
 20
-3.391388645928778
 30
0.0
 40
0.01
  1

 50
180.0
  7
WD
100
AcDbAttribute
  2
FAMILY
 70
9
  0
ATTRIB
  5
43
330
33
100
AcDbEntity
  8
MISC
  6
Continuous
100
AcDbText
 10
-0.0313738931940035
 20
-3.362837230069015
 30
0.0
 40
0.01
  1

 50
180.0
  7
WD
 72
1
 11
-0.0313738931940035
 21
-3.362837230069015
 31
0.0
100
AcDbAttribute
  2
CAT
 70
9
  0
ATTRIB
  5
44
330
33
100
AcDbEntity
  8
MISC
  6
Continuous
100
AcDbText
 10
-0.0294288475540894
 20
-3.343395476361564
 30
0.0
 40
0.01
  1

 50
180.0
  7
WD
 72
1
 11
-0.0294288475540894
 21
-3.343395476361564
 31
0.0
100
AcDbAttribute
  2
MFG
 70
9
  0
SEQEND
  5
45
330
33
100
AcDbEntity
  8
SYMS
 62
7
 48
0.2
  0
INSERT
  5
46
330
30
100
AcDbEntity
  8
SYMS
 62
7
 48
0.2
100
AcDbBlockReference
  2
WDDOT
 10
-0.0385046983987136
 20
-3.513253788583043
 30
0.0
 50
180.0
  0
LINE
  5
48
330
30
100
AcDbEntity
  8
0
100
AcDbLine
 10
-4.1223452456e-06
 20
0.0004309228830977
 30
0.0
 11
0.008994813556285
 21
-0.8035026051551881
 31
0.0
  0
LINE
  5
49
330
30
100
AcDbEntity
  8
WIRES
 62
7
 48
0.2
100
AcDbLine
 10
0.0095577119131747
 20
-2.663996536586935
 30
0.0
 11
0.0095577119131747
 21
-2.235150195949604
 31
0.0
  0
LINE
  5
4A
330
30
100
AcDbEntity
  8
WIRES
 62
7
 48
0.2
100
AcDbLine
 10
0.0095577119131747
 20
-1.314548284588934
 30
0.0
 11
0.0095577119131747
 21
-0.9589135310919729
 31
0.0
  0
INSERT
  5
4B
330
30
100
AcDbEntity
  8
SYMS
 62
7
 48
0.2
100
AcDbBlockReference
 66
1
  2
VCN1PJ
 10
0.0095577119131747
 20
-2.757746540662296
 30
0.0
 50
180.0
  0
ATTRIB
  5
4C
330
4B
100
AcDbEntity
  8
LOC
100
AcDbText
 10
-0.2196089547534967
 20
-3.607548299617072
 30
0.0
 40
0.125
  1

 50
180.0
  7
WD
 41
0.7
 72
2
 11
-0.2196089547534967
 21
-3.607548299617072
 31
0.0
100
AcDbAttribute
  2
INST
 70
0
  0
ATTRIB
  5
4D
330
4B
100
AcDbEntity
  8
MISC
100
AcDbText
 10
-0.0035152149818174
 20
-2.643106413403799
 30
0.0
 40
0.01
  1
P
 50
180.0
  7
WD
100
AcDbAttribute
  2
X8TERMDESC01
 70
1
  0
ATTRIB
  5
4E
330
4B
100
AcDbEntity
  8
MISC
100
AcDbText
 10
-0.0165881525858822
 20
-2.799356408432991
 30
0.0
 40
0.01
  1
J
 50
180.0
  7
WD
100
AcDbAttribute
  2
X2TERMDESC02
 70
1
  0
ATTRIB
  5
4F
330
4B
100
AcDbEntity
  8
MISC
  6
Continuous
100
AcDbText
 10
0.1186329755407485
 20
-2.743803058498141
 30
0.0
 40
0.01
  1

 50
180.0
  7
WD
 72
1
 11
0.1186329755407485
 21
-2.743803058498141
 31
0.0
100
AcDbAttribute
  2
ASSYCODE
 70
9
  0
ATTRIB
  5
50
330
4B
100
AcDbEntity
  8
MISC
100
AcDbText
 10
0.1345577119131747
 20
-2.695246540662296
 30
0.0
 40
0.01
  1

 50
180.0
  7
WD
100
AcDbAttribute
  2
X4LINK
 70
0
  0
ATTRIB
  5
51
330
4B
100
AcDbEntity
  8
MISC
100
AcDbText
 10
-0.1154422880868253
 20
-2.695246540662296
 30
0.0
 40
0.01
  1

 50
180.0
  7
WD
100
AcDbAttribute
  2
X1LINK
 70
0
  0
ATTRIB
  5
52
330
4B
100
AcDbEntity
  8
LOC
100
AcDbText
 10
0.0720577119131747
 20
-3.437948299617069
 30
0.0
 40
0.125
  1

 50
180.0
  7
WD
 41
0.7
 72
2
 11
0.0720577119131747
 21
-3.437948299617069
 31
0.0
100
AcDbAttribute
  2
LOC
 70
0
  0
ATTRIB
  5
53
330
4B
100
AcDbEntity
  8
MISC
  6
Continuous
100
AcDbText
 10
0.1181646034635122
 20
-2.75778582388515
 30
0.0
 40
0.01
  1

 50
180.0
  7
WD
 72
1
 11
0.1181646034635122
 21
-2.75778582388515
 31
0.0
100
AcDbAttribute
  2
MFG
 70
9
  0
ATTRIB
  5
54
330
4B
100
AcDbEntity
  8
MISC
  6
Continuous
100
AcDbText
 10
0.116219557823598
 20
-2.777227577592604
 30
0.0
 40
0.01
  1

 50
180.0
  7
WD
 72
1
 11
0.116219557823598
 21
-2.777227577592604
 31
0.0
100
AcDbAttribute
  2
CAT
 70
9
  0
ATTRIB
  5
55
330
4B
100
AcDbEntity
  8
MISC
100
AcDbText
 10
0.1412728237619518
 20
-2.821403993452364
 30
0.0
 40
0.01
  1
PJ
 50
180.0
  7
WD
100
AcDbAttribute
  2
FAMILY
 70
9
  0
ATTRIB
  5
56
330
4B
100
AcDbEntity
  8
DESC
100
AcDbText
 10
0.0720577119131747
 20
-3.11202544530996
 30
0.0
 40
0.125
  1

 50
180.0
  7
WD
 41
0.7
 72
2
 11
0.0720577119131747
 21
-3.11202544530996
 31
0.0
100
AcDbAttribute
  2
DESC2
 70
0
  0
ATTRIB
  5
57
330
4B
100
AcDbEntity
  8
DESC
100
AcDbText
 10
0.0720577119131747
 20
-3.268271872463515
 30
0.0
 40
0.125
  1

 50
180.0
  7
WD
 41
0.7
 72
2
 11
0.0720577119131747
 21
-3.268271872463515
 31
0.0
100
AcDbAttribute
  2
DESC1
 70
0
  0
ATTRIB
  5
58
330
4B
100
AcDbEntity
  8
TAGS
100
AcDbText
 10
0.8845577119131744
 20
-2.851496540662296
 30
0.0
 40
0.125
  1
201PJ121
 50
180.0
  7
WD
 72
2
 11
0.0720577119131747
 21
-2.851496540662296
 31
0.0
100
AcDbAttribute
  2
TAG1
 70
1
  0
ATTRIB
  5
59
330
4B
100
AcDbEntity
  8
TERMS
  6
Continuous
100
AcDbText
 10
-0.0374422880868224
 20
-2.476496540662296
 30
0.0
 40
0.125
  1
1
 50
180.0
  7
WD
 11
-0.0374422880868224
 21
-2.601496540662296
 31
0.0
100
AcDbAttribute
  2
TERM01
 70
9
 74
3
  0
ATTRIB
  5
5A
330
4B
100
AcDbEntity
  8
MISC
100
AcDbText
 10
0.0095577119131747
 20
-2.663996540662296
 30
0.0
 40
0.0125
  1

 50
180.0
  7
WD
100
AcDbAttribute
  2
X8TERM01
 70
1
  0
ATTRIB
  5
5B
330
4B
100
AcDbEntity
  8
MISC
100
AcDbText
 10
0.0095577119131747
 20
-2.820246540662296
 30
0.0
 40
0.0125
  1

 50
180.0
  7
WD
100
AcDbAttribute
  2
X2TERM02
 70
1
  0
ATTRIB
  5
5C
330
4B
100
AcDbEntity
  8
TERMS
  6
Continuous
100
AcDbText
 10
-0.0374422880868224
 20
-2.820246540662296
 30
0.0
 40
0.125
  1
1
 50
180.0
  7
WD
100
AcDbAttribute
  2
TERM02
 70
9
  0
ATTRIB
  5
5D
330
4B
100
AcDbEntity
  8
MISC
100
AcDbText
 10
0.1412728237619518
 20
-2.802771861120731
 30
0.0
 40
0.01
  1
VC0
 50
180.0
  7
WD
100
AcDbAttribute
  2
WDBLKNAM
 70
9
  0
SEQEND
  5
5E
330
4B
100
AcDbEntity
  8
SYMS
 62
7
 48
0.2
  0
INSERT
  5
5F
330
30
100
AcDbEntity
  8
SYMS
 62
7
 48
0.2
100
AcDbBlockReference
 66
1
  2
VCN1PJ
 10
0.0095577119131747
 20
-0.8651635293450112
 30
0.0
 41
-1.0
  0
ATTRIB
  5
60
330
5F
100
AcDbEntity
  8
LOC
100
AcDbText
 10
-0.2196089547534967
 20
-0.0153617703902356
 30
0.0
 40
0.125
  1

 50
180.0
  7
WD
 41
0.7
 72
2
 11
-0.2196089547534967
 21
-0.0153617703902356
 31
0.0
100
AcDbAttribute
  2
INST
 70
0
  0
ATTRIB
  5
61
330
5F
100
AcDbEntity
  8
MISC
100
AcDbText
 10
-0.0035152149818174
 20
-0.9698036566035064
 30
0.0
 40
0.01
  1
P
 50
180.0
  7
WD
100
AcDbAttribute
  2
X8TERMDESC01
 70
1
  0
ATTRIB
  5
62
330
5F
100
AcDbEntity
  8
MISC
100
AcDbText
 10
-0.0165881525858822
 20
-0.8135536615743177
 30
0.0
 40
0.01
  1
J
 50
180.0
  7
WD
100
AcDbAttribute
  2
X2TERMDESC02
 70
1
  0
ATTRIB
  5
63
330
5F
100
AcDbEntity
  8
MISC
  6
Continuous
100
AcDbText
 10
0.1186329755407485
 20
-0.8791070115091663
 30
0.0
 40
0.01
  1

 50
180.0
  7
WD
 72
1
 11
0.1186329755407485
 21
-0.8791070115091663
 31
0.0
100
AcDbAttribute
  2
ASSYCODE
 70
9
  0
ATTRIB
  5
64
330
5F
100
AcDbEntity
  8
MISC
100
AcDbText
 10
0.1345577119131747
 20
-0.9276635293450112
 30
0.0
 40
0.01
  1

 50
180.0
  7
WD
100
AcDbAttribute
  2
X4LINK
 70
0
  0
ATTRIB
  5
65
330
5F
100
AcDbEntity
  8
MISC
100
AcDbText
 10
-0.1154422880868253
 20
-0.9276635293450112
 30
0.0
 40
0.01
  1

 50
180.0
  7
WD
100
AcDbAttribute
  2
X1LINK
 70
0
  0
ATTRIB
  5
66
330
5F
100
AcDbEntity
  8
LOC
100
AcDbText
 10
0.0720577119131747
 20
-0.1849617703902382
 30
0.0
 40
0.125
  1

 50
180.0
  7
WD
 41
0.7
 72
2
 11
0.0720577119131747
 21
-0.1849617703902382
 31
0.0
100
AcDbAttribute
  2
LOC
 70
0
  0
ATTRIB
  5
67
330
5F
100
AcDbEntity
  8
MISC
  6
Continuous
100
AcDbText
 10
0.1181646034635122
 20
-0.8651242461221571
 30
0.0
 40
0.01
  1

 50
180.0
  7
WD
 72
1
 11
0.1181646034635122
 21
-0.8651242461221571
 31
0.0
100
AcDbAttribute
  2
MFG
 70
9
  0
ATTRIB
  5
68
330
5F
100
AcDbEntity
  8
MISC
  6
Continuous
100
AcDbText
 10
0.116219557823598
 20
-0.8456824924147028
 30
0.0
 40
0.01
  1

 50
180.0
  7
WD
 72
1
 11
0.116219557823598
 21
-0.8456824924147028
 31
0.0
100
AcDbAttribute
  2
CAT
 70
9
  0
ATTRIB
  5
69
330
5F
100
AcDbEntity
  8
MISC
100
AcDbText
 10
0.1412728237619518
 20
-0.791506076554942
 30
0.0
 40
0.01
  1
PJ
 50
180.0
  7
WD
100
AcDbAttribute
  2
FAMILY
 70
9
  0
ATTRIB
  5
6A
330
5F
100
AcDbEntity
  8
DESC
100
AcDbText
 10
0.0720577119131747
 20
-0.2296381975437924
 30
0.0
 40
0.125
  1

 50
180.0
  7
WD
 41
0.7
 72
2
 11
0.0720577119131747
 21
-0.2296381975437924
 31
0.0
100
AcDbAttribute
  2
DESC2
 70
0
  0
ATTRIB
  5
6B
330
5F
100
AcDbEntity
  8
DESC
100
AcDbText
 10
0.0720577119131747
 20
-0.3858846246973471
 30
0.0
 40
0.125
  1

 50
180.0
  7
WD
 41
0.7
 72
2
 11
0.0720577119131747
 21
-0.3858846246973471
 31
0.0
100
AcDbAttribute
  2
DESC1
 70
0
  0
ATTRIB
  5
6C
330
5F
100
AcDbEntity
  8
TAGS
100
AcDbText
 10
0.8845577119131744
 20
-0.6464135293450114
 30
0.0
 40
0.125
  1
201PJ141
 50
180.0
  7
WD
 72
2
 11
0.0720577119131747
 21
-0.6464135293450113
 31
0.0
100
AcDbAttribute
  2
TAG1
 70
1
  0
ATTRIB
  5
6D
330
5F
100
AcDbEntity
  8
TERMS
  6
Continuous
100
AcDbText
 10
-0.0374422880868224
 20
-1.021413529345011
 30
0.0
 40
0.125
  1
1
 50
180.0
  7
WD
 11
-0.0374422880868224
 21
-1.146413529345011
 31
0.0
100
AcDbAttribute
  2
TERM01
 70
9
 74
3
  0
ATTRIB
  5
6E
330
5F
100
AcDbEntity
  8
MISC
100
AcDbText
 10
0.0095577119131747
 20
-0.9589135293450112
 30
0.0
 40
0.0125
  1

 50
180.0
  7
WD
100
AcDbAttribute
  2
X2TERM01
 70
1
  0
ATTRIB
  5
6F
330
5F
100
AcDbEntity
  8
MISC
100
AcDbText
 10
0.0095577119131747
 20
-0.8026635293450112
 30
0.0
 40
0.0125
  1

 50
180.0
  7
WD
100
AcDbAttribute
  2
X8TERM02
 70
1
  0
ATTRIB
  5
70
330
5F
100
AcDbEntity
  8
TERMS
  6
Continuous
100
AcDbText
 10
-0.0374422880868224
 20
-0.6776635293450113
 30
0.0
 40
0.125
  1
1
 50
180.0
  7
WD
100
AcDbAttribute
  2
TERM02
 70
9
  0
ATTRIB
  5
71
330
5F
100
AcDbEntity
  8
MISC
100
AcDbText
 10
0.1412728237619518
 20
-0.810138208886574
 30
0.0
 40
0.01
  1
VC0
 50
180.0
  7
WD
100
AcDbAttribute
  2
WDBLKNAM
 70
9
  0
SEQEND
  5
72
330
5F
100
AcDbEntity
  8
SYMS
 62
7
 48
0.2
  0
LWPOLYLINE
  5
73
330
30
100
AcDbEntity
  8
0
 62
7
 48
0.2
100
AcDbPolyline
 90
4
 70
1
 10
0.4226087248236468
 20
-2.235150195949604
 10
-0.3539684887949903
 20
-2.235150195949604
 10
-0.3539684887949903
 20
-1.314548284588934
 10
0.4226087248236468
 20
-1.314548284588934
  0
INSERT
  5
74
330
30
100
AcDbEntity
  8
SYMS
 62
7
 48
0.2
100
AcDbBlockReference
 66
1
  2
VCN1PJ
 10
0.0242447516291691
 20
-4.0380112657474
 30
0.0
 41
-1.0
 50
180.0
  0
ATTRIB
  5
75
330
74
100
AcDbEntity
  8
LOC
100
AcDbText
 10
0.2534114182958405
 20
-4.887813024702175
 30
0.0
 40
0.125
  1

  7
WD
 41
0.7
 72
2
 11
0.2534114182958405
 21
-4.887813024702175
 31
0.0
100
AcDbAttribute
  2
INST
 70
0
  0
ATTRIB
  5
76
330
74
100
AcDbEntity
  8
MISC
100
AcDbText
 10
0.0373176785241469
 20
-3.933371138488908
 30
0.0
 40
0.01
  1
P
  7
WD
100
AcDbAttribute
  2
X8TERMDESC01
 70
1
  0
ATTRIB
  5
77
330
74
100
AcDbEntity
  8
MISC
100
AcDbText
 10
0.0503906161282259
 20
-4.089621133518097
 30
0.0
 40
0.01
  1
J
  7
WD
100
AcDbAttribute
  2
X2TERMDESC02
 70
1
  0
ATTRIB
  5
78
330
74
100
AcDbEntity
  8
MISC
  6
Continuous
100
AcDbText
 10
-0.0848305119984048
 20
-4.024067783583248
 30
0.0
 40
0.01
  1

  7
WD
 72
1
 11
-0.0848305119984048
 21
-4.024067783583248
 31
0.0
100
AcDbAttribute
  2
ASSYCODE
 70
9
  0
ATTRIB
  5
79
330
74
100
AcDbEntity
  8
MISC
100
AcDbText
 10
-0.1007552483708309
 20
-3.9755112657474
 30
0.0
 40
0.01
  1

  7
WD
100
AcDbAttribute
  2
X4LINK
 70
0
  0
ATTRIB
  5
7A
330
74
100
AcDbEntity
  8
MISC
100
AcDbText
 10
0.1492447516291691
 20
-3.9755112657474
 30
0.0
 40
0.01
  1

  7
WD
100
AcDbAttribute
  2
X1LINK
 70
0
  0
ATTRIB
  5
7B
330
74
100
AcDbEntity
  8
LOC
100
AcDbText
 10
-0.038255248370831
 20
-4.718213024702176
 30
0.0
 40
0.125
  1

  7
WD
 41
0.7
 72
2
 11
-0.038255248370831
 21
-4.718213024702176
 31
0.0
100
AcDbAttribute
  2
LOC
 70
0
  0
ATTRIB
  5
7C
330
74
100
AcDbEntity
  8
MISC
  6
Continuous
100
AcDbText
 10
-0.0843621399211685
 20
-4.038050548970257
 30
0.0
 40
0.01
  1

  7
WD
 72
1
 11
-0.0843621399211685
 21
-4.038050548970257
 31
0.0
100
AcDbAttribute
  2
MFG
 70
9
  0
ATTRIB
  5
7D
330
74
100
AcDbEntity
  8
MISC
  6
Continuous
100
AcDbText
 10
-0.0824170942812543
 20
-4.057492302677708
 30
0.0
 40
0.01
  1

  7
WD
 72
1
 11
-0.0824170942812543
 21
-4.057492302677708
 31
0.0
100
AcDbAttribute
  2
CAT
 70
9
  0
ATTRIB
  5
7E
330
74
100
AcDbEntity
  8
MISC
100
AcDbText
 10
-0.1074703602195939
 20
-4.111668718537472
 30
0.0
 40
0.01
  1
PJ
  7
WD
100
AcDbAttribute
  2
FAMILY
 70
9
  0
ATTRIB
  5
7F
330
74
100
AcDbEntity
  8
DESC
100
AcDbText
 10
-0.038255248370831
 20
-4.673536597548618
 30
0.0
 40
0.125
  1

  7
WD
 41
0.7
 72
2
 11
-0.038255248370831
 21
-4.673536597548618
 31
0.0
100
AcDbAttribute
  2
DESC2
 70
0
  0
ATTRIB
  5
80
330
74
100
AcDbEntity
  8
DESC
100
AcDbText
 10
-0.038255248370831
 20
-4.517290170395064
 30
0.0
 40
0.125
  1

  7
WD
 41
0.7
 72
2
 11
-0.038255248370831
 21
-4.517290170395064
 31
0.0
100
AcDbAttribute
  2
DESC1
 70
0
  0
ATTRIB
  5
81
330
74
100
AcDbEntity
  8
TAGS
100
AcDbText
 10
-0.8507552483708307
 20
-4.2567612657474
 30
0.0
 40
0.125
  1
201PJ211
  7
WD
 72
2
 11
-0.038255248370831
 21
-4.2567612657474
 31
0.0
100
AcDbAttribute
  2
TAG1
 70
1
  0
ATTRIB
  5
82
330
74
100
AcDbEntity
  8
TERMS
  6
Continuous
100
AcDbText
 10
0.0712447516291661
 20
-3.8817612657474
 30
0.0
 40
0.125
  1
1
  7
WD
 11
0.0712447516291661
 21
-3.7567612657474
 31
0.0
100
AcDbAttribute
  2
TERM01
 70
9
 74
3
  0
ATTRIB
  5
83
330
74
100
AcDbEntity
  8
MISC
100
AcDbText
 10
0.0242447516291691
 20
-3.9442612657474
 30
0.0
 40
0.0125
  1

  7
WD
100
AcDbAttribute
  2
X2TERM01
 70
1
  0
ATTRIB
  5
84
330
74
100
AcDbEntity
  8
MISC
100
AcDbText
 10
0.0242447516291691
 20
-4.1005112657474
 30
0.0
 40
0.0125
  1

  7
WD
100
AcDbAttribute
  2
X8TERM02
 70
1
  0
ATTRIB
  5
85
330
74
100
AcDbEntity
  8
TERMS
  6
Continuous
100
AcDbText
 10
0.0712447516291661
 20
-4.2255112657474
 30
0.0
 40
0.125
  1
1
  7
WD
100
AcDbAttribute
  2
TERM02
 70
9
  0
ATTRIB
  5
86
330
74
100
AcDbEntity
  8
MISC
100
AcDbText
 10
-0.1074703602195939
 20
-4.09303658620584
 30
0.0
 40
0.01
  1
VC0
  7
WD
100
AcDbAttribute
  2
WDBLKNAM
 70
9
  0
SEQEND
  5
87
330
74
100
AcDbEntity
  8
SYMS
 62
7
 48
0.2
  0
LINE
  5
88
330
30
100
AcDbEntity
  8
0
100
AcDbLine
 10
0.0239966253414536
 20
-3.944541098191365
 30
0.0
 11
0.0108251621806517
 21
-2.81846092173086
 31
0.0
  0
LINE
  5
89
330
30
100
AcDbEntity
  8
0
100
AcDbLine
 10
-0.489939095727209
 20
0.0022971944474079
 30
0.0
 11
0.5817607894431376
 21
-0.002723368952843
 31
0.0
  0
ATTDEF
  5
8A
330
30
100
AcDbEntity
  8
0
100
AcDbText
 10
-0.2299431025033982
 20
-2.181240009624275
 30
0.0
 40
0.15
  1

100
AcDbAttributeDefinition
  3

  2
40KA
 70
0
280
1
  0
ATTDEF
  5
8B
330
30
100
AcDbEntity
  8
0
100
AcDbText
 10
-0.2729745321004202
 20
-1.963523802358395
 30
0.0
 40
0.15
  1

100
AcDbAttributeDefinition
  3

  2
3150A
 70
0
280
1
  0
ATTDEF
  5
8C
330
30
100
AcDbEntity
  8
0
100
AcDbText
 10
-0.3370217742080968
 20
-1.536281420783154
 30
0.0
 40
0.15
  1

100
AcDbAttributeDefinition
  3

  2
52-GEN
 70
0
280
1
  0
ATTDEF
  5
8D
330
30
100
AcDbEntity
  8
0
100
AcDbText
 10
-0.3101345993696896
 20
-1.75930650988846
 30
0.0
 40
0.15
  1

100
AcDbAttributeDefinition
  3

  2
17.5KV
 70
0
280
1
  0
ENDBLK
  5
32
330
30
100
AcDbEntity
  8
0
100
AcDbBlockEnd
  0
BLOCK
  5
8F
330
8E
100
AcDbEntity
  8
0
100
AcDbBlockBegin
  2
VXF1CT
 70
2
 10
0.0
 20
0.0
 30
0.0
  3
VXF1CT
  1

  0
ARC
  5
91
330
8E
100
AcDbEntity
  8
0
100
AcDbCircle
 10
-0.34375
 20
-0.125
 30
0.0
 40
0.125
100
AcDbArc
 50
90.0
 51
270.0
  0
ARC
  5
92
330
8E
100
AcDbEntity
  8
0
100
AcDbCircle
 10
-0.34375
 20
0.125
 30
0.0
 40
0.125
100
AcDbArc
 50
90.0
 51
270.0
  0
LINE
  5
93
330
8E
100
AcDbEntity
  8
0
100
AcDbLine
 10
-0.34375
 20
0.0
 30
0.0
 11
-0.28125
 21
0.0
 31
0.0
  0
LINE
  5
94
330
8E
100
AcDbEntity
  8
0
100
AcDbLine
 10
-0.34375
 20
-0.25
 30
0.0
 11
-0.0321974015839574
 21
-0.25
 31
0.0
  0
LINE
  5
95
330
8E
100
AcDbEntity
  8
0
100
AcDbLine
 10
-0.34375
 20
0.25
 30
0.0
 11
-0.0321974015839574
 21
0.25
 31
0.0
  0
CIRCLE
  5
96
330
8E
100
AcDbEntity
  8
0
100
AcDbCircle
 10
0.0
 20
0.2490382372998621
 30
0.0
 40
0.032211762700138
  0
CIRCLE
  5
97
330
8E
100
AcDbEntity
  8
0
100
AcDbCircle
 10
0.0
 20
-0.2490382372998621
 30
0.0
 40
0.032211762700138
  0
ATTDEF
  5
98
330
8E
100
AcDbEntity
  8
0
100
AcDbText
 10
-0.2270833333333333
 20
-0.421875
 30
0.0
 40
0.125
  1

  7
WD
 41
0.7
 72
1
 11
-0.2270833333333333
 21
-0.421875
 31
0.0
100
AcDbAttributeDefinition
  3

  2
INST
 70
0
  0
ATTDEF
  5
99
330
8E
100
AcDbEntity
  8
0
100
AcDbText
 10
0.0
 20
-0.2831735254002758
 30
0.0
 40
0.0125
  1

  7
WD
100
AcDbAttributeDefinition
  3

  2
X8TERM01
 70
1
  0
ATTDEF
  5
9A
330
8E
100
AcDbEntity
  8
0
100
AcDbText
 10
0.0322117627001379
 20
-0.2509617627001379
 30
0.0
 40
0.0125
  1

  7
WD
100
AcDbAttributeDefinition
  3

  2
X1TERM01
 70
1
  0
ATTDEF
  5
9B
330
8E
100
AcDbEntity
  8
0
  6
Continuous
100
AcDbText
 10
-0.0549378303809576
 20
-0.2305439677362169
 30
0.0
 40
0.125
  1

  7
WD
 72
2
 11
-0.0549378303809576
 21
-0.2305439677362169
 31
0.0
100
AcDbAttributeDefinition
  3

  2
TERM01
 70
8
  0
ATTDEF
  5
9C
330
8E
100
AcDbEntity
  8
0
  6
Continuous
100
AcDbText
 10
-0.0449930830489329
 20
0.2669657848838338
 30
0.0
 40
0.125
  1

  7
WD
 72
2
 11
-0.0449930830489329
 21
0.2669657848838338
 31
0.0
100
AcDbAttributeDefinition
  3

  2
TERM02
 70
8
  0
ATTDEF
  5
9D
330
8E
100
AcDbEntity
  8
0
100
AcDbText
 10
0.0322117627001379
 20
0.2490382372998621
 30
0.0
 40
0.0125
  1

  7
WD
100
AcDbAttributeDefinition
  3

  2
X1TERM02
 70
1
  0
ATTDEF
  5
9E
330
8E
100
AcDbEntity
  8
0
100
AcDbText
 10
0.0
 20
0.28125
 30
0.0
 40
0.0125
  1

  7
WD
100
AcDbAttributeDefinition
  3

  2
X2TERM02
 70
1
  0
ATTDEF
  5
9F
330
8E
100
AcDbEntity
  8
0
100
AcDbText
 10
0.28125
 20
-0.125
 30
0.0
 40
0.125
  1

  7
WD
 41
0.7
100
AcDbAttributeDefinition
  3

  2
RATING1
 70
0
  0
ATTDEF
  5
A0
330
8E
100
AcDbEntity
  8
0
100
AcDbText
 10
0.28125
 20
0.03125
 30
0.0
 40
0.125
  1
XF
  7
WD
100
AcDbAttributeDefinition
  3

  2
TAG1
 70
0
  0
ATTDEF
  5
A1
330
8E
100
AcDbEntity
  8
0
100
AcDbText
 10
-0.200529377727209
 20
-0.7572946681987807
 30
0.0
 40
0.125
  1

  7
WD
 41
0.7
 72
1
 11
-0.200529377727209
 21
-0.7572946681987807
 31
0.0
100
AcDbAttributeDefinition
  3

  2
DESC1
 70
0
  0
ATTDEF
  5
A2
330
8E
100
AcDbEntity
  8
0
100
AcDbText
 10
-0.200529377727209
 20
-0.9135410953523359
 30
0.0
 40
0.125
  1

  7
WD
 41
0.7
 72
1
 11
-0.200529377727209
 21
-0.9135410953523359
 31
0.0
100
AcDbAttributeDefinition
  3

  2
DESC2
 70
0
  0
ATTDEF
  5
A3
330
8E
100
AcDbEntity
  8
0
100
AcDbText
 10
-0.200529377727209
 20
-0.6010482410452259
 30
0.0
 40
0.125
  1

  7
WD
 41
0.7
 72
1
 11
-0.200529377727209
 21
-0.6010482410452259
 31
0.0
100
AcDbAttributeDefinition
  3

  2
LOC
 70
0
  0
ATTDEF
  5
A4
330
8E
100
AcDbEntity
  8
0
  6
Continuous
100
AcDbText
 10
-0.1709301751010279
 20
0.1189553503863717
 30
0.0
 40
0.01
  1

  7
WD
 72
1
 11
-0.1709301751010279
 21
0.1189553503863717
 31
0.0
100
AcDbAttributeDefinition
  3

  2
ASSYCODE
 70
9
  0
ATTDEF
  5
A5
330
8E
100
AcDbEntity
  8
0
100
AcDbText
 10
-0.1927083333333333
 20
-0.046875
 30
0.0
 40
0.125
  1
C.T.
  7
WD
 72
1
 11
-0.046875
 21
-0.046875
 31
0.0
100
AcDbAttributeDefinition
  3

  2
TYPE
 70
0
  0
ATTDEF
  5
A6
330
8E
100
AcDbEntity
  8
0
100
AcDbText
 10
-0.1958072240996325
 20
0.1906902937183689
 30
0.0
 40
0.01
  1
XF
  7
WD
100
AcDbAttributeDefinition
  3

  2
FAMILY
 70
9
  0
ATTDEF
  5
A7
330
8E
100
AcDbEntity
  8
0
  6
Continuous
100
AcDbText
 10
-0.1707539581612827
 20
0.1621388778586058
 30
0.0
 40
0.01
  1

  7
WD
 72
1
 11
-0.1707539581612827
 21
0.1621388778586058
 31
0.0
100
AcDbAttributeDefinition
  3

  2
CAT
 70
9
  0
ATTDEF
  5
A8
330
8E
100
AcDbEntity
  8
0
  6
Continuous
100
AcDbText
 10
-0.1726990038012013
 20
0.1426971241511551
 30
0.0
 40
0.01
  1

  7
WD
 72
1
 11
-0.1726990038012013
 21
0.1426971241511551
 31
0.0
100
AcDbAttributeDefinition
  3

  2
MFG
 70
9
  0
ENDBLK
  5
90
330
8E
100
AcDbEntity
  8
0
100
AcDbBlockEnd
  0
BLOCK
  5
AA
330
A9
100
AcDbEntity
  8
0
100
AcDbBlockBegin
  2
WDDOT
 70
0
 10
0.0
 20
0.0
 30
0.0
  3
WDDOT
  1

  0
CIRCLE
  5
AC
330
A9
100
AcDbEntity
  8
0
100
AcDbCircle
 10
0.0
 20
0.0
 30
0.0
 40
0.0300000000000003
  0
CIRCLE
  5
AD
330
A9
100
AcDbEntity
  8
0
100
AcDbCircle
 10
0.0
 20
0.0
 30
0.0
 40
0.0187012496499282
  0
CIRCLE
  5
AE
330
A9
100
AcDbEntity
  8
0
100
AcDbCircle
 10
0.0
 20
0.0
 30
0.0
 40
0.0092948236686489
  0
ENDBLK
  5
AB
330
A9
100
AcDbEntity
  8
0
100
AcDbBlockEnd
  0
BLOCK
  5
B0
330
AF
100
AcDbEntity
  8
0
100
AcDbBlockBegin
  2
VCN1PJ
 70
2
 10
0.0
 20
0.0
 30
0.0
  3
VCN1PJ
  1

  0
LINE
  5
B2
330
AF
100
AcDbEntity
  8
0
100
AcDbLine
 10
0.0
 20
-0.03125
 30
0.0
 11
-0.0625
 21
-0.125
 31
0.0
  0
LINE
  5
B3
330
AF
100
AcDbEntity
  8
0
100
AcDbLine
 10
0.0
 20
-0.03125
 30
0.0
 11
0.0625
 21
-0.125
 31
0.0
  0
LINE
  5
B4
330
AF
100
AcDbEntity
  8
0
100
AcDbLine
 10
0.0
 20
0.0625
 30
0.0
 11
-0.09375
 21
-0.0625
 31
0.0
  0
LINE
  5
B5
330
AF
100
AcDbEntity
  8
0
100
AcDbLine
 10
0.0
 20
0.0625
 30
0.0
 11
0.09375
 21
-0.0625
 31
0.0
  0
LINE
  5
B6
330
AF
100
AcDbEntity
  8
0
100
AcDbLine
 10
0.0
 20
-0.03125
 30
0.0
 11
0.0
 21
-0.09375
 31
0.0
  0
ATTDEF
  5
B7
330
AF
100
AcDbEntity
  8
0
100
AcDbText
 10
0.2291666666666667
 20
0.8498017589547741
 30
0.0
 40
0.125
  1

  7
WD
 41
0.7
 72
2
 11
0.2291666666666667
 21
0.8498017589547741
 31
0.0
100
AcDbAttributeDefinition
  3

  2
INST
 70
0
  0
ATTDEF
  5
B8
330
AF
100
AcDbEntity
  8
0
100
AcDbText
 10
0.0130729268949868
 20
-0.1146401272584949
 30
0.0
 40
0.01
  1
P
  7
WD
100
AcDbAttributeDefinition
  3

  2
X8TERMDESC01
 70
1
  0
ATTDEF
  5
B9
330
AF
100
AcDbEntity
  8
0
100
AcDbText
 10
0.0261458644990533
 20
0.0416098677706964
 30
0.0
 40
0.01
  1
J
  7
WD
100
AcDbAttributeDefinition
  3

  2
X2TERMDESC02
 70
1
  0
ATTDEF
  5
BA
330
AF
100
AcDbEntity
  8
0
  6
Continuous
100
AcDbText
 10
-0.1090752636275756
 20
-0.0139434821641545
 30
0.0
 40
0.01
  1

  7
WD
 72
1
 11
-0.1090752636275756
 21
-0.0139434821641545
 31
0.0
100
AcDbAttributeDefinition
  3

  2
ASSYCODE
 70
9
  0
ATTDEF
  5
BB
330
AF
100
AcDbEntity
  8
0
100
AcDbText
 10
-0.125
 20
-0.0625
 30
0.0
 40
0.01
  1

  7
WD
100
AcDbAttributeDefinition
  3

  2
X4LINK
 70
0
  0
ATTDEF
  5
BC
330
AF
100
AcDbEntity
  8
0
100
AcDbText
 10
0.125
 20
-0.0625
 30
0.0
 40
0.01
  1

  7
WD
100
AcDbAttributeDefinition
  3

  2
X1LINK
 70
0
  0
ATTDEF
  5
BD
330
AF
100
AcDbEntity
  8
0
100
AcDbText
 10
-0.0625
 20
0.6802017589547742
 30
0.0
 40
0.125
  1

  7
WD
 41
0.7
 72
2
 11
-0.0625
 21
0.6802017589547742
 31
0.0
100
AcDbAttributeDefinition
  3

  2
LOC
 70
0
  0
ATTDEF
  5
BE
330
AF
100
AcDbEntity
  8
0
  6
Continuous
100
AcDbText
 10
-0.1086068915503407
 20
3.92832228555e-05
 30
0.0
 40
0.01
  1

  7
WD
 72
1
 11
-0.1086068915503407
 21
3.92832228555e-05
 31
0.0
100
AcDbAttributeDefinition
  3

  2
MFG
 70
9
  0
ATTDEF
  5
BF
330
AF
100
AcDbEntity
  8
0
  6
Continuous
100
AcDbText
 10
-0.1066618459104218
 20
0.0194810369303064
 30
0.0
 40
0.01
  1

  7
WD
 72
1
 11
-0.1066618459104218
 21
0.0194810369303064
 31
0.0
100
AcDbAttributeDefinition
  3

  2
CAT
 70
9
  0
ATTDEF
  5
C0
330
AF
100
AcDbEntity
  8
0
100
AcDbText
 10
-0.131715111848772
 20
0.0636574527900694
 30
0.0
 40
0.01
  1
PJ
  7
WD
100
AcDbAttributeDefinition
  3

  2
FAMILY
 70
9
  0
ATTDEF
  5
C1
330
AF
100
AcDbEntity
  8
0
100
AcDbText
 10
-0.0625
 20
0.3542789046476642
 30
0.0
 40
0.125
  1

  7
WD
 41
0.7
 72
2
 11
-0.0625
 21
0.3542789046476642
 31
0.0
100
AcDbAttributeDefinition
  3

  2
DESC2
 70
0
  0
ATTDEF
  5
C2
330
AF
100
AcDbEntity
  8
0
100
AcDbText
 10
-0.0625
 20
0.5105253318012193
 30
0.0
 40
0.125
  1

  7
WD
 41
0.7
 72
2
 11
-0.0625
 21
0.5105253318012193
 31
0.0
100
AcDbAttributeDefinition
  3

  2
DESC1
 70
0
  0
ATTDEF
  5
C3
330
AF
100
AcDbEntity
  8
0
100
AcDbText
 10
-0.2708333333333334
 20
0.09375
 30
0.0
 40
0.125
  1
PJ
  7
WD
 72
2
 11
-0.0625
 21
0.09375
 31
0.0
100
AcDbAttributeDefinition
  3

  2
TAG1
 70
0
  0
ATTDEF
  5
C4
330
AF
100
AcDbEntity
  8
0
  6
Continuous
100
AcDbText
 10
0.047
 20
-0.28125
 30
0.0
 40
0.125
  1
1
  7
WD
 11
0.047
 21
-0.15625
 31
0.0
100
AcDbAttributeDefinition
  3

  2
TERM01
 70
8
 74
3
  0
ATTDEF
  5
C5
330
AF
100
AcDbEntity
  8
0
100
AcDbText
 10
0.0
 20
-0.09375
 30
0.0
 40
0.0125
  1

  7
WD
100
AcDbAttributeDefinition
  3

  2
X8TERM01
 70
1
  0
ATTDEF
  5
C6
330
AF
100
AcDbEntity
  8
0
100
AcDbText
 10
0.0
 20
0.0625
 30
0.0
 40
0.0125
  1

  7
WD
100
AcDbAttributeDefinition
  3

  2
X2TERM02
 70
1
  0
ATTDEF
  5
C7
330
AF
100
AcDbEntity
  8
0
  6
Continuous
100
AcDbText
 10
0.047
 20
0.0625
 30
0.0
 40
0.125
  1
1
  7
WD
100
AcDbAttributeDefinition
  3

  2
TERM02
 70
8
  0
ATTDEF
  5
C8
330
AF
100
AcDbEntity
  8
0
100
AcDbText
 10
-0.131715111848772
 20
0.045025320458437
 30
0.0
 40
0.01
  1
VC0
  7
WD
100
AcDbAttributeDefinition
  3

  2
WDBLKNAM
 70
9
  0
ENDBLK
  5
B1
330
AF
100
AcDbEntity
  8
0
100
AcDbBlockEnd
  0
ENDSEC
  0
SECTION
  2
ENTITIES
  0
LINE
  5
CC
330
17
100
AcDbEntity
  8
0
370
50
100
AcDbLine
 10
-1.5
 20
20.0
 30
0.0
 11
13.5
 21
20.0
 31
0.0
  0
INSERT
  5
CD
330
17
100
AcDbEntity
  8
SLD
100
AcDbBlockReference
 66
1
  2
FEEDER_CELL
 10
0.0
 20
20.0
 30
0.0
  0
ATTRIB
  5
CF
330
17
100
AcDbEntity
  8
0
100
AcDbText
 10
-0.2299431025033982
 20
17.818759990375725
 30
0.0
 40
0.15
  1
25kA
 11
-0.2299431025033982
 21
17.818759990375725
 31
0.0
100
AcDbAttribute
  2
40KA
 70
0
280
1
  0
ATTRIB
  5
D0
330
17
100
AcDbEntity
  8
0
100
AcDbText
 10
-0.2729745321004202
 20
18.036476197641605
 30
0.0
 40
0.15
  1
800A
 11
-0.2729745321004202
 21
18.036476197641605
 31
0.0
100
AcDbAttribute
  2
3150A
 70
0
280
1
  0
ATTRIB
  5
D1
330
17
100
AcDbEntity
  8
0
100
AcDbText
 10
-0.3370217742080968
 20
18.463718579216845
 30
0.0
 40
0.15
  1
52-101
 11
-0.3370217742080968
 21
18.463718579216845
 31
0.0
100
AcDbAttribute
  2
52-GEN
 70
0
280
1
  0
ATTRIB
  5
D2
330
17
100
AcDbEntity
  8
0
100
AcDbText
 10
-0.3101345993696896
 20
18.24069349011154
 30
0.0
 40
0.15
  1
4160V
 11
-0.3101345993696896
 21
18.24069349011154
 31
0.0
100
AcDbAttribute
  2
17.5KV
 70
0
280
1
  0
SEQEND
  5
CE
330
CD
100
AcDbEntity
  8
SLD
  0
INSERT
  5
D3
330
17
100
AcDbEntity
  8
SLD
100
AcDbBlockReference
 66
1
  2
FEEDER_CELL
 10
3.0
 20
20.0
 30
0.0
  0
ATTRIB
  5
D5
330
17
100
AcDbEntity
  8
0
100
AcDbText
 10
2.7700568974966018
 20
17.818759990375725
 30
0.0
 40
0.15
  1
25kA
 11
2.7700568974966018
 21
17.818759990375725
 31
0.0
100
AcDbAttribute
  2
40KA
 70
0
280
1
  0
ATTRIB
  5
D6
330
17
100
AcDbEntity
  8
0
100
AcDbText
 10
2.72702546789958
 20
18.036476197641605
 30
0.0
 40
0.15
  1
800A
 11
2.72702546789958
 21
18.036476197641605
 31
0.0
100
AcDbAttribute
  2
3150A
 70
0
280
1
  0
ATTRIB
  5
D7
330
17
100
AcDbEntity
  8
0
100
AcDbText
 10
2.6629782257919032
 20
18.463718579216845
 30
0.0
 40
0.15
  1
52-102
 11
2.6629782257919032
 21
18.463718579216845
 31
0.0
100
AcDbAttribute
  2
52-GEN
 70
0
280
1
  0
ATTRIB
  5
D8
330
17
100
AcDbEntity
  8
0
100
AcDbText
 10
2.6898654006303104
 20
18.24069349011154
 30
0.0
 40
0.15
  1
4160V
 11
2.6898654006303104
 21
18.24069349011154
 31
0.0
100
AcDbAttribute
  2
17.5KV
 70
0
280
1
  0
SEQEND
  5
D4
330
D3
100
AcDbEntity
  8
SLD
  0
INSERT
  5
D9
330
17
100
AcDbEntity
  8
SLD
100
AcDbBlockReference
 66
1
  2
FEEDER_CELL
 10
6.0
 20
20.0
 30
0.0
  0
ATTRIB
  5
DB
330
17
100
AcDbEntity
  8
0
100
AcDbText
 10
5.770056897496602
 20
17.818759990375725
 30
0.0
 40
0.15
  1
40kA
 11
5.770056897496602
 21
17.818759990375725
 31
0.0
100
AcDbAttribute
  2
40KA
 70
0
280
1
  0
ATTRIB
  5
DC
330
17
100
AcDbEntity
  8
0
100
AcDbText
 10
5.72702546789958
 20
18.036476197641605
 30
0.0
 40
0.15
  1
1200A
 11
5.72702546789958
 21
18.036476197641605
 31
0.0
100
AcDbAttribute
  2
3150A
 70
0
280
1
  0
ATTRIB
  5
DD
330
17
100
AcDbEntity
  8
0
100
AcDbText
 10
5.662978225791903
 20
18.463718579216845
 30
0.0
 40
0.15
  1
52-103
 11
5.662978225791903
 21
18.463718579216845
 31
0.0
100
AcDbAttribute
  2
52-GEN
 70
0
280
1
  0
ATTRIB
  5
DE
330
17
100
AcDbEntity
  8
0
100
AcDbText
 10
5.68986540063031
 20
18.24069349011154
 30
0.0
 40
0.15
  1
4160V
 11
5.68986540063031
 21
18.24069349011154
 31
0.0
100
AcDbAttribute
  2
17.5KV
 70
0
280
1
  0
SEQEND
  5
DA
330
D9
100
AcDbEntity
  8
SLD
  0
INSERT
  5
DF
330
17
100
AcDbEntity
  8
SLD
100
AcDbBlockReference
 66
1
  2
FEEDER_CELL
 10
9.0
 20
20.0
 30
0.0
  0
ATTRIB
  5
E1
330
17
100
AcDbEntity
  8
0
100
AcDbText
 10
8.770056897496602
 20
17.818759990375725
 30
0.0
 40
0.15
  1
25kA
 11
8.770056897496602
 21
17.818759990375725
 31
0.0
100
AcDbAttribute
  2
40KA
 70
0
280
1
  0
ATTRIB
  5
E2
330
17
100
AcDbEntity
  8
0
100
AcDbText
 10
8.72702546789958
 20
18.036476197641605
 30
0.0
 40
0.15
  1
800A
 11
8.72702546789958
 21
18.036476197641605
 31
0.0
100
AcDbAttribute
  2
3150A
 70
0
280
1
  0
ATTRIB
  5
E3
330
17
100
AcDbEntity
  8
0
100
AcDbText
 10
8.662978225791903
 20
18.463718579216845
 30
0.0
 40
0.15
  1
52-104
 11
8.662978225791903
 21
18.463718579216845
 31
0.0
100
AcDbAttribute
  2
52-GEN
 70
0
280
1
  0
ATTRIB
  5
E4
330
17
100
AcDbEntity
  8
0
100
AcDbText
 10
8.68986540063031
 20
18.24069349011154
 30
0.0
 40
0.15
  1
4160V
 11
8.68986540063031
 21
18.24069349011154
 31
0.0
100
AcDbAttribute
  2
17.5KV
 70
0
280
1
  0
SEQEND
  5
E0
330
DF
100
AcDbEntity
  8
SLD
  0
INSERT
  5
E5
330
17
100
AcDbEntity
  8
SLD
100
AcDbBlockReference
 66
1
  2
FEEDER_CELL
 10
12.0
 20
20.0
 30
0.0
  0
ATTRIB
  5
E7
330
17
100
AcDbEntity
  8
0
100
AcDbText
 10
11.770056897496602
 20
17.818759990375725
 30
0.0
 40
0.15
  1
40kA
 11
11.770056897496602
 21
17.818759990375725
 31
0.0
100
AcDbAttribute
  2
40KA
 70
0
280
1
  0
ATTRIB
  5
E8
330
17
100
AcDbEntity
  8
0
100
AcDbText
 10
11.72702546789958
 20
18.036476197641605
 30
0.0
 40
0.15
  1
2000A
 11
11.72702546789958
 21
18.036476197641605
 31
0.0
100
AcDbAttribute
  2
3150A
 70
0
280
1
  0
ATTRIB
  5
E9
330
17
100
AcDbEntity
  8
0
100
AcDbText
 10
11.662978225791903
 20
18.463718579216845
 30
0.0
 40
0.15
  1
52-105
 11
11.662978225791903
 21
18.463718579216845
 31
0.0
100
AcDbAttribute
  2
52-GEN
 70
0
280
1
  0
ATTRIB
  5
EA
330
17
100
AcDbEntity
  8
0
100
AcDbText
 10
11.68986540063031
 20
18.24069349011154
 30
0.0
 40
0.15
  1
4160V
 11
11.68986540063031
 21
18.24069349011154
 31
0.0
100
AcDbAttribute
  2
17.5KV
 70
0
280
1
  0
SEQEND
  5
E6
330
E5
100
AcDbEntity
  8
SLD
  0
ENDSEC
  0
SECTION
  2
OBJECTS
  0
DICTIONARY
  5
A
330
0
100
AcDbDictionary
281
1
  3
ACAD_COLOR
350
B
  3
ACAD_GROUP
350
C
  3
ACAD_LAYOUT
350
D
  3
ACAD_MATERIAL
350
E
  3
ACAD_MLEADERSTYLE
350
F
  3
ACAD_MLINESTYLE
350
10
  3
ACAD_PLOTSETTINGS
350
11
  3
ACAD_PLOTSTYLENAME
350
12
  3
ACAD_SCALELIST
350
14
  3
ACAD_TABLESTYLE
350
15
  3
ACAD_VISUALSTYLE
350
16
  3
EZDXF_META
350
2D
  0
DICTIONARY
  5
B
330
A
100
AcDbDictionary
281
1
  0
DICTIONARY
  5
C
330
A
100
AcDbDictionary
281
1
  0
DICTIONARY
  5
D
330
A
100
AcDbDictionary
281
1
  3
Model
350
1A
  3
Layout1
350
1E
  0
DICTIONARY
  5
E
330
A
100
AcDbDictionary
281
1
  3
ByBlock
350
1F
  3
ByLayer
350
20
  3
Global
350
21
  0
DICTIONARY
  5
F
330
A
100
AcDbDictionary
281
1
  3
Standard
350
2C
  0
DICTIONARY
  5
10
330
A
100
AcDbDictionary
281
1
  3
Standard
350
22
  0
DICTIONARY
  5
11
330
A
100
AcDbDictionary
281
1
  0
ACDBDICTIONARYWDFLT
  5
12
330
A
100
AcDbDictionary
281
1
  3
Normal
350
13
100
AcDbDictionaryWithDefault
340
13
  0
ACDBPLACEHOLDER
  5
13
330
12
  0
DICTIONARY
  5
14
330
A
100
AcDbDictionary
281
1
  0
DICTIONARY
  5
15
330
A
100
AcDbDictionary
281
1
  0
DICTIONARY
  5
16
330
A
100
AcDbDictionary
281
1
  0
LAYOUT
  5
1A
330
D
100
AcDbPlotSettings
  1

  4
A3
  6

 40
7.5
 41
20.0
 42
7.5
 43
20.0
 44
420.0
 45
297.0
 46
0.0
 47
0.0
 48
0.0
 49
0.0
140
0.0
141
0.0
142
1.0
143
1.0
 70
1024
 72
1
 73
0
 74
5
  7

 75
16
 76
0
 77
2
 78
300
147
1.0
148
0.0
149
0.0
100
AcDbLayout
  1
Model
 70
1
 71
0
 10
0.0
 20
0.0
 11
420.0
 21
297.0
 12
0.0
 22
0.0
 32
0.0
 14
1e+20
 24
1e+20
 34
1e+20
 15
-1e+20
 25
-1e+20
 35
-1e+20
146
0.0
 13
0.0
 23
0.0
 33
0.0
 16
1.0
 26
0.0
 36
0.0
 17
0.0
 27
1.0
 37
0.0
 76
1
330
17
  0
LAYOUT
  5
1E
330
D
100
AcDbPlotSettings
  1

  4
A3
  6

 40
7.5
 41
20.0
 42
7.5
 43
20.0
 44
420.0
 45
297.0
 46
0.0
 47
0.0
 48
0.0
 49
0.0
140
0.0
141
0.0
142
1.0
143
1.0
 70
0
 72
1
 73
0
 74
5
  7

 75
16
 76
0
 77
2
 78
300
147
1.0
148
0.0
149
0.0
100
AcDbLayout
  1
Layout1
 70
1
 71
1
 10
0.0
 20
0.0
 11
420.0
 21
297.0
 12
0.0
 22
0.0
 32
0.0
 14
1e+20
 24
1e+20
 34
1e+20
 15
-1e+20
 25
-1e+20
 35
-1e+20
146
0.0
 13
0.0
 23
0.0
 33
0.0
 16
1.0
 26
0.0
 36
0.0
 17
0.0
 27
1.0
 37
0.0
 76
1
330
1B
  0
MATERIAL
  5
1F
102
{ACAD_REACTORS
330
E
102
}
330
E
100
AcDbMaterial
  1
ByBlock
  2

 70
0
 40
1.0
 71
1
 41
1.0
 91
-1023410177
 42
1.0
 72
1
  3

 73
1
 74
1
 75
1
 44
0.5
 73
0
 45
1.0
 46
1.0
 77
1
  4

 78
1
 79
1
170
1
 48
1.0
171
1
  6

172
1
173
1
174
1
140
1.0
141
1.0
175
1
  7

176
1
177
1
178
1
143
1.0
179
1
  8

270
1
271
1
272
1
145
1.0
146
1.0
273
1
  9

274
1
275
1
276
1
 42
1.0
 72
1
  3

 73
1
 74
1
 75
1
 94
63
  0
MATERIAL
  5
20
102
{ACAD_REACTORS
330
E
102
}
330
E
100
AcDbMaterial
  1
ByLayer
  2

 70
0
 40
1.0
 71
1
 41
1.0
 91
-1023410177
 42
1.0
 72
1
  3

 73
1
 74
1
 75
1
 44
0.5
 73
0
 45
1.0
 46
1.0
 77
1
  4

 78
1
 79
1
170
1
 48
1.0
171
1
  6

172
1
173
1
174
1
140
1.0
141
1.0
175
1
  7

176
1
177
1
178
1
143
1.0
179
1
  8

270
1
271
1
272
1
145
1.0
146
1.0
273
1
  9

274
1
275
1
276
1
 42
1.0
 72
1
  3

 73
1
 74
1
 75
1
 94
63
  0
MATERIAL
  5
21
102
{ACAD_REACTORS
330
E
102
}
330
E
100
AcDbMaterial
  1
Global
  2

 70
0
 40
1.0
 71
1
 41
1.0
 91
-1023410177
 42
1.0
 72
1
  3

 73
1
 74
1
 75
1
 44
0.5
 73
0
 45
1.0
 46
1.0
 77
1
  4

 78
1
 79
1
170
1
 48
1.0
171
1
  6

172
1
173
1
174
1
140
1.0
141
1.0
175
1
  7

176
1
177
1
178
1
143
1.0
179
1
  8

270
1
271
1
272
1
145
1.0
146
1.0
273
1
  9

274
1
275
1
276
1
 42
1.0
 72
1
  3

 73
1
 74
1
 75
1
 94
63
  0
MLINESTYLE
  5
22
102
{ACAD_REACTORS
330
10
102
}
330
10
100
AcDbMlineStyle
  2
Standard
 70
0
  3

 62
256
 51
90.0
 52
90.0
 71
2
 49
0.5
 62
256
  6
BYLAYER
 49
-0.5
 62
256
  6
BYLAYER
  0
MLEADERSTYLE
  5
2C
102
{ACAD_REACTORS
330
F
102
}
330
F
100
AcDbMLeaderStyle
179
2
170
2
171
1
172
0
 90
2
 40
0.0
 41
0.0
173
1
 91
-1056964608
 92
-2
290
1
 42
2.0
291
1
 43
8.0
  3
Standard
 44
4.0
300

342
29
174
1
175
1
176
0
178
1
 93
-1056964608
 45
4.0
292
0
297
0
 46
4.0
 94
-1056964608
 47
1.0
 49
1.0
140
1.0
294
1
141
0.0
177
0
142
1.0
295
0
296
0
143
3.75
271
0
272
9
273
9
  0
DICTIONARY
  5
2D
330
A
100
AcDbDictionary
280
1
281
1
  3
CREATED_BY_EZDXF
350
2E
  3
WRITTEN_BY_EZDXF
350
ED
  0
DICTIONARYVAR
  5
2E
330
2D
100
DictionaryVariables
280
0
  1
1.4.4 @ 2026-08-02T18:30:27.824912+00:00
  0
DICTIONARYVAR
  5
ED
330
2D
100
DictionaryVariables
280
0
  1
1.4.4 @ 2026-08-02T18:30:27.875554+00:00
  0
ENDSEC
  0
EOF
