  0
SECTION
  2
HEADER
  9
$ACADVER
  1
AC1027
  9
$ACADMAINTVER
 70
105
  9
$DWGCODEPAGE
  3
ANSI_1252
  9
$LASTSAVEDBY
  1
ezdxf
  9
$REQUIREDVERSIONS
160
0
  9
$INSBASE
 10
0.0
 20
0.0
 30
0.0
  9
$EXTMIN
 10
1e+20
 20
1e+20
 30
1e+20
  9
$EXTMAX
 10
-1e+20
 20
-1e+20
 30
-1e+20
  9
$LIMMIN
 10
0.0
 20
0.0
  9
$LIMMAX
 10
420.0
 20
297.0
  9
$ORTHOMODE
 70
0
  9
$REGENMODE
 70
1
  9
$FILLMODE
 70
1
  9
$QTEXTMODE
 70
0
  9
$MIRRTEXT
 70
1
  9
$LTSCALE
 40
0.15
  9
$ATTMODE
 70
1
  9
$TEXTSIZE
 40
2.5
  9
$TRACEWID
 40
1.0
  9
$TEXTSTYLE
  7
OpenSans
  9
$CLAYER
  8
0
  9
$CELTYPE
  6
ByLayer
  9
$CECOLOR
 62
256
  9
$CELTSCALE
 40
1.0
  9
$DISPSILH
 70
0
  9
$DIMSCALE
 40
1.0
  9
$DIMASZ
 40
0.175
  9
$DIMEXO
 40
0.125
  9
$DIMDLI
 40
3.75
  9
$DIMRND
 40
0.0
  9
$DIMDLE
 40
0.0
  9
$DIMEXE
 40
0.375
  9
$DIMTP
 40
0.0
  9
$DIMTM
 40
0.0
  9
$DIMTXT
 40
0.25
  9
$DIMCEN
 40
2.5
  9
$DIMTSZ
 40
0.0
  9
$DIMTOL
 70
0
  9
$DIMLIM
 70
0
  9
$DIMTIH
 70
0
  9
$DIMTOH
 70
0
  9
$DIMSE1
 70
0
  9
$DIMSE2
 70
0
  9
$DIMTAD
 70
1
  9
$DIMZIN
 70
12
  9
$DIMBLK
  1
ARCHTICK
  9
$DIMASO
 70
1
  9
$DIMSHO
 70
1
  9
$DIMPOST
  1

  9
$DIMAPOST
  1

  9
$DIMALT
 70
0
  9
$DIMALTD
 70
3
  9
$DIMALTF
 40
0.03937007874
  9
$DIMLFAC
 40
100.0
  9
$DIMTOFL
 70
1
  9
$DIMTVP
 40
0.0
  9
$DIMTIX
 70
0
  9
$DIMSOXD
 70
0
  9
$DIMSAH
 70
0
  9
$DIMBLK1
  1

  9
$DIMBLK2
  1

  9
$DIMSTYLE
  2
EZDXF
  9
$DIMCLRD
 70
0
  9
$DIMCLRE
 70
0
  9
$DIMCLRT
 70
0
  9
$DIMTFAC
 40
0.5
  9
$DIMGAP
 40
0.1
  9
$DIMJUST
 70
0
  9
$DIMSD1
 70
0
  9
$DIMSD2
 70
0
  9
$DIMTOLJ
 70
0
  9
$DIMTZIN
 70
8
  9
$DIMALTZ
 70
0
  9
$DIMALTTZ
 70
0
  9
$DIMUPT
 70
1
  9
$DIMDEC
 70
2
  9
$DIMTDEC
 70
2
  9
$DIMALTU
 70
2
  9
$DIMALTTD
 70
3
  9
$DIMTXSTY
  7
OpenSansCondensed-Light
  9
$DIMAUNIT
 70
0
  9
$DIMADEC
 70
2
  9
$DIMALTRND
 40
0.0
  9
$DIMAZIN
 70
3
  9
$DIMDSEP
 70
46
  9
$DIMATFIT
 70
3
  9
$DIMFRAC
 70
0
  9
$DIMLDRBLK
  1

  9
$DIMLUNIT
 70
2
  9
$DIMLWD
 70
-2
  9
$DIMLWE
 70
-2
  9
$DIMTMOVE
 70
2
  9
$DIMFXL
 40
1.0
  9
$DIMFXLON
 70
0
  9
$DIMJOGANG
 40
0.785398163397
  9
$DIMTFILL
 70
0
  9
$DIMTFILLCLR
 70
0
  9
$DIMARCSYM
 70
0
  9
$DIMLTYPE
  6

  9
$DIMLTEX1
  6

  9
$DIMLTEX2
  6

  9
$DIMTXTDIRECTION
 70
0
  9
$LUNITS
 70
2
  9
$LUPREC
 70
4
  9
$SKETCHINC
 40
1.0
  9
$FILLETRAD
 40
10.0
  9
$AUNITS
 70
0
  9
$AUPREC
 70
2
  9
$MENU
  1
.
  9
$ELEVATION
 40
0.0
  9
$PELEVATION
 40
0.0
  9
$THICKNESS
 40
0.0
  9
$LIMCHECK
 70
0
  9
$CHAMFERA
 40
0.0
  9
$CHAMFERB
 40
0.0
  9
$CHAMFERC
 40
0.0
  9
$CHAMFERD
 40
0.0
  9
$SKPOLY
 70
0
  9
$TDCREATE
 40
2461257.706550926
  9
$TDUCREATE
 40
2458532.153996898
  9
$TDUPDATE
 40
2461257.706550926
  9
$TDUUPDATE
 40
2458532.1544311
  9
$TDINDWG
 40
0.0
  9
$TDUSRTIMER
 40
0.0
  9
$USRTIMER
 70
1
  9
$ANGBASE
 50
0.0
  9
$ANGDIR
 70
0
  9
$PDMODE
 70
0
  9
$PDSIZE
 40
0.0
  9
$PLINEWID
 40
0.0
  9
$SPLFRAME
 70
0
  9
$SPLINETYPE
 70
6
  9
$SPLINESEGS
 70
8
  9
$HANDSEED
  5
2E0
  9
$SURFTAB1
 70
6
  9
$SURFTAB2
 70
6
  9
$SURFTYPE
 70
6
  9
$SURFU
 70
6
  9
$SURFV
 70
6
  9
$UCSBASE
  2

  9
$UCSNAME
  2

  9
$UCSORG
 10
0.0
 20
0.0
 30
0.0
  9
$UCSXDIR
 10
1.0
 20
0.0
 30
0.0
  9
$UCSYDIR
 10
0.0
 20
1.0
 30
0.0
  9
$UCSORTHOREF
  2

  9
$UCSORTHOVIEW
 70
0
  9
$UCSORGTOP
 10
0.0
 20
0.0
 30
0.0
  9
$UCSORGBOTTOM
 10
0.0
 20
0.0
 30
0.0
  9
$UCSORGLEFT
 10
0.0
 20
0.0
 30
0.0
  9
$UCSORGRIGHT
 10
0.0
 20
0.0
 30
0.0
  9
$UCSORGFRONT
 10
0.0
 20
0.0
 30
0.0
  9
$UCSORGBACK
 10
0.0
 20
0.0
 30
0.0
  9
$PUCSBASE
  2

  9
$PUCSNAME
  2

  9
$PUCSORG
 10
0.0
 20
0.0
 30
0.0
  9
$PUCSXDIR
 10
1.0
 20
0.0
 30
0.0
  9
$PUCSYDIR
 10
0.0
 20
1.0
 30
0.0
  9
$PUCSORTHOREF
  2

  9
$PUCSORTHOVIEW
 70
0
  9
$PUCSORGTOP
 10
0.0
 20
0.0
 30
0.0
  9
$PUCSORGBOTTOM
 10
0.0
 20
0.0
 30
0.0
  9
$PUCSORGLEFT
 10
0.0
 20
0.0
 30
0.0
  9
$PUCSORGRIGHT
 10
0.0
 20
0.0
 30
0.0
  9
$PUCSORGFRONT
 10
0.0
 20
0.0
 30
0.0
  9
$PUCSORGBACK
 10
0.0
 20
0.0
 30
0.0
  9
$USERI1
 70
0
  9
$USERI2
 70
0
  9
$USERI3
 70
0
  9
$USERI4
 70
0
  9
$USERI5
 70
0
  9
$USERR1
 40
0.0
  9
$USERR2
 40
0.0
  9
$USERR3
 40
0.0
  9
$USERR4
 40
0.0
  9
$USERR5
 40
0.0
  9
$WORLDVIEW
 70
1
  9
$SHADEDGE
 70
3
  9
$SHADEDIF
 70
70
  9
$TILEMODE
 70
1
  9
$MAXACTVP
 70
64
  9
$PINSBASE
 10
0.0
 20
0.0
 30
0.0
  9
$PLIMCHECK
 70
0
  9
$PEXTMIN
 10
1e+20
 20
1e+20
 30
1e+20
  9
$PEXTMAX
 10
-1e+20
 20
-1e+20
 30
-1e+20
  9
$PLIMMIN
 10
0.0
 20
0.0
  9
$PLIMMAX
 10
420.0
 20
297.0
  9
$UNITMODE
 70
0
  9
$VISRETAIN
 70
1
  9
$PLINEGEN
 70
0
  9
$PSLTSCALE
 70
1
  9
$TREEDEPTH
 70
3020
  9
$CMLSTYLE
  2
Standard
  9
$CMLJUST
 70
0
  9
$CMLSCALE
 40
20.0
  9
$PROXYGRAPHICS
 70
1
  9
$MEASUREMENT
 70
1
  9
$CELWEIGHT
370
-1
  9
$ENDCAPS
280
0
  9
$JOINSTYLE
280
0
  9
$LWDISPLAY
290
0
  9
$INSUNITS
 70
6
  9
$HYPERLINKBASE
  1

  9
$STYLESHEET
  1

  9
$XEDIT
290
1
  9
$CEPSNTYPE
380
0
  9
$PSTYLEMODE
290
1
  9
$FINGERPRINTGUID
  2
{64FDB673-6F39-43C9-85F1-C19075AE6B6A}
  9
$VERSIONGUID
  2
{621B3BC7-0313-46A4-B853-1554D8F6FB69}
  9
$EXTNAMES
290
1
  9
$PSVPSCALE
 40
0.0
  9
$OLESTARTUP
290
0
  9
$SORTENTS
280
127
  9
$INDEXCTL
280
0
  9
$HIDETEXT
280
1
  9
$XCLIPFRAME
280
1
  9
$HALOGAP
280
0
  9
$OBSCOLOR
 70
257
  9
$OBSLTYPE
280
0
  9
$INTERSECTIONDISPLAY
280
0
  9
$INTERSECTIONCOLOR
 70
257
  9
$DIMASSOC
280
2
  9
$PROJECTNAME
  1

  9
$CAMERADISPLAY
290
0
  9
$LENSLENGTH
 40
50.0
  9
$CAMERAHEIGHT
 40
0.0
  9
$STEPSPERSEC
 40
24.0
  9
$STEPSIZE
 40
100.0
  9
$3DDWFPREC
 40
2.0
  9
$PSOLWIDTH
 40
0.005
  9
$PSOLHEIGHT
 40
0.08
  9
$LOFTANG1
 40
1.570796326795
  9
$LOFTANG2
 40
1.570796326795
  9
$LOFTMAG1
 40
0.0
  9
$LOFTMAG2
 40
0.0
  9
$LOFTPARAM
 70
7
  9
$LOFTNORMALS
280
1
  9
$LATITUDE
 40
37.795
  9
$LONGITUDE
 40
-122.394
  9
$NORTHDIRECTION
 40
0.0
  9
$TIMEZONE
 70
-8000
  9
$LIGHTGLYPHDISPLAY
280
1
  9
$TILEMODELIGHTSYNCH
280
1
  9
$CMATERIAL
347
20
  9
$SOLIDHIST
280
0
  9
$SHOWHIST
280
1
  9
$DWFFRAME
280
2
  9
$DGNFRAME
280
2
  9
$REALWORLDSCALE
290
1
  9
$INTERFERECOLOR
 62
256
  9
$CSHADOW
280
0
  9
$SHADOWPLANELOCATION
 40
0.0
  0
ENDSEC
  0
SECTION
  2
CLASSES
  0
CLASS
  1
ACDBDICTIONARYWDFLT
  2
AcDbDictionaryWithDefault
  3
ObjectDBX Classes
 90
0
 91
0
280
0
281
0
  0
CLASS
  1
SUN
  2
AcDbSun
  3
SCENEOE
 90
1153
 91
0
280
0
281
0
  0
CLASS
  1
VISUALSTYLE
  2
AcDbVisualStyle
  3
ObjectDBX Classes
 90
4095
 91
0
280
0
281
0
  0
CLASS
  1
MATERIAL
  2
AcDbMaterial
  3
ObjectDBX Classes
 90
1153
 91
0
280
0
281
0
  0
CLASS
  1
SCALE
  2
AcDbScale
  3
ObjectDBX Classes
 90
1153
 91
0
280
0
281
0
  0
CLASS
  1
TABLESTYLE
  2
AcDbTableStyle
  3
ObjectDBX Classes
 90
4095
 91
0
280
0
281
0
  0
CLASS
  1
MLEADERSTYLE
  2
AcDbMLeaderStyle
  3
ACDB_MLEADERSTYLE_CLASS
 90
4095
 91
0
280
0
281
0
  0
CLASS
  1
DICTIONARYVAR
  2
AcDbDictionaryVar
  3
ObjectDBX Classes
 90
0
 91
0
280
0
281
0
  0
CLASS
  1
CELLSTYLEMAP
  2
AcDbCellStyleMap
  3
ObjectDBX Classes
 90
1152
 91
0
280
0
281
0
  0
CLASS
  1
MENTALRAYRENDERSETTINGS
  2
AcDbMentalRayRenderSettings
  3
SCENEOE
 90
1024
 91
0
280
0
281
0
  0
CLASS
  1
ACDBDETAILVIEWSTYLE
  2
AcDbDetailViewStyle
  3
ObjectDBX Classes
 90
1025
 91
0
280
0
281
0
  0
CLASS
  1
ACDBSECTIONVIEWSTYLE
  2
AcDbSectionViewStyle
  3
ObjectDBX Classes
 90
1025
 91
0
280
0
281
0
  0
CLASS
  1
RASTERVARIABLES
  2
AcDbRasterVariables
  3
ISM
 90
0
 91
0
280
0
281
0
  0
CLASS
  1
ACDBPLACEHOLDER
  2
AcDbPlaceHolder
  3
ObjectDBX Classes
 90
0
 91
0
280
0
281
0
  0
CLASS
  1
LAYOUT
  2
AcDbLayout
  3
ObjectDBX Classes
 90
0
 91
0
280
0
281
0
  0
ENDSEC
  0
SECTION
  2
TABLES
  0
TABLE
  2
VPORT
  5
8
330
0
100
AcDbSymbolTable
 70
1
  0
VPORT
  5
23
330
8
100
AcDbSymbolTableRecord
100
AcDbViewportTableRecord
  2
*Active
 70
0
 10
0.0
 20
0.0
 11
1.0
 21
1.0
 12
0.0
 22
0.0
 13
0.0
 23
0.0
 14
0.5
 24
0.5
 15
0.5
 25
0.5
 16
0.0
 26
0.0
 36
1.0
 17
0.0
 27
0.0
 37
0.0
 40
1000.0
 41
1.34
 42
50.0
 43
0.0
 44
0.0
 50
0.0
 51
0.0
 71
0
 72
1000
 73
1
 74
3
 75
0
 76
0
 77
0
 78
0
281
0
 65
0
146
0.0
  0
ENDTAB
  0
TABLE
  2
LTYPE
  5
2
330
0
100
AcDbSymbolTable
 70
21
  0
LTYPE
  5
24
330
2
100
AcDbSymbolTableRecord
100
AcDbLinetypeTableRecord
  2
ByBlock
 70
0
  3

 72
65
 73
0
 40
0.0
  0
LTYPE
  5
25
330
2
100
AcDbSymbolTableRecord
100
AcDbLinetypeTableRecord
  2
ByLayer
 70
0
  3

 72
65
 73
0
 40
0.0
  0
LTYPE
  5
26
330
2
100
AcDbSymbolTableRecord
100
AcDbLinetypeTableRecord
  2
Continuous
 70
0
  3

 72
65
 73
0
 40
0.0
  0
LTYPE
  5
2F
330
2
100
AcDbSymbolTableRecord
100
AcDbLinetypeTableRecord
  2
CENTER
 70
0
  3
Center ____ _ ____ _ ____ _ ____ _ ____ _ ____
 72
65
 73
4
 40
5.08
 49
3.175
 74
0
 49
-0.635
 74
0
 49
0.635
 74
0
 49
-0.635
 74
0
  0
LTYPE
  5
30
330
2
100
AcDbSymbolTableRecord
100
AcDbLinetypeTableRecord
  2
CENTERX2
 70
0
  3
Center (2x) ________  __  ________  __  ________
 72
65
 73
4
 40
8.89
 49
6.35
 74
0
 49
-0.635
 74
0
 49
1.27
 74
0
 49
-0.635
 74
0
  0
LTYPE
  5
31
330
2
100
AcDbSymbolTableRecord
100
AcDbLinetypeTableRecord
  2
CENTER2
 70
0
  3
Center (.5x) ____ _ ____ _ ____ _ ____ _ ____
 72
65
 73
4
 40
2.54
 49
1.587
 74
0
 49
-0.318
 74
0
 49
0.318
 74
0
 49
-0.318
 74
0
  0
LTYPE
  5
32
330
2
100
AcDbSymbolTableRecord
100
AcDbLinetypeTableRecord
  2
DASHED
 70
0
  3
Dashed __ __ __ __ __ __ __ __ __ __ __ __ __ _
 72
65
 73
2
 40
1.524
 49
1.27
 74
0
 49
-0.254
 74
0
  0
LTYPE
  5
33
330
2
100
AcDbSymbolTableRecord
100
AcDbLinetypeTableRecord
  2
DASHEDX2
 70
0
  3
Dashed (2x) ____  ____  ____  ____  ____  ____
 72
65
 73
2
 40
3.048
 49
2.54
 74
0
 49
-0.508
 74
0
  0
LTYPE
  5
34
330
2
100
AcDbSymbolTableRecord
100
AcDbLinetypeTableRecord
  2
DASHED2
 70
0
  3
Dashed (.5x) _ _ _ _ _ _ _ _ _ _ _ _ _ _
 72
65
 73
2
 40
0.762
 49
0.635
 74
0
 49
-0.127
 74
0
  0
LTYPE
  5
35
330
2
100
AcDbSymbolTableRecord
100
AcDbLinetypeTableRecord
  2
PHANTOM
 70
0
  3
Phantom ______  __  __  ______  __  __  ______
 72
65
 73
6
 40
6.35
 49
3.175
 74
0
 49
-0.635
 74
0
 49
0.635
 74
0
 49
-0.635
 74
0
 49
0.635
 74
0
 49
-0.635
 74
0
  0
LTYPE
  5
36
330
2
100
AcDbSymbolTableRecord
100
AcDbLinetypeTableRecord
  2
PHANTOMX2
 70
0
  3
Phantom (2x)____________    ____    ____    ____________
 72
65
 73
6
 40
10.795
 49
6.35
 74
0
 49
-0.635
 74
0
 49
1.27
 74
0
 49
-0.635
 74
0
 49
1.27
 74
0
 49
-0.635
 74
0
  0
LTYPE
  5
37
330
2
100
AcDbSymbolTableRecord
100
AcDbLinetypeTableRecord
  2
PHANTOM2
 70
0
  3
Phantom (.5x) ___ _ _ ___ _ _ ___ _ _ ___ _ _ ___
 72
65
 73
6
 40
3.175
 49
1.587
 74
0
 49
-0.318
 74
0
 49
0.318
 74
0
 49
-0.318
 74
0
 49
0.318
 74
0
 49
-0.318
 74
0
  0
LTYPE
  5
38
330
2
100
AcDbSymbolTableRecord
100
AcDbLinetypeTableRecord
  2
DASHDOT
 70
0
  3
Dash dot __ . __ . __ . __ . __ . __ . __ . __
 72
65
 73
4
 40
3.556
 49
2.54
 74
0
 49
-0.508
 74
0
 49
0.0
 74
0
 49
-0.508
 74
0
  0
LTYPE
  5
39
330
2
100
AcDbSymbolTableRecord
100
AcDbLinetypeTableRecord
  2
DASHDOTX2
 70
0
  3
Dash dot (2x) ____  .  ____  .  ____  .  ____
 72
65
 73
4
 40
6.096
 49
5.08
 74
0
 49
-0.508
 74
0
 49
0.0
 74
0
 49
-0.508
 74
0
  0
LTYPE
  5
3A
330
2
100
AcDbSymbolTableRecord
100
AcDbLinetypeTableRecord
  2
DASHDOT2
 70
0
  3
Dash dot (.5x) _ . _ . _ . _ . _ . _ . _ . _
 72
65
 73
4
 40
1.778
 49
1.27
 74
0
 49
-0.254
 74
0
 49
0.0
 74
0
 49
-0.254
 74
0
  0
LTYPE
  5
3B
330
2
100
AcDbSymbolTableRecord
100
AcDbLinetypeTableRecord
  2
DOT
 70
0
  3
Dot .  .  .  .  .  .  .  .  .  .  .  .  .  .  .  .
 72
65
 73
2
 40
0.508
 49
0.0
 74
0
 49
-0.508
 74
0
  0
LTYPE
  5
3C
330
2
100
AcDbSymbolTableRecord
100
AcDbLinetypeTableRecord
  2
DOTX2
 70
0
  3
Dot (2x) .    .    .    .    .    .    .    . 
 72
65
 73
2
 40
1.016
 49
0.0
 74
0
 49
-1.016
 74
0
  0
LTYPE
  5
3D
330
2
100
AcDbSymbolTableRecord
100
AcDbLinetypeTableRecord
  2
DOT2
 70
0
  3
Dot (.5) . . . . . . . . . . . . . . . . . . . 
 72
65
 73
2
 40
0.254
 49
0.0
 74
0
 49
-0.254
 74
0
  0
LTYPE
  5
3E
330
2
100
AcDbSymbolTableRecord
100
AcDbLinetypeTableRecord
  2
DIVIDE
 70
0
  3
Divide __ . . __ . . __ . . __ . . __ . . __
 72
65
 73
6
 40
4.064
 49
2.54
 74
0
 49
-0.508
 74
0
 49
0.0
 74
0
 49
-0.508
 74
0
 49
0.0
 74
0
 49
-0.508
 74
0
  0
LTYPE
  5
3F
330
2
100
AcDbSymbolTableRecord
100
AcDbLinetypeTableRecord
  2
DIVIDEX2
 70
0
  3
Divide (2x) ____  . .  ____  . .  ____  . .  ____
 72
65
 73
6
 40
6.604
 49
5.08
 74
0
 49
-0.508
 74
0
 49
0.0
 74
0
 49
-0.508
 74
0
 49
0.0
 74
0
 49
-0.508
 74
0
  0
LTYPE
  5
40
330
2
100
AcDbSymbolTableRecord
100
AcDbLinetypeTableRecord
  2
DIVIDE2
 70
0
  3
Divide(.5x) _ . _ . _ . _ . _ . _ . _ . _
 72
65
 73
6
 40
2.032
 49
1.27
 74
0
 49
-0.254
 74
0
 49
0.0
 74
0
 49
-0.254
 74
0
 49
0.0
 74
0
 49
-0.254
 74
0
  0
ENDTAB
  0
TABLE
  2
LAYER
  5
1
330
0
100
AcDbSymbolTable
 70
10
  0
LAYER
  5
27
330
1
100
AcDbSymbolTableRecord
100
AcDbLayerTableRecord
  2
0
 70
0
 62
7
  6
Continuous
370
-3
390
13
347
21
  0
LAYER
  5
28
330
1
100
AcDbSymbolTableRecord
100
AcDbLayerTableRecord
  2
Defpoints
 70
0
 62
7
  6
Continuous
290
0
370
-3
390
13
347
21
  0
LAYER
  5
8A
330
1
100
AcDbSymbolTableRecord
100
AcDbLayerTableRecord
  2
SLD_BUS
 70
0
 62
5
  6
Continuous
370
50
390
13
347
21
  0
LAYER
  5
8B
330
1
100
AcDbSymbolTableRecord
100
AcDbLayerTableRecord
  2
SLD_WIRE
 70
0
 62
7
  6
Continuous
370
25
390
13
347
21
  0
LAYER
  5
8C
330
1
100
AcDbSymbolTableRecord
100
AcDbLayerTableRecord
  2
SLD_SYMS
 70
0
 62
7
  6
Continuous
370
25
390
13
347
21
  0
LAYER
  5
8D
330
1
100
AcDbSymbolTableRecord
100
AcDbLayerTableRecord
  2
SLD_CUBICLE
 70
0
 62
8
  6
Continuous
370
13
390
13
347
21
  0
LAYER
  5
8E
330
1
100
AcDbSymbolTableRecord
100
AcDbLayerTableRecord
  2
SLD_TEXT
 70
0
 62
7
  6
Continuous
370
13
390
13
347
21
  0
LAYER
  5
8F
330
1
100
AcDbSymbolTableRecord
100
AcDbLayerTableRecord
  2
SLD_CONTROL
 70
0
 62
7
  6
Continuous
370
13
390
13
347
21
  0
LAYER
  5
13F
330
1
100
AcDbSymbolTableRecord
100
AcDbLayerTableRecord
  2
WIRES
 70
0
 62
7
  6
Continuous
370
-3
390
13
347
21
348
0
  0
LAYER
  5
140
330
1
100
AcDbSymbolTableRecord
100
AcDbLayerTableRecord
  2
SYMS
 70
0
 62
7
  6
Continuous
370
-3
390
13
347
21
348
0
  0
ENDTAB
  0
TABLE
  2
STYLE
  5
5
330
0
100
AcDbSymbolTable
 70
27
  0
STYLE
  5
29
330
5
100
AcDbSymbolTableRecord
100
AcDbTextStyleTableRecord
  2
Standard
 70
0
 40
0.0
 41
1.0
 50
0.0
 71
0
 42
2.5
  3
txt
  4

  0
STYLE
  5
41
330
5
100
AcDbSymbolTableRecord
100
AcDbTextStyleTableRecord
  2
OpenSans-Light
 70
0
 40
0.0
 41
1.0
 50
0.0
 71
0
 42
2.5
  3
OpenSans-Light.ttf
  4

  0
STYLE
  5
42
330
5
100
AcDbSymbolTableRecord
100
AcDbTextStyleTableRecord
  2
OpenSans-Light-Italic
 70
0
 40
0.0
 41
1.0
 50
0.0
 71
0
 42
2.5
  3
OpenSans-LightItalic.ttf
  4

  0
STYLE
  5
43
330
5
100
AcDbSymbolTableRecord
100
AcDbTextStyleTableRecord
  2
OpenSans
 70
0
 40
0.0
 41
1.0
 50
0.0
 71
0
 42
2.5
  3
OpenSans-Regular.ttf
  4

  0
STYLE
  5
44
330
5
100
AcDbSymbolTableRecord
100
AcDbTextStyleTableRecord
  2
OpenSans-Italic
 70
0
 40
0.0
 41
1.0
 50
0.0
 71
0
 42
2.5
  3
OpenSans-Italic.ttf
  4

  0
STYLE
  5
45
330
5
100
AcDbSymbolTableRecord
100
AcDbTextStyleTableRecord
  2
OpenSans-SemiBold
 70
0
 40
0.0
 41
1.0
 50
0.0
 71
0
 42
2.5
  3
OpenSans-SemiBold.ttf
  4

  0
STYLE
  5
46
330
5
100
AcDbSymbolTableRecord
100
AcDbTextStyleTableRecord
  2
OpenSans-SemiBoldItalic
 70
0
 40
0.0
 41
1.0
 50
0.0
 71
0
 42
2.5
  3
OpenSans-SemiBoldItalic.ttf
  4

  0
STYLE
  5
47
330
5
100
AcDbSymbolTableRecord
100
AcDbTextStyleTableRecord
  2
OpenSans-Bold
 70
0
 40
0.0
 41
1.0
 50
0.0
 71
0
 42
2.5
  3
OpenSans-Bold.ttf
  4

  0
STYLE
  5
48
330
5
100
AcDbSymbolTableRecord
100
AcDbTextStyleTableRecord
  2
OpenSans-BoldItalic
 70
0
 40
0.0
 41
1.0
 50
0.0
 71
0
 42
2.5
  3
OpenSans-BoldItalic.ttf
  4

  0
STYLE
  5
49
330
5
100
AcDbSymbolTableRecord
100
AcDbTextStyleTableRecord
  2
OpenSans-ExtraBold
 70
0
 40
0.0
 41
1.0
 50
0.0
 71
0
 42
2.5
  3
OpenSans-ExtraBold.ttf
  4

  0
STYLE
  5
4A
330
5
100
AcDbSymbolTableRecord
100
AcDbTextStyleTableRecord
  2
OpenSans-ExtraBoldItalic
 70
0
 40
0.0
 41
1.0
 50
0.0
 71
0
 42
2.5
  3
OpenSans-ExtraBoldItalic.ttf
  4

  0
STYLE
  5
4B
330
5
100
AcDbSymbolTableRecord
100
AcDbTextStyleTableRecord
  2
OpenSansCondensed-Bold
 70
0
 40
0.0
 41
1.0
 50
0.0
 71
0
 42
2.5
  3
OpenSansCondensed-Bold.ttf
  4

  0
STYLE
  5
4C
330
5
100
AcDbSymbolTableRecord
100
AcDbTextStyleTableRecord
  2
OpenSansCondensed-Light
 70
0
 40
0.0
 41
1.0
 50
0.0
 71
0
 42
2.5
  3
OpenSansCondensed-Light.ttf
  4

  0
STYLE
  5
4D
330
5
100
AcDbSymbolTableRecord
100
AcDbTextStyleTableRecord
  2
OpenSansCondensed-Italic
 70
0
 40
0.0
 41
1.0
 50
0.0
 71
0
 42
2.5
  3
OpenSansCondensed-LightItalic.ttf
  4

  0
STYLE
  5
4E
330
5
100
AcDbSymbolTableRecord
100
AcDbTextStyleTableRecord
  2
LiberationSans
 70
0
 40
0.0
 41
1.0
 50
0.0
 71
0
 42
2.5
  3
LiberationSans-Regular.ttf
  4

  0
STYLE
  5
4F
330
5
100
AcDbSymbolTableRecord
100
AcDbTextStyleTableRecord
  2
LiberationSans-Bold
 70
0
 40
0.0
 41
1.0
 50
0.0
 71
0
 42
2.5
  3
LiberationSans-Bold.ttf
  4

  0
STYLE
  5
50
330
5
100
AcDbSymbolTableRecord
100
AcDbTextStyleTableRecord
  2
LiberationSans-BoldItalic
 70
0
 40
0.0
 41
1.0
 50
0.0
 71
0
 42
2.5
  3
LiberationSans-BoldItalic.ttf
  4

  0
STYLE
  5
51
330
5
100
AcDbSymbolTableRecord
100
AcDbTextStyleTableRecord
  2
LiberationSans-Italic
 70
0
 40
0.0
 41
1.0
 50
0.0
 71
0
 42
2.5
  3
LiberationSans-Italic.ttf
  4

  0
STYLE
  5
52
330
5
100
AcDbSymbolTableRecord
100
AcDbTextStyleTableRecord
  2
LiberationSerif
 70
0
 40
0.0
 41
1.0
 50
0.0
 71
0
 42
2.5
  3
LiberationSerif-Regular.ttf
  4

  0
STYLE
  5
53
330
5
100
AcDbSymbolTableRecord
100
AcDbTextStyleTableRecord
  2
LiberationSerif-Bold
 70
0
 40
0.0
 41
1.0
 50
0.0
 71
0
 42
2.5
  3
LiberationSerif-Bold.ttf
  4

  0
STYLE
  5
54
330
5
100
AcDbSymbolTableRecord
100
AcDbTextStyleTableRecord
  2
LiberationSerif-BoldItalic
 70
0
 40
0.0
 41
1.0
 50
0.0
 71
0
 42
2.5
  3
LiberationSerif-BoldItalic.ttf
  4

  0
STYLE
  5
55
330
5
100
AcDbSymbolTableRecord
100
AcDbTextStyleTableRecord
  2
LiberationSerif-Italic
 70
0
 40
0.0
 41
1.0
 50
0.0
 71
0
 42
2.5
  3
LiberationSerif-Italic.ttf
  4

  0
STYLE
  5
56
330
5
100
AcDbSymbolTableRecord
100
AcDbTextStyleTableRecord
  2
LiberationMono
 70
0
 40
0.0
 41
1.0
 50
0.0
 71
0
 42
2.5
  3
LiberationMono-Regular.ttf
  4

  0
STYLE
  5
57
330
5
100
AcDbSymbolTableRecord
100
AcDbTextStyleTableRecord
  2
LiberationMono-Bold
 70
0
 40
0.0
 41
1.0
 50
0.0
 71
0
 42
2.5
  3
LiberationMono-Bold.ttf
  4

  0
STYLE
  5
58
330
5
100
AcDbSymbolTableRecord
100
AcDbTextStyleTableRecord
  2
LiberationMono-BoldItalic
 70
0
 40
0.0
 41
1.0
 50
0.0
 71
0
 42
2.5
  3
LiberationMono-BoldItalic.ttf
  4

  0
STYLE
  5
59
330
5
100
AcDbSymbolTableRecord
100
AcDbTextStyleTableRecord
  2
LiberationMono-Italic
 70
0
 40
0.0
 41
1.0
 50
0.0
 71
0
 42
2.5
  3
LiberationMono-Italic.ttf
  4

  0
STYLE
  5
141
330
5
100
AcDbSymbolTableRecord
100
AcDbTextStyleTableRecord
  2
WD
 70
0
 40
0.0
 41
1.0
 50
0.0
 71
0
 42
0.15
  3
txt
  4

  0
ENDTAB
  0
TABLE
  2
VIEW
  5
7
330
0
100
AcDbSymbolTable
 70
0
  0
ENDTAB
  0
TABLE
  2
UCS
  5
6
330
0
100
AcDbSymbolTable
 70
0
  0
ENDTAB
  0
TABLE
  2
APPID
  5
3
330
0
100
AcDbSymbolTable
 70
3
  0
APPID
  5
2A
330
3
100
AcDbSymbolTableRecord
100
AcDbRegAppTableRecord
  2
ACAD
 70
0
  0
APPID
  5
2DD
330
3
100
AcDbSymbolTableRecord
100
AcDbRegAppTableRecord
  2
HATCHBACKGROUNDCOLOR
 70
0
  0
APPID
  5
2DE
330
3
100
AcDbSymbolTableRecord
100
AcDbRegAppTableRecord
  2
EZDXF
 70
0
  0
ENDTAB
  0
TABLE
  2
DIMSTYLE
  5
4
330
0
100
AcDbSymbolTable
 70
12
100
AcDbDimStyleTable
  0
DIMSTYLE
105
2B
330
4
100
AcDbSymbolTableRecord
100
AcDbDimStyleTableRecord
  2
Standard
 70
0
 40
1.0
 41
2.5
 42
0.625
 43
3.75
 44
1.25
 45
0.0
 46
0.0
 47
0.0
 48
0.0
 49
2.5
140
2.5
141
2.5
142
0.0
143
0.03937007874
144
1.0
145
0.0
146
1.0
147
0.625
148
0.0
 69
0
 70
0
 71
0
 72
0
 73
0
 74
0
 75
0
 76
0
 77
1
 78
8
 79
3
170
0
171
3
172
1
173
0
174
0
175
0
176
0
177
0
178
0
179
2
271
2
272
2
273
2
274
3
275
0
276
0
277
2
278
44
279
0
280
0
281
0
282
0
283
0
284
8
285
0
286
0
288
0
289
3
290
0
371
-2
372
-2
  0
DIMSTYLE
105
73
330
4
100
AcDbSymbolTableRecord
100
AcDbDimStyleTableRecord
  2
EZDXF
 70
0
 40
1.0
 41
0.175
 42
0.125
 43
3.75
 44
0.375
 45
0.0
 46
0.0
 47
0.0
 48
0.0
 49
2.5
140
0.25
141
2.5
142
0.0
143
0.03937007874
144
100.0
145
0.0
146
0.5
147
0.1
148
0.0
 69
0
 70
0
 71
0
 72
0
 73
0
 74
0
 75
0
 76
0
 77
1
 78
12
 79
3
170
0
171
3
172
1
173
0
174
0
175
0
176
0
177
0
178
0
179
2
271
2
272
2
273
2
274
3
275
0
276
0
277
2
278
46
279
2
280
0
281
0
282
0
283
0
284
8
285
0
286
0
288
1
289
3
290
0
340
4C
342
74
371
-2
372
-2
  0
DIMSTYLE
105
7C
330
4
100
AcDbSymbolTableRecord
100
AcDbDimStyleTableRecord
  2
EZ_M_100_H25_CM
 70
0
 40
1.0
 41
0.25
 42
0.125
 43
3.75
 44
0.375
 45
0.0
 46
0.0
 47
0.0
 48
0.0
 49
2.5
140
0.25
141
2.5
142
0.125
143
0.03937007874
144
100.0
145
0.0
146
0.5
147
0.1
148
0.0
 69
0
 70
0
 71
0
 72
0
 73
0
 74
0
 75
0
 76
0
 77
1
 78
12
 79
3
170
0
171
3
172
1
173
0
174
0
175
0
176
0
177
0
178
0
179
2
271
2
272
2
273
2
274
3
275
0
276
0
277
2
278
46
279
2
280
0
281
0
282
0
283
0
284
8
285
0
286
0
288
1
289
3
290
0
340
4C
371
-2
372
-2
  0
DIMSTYLE
105
7D
330
4
100
AcDbSymbolTableRecord
100
AcDbDimStyleTableRecord
  2
EZ_M_50_H25_CM
 70
0
 40
1.0
 41
0.125
 42
0.0625
 43
3.75
 44
0.1875
 45
0.0
 46
0.0
 47
0.0
 48
0.0
 49
2.5
140
0.125
141
2.5
142
0.0625
143
0.03937007874
144
100.0
145
0.0
146
0.5
147
0.05
148
0.0
 69
0
 70
0
 71
0
 72
0
 73
0
 74
0
 75
0
 76
0
 77
1
 78
12
 79
3
170
0
171
3
172
1
173
0
174
0
175
0
176
0
177
0
178
0
179
2
271
2
272
2
273
2
274
3
275
0
276
0
277
2
278
46
279
2
280
0
281
0
282
0
283
0
284
8
285
0
286
0
288
1
289
3
290
0
340
4C
371
-2
372
-2
  0
DIMSTYLE
105
7E
330
4
100
AcDbSymbolTableRecord
100
AcDbDimStyleTableRecord
  2
EZ_M_25_H25_CM
 70
0
 40
1.0
 41
0.0625
 42
0.03125
 43
3.75
 44
0.09375
 45
0.0
 46
0.0
 47
0.0
 48
0.0
 49
2.5
140
0.0625
141
2.5
142
0.03125
143
0.03937007874
144
100.0
145
0.0
146
0.5
147
0.025
148
0.0
 69
0
 70
0
 71
0
 72
0
 73
0
 74
0
 75
0
 76
0
 77
1
 78
12
 79
3
170
0
171
3
172
1
173
0
174
0
175
0
176
0
177
0
178
0
179
2
271
2
272
2
273
2
274
3
275
0
276
0
277
2
278
46
279
2
280
0
281
0
282
0
283
0
284
8
285
0
286
0
288
1
289
3
290
0
340
4C
371
-2
372
-2
  0
DIMSTYLE
105
7F
330
4
100
AcDbSymbolTableRecord
100
AcDbDimStyleTableRecord
  2
EZ_M_20_H25_CM
 70
0
 40
1.0
 41
0.05
 42
0.025
 43
3.75
 44
0.07500000000000001
 45
0.0
 46
0.0
 47
0.0
 48
0.0
 49
2.5
140
0.05
141
2.5
142
0.025
143
0.03937007874
144
100.0
145
0.0
146
0.5
147
0.020000000000000004
148
0.0
 69
0
 70
0
 71
0
 72
0
 73
0
 74
0
 75
0
 76
0
 77
1
 78
12
 79
3
170
0
171
3
172
1
173
0
174
0
175
0
176
0
177
0
178
0
179
2
271
2
272
2
273
2
274
3
275
0
276
0
277
2
278
46
279
2
280
0
281
0
282
0
283
0
284
8
285
0
286
0
288
1
289
3
290
0
340
4C
371
-2
372
-2
  0
DIMSTYLE
105
80
330
4
100
AcDbSymbolTableRecord
100
AcDbDimStyleTableRecord
  2
EZ_M_10_H25_CM
 70
0
 40
1.0
 41
0.025
 42
0.0125
 43
3.75
 44
0.037500000000000006
 45
0.0
 46
0.0
 47
0.0
 48
0.0
 49
2.5
140
0.025
141
2.5
142
0.0125
143
0.03937007874
144
100.0
145
0.0
146
0.5
147
0.010000000000000002
148
0.0
 69
0
 70
0
 71
0
 72
0
 73
0
 74
0
 75
0
 76
0
 77
1
 78
12
 79
3
170
0
171
3
172
1
173
0
174
0
175
0
176
0
177
0
178
0
179
2
271
2
272
2
273
2
274
3
275
0
276
0
277
2
278
46
279
2
280
0
281
0
282
0
283
0
284
8
285
0
286
0
288
1
289
3
290
0
340
4C
371
-2
372
-2
  0
DIMSTYLE
105
81
330
4
100
AcDbSymbolTableRecord
100
AcDbDimStyleTableRecord
  2
EZ_M_5_H25_CM
 70
0
 40
1.0
 41
0.0125
 42
0.00625
 43
3.75
 44
0.018750000000000003
 45
0.0
 46
0.0
 47
0.0
 48
0.0
 49
2.5
140
0.0125
141
2.5
142
0.00625
143
0.03937007874
144
100.0
145
0.0
146
0.5
147
0.005000000000000001
148
0.0
 69
0
 70
0
 71
0
 72
0
 73
0
 74
0
 75
0
 76
0
 77
1
 78
12
 79
3
170
0
171
3
172
1
173
0
174
0
175
0
176
0
177
0
178
0
179
2
271
2
272
2
273
2
274
3
275
0
276
0
277
2
278
46
279
2
280
0
281
0
282
0
283
0
284
8
285
0
286
0
288
1
289
3
290
0
340
4C
371
-2
372
-2
  0
DIMSTYLE
105
82
330
4
100
AcDbSymbolTableRecord
100
AcDbDimStyleTableRecord
  2
EZ_M_1_H25_CM
 70
0
 40
1.0
 41
0.0025
 42
0.00125
 43
3.75
 44
0.00375
 45
0.0
 46
0.0
 47
0.0
 48
0.0
 49
2.5
140
0.0025
141
2.5
142
0.00125
143
0.03937007874
144
100.0
145
0.0
146
0.5
147
0.001
148
0.0
 69
0
 70
0
 71
0
 72
0
 73
0
 74
0
 75
0
 76
0
 77
1
 78
12
 79
3
170
0
171
3
172
1
173
0
174
0
175
0
176
0
177
0
178
0
179
2
271
2
272
2
273
2
274
3
275
0
276
0
277
2
278
46
279
2
280
0
281
0
282
0
283
0
284
8
285
0
286
0
288
1
289
3
290
0
340
4C
371
-2
372
-2
  0
DIMSTYLE
105
83
330
4
100
AcDbSymbolTableRecord
100
AcDbDimStyleTableRecord
  2
EZ_RADIUS
 70
0
 40
1.0
 41
0.25
 42
0.125
 43
3.75
 44
0.375
 45
0.0
 46
0.0
 47
0.0
 48
0.0
 49
2.5
140
0.25
141
0.0
142
0.0
143
0.03937007874
144
100.0
145
0.0
146
0.5
147
0.1
148
0.0
 69
0
 70
0
 71
0
 72
0
 73
0
 74
0
 75
0
 76
0
 77
1
 78
12
 79
3
170
0
171
3
172
0
173
0
174
0
175
0
176
0
177
0
178
0
179
2
271
2
272
2
273
2
274
3
275
0
276
0
277
2
278
46
279
1
280
0
281
0
282
0
283
0
284
8
285
0
286
0
288
1
289
3
290
0
340
4C
342
84
371
-2
372
-2
  0
DIMSTYLE
105
88
330
4
100
AcDbSymbolTableRecord
100
AcDbDimStyleTableRecord
  2
EZ_RADIUS_INSIDE
 70
0
 40
1.0
 41
0.25
 42
0.125
 43
3.75
 44
0.375
 45
0.0
 46
0.0
 47
0.0
 48
0.0
 49
2.5
140
0.25
141
0.0
142
0.0
143
0.03937007874
144
100.0
145
0.0
146
0.5
147
0.1
148
0.0
 69
0
 70
0
 71
0
 72
0
 73
0
 74
0
 75
0
 76
0
 77
0
 78
12
 79
3
170
0
171
3
172
0
173
0
174
1
175
0
176
0
177
0
178
0
179
2
271
2
272
2
273
2
274
3
275
0
276
0
277
2
278
46
279
0
280
0
281
0
282
0
283
0
284
8
285
0
286
0
288
1
289
0
290
0
340
4C
342
84
371
-2
372
-2
  0
DIMSTYLE
105
89
330
4
100
AcDbSymbolTableRecord
100
AcDbDimStyleTableRecord
  2
EZ_CURVED
 70
0
 40
1.0
 41
0.25
 42
0.125
 43
3.75
 44
0.375
 45
0.0
 46
0.0
 47
0.0
 48
0.0
 49
2.5
140
0.25
141
2.5
142
0.0
143
0.03937007874
144
100.0
145
0.0
146
0.5
147
0.1
148
0.0
 69
0
 70
0
 71
0
 72
0
 73
0
 74
0
 75
0
 76
0
 77
1
 78
12
 79
2
 90
2
170
0
171
3
172
1
173
0
174
0
175
0
176
0
177
0
178
0
179
2
271
2
272
2
273
2
274
3
275
0
276
0
277
2
278
46
279
2
280
0
281
0
282
0
283
0
284
8
285
0
286
0
288
1
289
3
290
0
340
4C
371
-2
372
-2
  0
ENDTAB
  0
TABLE
  2
BLOCK_RECORD
  5
9
330
0
100
AcDbSymbolTable
 70
14
  0
BLOCK_RECORD
  5
17
330
9
100
AcDbSymbolTableRecord
100
AcDbBlockTableRecord
  2
*Model_Space
340
1A
 70
0
280
1
281
0
  0
BLOCK_RECORD
  5
1B
330
9
100
AcDbSymbolTableRecord
100
AcDbBlockTableRecord
  2
*Paper_Space
340
1E
 70
0
280
1
281
0
  0
BLOCK_RECORD
  5
74
330
9
100
AcDbSymbolTableRecord
100
AcDbBlockTableRecord
  2
_ARCHTICK
340
0
 70
0
280
1
281
0
  0
BLOCK_RECORD
  5
78
330
9
100
AcDbSymbolTableRecord
100
AcDbBlockTableRecord
  2
_CLOSEDFILLED
340
0
 70
0
280
1
281
0
  0
BLOCK_RECORD
  5
84
330
9
100
AcDbSymbolTableRecord
100
AcDbBlockTableRecord
  2
_CLOSEDBLANK
340
0
 70
0
280
1
281
0
  0
BLOCK_RECORD
  5
90
330
9
100
AcDbSymbolTableRecord
100
AcDbBlockTableRecord
  2
ARRESTER
340
0
 70
0
280
1
281
0
  0
BLOCK_RECORD
  5
9D
330
9
100
AcDbSymbolTableRecord
100
AcDbBlockTableRecord
  2
DEVICE_BUBBLE
340
0
 70
0
280
1
281
0
  0
BLOCK_RECORD
  5
A2
330
9
100
AcDbSymbolTableRecord
100
AcDbBlockTableRecord
  2
HGND2
340
0
 70
0
280
1
281
0
  0
BLOCK_RECORD
  5
A9
330
9
100
AcDbSymbolTableRecord
100
AcDbBlockTableRecord
  2
HXF1T1_1-
340
0
 70
0
280
1
281
0
  0
BLOCK_RECORD
  5
CA
330
9
100
AcDbSymbolTableRecord
100
AcDbBlockTableRecord
  2
VCN1PJ
340
0
 70
0
280
1
281
0
  0
BLOCK_RECORD
  5
E4
330
9
100
AcDbSymbolTableRecord
100
AcDbBlockTableRecord
  2
VFU1_1-
340
0
 70
0
280
1
281
0
  0
BLOCK_RECORD
  5
FD
330
9
100
AcDbSymbolTableRecord
100
AcDbBlockTableRecord
  2
VXF1CT
340
0
 70
0
280
1
281
0
  0
BLOCK_RECORD
  5
118
330
9
100
AcDbSymbolTableRecord
100
AcDbBlockTableRecord
  2
VXF1T1_1-
340
0
 70
0
280
1
281
0
  0
BLOCK_RECORD
  5
139
330
9
100
AcDbSymbolTableRecord
100
AcDbBlockTableRecord
  2
WDDOT
340
0
 70
0
280
1
281
0
  0
ENDTAB
  0
ENDSEC
  0
SECTION
  2
BLOCKS
  0
BLOCK
  5
18
330
17
100
AcDbEntity
  8
0
100
AcDbBlockBegin
  2
*Model_Space
 70
0
 10
0.0
 20
0.0
 30
0.0
  3
*Model_Space
  1

  0
ENDBLK
  5
19
330
17
100
AcDbEntity
  8
0
100
AcDbBlockEnd
  0
BLOCK
  5
1C
330
1B
100
AcDbEntity
  8
0
100
AcDbBlockBegin
  2
*Paper_Space
 70
0
 10
0.0
 20
0.0
 30
0.0
  3
*Paper_Space
  1

  0
ENDBLK
  5
1D
330
1B
100
AcDbEntity
  8
0
100
AcDbBlockEnd
  0
BLOCK
  5
75
330
74
100
AcDbEntity
  8
0
100
AcDbBlockBegin
  2
_ARCHTICK
 70
0
 10
0.0
 20
0.0
 30
0.0
  3
_ARCHTICK
  1

  0
LWPOLYLINE
  5
77
330
74
100
AcDbEntity
  8
0
  6
BYBLOCK
 62
0
100
AcDbPolyline
 90
2
 70
0
 43
0.15
 10
-0.5
 20
-0.5
 10
0.5
 20
0.5
  0
ENDBLK
  5
76
330
74
100
AcDbEntity
  8
0
100
AcDbBlockEnd
  0
BLOCK
  5
79
330
78
100
AcDbEntity
  8
0
100
AcDbBlockBegin
  2
_CLOSEDFILLED
 70
0
 10
0.0
 20
0.0
 30
0.0
  3
_CLOSEDFILLED
  1

  0
SOLID
  5
7B
330
78
100
AcDbEntity
  8
0
  6
BYBLOCK
 62
0
100
AcDbTrace
 10
-1.0
 20
0.16439898372402537
 30
0.0
 11
0.0
 21
0.0
 31
0.0
 12
-1.0
 22
-0.16439898372402537
 32
0.0
 13
-1.0
 23
-0.16439898372402537
 33
0.0
  0
ENDBLK
  5
7A
330
78
100
AcDbEntity
  8
0
100
AcDbBlockEnd
  0
BLOCK
  5
85
330
84
100
AcDbEntity
  8
0
100
AcDbBlockBegin
  2
_CLOSEDBLANK
 70
0
 10
0.0
 20
0.0
 30
0.0
  3
_CLOSEDBLANK
  1

  0
LWPOLYLINE
  5
87
330
84
100
AcDbEntity
  8
0
  6
BYBLOCK
 62
0
100
AcDbPolyline
 90
3
 70
1
 10
-1.0
 20
0.16439898372402537
 10
0.0
 20
0.0
 10
-1.0
 20
-0.16439898372402537
  0
ENDBLK
  5
86
330
84
100
AcDbEntity
  8
0
100
AcDbBlockEnd
  0
BLOCK
  5
91
330
90
100
AcDbEntity
  8
0
100
AcDbBlockBegin
  2
ARRESTER
 70
0
 10
0.0
 20
0.0
 30
0.0
  3
ARRESTER
  1

  0
LINE
  5
93
330
90
100
AcDbEntity
  8
WIRES
 62
7
 48
0.2
100
AcDbLine
 10
-0.0002354885388911
 20
-0.0003695089762203
 30
0.0
 11
0.2412497385918328
 21
-0.0003695089762203
 31
0.0
  0
INSERT
  5
94
330
90
100
AcDbEntity
  8
SYMS
 62
7
 48
0.2
100
AcDbBlockReference
  2
WDDOT
 10
-0.0002354885388911
 20
-0.0003695089762186
 30
0.0
  0
CIRCLE
  5
96
330
90
100
AcDbEntity
  8
0
 62
7
 48
0.2
100
AcDbCircle
 10
0.2701022400400035
 20
-0.0003695089762203
 30
0.0
 40
0.0288525014481707
  0
CIRCLE
  5
97
330
90
100
AcDbEntity
  8
0
 62
7
 48
0.2
100
AcDbCircle
 10
0.4548505535764065
 20
-0.0004577611034762
 30
0.0
 40
0.0288525014481707
  0
LINE
  5
98
330
90
100
AcDbEntity
  8
WIRES
 62
7
 48
0.2
100
AcDbLine
 10
0.4837030550245771
 20
-0.0004577611034762
 30
0.0
 11
0.6770460902128406
 21
-0.0004577611034762
 31
0.0
  0
INSERT
  5
99
330
90
100
AcDbEntity
  8
SYMS
 62
7
 48
0.2
100
AcDbBlockReference
 66
1
  2
HGND2
 10
0.6770460902128406
 20
-0.0004577611034762
 30
0.0
  0
ATTRIB
  5
9A
330
99
100
AcDbEntity
  8
0
100
AcDbText
 10
0.6770460902128406
 20
-0.0004577611034762
 30
0.0
 40
0.01
  1

  7
WD
100
AcDbAttribute
  2
X4TERM01
 70
1
  0
SEQEND
  5
9B
330
99
100
AcDbEntity
  8
SYMS
 62
7
 48
0.2
  0
MTEXT
  5
9C
330
90
100
AcDbEntity
  8
0
 62
7
 48
0.2
100
AcDbMText
 10
0.8171558000249206
 20
0.2195202964539327
 30
0.0
 40
0.1
 41
0.0
 46
0.0
 71
1
 72
5
  1
L.A.\P18kV\P15.3kV MCOV
  7
WD
  0
ENDBLK
  5
92
330
90
100
AcDbEntity
  8
0
100
AcDbBlockEnd
  0
BLOCK
  5
9E
330
9D
100
AcDbEntity
  8
0
100
AcDbBlockBegin
  2
DEVICE_BUBBLE
 70
2
 10
0.0
 20
0.0
 30
0.0
  3
DEVICE_BUBBLE
  1

  0
CIRCLE
  5
A0
330
9D
100
AcDbEntity
  8
0
100
AcDbCircle
 10
-0.0076230149297771
 20
0.0038114376397971
 30
0.0
 40
0.217314968347708
  0
ATTDEF
  5
A1
330
9D
100
AcDbEntity
  8
0
100
AcDbText
 10
-0.1715320898920254
 20
-0.0990484842091064
 30
0.0
 40
0.2
  1

  7
OpenSans
100
AcDbAttributeDefinition
  3

  2
DB
 70
0
280
1
  0
ENDBLK
  5
9F
330
9D
100
AcDbEntity
  8
0
100
AcDbBlockEnd
  0
BLOCK
  5
A3
330
A2
100
AcDbEntity
  8
0
100
AcDbBlockBegin
  2
HGND2
 70
2
 10
0.0
 20
0.0
 30
0.0
  3
HGND2
  1

  0
LINE
  5
A5
330
A2
100
AcDbEntity
  8
0
100
AcDbLine
 10
0.0
 20
0.09375
 30
0.0
 11
0.0
 21
-0.09375
 31
0.0
  0
LINE
  5
A6
330
A2
100
AcDbEntity
  8
0
100
AcDbLine
 10
0.046875
 20
0.0625
 30
0.0
 11
0.046875
 21
-0.0625
 31
0.0
  0
LINE
  5
A7
330
A2
100
AcDbEntity
  8
0
100
AcDbLine
 10
0.09375
 20
0.03125
 30
0.0
 11
0.09375
 21
-0.03125
 31
0.0
  0
ATTDEF
  5
A8
330
A2
100
AcDbEntity
  8
0
100
AcDbText
 10
0.0
 20
0.0
 30
0.0
 40
0.01
  1

  7
WD
100
AcDbAttributeDefinition
  3

  2
X4TERM01
 70
1
  0
ENDBLK
  5
A4
330
A2
100
AcDbEntity
  8
0
100
AcDbBlockEnd
  0
BLOCK
  5
AA
330
A9
100
AcDbEntity
  8
0
100
AcDbBlockBegin
  2
HXF1T1_1-
 70
2
 10
0.0
 20
0.0
 30
0.0
  3
HXF1T1_1-
  1

  0
ATTDEF
  5
AC
330
A9
100
AcDbEntity
  8
0
  6
Continuous
100
AcDbText
 10
0.21875
 20
0.0625
 30
0.0
 40
0.01
  1

  7
WD
 72
1
 11
0.21875
 21
0.0625
 31
0.0
100
AcDbAttributeDefinition
  3

  2
ASSYCODE
 70
9
  0
ATTDEF
  5
AD
330
A9
100
AcDbEntity
  8
0
100
AcDbText
 10
0.0
 20
0.15625
 30
0.0
 40
0.01
  1

  7
WD
100
AcDbAttributeDefinition
  3

  2
X2LINK
 70
0
  0
ATTDEF
  5
AE
330
A9
100
AcDbEntity
  8
0
100
AcDbText
 10
0.0
 20
-0.171875
 30
0.0
 40
0.01
  1

  7
WD
100
AcDbAttributeDefinition
  3

  2
X8LINK
 70
0
  0
ATTDEF
  5
AF
330
A9
100
AcDbEntity
  8
0
  6
Continuous
100
AcDbText
 10
0.227797819576856
 20
0.0887266596591497
 30
0.0
 40
0.01
  1

  7
WD
 72
1
 11
0.227797819576856
 21
0.0887266596591497
 31
0.0
100
AcDbAttributeDefinition
  3

  2
MFG
 70
9
  0
ATTDEF
  5
B0
330
A9
100
AcDbEntity
  8
0
  6
Continuous
100
AcDbText
 10
0.2297428652167746
 20
0.1081684133666007
 30
0.0
 40
0.01
  1

  7
WD
 72
1
 11
0.2297428652167746
 21
0.1081684133666007
 31
0.0
100
AcDbAttributeDefinition
  3

  2
CAT
 70
9
  0
ATTDEF
  5
B1
330
A9
100
AcDbEntity
  8
0
100
AcDbText
 10
0.2062459949469165
 20
0.130565050798622
 30
0.0
 40
0.01
  1
XF
  7
WD
100
AcDbAttributeDefinition
  3

  2
FAMILY
 70
9
  0
ATTDEF
  5
B2
330
A9
100
AcDbEntity
  8
0
100
AcDbText
 10
0.2062459949469165
 20
0.040072249971904
 30
0.0
 40
0.01
  1
NO
  7
WD
100
AcDbAttributeDefinition
  3

  2
CONTACT
 70
9
  0
ATTDEF
  5
B3
330
A9
100
AcDbEntity
  8
0
100
AcDbText
 10
-0.2342613780164024
 20
0.0747558932534971
 30
0.0
 40
0.01
  1
1-
  7
WD
 72
2
 11
-0.2209280446830691
 21
0.0747558932534971
 31
0.0
100
AcDbAttributeDefinition
  3

  2
WDTYPE
 70
9
  0
ATTDEF
  5
B4
330
A9
100
AcDbEntity
  8
0
100
AcDbText
 10
-0.0123581012365755
 20
0.5918750014890417
 30
0.0
 40
0.125
  1

  7
WD
 41
0.85
 72
1
 11
-0.0123581012365755
 21
0.5918750014890417
 31
0.0
100
AcDbAttributeDefinition
  3

  2
INST
 70
0
  0
ATTDEF
  5
B5
330
A9
100
AcDbEntity
  8
0
100
AcDbText
 10
-0.0989583299301724
 20
0.2500000014890915
 30
0.0
 40
0.125
  1
XF
  7
WD
 41
0.85
 72
1
 11
-0.0104166632635057
 21
0.2500000014890915
 31
0.0
100
AcDbAttributeDefinition
  3

  2
TAG1
 70
0
  0
ATTDEF
  5
B6
330
A9
100
AcDbEntity
  8
0
100
AcDbText
 10
-0.0123581012365755
 20
0.4200000014890417
 30
0.0
 40
0.125
  1

  7
WD
 41
0.85
 72
1
 11
-0.0123581012365755
 21
0.4200000014890417
 31
0.0
100
AcDbAttributeDefinition
  3

  2
LOC
 70
0
  0
ATTDEF
  5
B7
330
A9
100
AcDbEntity
  8
0
100
AcDbText
 10
-0.0104166632635057
 20
-0.8593749985109083
 30
0.0
 40
0.125
  1

  7
WD
 41
0.85
 72
1
 11
-0.0104166632635057
 21
-0.8593749985109083
 31
0.0
100
AcDbAttributeDefinition
  3

  2
DESC2
 70
0
  0
ATTDEF
  5
B8
330
A9
100
AcDbEntity
  8
0
100
AcDbText
 10
-0.0104166632635057
 20
-0.6874999985109085
 30
0.0
 40
0.125
  1

  7
WD
 41
0.85
 72
1
 11
-0.0104166632635057
 21
-0.6874999985109085
 31
0.0
100
AcDbAttributeDefinition
  3

  2
DESC1
 70
0
  0
ATTDEF
  5
B9
330
A9
100
AcDbEntity
  8
0
100
AcDbText
 10
-0.0104166632635057
 20
-1.031249998510907
 30
0.0
 40
0.125
  1

  7
WD
 41
0.85
 72
1
 11
-0.0104166632635057
 21
-1.031249998510907
 31
0.0
100
AcDbAttributeDefinition
  3

  2
DESC3
 70
0
  0
ATTDEF
  5
BA
330
A9
100
AcDbEntity
  8
0
 62
7
100
AcDbText
 10
0.15625
 20
0.0
 30
0.0
 40
0.0125
  1

  7
WD
100
AcDbAttributeDefinition
  3

  2
X1TERM02
 70
1
  0
ATTDEF
  5
BB
330
A9
100
AcDbEntity
  8
0
 62
7
100
AcDbText
 10
-0.15625
 20
0.0
 30
0.0
 40
0.0125
  1

  7
WD
100
AcDbAttributeDefinition
  3

  2
X4TERM01
 70
1
  0
ATTDEF
  5
BC
330
A9
100
AcDbEntity
  8
0
  6
Continuous
100
AcDbText
 10
0.2083333367364943
 20
-0.1563749985109085
 30
0.0
 40
0.125
  1

  7
WD
 11
0.2083333367364943
 21
-0.0313749985109085
 31
0.0
100
AcDbAttributeDefinition
  3

  2
TERM02
 70
8
 74
3
  0
ATTDEF
  5
BD
330
A9
100
AcDbEntity
  8
0
  6
Continuous
100
AcDbText
 10
-0.2291666632635056
 20
-0.1563749985109085
 30
0.0
 40
0.125
  1

  7
WD
 72
2
 11
-0.2291666632635056
 21
-0.0313749985109085
 31
0.0
100
AcDbAttributeDefinition
  3

  2
TERM01
 70
8
 74
3
  0
ATTDEF
  5
BE
330
A9
100
AcDbEntity
  8
0
100
AcDbText
 10
-0.0104166632635057
 20
-0.5156249985109085
 30
0.0
 40
0.125
  1

  7
WD
 41
0.85
 72
1
 11
-0.0104166632635057
 21
-0.5156249985109085
 31
0.0
100
AcDbAttributeDefinition
  3

  2
RATING2
 70
0
  0
ATTDEF
  5
BF
330
A9
100
AcDbEntity
  8
0
100
AcDbText
 10
-0.0104166632635057
 20
-0.3437499985109085
 30
0.0
 40
0.125
  1

  7
WD
 41
0.85
 72
1
 11
-0.0104166632635057
 21
-0.3437499985109085
 31
0.0
100
AcDbAttributeDefinition
  3

  2
RATING1
 70
0
  0
LWPOLYLINE
  5
C0
330
A9
100
AcDbEntity
  8
0
100
AcDbPolyline
 90
2
 70
0
 43
0.0125
 10
0.015625
 20
-0.140625
 10
0.015625
 20
0.140625
  0
LWPOLYLINE
  5
C1
330
A9
100
AcDbEntity
  8
0
100
AcDbPolyline
 90
2
 70
0
 43
0.0125
 10
-0.015625
 20
-0.140625
 10
-0.015625
 20
0.140625
  0
LWPOLYLINE
  5
C2
330
A9
100
AcDbEntity
  8
0
100
AcDbPolyline
 90
3
 70
0
 10
0.15625
 20
0.0
 40
0.0125
 41
0.0125
 10
0.1241161890382753
 20
0.0
 40
0.0125
 41
0.0125
 42
0.9943769052811418
 10
0.1250027463848736
 20
-0.1562450006121466
  0
LWPOLYLINE
  5
C3
330
A9
100
AcDbEntity
  8
0
100
AcDbPolyline
 90
2
 70
0
 43
0.0125
 10
0.1249986216425859
 20
0.1562450006482603
 42
1.000008755414071
 10
0.1250027463848736
 20
-4.9992913077e-06
  0
LWPOLYLINE
  5
C4
330
A9
100
AcDbEntity
  8
0
100
AcDbPolyline
 90
2
 70
0
 43
0.0125
 10
0.15625
 20
0.15625
 10
0.125
 20
0.15625
  0
LWPOLYLINE
  5
C5
330
A9
100
AcDbEntity
  8
0
100
AcDbPolyline
 90
2
 70
0
 43
0.0125
 10
0.15625
 20
-0.15625
 10
0.125
 20
-0.15625
  0
LWPOLYLINE
  5
C6
330
A9
100
AcDbEntity
  8
0
100
AcDbPolyline
 90
2
 70
0
 43
0.0125
 10
-0.15625
 20
-0.15625
 10
-0.125
 20
-0.15625
  0
LWPOLYLINE
  5
C7
330
A9
100
AcDbEntity
  8
0
100
AcDbPolyline
 90
2
 70
0
 43
0.0125
 10
-0.125
 20
-0.1562450006604195
 42
1.000009054788699
 10
-0.125001414804329
 20
4.9993267699e-06
  0
LWPOLYLINE
  5
C8
330
A9
100
AcDbEntity
  8
0
100
AcDbPolyline
 90
3
 70
0
 10
-0.15625
 20
0.0
 40
0.0125
 41
0.0125
 10
-0.1258838109617247
 20
0.0
 40
0.0125
 41
0.0125
 42
1.005681675710494
 10
-0.125001414804329
 20
0.1562450006476088
  0
LWPOLYLINE
  5
C9
330
A9
100
AcDbEntity
  8
0
100
AcDbPolyline
 90
2
 70
0
 43
0.0125
 10
-0.15625
 20
0.15625
 10
-0.125
 20
0.15625
  0
ENDBLK
  5
AB
330
A9
100
AcDbEntity
  8
0
100
AcDbBlockEnd
  0
BLOCK
  5
CB
330
CA
100
AcDbEntity
  8
0
100
AcDbBlockBegin
  2
VCN1PJ
 70
2
 10
0.0
 20
0.0
 30
0.0
  3
VCN1PJ
  1

  0
LINE
  5
CD
330
CA
100
AcDbEntity
  8
0
100
AcDbLine
 10
0.0
 20
-0.03125
 30
0.0
 11
-0.0625
 21
-0.125
 31
0.0
  0
LINE
  5
CE
330
CA
100
AcDbEntity
  8
0
100
AcDbLine
 10
0.0
 20
-0.03125
 30
0.0
 11
0.0625
 21
-0.125
 31
0.0
  0
LINE
  5
CF
330
CA
100
AcDbEntity
  8
0
100
AcDbLine
 10
0.0
 20
0.0625
 30
0.0
 11
-0.09375
 21
-0.0625
 31
0.0
  0
LINE
  5
D0
330
CA
100
AcDbEntity
  8
0
100
AcDbLine
 10
0.0
 20
0.0625
 30
0.0
 11
0.09375
 21
-0.0625
 31
0.0
  0
LINE
  5
D1
330
CA
100
AcDbEntity
  8
0
100
AcDbLine
 10
0.0
 20
-0.03125
 30
0.0
 11
0.0
 21
-0.09375
 31
0.0
  0
ATTDEF
  5
D2
330
CA
100
AcDbEntity
  8
0
100
AcDbText
 10
0.2291666666666667
 20
0.8498017589547741
 30
0.0
 40
0.125
  1

  7
WD
 41
0.7
 72
2
 11
0.2291666666666667
 21
0.8498017589547741
 31
0.0
100
AcDbAttributeDefinition
  3

  2
INST
 70
0
  0
ATTDEF
  5
D3
330
CA
100
AcDbEntity
  8
0
100
AcDbText
 10
0.0130729268949868
 20
-0.1146401272584949
 30
0.0
 40
0.01
  1
P
  7
WD
100
AcDbAttributeDefinition
  3

  2
X8TERMDESC01
 70
1
  0
ATTDEF
  5
D4
330
CA
100
AcDbEntity
  8
0
100
AcDbText
 10
0.0261458644990533
 20
0.0416098677706964
 30
0.0
 40
0.01
  1
J
  7
WD
100
AcDbAttributeDefinition
  3

  2
X2TERMDESC02
 70
1
  0
ATTDEF
  5
D5
330
CA
100
AcDbEntity
  8
0
  6
Continuous
100
AcDbText
 10
-0.1090752636275756
 20
-0.0139434821641545
 30
0.0
 40
0.01
  1

  7
WD
 72
1
 11
-0.1090752636275756
 21
-0.0139434821641545
 31
0.0
100
AcDbAttributeDefinition
  3

  2
ASSYCODE
 70
9
  0
ATTDEF
  5
D6
330
CA
100
AcDbEntity
  8
0
100
AcDbText
 10
-0.125
 20
-0.0625
 30
0.0
 40
0.01
  1

  7
WD
100
AcDbAttributeDefinition
  3

  2
X4LINK
 70
0
  0
ATTDEF
  5
D7
330
CA
100
AcDbEntity
  8
0
100
AcDbText
 10
0.125
 20
-0.0625
 30
0.0
 40
0.01
  1

  7
WD
100
AcDbAttributeDefinition
  3

  2
X1LINK
 70
0
  0
ATTDEF
  5
D8
330
CA
100
AcDbEntity
  8
0
100
AcDbText
 10
-0.0625
 20
0.6802017589547742
 30
0.0
 40
0.125
  1

  7
WD
 41
0.7
 72
2
 11
-0.0625
 21
0.6802017589547742
 31
0.0
100
AcDbAttributeDefinition
  3

  2
LOC
 70
0
  0
ATTDEF
  5
D9
330
CA
100
AcDbEntity
  8
0
  6
Continuous
100
AcDbText
 10
-0.1086068915503407
 20
3.92832228555e-05
 30
0.0
 40
0.01
  1

  7
WD
 72
1
 11
-0.1086068915503407
 21
3.92832228555e-05
 31
0.0
100
AcDbAttributeDefinition
  3

  2
MFG
 70
9
  0
ATTDEF
  5
DA
330
CA
100
AcDbEntity
  8
0
  6
Continuous
100
AcDbText
 10
-0.1066618459104218
 20
0.0194810369303064
 30
0.0
 40
0.01
  1

  7
WD
 72
1
 11
-0.1066618459104218
 21
0.0194810369303064
 31
0.0
100
AcDbAttributeDefinition
  3

  2
CAT
 70
9
  0
ATTDEF
  5
DB
330
CA
100
AcDbEntity
  8
0
100
AcDbText
 10
-0.131715111848772
 20
0.0636574527900694
 30
0.0
 40
0.01
  1
PJ
  7
WD
100
AcDbAttributeDefinition
  3

  2
FAMILY
 70
9
  0
ATTDEF
  5
DC
330
CA
100
AcDbEntity
  8
0
100
AcDbText
 10
-0.0625
 20
0.3542789046476642
 30
0.0
 40
0.125
  1

  7
WD
 41
0.7
 72
2
 11
-0.0625
 21
0.3542789046476642
 31
0.0
100
AcDbAttributeDefinition
  3

  2
DESC2
 70
0
  0
ATTDEF
  5
DD
330
CA
100
AcDbEntity
  8
0
100
AcDbText
 10
-0.0625
 20
0.5105253318012193
 30
0.0
 40
0.125
  1

  7
WD
 41
0.7
 72
2
 11
-0.0625
 21
0.5105253318012193
 31
0.0
100
AcDbAttributeDefinition
  3

  2
DESC1
 70
0
  0
ATTDEF
  5
DE
330
CA
100
AcDbEntity
  8
0
100
AcDbText
 10
-0.2708333333333334
 20
0.09375
 30
0.0
 40
0.125
  1
PJ
  7
WD
 72
2
 11
-0.0625
 21
0.09375
 31
0.0
100
AcDbAttributeDefinition
  3

  2
TAG1
 70
0
  0
ATTDEF
  5
DF
330
CA
100
AcDbEntity
  8
0
  6
Continuous
100
AcDbText
 10
0.047
 20
-0.28125
 30
0.0
 40
0.125
  1
1
  7
WD
 11
0.047
 21
-0.15625
 31
0.0
100
AcDbAttributeDefinition
  3

  2
TERM01
 70
8
 74
3
  0
ATTDEF
  5
E0
330
CA
100
AcDbEntity
  8
0
100
AcDbText
 10
0.0
 20
-0.09375
 30
0.0
 40
0.0125
  1

  7
WD
100
AcDbAttributeDefinition
  3

  2
X8TERM01
 70
1
  0
ATTDEF
  5
E1
330
CA
100
AcDbEntity
  8
0
100
AcDbText
 10
0.0
 20
0.0625
 30
0.0
 40
0.0125
  1

  7
WD
100
AcDbAttributeDefinition
  3

  2
X2TERM02
 70
1
  0
ATTDEF
  5
E2
330
CA
100
AcDbEntity
  8
0
  6
Continuous
100
AcDbText
 10
0.047
 20
0.0625
 30
0.0
 40
0.125
  1
1
  7
WD
100
AcDbAttributeDefinition
  3

  2
TERM02
 70
8
  0
ATTDEF
  5
E3
330
CA
100
AcDbEntity
  8
0
100
AcDbText
 10
-0.131715111848772
 20
0.045025320458437
 30
0.0
 40
0.01
  1
VC0
  7
WD
100
AcDbAttributeDefinition
  3

  2
WDBLKNAM
 70
9
  0
ENDBLK
  5
CC
330
CA
100
AcDbEntity
  8
0
100
AcDbBlockEnd
  0
BLOCK
  5
E5
330
E4
100
AcDbEntity
  8
0
100
AcDbBlockBegin
  2
VFU1_1-
 70
2
 10
0.0
 20
0.0
 30
0.0
  3
VFU1_1-
  1

  0
ATTDEF
  5
E7
330
E4
100
AcDbEntity
  8
0
100
AcDbText
 10
0.125
 20
0.28125
 30
0.0
 40
0.125
  1

  7
WD
 41
0.85
100
AcDbAttributeDefinition
  3

  2
INST
 70
0
  0
ATTDEF
  5
E8
330
E4
100
AcDbEntity
  8
0
  6
Continuous
100
AcDbText
 10
-0.1532796356183921
 20
-0.1061498358372156
 30
0.0
 40
0.01
  1

  7
WD
 72
1
 11
-0.1532796356183921
 21
-0.1061498358372156
 31
0.0
100
AcDbAttributeDefinition
  3

  2
ASSYCODE
 70
9
  0
ATTDEF
  5
E9
330
E4
100
AcDbEntity
  8
0
 62
7
100
AcDbText
 10
-0.125
 20
0.0
 30
0.0
 40
0.01
  1

  7
WD
100
AcDbAttributeDefinition
  3

  2
X4LINK
 70
0
  0
ATTDEF
  5
EA
330
E4
100
AcDbEntity
  8
0
 62
7
100
AcDbText
 10
0.125
 20
0.0
 30
0.0
 40
0.01
  1

  7
WD
100
AcDbAttributeDefinition
  3

  2
X1LINK
 70
0
  0
ATTDEF
  5
EB
330
E4
100
AcDbEntity
  8
0
100
AcDbText
 10
-0.15625
 20
-0.0625
 30
0.0
 40
0.125
  1

  7
WD
 41
0.85
 72
2
 11
-0.15625
 21
-0.0625
 31
0.0
100
AcDbAttributeDefinition
  3

  2
RATING1
 70
0
  0
ATTDEF
  5
EC
330
E4
100
AcDbEntity
  8
0
100
AcDbText
 10
0.125
 20
-0.40625
 30
0.0
 40
0.125
  1

  7
WD
 41
0.85
100
AcDbAttributeDefinition
  3

  2
DESC2
 70
0
  0
ATTDEF
  5
ED
330
E4
100
AcDbEntity
  8
0
100
AcDbText
 10
0.125
 20
-0.234375
 30
0.0
 40
0.125
  1

  7
WD
 41
0.85
100
AcDbAttributeDefinition
  3

  2
DESC1
 70
0
  0
ATTDEF
  5
EE
330
E4
100
AcDbEntity
  8
0
100
AcDbText
 10
0.1269414379730698
 20
-0.0606249999999502
 30
0.0
 40
0.125
  1
FU
  7
WD
 41
0.85
100
AcDbAttributeDefinition
  3

  2
TAG1
 70
0
  0
ATTDEF
  5
EF
330
E4
100
AcDbEntity
  8
0
100
AcDbText
 10
0.125
 20
0.109375
 30
0.0
 40
0.125
  1

  7
WD
 41
0.85
100
AcDbAttributeDefinition
  3

  2
LOC
 70
0
  0
ATTDEF
  5
F0
330
E4
100
AcDbEntity
  8
0
  6
Continuous
100
AcDbText
 10
-0.1421169189930051
 20
-0.0881262091390027
 30
0.0
 40
0.01
  1

  7
WD
 72
2
 11
-0.1421169189930051
 21
-0.0881262091390027
 31
0.0
100
AcDbAttributeDefinition
  3

  2
MFG
 70
9
  0
ATTDEF
  5
F1
330
E4
100
AcDbEntity
  8
0
  6
Continuous
100
AcDbText
 10
-0.1421169189930051
 20
-0.0731262091390027
 30
0.0
 40
0.01
  1

  7
WD
 72
2
 11
-0.1421169189930051
 21
-0.0731262091390027
 31
0.0
100
AcDbAttributeDefinition
  3

  2
CAT
 70
9
  0
ATTDEF
  5
F2
330
E4
100
AcDbEntity
  8
0
100
AcDbText
 10
-0.1587835856596718
 20
-0.0364595424723361
 30
0.0
 40
0.01
  1
FU
  7
WD
 72
2
 11
-0.1421169189930051
 21
-0.0364595424723361
 31
0.0
100
AcDbAttributeDefinition
  3

  2
FAMILY
 70
9
  0
ATTDEF
  5
F3
330
E4
100
AcDbEntity
  8
0
 62
7
100
AcDbText
 10
0.0
 20
-0.15625
 30
0.0
 40
0.0125
  1

  7
WD
100
AcDbAttributeDefinition
  3

  2
X8TERM02
 70
1
  0
ATTDEF
  5
F4
330
E4
100
AcDbEntity
  8
0
 62
7
100
AcDbText
 10
0.0
 20
0.15625
 30
0.0
 40
0.0125
  1

  7
WD
100
AcDbAttributeDefinition
  3

  2
X2TERM01
 70
1
  0
ATTDEF
  5
F5
330
E4
100
AcDbEntity
  8
0
  6
Continuous
100
AcDbText
 10
-0.0407012216079947
 20
-0.3071970306509963
 30
0.0
 40
0.125
  1

  7
WD
 41
0.85
 72
2
 11
-0.0407012216079947
 21
-0.1821970306509962
 31
0.0
100
AcDbAttributeDefinition
  3

  2
TERM02
 70
8
 74
3
  0
ATTDEF
  5
F6
330
E4
100
AcDbEntity
  8
0
  6
Continuous
100
AcDbText
 10
-0.0549703791556545
 20
0.1753766160049204
 30
0.0
 40
0.125
  1

  7
WD
 41
0.85
 72
2
 11
-0.0549703791556545
 21
0.1753766160049204
 31
0.0
100
AcDbAttributeDefinition
  3

  2
TERM01
 70
8
  0
ATTDEF
  5
F7
330
E4
100
AcDbEntity
  8
0
100
AcDbText
 10
-0.1421169189930051
 20
-0.153236882760555
 30
0.0
 40
0.01
  1
1-
  7
WD
 72
2
 11
-0.1287835856596718
 21
-0.153236882760555
 31
0.0
100
AcDbAttributeDefinition
  3

  2
WDTYPE
 70
9
  0
ATTDEF
  5
F8
330
E4
100
AcDbEntity
  8
0
100
AcDbText
 10
0.125
 20
-0.578125
 30
0.0
 40
0.125
  1

  7
WD
 41
0.85
100
AcDbAttributeDefinition
  3

  2
DESC3
 70
0
  0
ATTDEF
  5
F9
330
E4
100
AcDbEntity
  8
0
100
AcDbText
 10
-0.1287835856596718
 20
-0.168861882760555
 30
0.0
 40
0.01
  1

  7
WD
 72
2
 11
-0.1287835856596718
 21
-0.168861882760555
 31
0.0
100
AcDbAttributeDefinition
  3

  2
WDBLKNAM
 70
9
  0
LWPOLYLINE
  5
FA
330
E4
100
AcDbEntity
  8
0
100
AcDbPolyline
 90
2
 70
0
 43
0.0125
 10
-0.046875
 20
-0.09375
 10
0.046875
 20
-0.09375
  0
LWPOLYLINE
  5
FB
330
E4
100
AcDbEntity
  8
0
100
AcDbPolyline
 90
2
 70
0
 43
0.0125
 10
-0.046875
 20
0.09375
 10
0.046875
 20
0.09375
  0
LWPOLYLINE
  5
FC
330
E4
100
AcDbEntity
  8
0
100
AcDbPolyline
 90
4
 70
1
 43
0.0125
 10
-0.046875
 20
0.15625
 10
-0.046875
 20
-0.15625
 10
0.046875
 20
-0.15625
 10
0.046875
 20
0.15625
  0
ENDBLK
  5
E6
330
E4
100
AcDbEntity
  8
0
100
AcDbBlockEnd
  0
BLOCK
  5
FE
330
FD
100
AcDbEntity
  8
0
100
AcDbBlockBegin
  2
VXF1CT
 70
2
 10
0.0
 20
0.0
 30
0.0
  3
VXF1CT
  1

  0
ARC
  5
100
330
FD
100
AcDbEntity
  8
0
100
AcDbCircle
 10
-0.34375
 20
-0.125
 30
0.0
 40
0.125
100
AcDbArc
 50
90.0
 51
270.0
  0
ARC
  5
101
330
FD
100
AcDbEntity
  8
0
100
AcDbCircle
 10
-0.34375
 20
0.125
 30
0.0
 40
0.125
100
AcDbArc
 50
90.0
 51
270.0
  0
LINE
  5
102
330
FD
100
AcDbEntity
  8
0
100
AcDbLine
 10
-0.34375
 20
0.0
 30
0.0
 11
-0.28125
 21
0.0
 31
0.0
  0
LINE
  5
103
330
FD
100
AcDbEntity
  8
0
100
AcDbLine
 10
-0.34375
 20
-0.25
 30
0.0
 11
-0.0321974015839574
 21
-0.25
 31
0.0
  0
LINE
  5
104
330
FD
100
AcDbEntity
  8
0
100
AcDbLine
 10
-0.34375
 20
0.25
 30
0.0
 11
-0.0321974015839574
 21
0.25
 31
0.0
  0
CIRCLE
  5
105
330
FD
100
AcDbEntity
  8
0
100
AcDbCircle
 10
0.0
 20
0.2490382372998621
 30
0.0
 40
0.032211762700138
  0
CIRCLE
  5
106
330
FD
100
AcDbEntity
  8
0
100
AcDbCircle
 10
0.0
 20
-0.2490382372998621
 30
0.0
 40
0.032211762700138
  0
ATTDEF
  5
107
330
FD
100
AcDbEntity
  8
0
100
AcDbText
 10
-0.2270833333333333
 20
-0.421875
 30
0.0
 40
0.125
  1

  7
WD
 41
0.7
 72
1
 11
-0.2270833333333333
 21
-0.421875
 31
0.0
100
AcDbAttributeDefinition
  3

  2
INST
 70
0
  0
ATTDEF
  5
108
330
FD
100
AcDbEntity
  8
0
100
AcDbText
 10
0.0
 20
-0.2831735254002758
 30
0.0
 40
0.0125
  1

  7
WD
100
AcDbAttributeDefinition
  3

  2
X8TERM01
 70
1
  0
ATTDEF
  5
109
330
FD
100
AcDbEntity
  8
0
100
AcDbText
 10
0.0322117627001379
 20
-0.2509617627001379
 30
0.0
 40
0.0125
  1

  7
WD
100
AcDbAttributeDefinition
  3

  2
X1TERM01
 70
1
  0
ATTDEF
  5
10A
330
FD
100
AcDbEntity
  8
0
  6
Continuous
100
AcDbText
 10
-0.0549378303809576
 20
-0.2305439677362169
 30
0.0
 40
0.125
  1

  7
WD
 72
2
 11
-0.0549378303809576
 21
-0.2305439677362169
 31
0.0
100
AcDbAttributeDefinition
  3

  2
TERM01
 70
8
  0
ATTDEF
  5
10B
330
FD
100
AcDbEntity
  8
0
  6
Continuous
100
AcDbText
 10
-0.0449930830489329
 20
0.2669657848838338
 30
0.0
 40
0.125
  1

  7
WD
 72
2
 11
-0.0449930830489329
 21
0.2669657848838338
 31
0.0
100
AcDbAttributeDefinition
  3

  2
TERM02
 70
8
  0
ATTDEF
  5
10C
330
FD
100
AcDbEntity
  8
0
100
AcDbText
 10
0.0322117627001379
 20
0.2490382372998621
 30
0.0
 40
0.0125
  1

  7
WD
100
AcDbAttributeDefinition
  3

  2
X1TERM02
 70
1
  0
ATTDEF
  5
10D
330
FD
100
AcDbEntity
  8
0
100
AcDbText
 10
0.0
 20
0.28125
 30
0.0
 40
0.0125
  1

  7
WD
100
AcDbAttributeDefinition
  3

  2
X2TERM02
 70
1
  0
ATTDEF
  5
10E
330
FD
100
AcDbEntity
  8
0
100
AcDbText
 10
0.28125
 20
-0.125
 30
0.0
 40
0.125
  1

  7
WD
 41
0.7
100
AcDbAttributeDefinition
  3

  2
RATING1
 70
0
  0
ATTDEF
  5
10F
330
FD
100
AcDbEntity
  8
0
100
AcDbText
 10
0.28125
 20
0.03125
 30
0.0
 40
0.125
  1
XF
  7
WD
100
AcDbAttributeDefinition
  3

  2
TAG1
 70
0
  0
ATTDEF
  5
110
330
FD
100
AcDbEntity
  8
0
100
AcDbText
 10
-0.200529377727209
 20
-0.7572946681987807
 30
0.0
 40
0.125
  1

  7
WD
 41
0.7
 72
1
 11
-0.200529377727209
 21
-0.7572946681987807
 31
0.0
100
AcDbAttributeDefinition
  3

  2
DESC1
 70
0
  0
ATTDEF
  5
111
330
FD
100
AcDbEntity
  8
0
100
AcDbText
 10
-0.200529377727209
 20
-0.913541095352336
 30
0.0
 40
0.125
  1

  7
WD
 41
0.7
 72
1
 11
-0.200529377727209
 21
-0.913541095352336
 31
0.0
100
AcDbAttributeDefinition
  3

  2
DESC2
 70
0
  0
ATTDEF
  5
112
330
FD
100
AcDbEntity
  8
0
100
AcDbText
 10
-0.200529377727209
 20
-0.601048241045226
 30
0.0
 40
0.125
  1

  7
WD
 41
0.7
 72
1
 11
-0.200529377727209
 21
-0.601048241045226
 31
0.0
100
AcDbAttributeDefinition
  3

  2
LOC
 70
0
  0
ATTDEF
  5
113
330
FD
100
AcDbEntity
  8
0
  6
Continuous
100
AcDbText
 10
-0.1709301751010279
 20
0.1189553503863717
 30
0.0
 40
0.01
  1

  7
WD
 72
1
 11
-0.1709301751010279
 21
0.1189553503863717
 31
0.0
100
AcDbAttributeDefinition
  3

  2
ASSYCODE
 70
9
  0
ATTDEF
  5
114
330
FD
100
AcDbEntity
  8
0
100
AcDbText
 10
-0.1927083333333333
 20
-0.046875
 30
0.0
 40
0.125
  1
C.T.
  7
WD
 72
1
 11
-0.046875
 21
-0.046875
 31
0.0
100
AcDbAttributeDefinition
  3

  2
TYPE
 70
0
  0
ATTDEF
  5
115
330
FD
100
AcDbEntity
  8
0
100
AcDbText
 10
-0.1958072240996325
 20
0.1906902937183689
 30
0.0
 40
0.01
  1
XF
  7
WD
100
AcDbAttributeDefinition
  3

  2
FAMILY
 70
9
  0
ATTDEF
  5
116
330
FD
100
AcDbEntity
  8
0
  6
Continuous
100
AcDbText
 10
-0.1707539581612827
 20
0.1621388778586058
 30
0.0
 40
0.01
  1

  7
WD
 72
1
 11
-0.1707539581612827
 21
0.1621388778586058
 31
0.0
100
AcDbAttributeDefinition
  3

  2
CAT
 70
9
  0
ATTDEF
  5
117
330
FD
100
AcDbEntity
  8
0
  6
Continuous
100
AcDbText
 10
-0.1726990038012013
 20
0.1426971241511551
 30
0.0
 40
0.01
  1

  7
WD
 72
1
 11
-0.1726990038012013
 21
0.1426971241511551
 31
0.0
100
AcDbAttributeDefinition
  3

  2
MFG
 70
9
  0
ENDBLK
  5
FF
330
FD
100
AcDbEntity
  8
0
100
AcDbBlockEnd
  0
BLOCK
  5
119
330
118
100
AcDbEntity
  8
0
100
AcDbBlockBegin
  2
VXF1T1_1-
 70
2
 10
0.0
 20
0.0
 30
0.0
  3
VXF1T1_1-
  1

  0
ATTDEF
  5
11B
330
118
100
AcDbEntity
  8
0
100
AcDbText
 10
0.203125
 20
0.28125
 30
0.0
 40
0.125
  1

  7
WD
 41
0.85
100
AcDbAttributeDefinition
  3

  2
INST
 70
0
  0
ATTDEF
  5
11C
330
118
100
AcDbEntity
  8
0
  6
Continuous
100
AcDbText
 10
-0.2157796356183921
 20
-0.0905248358372156
 30
0.0
 40
0.01
  1

  7
WD
 72
1
 11
-0.2157796356183921
 21
-0.0905248358372156
 31
0.0
100
AcDbAttributeDefinition
  3

  2
ASSYCODE
 70
9
  0
ATTDEF
  5
11D
330
118
100
AcDbEntity
  8
0
100
AcDbText
 10
-0.28125
 20
0.03125
 30
0.0
 40
0.125
  1

  7
WD
 41
0.85
 72
2
 11
-0.28125
 21
0.03125
 31
0.0
100
AcDbAttributeDefinition
  3

  2
RATING1
 70
0
  0
ATTDEF
  5
11E
330
118
100
AcDbEntity
  8
0
100
AcDbText
 10
0.203125
 20
-0.40625
 30
0.0
 40
0.125
  1

  7
WD
 41
0.85
100
AcDbAttributeDefinition
  3

  2
DESC2
 70
0
  0
ATTDEF
  5
11F
330
118
100
AcDbEntity
  8
0
100
AcDbText
 10
0.203125
 20
-0.234375
 30
0.0
 40
0.125
  1

  7
WD
 41
0.85
100
AcDbAttributeDefinition
  3

  2
DESC1
 70
0
  0
ATTDEF
  5
120
330
118
100
AcDbEntity
  8
0
100
AcDbText
 10
0.2050664379730698
 20
-0.0606249999999502
 30
0.0
 40
0.125
  1
XF
  7
WD
 41
0.85
100
AcDbAttributeDefinition
  3

  2
TAG1
 70
0
  0
ATTDEF
  5
121
330
118
100
AcDbEntity
  8
0
100
AcDbText
 10
0.203125
 20
0.109375
 30
0.0
 40
0.125
  1

  7
WD
 41
0.85
100
AcDbAttributeDefinition
  3

  2
LOC
 70
0
  0
ATTDEF
  5
122
330
118
100
AcDbEntity
  8
0
  6
Continuous
100
AcDbText
 10
-0.2046169189930051
 20
-0.0725012091390027
 30
0.0
 40
0.01
  1

  7
WD
 72
2
 11
-0.2046169189930051
 21
-0.0725012091390027
 31
0.0
100
AcDbAttributeDefinition
  3

  2
MFG
 70
9
  0
ATTDEF
  5
123
330
118
100
AcDbEntity
  8
0
  6
Continuous
100
AcDbText
 10
-0.2046169189930051
 20
-0.0575012091390027
 30
0.0
 40
0.01
  1

  7
WD
 72
2
 11
-0.2046169189930051
 21
-0.0575012091390027
 31
0.0
100
AcDbAttributeDefinition
  3

  2
CAT
 70
9
  0
ATTDEF
  5
124
330
118
100
AcDbEntity
  8
0
100
AcDbText
 10
-0.2212835856596718
 20
-0.0208345424723361
 30
0.0
 40
0.01
  1
XF
  7
WD
 72
2
 11
-0.2046169189930051
 21
-0.0208345424723361
 31
0.0
100
AcDbAttributeDefinition
  3

  2
FAMILY
 70
9
  0
ATTDEF
  5
125
330
118
100
AcDbEntity
  8
0
 62
7
100
AcDbText
 10
0.0
 20
-0.15625
 30
0.0
 40
0.0125
  1

  7
WD
100
AcDbAttributeDefinition
  3

  2
X8TERM02
 70
1
  0
ATTDEF
  5
126
330
118
100
AcDbEntity
  8
0
 62
7
100
AcDbText
 10
0.0
 20
0.15625
 30
0.0
 40
0.0125
  1

  7
WD
100
AcDbAttributeDefinition
  3

  2
X2TERM01
 70
1
  0
ATTDEF
  5
127
330
118
100
AcDbEntity
  8
0
  6
Continuous
100
AcDbText
 10
-0.0407012216079947
 20
-0.3384470306509963
 30
0.0
 40
0.125
  1

  7
WD
 41
0.85
 72
2
 11
-0.0407012216079947
 21
-0.2134470306509962
 31
0.0
100
AcDbAttributeDefinition
  3

  2
TERM02
 70
8
 74
3
  0
ATTDEF
  5
128
330
118
100
AcDbEntity
  8
0
  6
Continuous
100
AcDbText
 10
-0.0549703791556545
 20
0.2378766160049203
 30
0.0
 40
0.125
  1

  7
WD
 41
0.85
 72
2
 11
-0.0549703791556545
 21
0.2378766160049203
 31
0.0
100
AcDbAttributeDefinition
  3

  2
TERM01
 70
8
  0
ATTDEF
  5
129
330
118
100
AcDbEntity
  8
0
100
AcDbText
 10
-0.2046169189930051
 20
-0.137611882760555
 30
0.0
 40
0.01
  1
1-
  7
WD
 72
2
 11
-0.1912835856596718
 21
-0.137611882760555
 31
0.0
100
AcDbAttributeDefinition
  3

  2
WDTYPE
 70
9
  0
ATTDEF
  5
12A
330
118
100
AcDbEntity
  8
0
100
AcDbText
 10
0.203125
 20
-0.578125
 30
0.0
 40
0.125
  1

  7
WD
 41
0.85
100
AcDbAttributeDefinition
  3

  2
DESC3
 70
0
  0
ATTDEF
  5
12B
330
118
100
AcDbEntity
  8
0
100
AcDbText
 10
-0.1912835856596718
 20
-0.153236882760555
 30
0.0
 40
0.01
  1

  7
WD
 72
2
 11
-0.1912835856596718
 21
-0.153236882760555
 31
0.0
100
AcDbAttributeDefinition
  3

  2
WDBLKNAM
 70
9
  0
ATTDEF
  5
12C
330
118
100
AcDbEntity
  8
0
100
AcDbText
 10
-0.28125
 20
-0.140625
 30
0.0
 40
0.125
  1

  7
WD
 41
0.85
 72
2
 11
-0.28125
 21
-0.140625
 31
0.0
100
AcDbAttributeDefinition
  3

  2
RATING2
 70
0
  0
LWPOLYLINE
  5
12D
330
118
100
AcDbEntity
  8
0
100
AcDbPolyline
 90
2
 70
0
 43
0.0125
 10
-0.140625
 20
-0.015625
 10
0.140625
 20
-0.015625
  0
LWPOLYLINE
  5
12E
330
118
100
AcDbEntity
  8
0
100
AcDbPolyline
 90
2
 70
0
 43
0.0125
 10
-0.140625
 20
0.015625
 10
0.140625
 20
0.015625
  0
LWPOLYLINE
  5
12F
330
118
100
AcDbEntity
  8
0
100
AcDbPolyline
 90
2
 70
0
 43
0.0125
 10
4.9993274214e-06
 20
-0.1249986216425859
 42
1.000008755414071
 10
-0.1562450006121466
 20
-0.1250027463848736
  0
LWPOLYLINE
  5
130
330
118
100
AcDbEntity
  8
0
100
AcDbPolyline
 90
2
 70
0
 43
0.0125
 10
0.1562450006482603
 20
-0.1249986216425859
 42
1.000008755414071
 10
-4.9992913077e-06
 20
-0.1250027463848736
  0
LWPOLYLINE
  5
131
330
118
100
AcDbEntity
  8
0
100
AcDbPolyline
 90
2
 70
0
 43
0.0125
 10
0.15625
 20
-0.15625
 10
0.15625
 20
-0.125
  0
LWPOLYLINE
  5
132
330
118
100
AcDbEntity
  8
0
100
AcDbPolyline
 90
2
 70
0
 43
0.0125
 10
0.0
 20
-0.15625
 10
0.0
 20
-0.125
  0
LWPOLYLINE
  5
133
330
118
100
AcDbEntity
  8
0
100
AcDbPolyline
 90
2
 70
0
 43
0.0125
 10
-0.15625
 20
-0.15625
 10
-0.15625
 20
-0.125
  0
LWPOLYLINE
  5
134
330
118
100
AcDbEntity
  8
0
100
AcDbPolyline
 90
2
 70
0
 43
0.0125
 10
-0.15625
 20
0.15625
 10
-0.15625
 20
0.125
  0
LWPOLYLINE
  5
135
330
118
100
AcDbEntity
  8
0
100
AcDbPolyline
 90
2
 70
0
 43
0.0125
 10
-0.1562450006604195
 20
0.125
 42
1.000009054788699
 10
4.9993267698e-06
 20
0.125001414804329
  0
LWPOLYLINE
  5
136
330
118
100
AcDbEntity
  8
0
100
AcDbPolyline
 90
2
 70
0
 43
0.0125
 10
0.0
 20
0.15625
 10
0.0
 20
0.125
  0
LWPOLYLINE
  5
137
330
118
100
AcDbEntity
  8
0
100
AcDbPolyline
 90
2
 70
0
 43
0.0125
 10
-4.9993395805e-06
 20
0.125
 42
1.000009054788699
 10
0.1562450006476088
 20
0.125001414804329
  0
LWPOLYLINE
  5
138
330
118
100
AcDbEntity
  8
0
100
AcDbPolyline
 90
2
 70
0
 43
0.0125
 10
0.15625
 20
0.15625
 10
0.15625
 20
0.125
  0
ENDBLK
  5
11A
330
118
100
AcDbEntity
  8
0
100
AcDbBlockEnd
  0
BLOCK
  5
13A
330
139
100
AcDbEntity
  8
0
100
AcDbBlockBegin
  2
WDDOT
 70
0
 10
0.0
 20
0.0
 30
0.0
  3
WDDOT
  1

  0
CIRCLE
  5
13C
330
139
100
AcDbEntity
  8
0
100
AcDbCircle
 10
0.0
 20
0.0
 30
0.0
 40
0.0300000000000003
  0
CIRCLE
  5
13D
330
139
100
AcDbEntity
  8
0
100
AcDbCircle
 10
0.0
 20
0.0
 30
0.0
 40
0.0187012496499282
  0
CIRCLE
  5
13E
330
139
100
AcDbEntity
  8
0
100
AcDbCircle
 10
0.0
 20
0.0
 30
0.0
 40
0.0092948236686489
  0
ENDBLK
  5
13B
330
139
100
AcDbEntity
  8
0
100
AcDbBlockEnd
  0
ENDSEC
  0
SECTION
  2
ENTITIES
  0
LWPOLYLINE
  5
142
330
17
100
AcDbEntity
  8
SLD_CUBICLE
100
AcDbPolyline
 90
4
 70
1
 10
0.133
 20
20.602
 10
3.743
 20
20.602
 10
3.743
 20
9.435
 10
0.133
 20
9.435
  0
LWPOLYLINE
  5
143
330
17
100
AcDbEntity
  8
SLD_CUBICLE
100
AcDbPolyline
 90
4
 70
1
 10
3.743
 20
20.602
 10
7.353
 20
20.602
 10
7.353
 20
9.435
 10
3.743
 20
9.435
  0
LWPOLYLINE
  5
144
330
17
100
AcDbEntity
  8
SLD_CUBICLE
100
AcDbPolyline
 90
4
 70
1
 10
7.353
 20
20.602
 10
10.963
 20
20.602
 10
10.963
 20
9.435
 10
7.353
 20
9.435
  0
LINE
  5
145
330
17
100
AcDbEntity
  8
SLD_BUS
100
AcDbLine
 10
1.13
 20
18.583
 30
0.0
 11
8.950000000000001
 21
18.583
 31
0.0
  0
MTEXT
  5
146
330
17
100
AcDbEntity
  8
SLD_TEXT
100
AcDbMText
 10
1.4649999999999999
 20
19.088
 30
0.0
 40
0.1
 41
0.0
 71
1
  1
17.5KV, 3150A\P3PH, 40KAIC, BIL 95kV\PBUS A
  0
LINE
  5
147
330
17
100
AcDbEntity
  8
SLD_WIRE
100
AcDbLine
 10
1.43
 20
18.583
 30
0.0
 11
1.43
 21
16.207
 31
0.0
  0
LINE
  5
148
330
17
100
AcDbEntity
  8
SLD_WIRE
100
AcDbLine
 10
1.43
 20
16.051
 30
0.0
 11
1.43
 21
15.622
 31
0.0
  0
LINE
  5
149
330
17
100
AcDbEntity
  8
SLD_WIRE
100
AcDbLine
 10
1.43
 20
14.701
 30
0.0
 11
1.43
 21
14.346
 31
0.0
  0
LINE
  5
14A
330
17
100
AcDbEntity
  8
SLD_WIRE
100
AcDbLine
 10
1.43
 20
14.189
 30
0.0
 11
1.43
 21
9.097
 31
0.0
  0
INSERT
  5
14B
330
17
100
AcDbEntity
  8
SLD_SYMS
100
AcDbBlockReference
  2
WDDOT
 10
1.43
 20
18.583
 30
0.0
  0
INSERT
  5
14D
330
17
100
AcDbEntity
  8
SLD_SYMS
100
AcDbBlockReference
 66
1
  2
VFU1_1-
 10
2.8609999999999998
 20
16.204
 30
0.0
  0
ATTRIB
  5
14F
330
17
100
AcDbEntity
  8
0
100
AcDbText
 10
2.9859999999999998
 20
16.48525
 30
0.0
 40
0.125
  1

  7
WD
 41
0.85
 11
2.9859999999999998
 21
16.48525
 31
0.0
100
AcDbAttribute
  2
INST
 70
1
  0
ATTRIB
  5
150
330
17
100
AcDbEntity
  8
0
  6
Continuous
100
AcDbText
 10
2.7077203643816077
 20
16.097850164162786
 30
0.0
 40
0.01
  1

  7
WD
 72
1
 11
2.7077203643816077
 21
16.097850164162786
 31
0.0
100
AcDbAttribute
  2
ASSYCODE
 70
9
  0
ATTRIB
  5
151
330
17
100
AcDbEntity
  8
0
 62
7
100
AcDbText
 10
2.7359999999999998
 20
16.204
 30
0.0
 40
0.01
  1

  7
WD
 11
2.7359999999999998
 21
16.204
 31
0.0
100
AcDbAttribute
  2
X4LINK
 70
1
  0
ATTRIB
  5
152
330
17
100
AcDbEntity
  8
0
 62
7
100
AcDbText
 10
2.9859999999999998
 20
16.204
 30
0.0
 40
0.01
  1

  7
WD
 11
2.9859999999999998
 21
16.204
 31
0.0
100
AcDbAttribute
  2
X1LINK
 70
1
  0
ATTRIB
  5
153
330
17
100
AcDbEntity
  8
0
100
AcDbText
 10
2.7047499999999998
 20
16.1415
 30
0.0
 40
0.125
  1
6A
  7
WD
 41
0.85
 72
2
 11
2.7047499999999998
 21
16.1415
 31
0.0
100
AcDbAttribute
  2
RATING1
 70
0
  0
ATTRIB
  5
154
330
17
100
AcDbEntity
  8
0
100
AcDbText
 10
2.9859999999999998
 20
15.79775
 30
0.0
 40
0.125
  1

  7
WD
 41
0.85
 11
2.9859999999999998
 21
15.79775
 31
0.0
100
AcDbAttribute
  2
DESC2
 70
1
  0
ATTRIB
  5
155
330
17
100
AcDbEntity
  8
0
100
AcDbText
 10
2.9859999999999998
 20
15.969625
 30
0.0
 40
0.125
  1

  7
WD
 41
0.85
 11
2.9859999999999998
 21
15.969625
 31
0.0
100
AcDbAttribute
  2
DESC1
 70
1
  0
ATTRIB
  5
156
330
17
100
AcDbEntity
  8
0
100
AcDbText
 10
2.9879414379730695
 20
16.14337500000005
 30
0.0
 40
0.125
  1

  7
WD
 41
0.85
 11
2.9879414379730695
 21
16.14337500000005
 31
0.0
100
AcDbAttribute
  2
TAG1
 70
1
  0
ATTRIB
  5
157
330
17
100
AcDbEntity
  8
0
100
AcDbText
 10
2.9859999999999998
 20
16.313375
 30
0.0
 40
0.125
  1

  7
WD
 41
0.85
 11
2.9859999999999998
 21
16.313375
 31
0.0
100
AcDbAttribute
  2
LOC
 70
1
  0
ATTRIB
  5
158
330
17
100
AcDbEntity
  8
0
  6
Continuous
100
AcDbText
 10
2.718883081006995
 20
16.115873790861
 30
0.0
 40
0.01
  1

  7
WD
 72
2
 11
2.718883081006995
 21
16.115873790861
 31
0.0
100
AcDbAttribute
  2
MFG
 70
9
  0
ATTRIB
  5
159
330
17
100
AcDbEntity
  8
0
  6
Continuous
100
AcDbText
 10
2.718883081006995
 20
16.130873790861
 30
0.0
 40
0.01
  1

  7
WD
 72
2
 11
2.718883081006995
 21
16.130873790861
 31
0.0
100
AcDbAttribute
  2
CAT
 70
9
  0
ATTRIB
  5
15A
330
17
100
AcDbEntity
  8
0
100
AcDbText
 10
2.7022164143403278
 20
16.167540457527664
 30
0.0
 40
0.01
  1

  7
WD
 72
2
 11
2.718883081006995
 21
16.167540457527664
 31
0.0
100
AcDbAttribute
  2
FAMILY
 70
9
  0
ATTRIB
  5
15B
330
17
100
AcDbEntity
  8
0
 62
7
100
AcDbText
 10
2.8609999999999998
 20
16.04775
 30
0.0
 40
0.0125
  1

  7
WD
 11
2.8609999999999998
 21
16.04775
 31
0.0
100
AcDbAttribute
  2
X8TERM02
 70
1
  0
ATTRIB
  5
15C
330
17
100
AcDbEntity
  8
0
 62
7
100
AcDbText
 10
2.8609999999999998
 20
16.36025
 30
0.0
 40
0.0125
  1

  7
WD
 11
2.8609999999999998
 21
16.36025
 31
0.0
100
AcDbAttribute
  2
X2TERM01
 70
1
  0
ATTRIB
  5
15D
330
17
100
AcDbEntity
  8
0
  6
Continuous
100
AcDbText
 10
2.8202987783920053
 20
15.896802969349004
 30
0.0
 40
0.125
  1

  7
WD
 41
0.85
 72
2
 11
2.8202987783920053
 21
16.021802969349004
 31
0.0
100
AcDbAttribute
  2
TERM02
 70
9
 74
3
  0
ATTRIB
  5
15E
330
17
100
AcDbEntity
  8
0
  6
Continuous
100
AcDbText
 10
2.8060296208443454
 20
16.379376616004922
 30
0.0
 40
0.125
  1

  7
WD
 41
0.85
 72
2
 11
2.8060296208443454
 21
16.379376616004922
 31
0.0
100
AcDbAttribute
  2
TERM01
 70
9
  0
ATTRIB
  5
15F
330
17
100
AcDbEntity
  8
0
100
AcDbText
 10
2.718883081006995
 20
16.050763117239445
 30
0.0
 40
0.01
  1

  7
WD
 72
2
 11
2.732216414340328
 21
16.050763117239445
 31
0.0
100
AcDbAttribute
  2
WDTYPE
 70
9
  0
ATTRIB
  5
160
330
17
100
AcDbEntity
  8
0
100
AcDbText
 10
2.9859999999999998
 20
15.625875
 30
0.0
 40
0.125
  1

  7
WD
 41
0.85
 11
2.9859999999999998
 21
15.625875
 31
0.0
100
AcDbAttribute
  2
DESC3
 70
1
  0
ATTRIB
  5
161
330
17
100
AcDbEntity
  8
0
100
AcDbText
 10
2.732216414340328
 20
16.035138117239445
 30
0.0
 40
0.01
  1

  7
WD
 72
2
 11
2.732216414340328
 21
16.035138117239445
 31
0.0
100
AcDbAttribute
  2
WDBLKNAM
 70
9
  0
SEQEND
  5
14E
330
14D
100
AcDbEntity
  8
SLD_SYMS
  0
INSERT
  5
162
330
17
100
AcDbEntity
  8
SLD_SYMS
100
AcDbBlockReference
 66
1
  2
VCN1PJ
 10
1.43
 20
16.144
 30
0.0
  0
ATTRIB
  5
164
330
17
100
AcDbEntity
  8
0
100
AcDbText
 10
1.6591666666666667
 20
16.993801758954774
 30
0.0
 40
0.125
  1

  7
WD
 41
0.7
 72
2
 11
1.6591666666666667
 21
16.993801758954774
 31
0.0
100
AcDbAttribute
  2
INST
 70
1
  0
ATTRIB
  5
165
330
17
100
AcDbEntity
  8
0
100
AcDbText
 10
1.4430729268949867
 20
16.029359872741505
 30
0.0
 40
0.01
  1

  7
WD
 11
1.4430729268949867
 21
16.029359872741505
 31
0.0
100
AcDbAttribute
  2
X8TERMDESC01
 70
1
  0
ATTRIB
  5
166
330
17
100
AcDbEntity
  8
0
100
AcDbText
 10
1.4561458644990533
 20
16.185609867770694
 30
0.0
 40
0.01
  1

  7
WD
 11
1.4561458644990533
 21
16.185609867770694
 31
0.0
100
AcDbAttribute
  2
X2TERMDESC02
 70
1
  0
ATTRIB
  5
167
330
17
100
AcDbEntity
  8
0
  6
Continuous
100
AcDbText
 10
1.3209247363724244
 20
16.130056517835843
 30
0.0
 40
0.01
  1

  7
WD
 72
1
 11
1.3209247363724244
 21
16.130056517835843
 31
0.0
100
AcDbAttribute
  2
ASSYCODE
 70
9
  0
ATTRIB
  5
168
330
17
100
AcDbEntity
  8
0
100
AcDbText
 10
1.305
 20
16.0815
 30
0.0
 40
0.01
  1

  7
WD
 11
1.305
 21
16.0815
 31
0.0
100
AcDbAttribute
  2
X4LINK
 70
1
  0
ATTRIB
  5
169
330
17
100
AcDbEntity
  8
0
100
AcDbText
 10
1.555
 20
16.0815
 30
0.0
 40
0.01
  1

  7
WD
 11
1.555
 21
16.0815
 31
0.0
100
AcDbAttribute
  2
X1LINK
 70
1
  0
ATTRIB
  5
16A
330
17
100
AcDbEntity
  8
0
100
AcDbText
 10
1.3675
 20
16.82420175895477
 30
0.0
 40
0.125
  1

  7
WD
 41
0.7
 72
2
 11
1.3675
 21
16.82420175895477
 31
0.0
100
AcDbAttribute
  2
LOC
 70
1
  0
ATTRIB
  5
16B
330
17
100
AcDbEntity
  8
0
  6
Continuous
100
AcDbText
 10
1.3213931084496593
 20
16.144039283222853
 30
0.0
 40
0.01
  1

  7
WD
 72
1
 11
1.3213931084496593
 21
16.144039283222853
 31
0.0
100
AcDbAttribute
  2
MFG
 70
9
  0
ATTRIB
  5
16C
330
17
100
AcDbEntity
  8
0
  6
Continuous
100
AcDbText
 10
1.3233381540895781
 20
16.163481036930303
 30
0.0
 40
0.01
  1

  7
WD
 72
1
 11
1.3233381540895781
 21
16.163481036930303
 31
0.0
100
AcDbAttribute
  2
CAT
 70
9
  0
ATTRIB
  5
16D
330
17
100
AcDbEntity
  8
0
100
AcDbText
 10
1.298284888151228
 20
16.207657452790066
 30
0.0
 40
0.01
  1

  7
WD
 11
1.298284888151228
 21
16.207657452790066
 31
0.0
100
AcDbAttribute
  2
FAMILY
 70
9
  0
ATTRIB
  5
16E
330
17
100
AcDbEntity
  8
0
100
AcDbText
 10
1.3675
 20
16.498278904647663
 30
0.0
 40
0.125
  1

  7
WD
 41
0.7
 72
2
 11
1.3675
 21
16.498278904647663
 31
0.0
100
AcDbAttribute
  2
DESC2
 70
1
  0
ATTRIB
  5
16F
330
17
100
AcDbEntity
  8
0
100
AcDbText
 10
1.3675
 20
16.654525331801217
 30
0.0
 40
0.125
  1

  7
WD
 41
0.7
 72
2
 11
1.3675
 21
16.654525331801217
 31
0.0
100
AcDbAttribute
  2
DESC1
 70
1
  0
ATTRIB
  5
170
330
17
100
AcDbEntity
  8
0
100
AcDbText
 10
1.1591666666666665
 20
16.23775
 30
0.0
 40
0.125
  1

  7
WD
 72
2
 11
1.3675
 21
16.23775
 31
0.0
100
AcDbAttribute
  2
TAG1
 70
1
  0
ATTRIB
  5
171
330
17
100
AcDbEntity
  8
0
  6
Continuous
100
AcDbText
 10
1.4769999999999999
 20
15.862749999999998
 30
0.0
 40
0.125
  1

  7
WD
 11
1.4769999999999999
 21
15.987749999999998
 31
0.0
100
AcDbAttribute
  2
TERM01
 70
9
 74
3
  0
ATTRIB
  5
172
330
17
100
AcDbEntity
  8
0
100
AcDbText
 10
1.43
 20
16.05025
 30
0.0
 40
0.0125
  1

  7
WD
 11
1.43
 21
16.05025
 31
0.0
100
AcDbAttribute
  2
X8TERM01
 70
1
  0
ATTRIB
  5
173
330
17
100
AcDbEntity
  8
0
100
AcDbText
 10
1.43
 20
16.2065
 30
0.0
 40
0.0125
  1

  7
WD
 11
1.43
 21
16.2065
 31
0.0
100
AcDbAttribute
  2
X2TERM02
 70
1
  0
ATTRIB
  5
174
330
17
100
AcDbEntity
  8
0
  6
Continuous
100
AcDbText
 10
1.4769999999999999
 20
16.2065
 30
0.0
 40
0.125
  1

  7
WD
 11
1.4769999999999999
 21
16.2065
 31
0.0
100
AcDbAttribute
  2
TERM02
 70
9
  0
ATTRIB
  5
175
330
17
100
AcDbEntity
  8
0
100
AcDbText
 10
1.298284888151228
 20
16.189025320458434
 30
0.0
 40
0.01
  1

  7
WD
 11
1.298284888151228
 21
16.189025320458434
 31
0.0
100
AcDbAttribute
  2
WDBLKNAM
 70
9
  0
SEQEND
  5
163
330
162
100
AcDbEntity
  8
SLD_SYMS
  0
LWPOLYLINE
  5
176
330
17
100
AcDbEntity
  8
SLD_SYMS
100
AcDbPolyline
 90
4
 70
1
 10
1.015
 20
15.622
 10
1.7919999999999998
 20
15.622
 10
1.7919999999999998
 20
14.701
 10
1.015
 20
14.701
  0
INSERT
  5
177
330
17
100
AcDbEntity
  8
SLD_SYMS
100
AcDbBlockReference
 66
1
  2
VCN1PJ
 10
1.43
 20
14.252
 30
0.0
 50
180.0
  0
ATTRIB
  5
179
330
17
100
AcDbEntity
  8
0
100
AcDbText
 10
1.2008333333333332
 20
13.402198241045227
 30
0.0
 40
0.125
  1

 50
180.0
  7
WD
 41
0.7
 72
2
 11
1.2008333333333332
 21
13.402198241045227
 31
0.0
100
AcDbAttribute
  2
INST
 70
1
  0
ATTRIB
  5
17A
330
17
100
AcDbEntity
  8
0
100
AcDbText
 10
1.4169270731050132
 20
14.366640127258496
 30
0.0
 40
0.01
  1

 50
180.0
  7
WD
 11
1.4169270731050132
 21
14.366640127258496
 31
0.0
100
AcDbAttribute
  2
X8TERMDESC01
 70
1
  0
ATTRIB
  5
17B
330
17
100
AcDbEntity
  8
0
100
AcDbText
 10
1.4038541355009466
 20
14.210390132229305
 30
0.0
 40
0.01
  1

 50
180.0
  7
WD
 11
1.4038541355009466
 21
14.210390132229305
 31
0.0
100
AcDbAttribute
  2
X2TERMDESC02
 70
1
  0
ATTRIB
  5
17C
330
17
100
AcDbEntity
  8
0
  6
Continuous
100
AcDbText
 10
1.5390752636275755
 20
14.265943482164156
 30
0.0
 40
0.01
  1

 50
180.0
  7
WD
 72
1
 11
1.5390752636275755
 21
14.265943482164156
 31
0.0
100
AcDbAttribute
  2
ASSYCODE
 70
9
  0
ATTRIB
  5
17D
330
17
100
AcDbEntity
  8
0
100
AcDbText
 10
1.555
 20
14.3145
 30
0.0
 40
0.01
  1

 50
180.0
  7
WD
 11
1.555
 21
14.3145
 31
0.0
100
AcDbAttribute
  2
X4LINK
 70
1
  0
ATTRIB
  5
17E
330
17
100
AcDbEntity
  8
0
100
AcDbText
 10
1.305
 20
14.3145
 30
0.0
 40
0.01
  1

 50
180.0
  7
WD
 11
1.305
 21
14.3145
 31
0.0
100
AcDbAttribute
  2
X1LINK
 70
1
  0
ATTRIB
  5
17F
330
17
100
AcDbEntity
  8
0
100
AcDbText
 10
1.4925
 20
13.571798241045226
 30
0.0
 40
0.125
  1

 50
180.0
  7
WD
 41
0.7
 72
2
 11
1.4925
 21
13.571798241045226
 31
0.0
100
AcDbAttribute
  2
LOC
 70
1
  0
ATTRIB
  5
180
330
17
100
AcDbEntity
  8
0
  6
Continuous
100
AcDbText
 10
1.5386068915503406
 20
14.251960716777145
 30
0.0
 40
0.01
  1

 50
180.0
  7
WD
 72
1
 11
1.5386068915503406
 21
14.251960716777145
 31
0.0
100
AcDbAttribute
  2
MFG
 70
9
  0
ATTRIB
  5
181
330
17
100
AcDbEntity
  8
0
  6
Continuous
100
AcDbText
 10
1.5366618459104218
 20
14.232518963069694
 30
0.0
 40
0.01
  1

 50
180.0
  7
WD
 72
1
 11
1.5366618459104218
 21
14.232518963069694
 31
0.0
100
AcDbAttribute
  2
CAT
 70
9
  0
ATTRIB
  5
182
330
17
100
AcDbEntity
  8
0
100
AcDbText
 10
1.561715111848772
 20
14.188342547209931
 30
0.0
 40
0.01
  1

 50
180.0
  7
WD
 11
1.561715111848772
 21
14.188342547209931
 31
0.0
100
AcDbAttribute
  2
FAMILY
 70
9
  0
ATTRIB
  5
183
330
17
100
AcDbEntity
  8
0
100
AcDbText
 10
1.4925
 20
13.897721095352336
 30
0.0
 40
0.125
  1

 50
180.0
  7
WD
 41
0.7
 72
2
 11
1.4925
 21
13.897721095352336
 31
0.0
100
AcDbAttribute
  2
DESC2
 70
1
  0
ATTRIB
  5
184
330
17
100
AcDbEntity
  8
0
100
AcDbText
 10
1.4925
 20
13.741474668198782
 30
0.0
 40
0.125
  1

 50
180.0
  7
WD
 41
0.7
 72
2
 11
1.4925
 21
13.741474668198782
 31
0.0
100
AcDbAttribute
  2
DESC1
 70
1
  0
ATTRIB
  5
185
330
17
100
AcDbEntity
  8
0
100
AcDbText
 10
1.7008333333333334
 20
14.15825
 30
0.0
 40
0.125
  1

 50
180.0
  7
WD
 72
2
 11
1.4925
 21
14.15825
 31
0.0
100
AcDbAttribute
  2
TAG1
 70
1
  0
ATTRIB
  5
186
330
17
100
AcDbEntity
  8
0
  6
Continuous
100
AcDbText
 10
1.383
 20
14.53325
 30
0.0
 40
0.125
  1

 50
180.0
  7
WD
 11
1.383
 21
14.40825
 31
0.0
100
AcDbAttribute
  2
TERM01
 70
9
 74
3
  0
ATTRIB
  5
187
330
17
100
AcDbEntity
  8
0
100
AcDbText
 10
1.43
 20
14.34575
 30
0.0
 40
0.0125
  1

 50
180.0
  7
WD
 11
1.43
 21
14.34575
 31
0.0
100
AcDbAttribute
  2
X8TERM01
 70
1
  0
ATTRIB
  5
188
330
17
100
AcDbEntity
  8
0
100
AcDbText
 10
1.43
 20
14.1895
 30
0.0
 40
0.0125
  1

 50
180.0
  7
WD
 11
1.43
 21
14.1895
 31
0.0
100
AcDbAttribute
  2
X2TERM02
 70
1
  0
ATTRIB
  5
189
330
17
100
AcDbEntity
  8
0
  6
Continuous
100
AcDbText
 10
1.383
 20
14.1895
 30
0.0
 40
0.125
  1

 50
180.0
  7
WD
 11
1.383
 21
14.1895
 31
0.0
100
AcDbAttribute
  2
TERM02
 70
9
  0
ATTRIB
  5
18A
330
17
100
AcDbEntity
  8
0
100
AcDbText
 10
1.561715111848772
 20
14.206974679541563
 30
0.0
 40
0.01
  1

 50
180.0
  7
WD
 11
1.561715111848772
 21
14.206974679541563
 31
0.0
100
AcDbAttribute
  2
WDBLKNAM
 70
9
  0
SEQEND
  5
178
330
177
100
AcDbEntity
  8
SLD_SYMS
  0
INSERT
  5
18B
330
17
100
AcDbEntity
  8
SLD_SYMS
100
AcDbBlockReference
  2
ARRESTER
 10
1.428
 20
13.359
 30
0.0
  0
INSERT
  5
18D
330
17
100
AcDbEntity
  8
SLD_SYMS
100
AcDbBlockReference
 66
1
  2
VXF1CT
 10
1.6199999999999999
 20
12.007
 30
0.0
  0
ATTRIB
  5
18F
330
17
100
AcDbEntity
  8
0
100
AcDbText
 10
1.3929166666666666
 20
11.585125
 30
0.0
 40
0.125
  1

  7
WD
 41
0.7
 72
1
 11
1.3929166666666666
 21
11.585125
 31
0.0
100
AcDbAttribute
  2
INST
 70
1
  0
ATTRIB
  5
190
330
17
100
AcDbEntity
  8
0
100
AcDbText
 10
1.6199999999999999
 20
11.723826474599724
 30
0.0
 40
0.0125
  1

  7
WD
 11
1.6199999999999999
 21
11.723826474599724
 31
0.0
100
AcDbAttribute
  2
X8TERM01
 70
1
  0
ATTRIB
  5
191
330
17
100
AcDbEntity
  8
0
100
AcDbText
 10
1.6522117627001378
 20
11.756038237299862
 30
0.0
 40
0.0125
  1

  7
WD
 11
1.6522117627001378
 21
11.756038237299862
 31
0.0
100
AcDbAttribute
  2
X1TERM01
 70
1
  0
ATTRIB
  5
192
330
17
100
AcDbEntity
  8
0
  6
Continuous
100
AcDbText
 10
1.5650621696190423
 20
11.776456032263782
 30
0.0
 40
0.125
  1

  7
WD
 72
2
 11
1.5650621696190423
 21
11.776456032263782
 31
0.0
100
AcDbAttribute
  2
TERM01
 70
9
  0
ATTRIB
  5
193
330
17
100
AcDbEntity
  8
0
  6
Continuous
100
AcDbText
 10
1.575006916951067
 20
12.273965784883833
 30
0.0
 40
0.125
  1

  7
WD
 72
2
 11
1.575006916951067
 21
12.273965784883833
 31
0.0
100
AcDbAttribute
  2
TERM02
 70
9
  0
ATTRIB
  5
194
330
17
100
AcDbEntity
  8
0
100
AcDbText
 10
1.6522117627001378
 20
12.256038237299862
 30
0.0
 40
0.0125
  1

  7
WD
 11
1.6522117627001378
 21
12.256038237299862
 31
0.0
100
AcDbAttribute
  2
X1TERM02
 70
1
  0
ATTRIB
  5
195
330
17
100
AcDbEntity
  8
0
100
AcDbText
 10
1.6199999999999999
 20
12.28825
 30
0.0
 40
0.0125
  1

  7
WD
 11
1.6199999999999999
 21
12.28825
 31
0.0
100
AcDbAttribute
  2
X2TERM02
 70
1
  0
ATTRIB
  5
196
330
17
100
AcDbEntity
  8
0
100
AcDbText
 10
1.9012499999999999
 20
11.882
 30
0.0
 40
0.125
  1

  7
WD
 41
0.7
 11
1.9012499999999999
 21
11.882
 31
0.0
100
AcDbAttribute
  2
RATING1
 70
1
  0
ATTRIB
  5
197
330
17
100
AcDbEntity
  8
0
100
AcDbText
 10
1.9012499999999999
 20
12.03825
 30
0.0
 40
0.125
  1

  7
WD
 11
1.9012499999999999
 21
12.03825
 31
0.0
100
AcDbAttribute
  2
TAG1
 70
1
  0
ATTRIB
  5
198
330
17
100
AcDbEntity
  8
0
100
AcDbText
 10
1.4194706222727909
 20
11.24970533180122
 30
0.0
 40
0.125
  1
400:5A (3)
  7
WD
 41
0.7
 72
1
 11
1.4194706222727909
 21
11.24970533180122
 31
0.0
100
AcDbAttribute
  2
DESC1
 70
0
  0
ATTRIB
  5
199
330
17
100
AcDbEntity
  8
0
100
AcDbText
 10
1.4194706222727909
 20
11.093458904647663
 30
0.0
 40
0.125
  1
CT 5P20
  7
WD
 41
0.7
 72
1
 11
1.4194706222727909
 21
11.093458904647663
 31
0.0
100
AcDbAttribute
  2
DESC2
 70
0
  0
ATTRIB
  5
19A
330
17
100
AcDbEntity
  8
0
100
AcDbText
 10
1.4194706222727909
 20
11.405951758954775
 30
0.0
 40
0.125
  1

  7
WD
 41
0.7
 72
1
 11
1.4194706222727909
 21
11.405951758954775
 31
0.0
100
AcDbAttribute
  2
LOC
 70
1
  0
ATTRIB
  5
19B
330
17
100
AcDbEntity
  8
0
  6
Continuous
100
AcDbText
 10
1.449069824898972
 20
12.125955350386372
 30
0.0
 40
0.01
  1

  7
WD
 72
1
 11
1.449069824898972
 21
12.125955350386372
 31
0.0
100
AcDbAttribute
  2
ASSYCODE
 70
9
  0
ATTRIB
  5
19C
330
17
100
AcDbEntity
  8
0
100
AcDbText
 10
1.4272916666666666
 20
11.960125
 30
0.0
 40
0.125
  1

  7
WD
 72
1
 11
1.5731249999999999
 21
11.960125
 31
0.0
100
AcDbAttribute
  2
TYPE
 70
1
  0
ATTRIB
  5
19D
330
17
100
AcDbEntity
  8
0
100
AcDbText
 10
1.4241927759003674
 20
12.197690293718368
 30
0.0
 40
0.01
  1

  7
WD
 11
1.4241927759003674
 21
12.197690293718368
 31
0.0
100
AcDbAttribute
  2
FAMILY
 70
9
  0
ATTRIB
  5
19E
330
17
100
AcDbEntity
  8
0
  6
Continuous
100
AcDbText
 10
1.4492460418387172
 20
12.169138877858606
 30
0.0
 40
0.01
  1

  7
WD
 72
1
 11
1.4492460418387172
 21
12.169138877858606
 31
0.0
100
AcDbAttribute
  2
CAT
 70
9
  0
ATTRIB
  5
19F
330
17
100
AcDbEntity
  8
0
  6
Continuous
100
AcDbText
 10
1.4473009961987986
 20
12.149697124151155
 30
0.0
 40
0.01
  1

  7
WD
 72
1
 11
1.4473009961987986
 21
12.149697124151155
 31
0.0
100
AcDbAttribute
  2
MFG
 70
9
  0
SEQEND
  5
18E
330
18D
100
AcDbEntity
  8
SLD_SYMS
  0
INSERT
  5
1A0
330
17
100
AcDbEntity
  8
SLD_SYMS
100
AcDbBlockReference
  2
WDDOT
 10
1.48
 20
12.325
 30
0.0
  0
MTEXT
  5
1A2
330
17
100
AcDbEntity
  8
SLD_TEXT
100
AcDbMText
 10
0.6529999999999999
 20
11.774
 30
0.0
 40
0.1
 41
0.0
 71
2
  1
1%%C
  0
INSERT
  5
1A3
330
17
100
AcDbEntity
  8
SLD_SYMS
100
AcDbBlockReference
 66
1
  2
VXF1CT
 10
1.6199999999999999
 20
10.308
 30
0.0
  0
ATTRIB
  5
1A5
330
17
100
AcDbEntity
  8
0
100
AcDbText
 10
1.3929166666666666
 20
9.886125
 30
0.0
 40
0.125
  1

  7
WD
 41
0.7
 72
1
 11
1.3929166666666666
 21
9.886125
 31
0.0
100
AcDbAttribute
  2
INST
 70
1
  0
ATTRIB
  5
1A6
330
17
100
AcDbEntity
  8
0
100
AcDbText
 10
1.6199999999999999
 20
10.024826474599724
 30
0.0
 40
0.0125
  1

  7
WD
 11
1.6199999999999999
 21
10.024826474599724
 31
0.0
100
AcDbAttribute
  2
X8TERM01
 70
1
  0
ATTRIB
  5
1A7
330
17
100
AcDbEntity
  8
0
100
AcDbText
 10
1.6522117627001378
 20
10.057038237299862
 30
0.0
 40
0.0125
  1

  7
WD
 11
1.6522117627001378
 21
10.057038237299862
 31
0.0
100
AcDbAttribute
  2
X1TERM01
 70
1
  0
ATTRIB
  5
1A8
330
17
100
AcDbEntity
  8
0
  6
Continuous
100
AcDbText
 10
1.5650621696190423
 20
10.077456032263783
 30
0.0
 40
0.125
  1

  7
WD
 72
2
 11
1.5650621696190423
 21
10.077456032263783
 31
0.0
100
AcDbAttribute
  2
TERM01
 70
9
  0
ATTRIB
  5
1A9
330
17
100
AcDbEntity
  8
0
  6
Continuous
100
AcDbText
 10
1.575006916951067
 20
10.574965784883833
 30
0.0
 40
0.125
  1

  7
WD
 72
2
 11
1.575006916951067
 21
10.574965784883833
 31
0.0
100
AcDbAttribute
  2
TERM02
 70
9
  0
ATTRIB
  5
1AA
330
17
100
AcDbEntity
  8
0
100
AcDbText
 10
1.6522117627001378
 20
10.557038237299862
 30
0.0
 40
0.0125
  1

  7
WD
 11
1.6522117627001378
 21
10.557038237299862
 31
0.0
100
AcDbAttribute
  2
X1TERM02
 70
1
  0
ATTRIB
  5
1AB
330
17
100
AcDbEntity
  8
0
100
AcDbText
 10
1.6199999999999999
 20
10.58925
 30
0.0
 40
0.0125
  1

  7
WD
 11
1.6199999999999999
 21
10.58925
 31
0.0
100
AcDbAttribute
  2
X2TERM02
 70
1
  0
ATTRIB
  5
1AC
330
17
100
AcDbEntity
  8
0
100
AcDbText
 10
1.9012499999999999
 20
10.183
 30
0.0
 40
0.125
  1

  7
WD
 41
0.7
 11
1.9012499999999999
 21
10.183
 31
0.0
100
AcDbAttribute
  2
RATING1
 70
1
  0
ATTRIB
  5
1AD
330
17
100
AcDbEntity
  8
0
100
AcDbText
 10
1.9012499999999999
 20
10.33925
 30
0.0
 40
0.125
  1

  7
WD
 11
1.9012499999999999
 21
10.33925
 31
0.0
100
AcDbAttribute
  2
TAG1
 70
1
  0
ATTRIB
  5
1AE
330
17
100
AcDbEntity
  8
0
100
AcDbText
 10
1.4194706222727909
 20
9.550705331801218
 30
0.0
 40
0.125
  1
3000:5A (3)
  7
WD
 41
0.7
 72
1
 11
1.4194706222727909
 21
9.550705331801218
 31
0.0
100
AcDbAttribute
  2
DESC1
 70
0
  0
ATTRIB
  5
1AF
330
17
100
AcDbEntity
  8
0
100
AcDbText
 10
1.4194706222727909
 20
9.394458904647664
 30
0.0
 40
0.125
  1
CT 5P20
  7
WD
 41
0.7
 72
1
 11
1.4194706222727909
 21
9.394458904647664
 31
0.0
100
AcDbAttribute
  2
DESC2
 70
0
  0
ATTRIB
  5
1B0
330
17
100
AcDbEntity
  8
0
100
AcDbText
 10
1.4194706222727909
 20
9.706951758954773
 30
0.0
 40
0.125
  1

  7
WD
 41
0.7
 72
1
 11
1.4194706222727909
 21
9.706951758954773
 31
0.0
100
AcDbAttribute
  2
LOC
 70
1
  0
ATTRIB
  5
1B1
330
17
100
AcDbEntity
  8
0
  6
Continuous
100
AcDbText
 10
1.449069824898972
 20
10.426955350386372
 30
0.0
 40
0.01
  1

  7
WD
 72
1
 11
1.449069824898972
 21
10.426955350386372
 31
0.0
100
AcDbAttribute
  2
ASSYCODE
 70
9
  0
ATTRIB
  5
1B2
330
17
100
AcDbEntity
  8
0
100
AcDbText
 10
1.4272916666666666
 20
10.261125
 30
0.0
 40
0.125
  1

  7
WD
 72
1
 11
1.5731249999999999
 21
10.261125
 31
0.0
100
AcDbAttribute
  2
TYPE
 70
1
  0
ATTRIB
  5
1B3
330
17
100
AcDbEntity
  8
0
100
AcDbText
 10
1.4241927759003674
 20
10.498690293718369
 30
0.0
 40
0.01
  1

  7
WD
 11
1.4241927759003674
 21
10.498690293718369
 31
0.0
100
AcDbAttribute
  2
FAMILY
 70
9
  0
ATTRIB
  5
1B4
330
17
100
AcDbEntity
  8
0
  6
Continuous
100
AcDbText
 10
1.4492460418387172
 20
10.470138877858606
 30
0.0
 40
0.01
  1

  7
WD
 72
1
 11
1.4492460418387172
 21
10.470138877858606
 31
0.0
100
AcDbAttribute
  2
CAT
 70
9
  0
ATTRIB
  5
1B5
330
17
100
AcDbEntity
  8
0
  6
Continuous
100
AcDbText
 10
1.4473009961987986
 20
10.450697124151155
 30
0.0
 40
0.01
  1

  7
WD
 72
1
 11
1.4473009961987986
 21
10.450697124151155
 31
0.0
100
AcDbAttribute
  2
MFG
 70
9
  0
SEQEND
  5
1A4
330
1A3
100
AcDbEntity
  8
SLD_SYMS
  0
INSERT
  5
1B6
330
17
100
AcDbEntity
  8
SLD_SYMS
100
AcDbBlockReference
  2
WDDOT
 10
1.474
 20
10.606
 30
0.0
  0
MTEXT
  5
1B8
330
17
100
AcDbEntity
  8
SLD_TEXT
100
AcDbMText
 10
0.6529999999999999
 20
10.08
 30
0.0
 40
0.1
 41
0.0
 71
2
  1
1%%C
  0
INSERT
  5
1B9
330
17
100
AcDbEntity
  8
SLD_SYMS
100
AcDbBlockReference
 66
1
  2
VCN1PJ
 10
1.43
 20
9.034
 30
0.0
  0
ATTRIB
  5
1BB
330
17
100
AcDbEntity
  8
0
100
AcDbText
 10
1.6591666666666667
 20
9.883801758954775
 30
0.0
 40
0.125
  1

  7
WD
 41
0.7
 72
2
 11
1.6591666666666667
 21
9.883801758954775
 31
0.0
100
AcDbAttribute
  2
INST
 70
1
  0
ATTRIB
  5
1BC
330
17
100
AcDbEntity
  8
0
100
AcDbText
 10
1.4430729268949867
 20
8.919359872741506
 30
0.0
 40
0.01
  1

  7
WD
 11
1.4430729268949867
 21
8.919359872741506
 31
0.0
100
AcDbAttribute
  2
X8TERMDESC01
 70
1
  0
ATTRIB
  5
1BD
330
17
100
AcDbEntity
  8
0
100
AcDbText
 10
1.4561458644990533
 20
9.075609867770696
 30
0.0
 40
0.01
  1

  7
WD
 11
1.4561458644990533
 21
9.075609867770696
 31
0.0
100
AcDbAttribute
  2
X2TERMDESC02
 70
1
  0
ATTRIB
  5
1BE
330
17
100
AcDbEntity
  8
0
  6
Continuous
100
AcDbText
 10
1.3209247363724244
 20
9.020056517835846
 30
0.0
 40
0.01
  1

  7
WD
 72
1
 11
1.3209247363724244
 21
9.020056517835846
 31
0.0
100
AcDbAttribute
  2
ASSYCODE
 70
9
  0
ATTRIB
  5
1BF
330
17
100
AcDbEntity
  8
0
100
AcDbText
 10
1.305
 20
8.9715
 30
0.0
 40
0.01
  1

  7
WD
 11
1.305
 21
8.9715
 31
0.0
100
AcDbAttribute
  2
X4LINK
 70
1
  0
ATTRIB
  5
1C0
330
17
100
AcDbEntity
  8
0
100
AcDbText
 10
1.555
 20
8.9715
 30
0.0
 40
0.01
  1

  7
WD
 11
1.555
 21
8.9715
 31
0.0
100
AcDbAttribute
  2
X1LINK
 70
1
  0
ATTRIB
  5
1C1
330
17
100
AcDbEntity
  8
0
100
AcDbText
 10
1.3675
 20
9.714201758954776
 30
0.0
 40
0.125
  1

  7
WD
 41
0.7
 72
2
 11
1.3675
 21
9.714201758954776
 31
0.0
100
AcDbAttribute
  2
LOC
 70
1
  0
ATTRIB
  5
1C2
330
17
100
AcDbEntity
  8
0
  6
Continuous
100
AcDbText
 10
1.3213931084496593
 20
9.034039283222857
 30
0.0
 40
0.01
  1

  7
WD
 72
1
 11
1.3213931084496593
 21
9.034039283222857
 31
0.0
100
AcDbAttribute
  2
MFG
 70
9
  0
ATTRIB
  5
1C3
330
17
100
AcDbEntity
  8
0
  6
Continuous
100
AcDbText
 10
1.3233381540895781
 20
9.053481036930307
 30
0.0
 40
0.01
  1

  7
WD
 72
1
 11
1.3233381540895781
 21
9.053481036930307
 31
0.0
100
AcDbAttribute
  2
CAT
 70
9
  0
ATTRIB
  5
1C4
330
17
100
AcDbEntity
  8
0
100
AcDbText
 10
1.298284888151228
 20
9.09765745279007
 30
0.0
 40
0.01
  1

  7
WD
 11
1.298284888151228
 21
9.09765745279007
 31
0.0
100
AcDbAttribute
  2
FAMILY
 70
9
  0
ATTRIB
  5
1C5
330
17
100
AcDbEntity
  8
0
100
AcDbText
 10
1.3675
 20
9.388278904647665
 30
0.0
 40
0.125
  1

  7
WD
 41
0.7
 72
2
 11
1.3675
 21
9.388278904647665
 31
0.0
100
AcDbAttribute
  2
DESC2
 70
1
  0
ATTRIB
  5
1C6
330
17
100
AcDbEntity
  8
0
100
AcDbText
 10
1.3675
 20
9.54452533180122
 30
0.0
 40
0.125
  1

  7
WD
 41
0.7
 72
2
 11
1.3675
 21
9.54452533180122
 31
0.0
100
AcDbAttribute
  2
DESC1
 70
1
  0
ATTRIB
  5
1C7
330
17
100
AcDbEntity
  8
0
100
AcDbText
 10
1.1591666666666665
 20
9.12775
 30
0.0
 40
0.125
  1

  7
WD
 72
2
 11
1.3675
 21
9.12775
 31
0.0
100
AcDbAttribute
  2
TAG1
 70
1
  0
ATTRIB
  5
1C8
330
17
100
AcDbEntity
  8
0
  6
Continuous
100
AcDbText
 10
1.4769999999999999
 20
8.75275
 30
0.0
 40
0.125
  1

  7
WD
 11
1.4769999999999999
 21
8.87775
 31
0.0
100
AcDbAttribute
  2
TERM01
 70
9
 74
3
  0
ATTRIB
  5
1C9
330
17
100
AcDbEntity
  8
0
100
AcDbText
 10
1.43
 20
8.94025
 30
0.0
 40
0.0125
  1

  7
WD
 11
1.43
 21
8.94025
 31
0.0
100
AcDbAttribute
  2
X8TERM01
 70
1
  0
ATTRIB
  5
1CA
330
17
100
AcDbEntity
  8
0
100
AcDbText
 10
1.43
 20
9.0965
 30
0.0
 40
0.0125
  1

  7
WD
 11
1.43
 21
9.0965
 31
0.0
100
AcDbAttribute
  2
X2TERM02
 70
1
  0
ATTRIB
  5
1CB
330
17
100
AcDbEntity
  8
0
  6
Continuous
100
AcDbText
 10
1.4769999999999999
 20
9.0965
 30
0.0
 40
0.125
  1

  7
WD
 11
1.4769999999999999
 21
9.0965
 31
0.0
100
AcDbAttribute
  2
TERM02
 70
9
  0
ATTRIB
  5
1CC
330
17
100
AcDbEntity
  8
0
100
AcDbText
 10
1.298284888151228
 20
9.079025320458438
 30
0.0
 40
0.01
  1

  7
WD
 11
1.298284888151228
 21
9.079025320458438
 31
0.0
100
AcDbAttribute
  2
WDBLKNAM
 70
9
  0
SEQEND
  5
1BA
330
1B9
100
AcDbEntity
  8
SLD_SYMS
  0
INSERT
  5
1CD
330
17
100
AcDbEntity
  8
SLD_SYMS
100
AcDbBlockReference
 66
1
  2
DEVICE_BUBBLE
 10
2.484
 20
15.318
 30
0.0
  0
ATTRIB
  5
1CF
330
17
100
AcDbEntity
  8
0
100
AcDbText
 10
2.3124679101079746
 20
15.218951515790893
 30
0.0
 40
0.2
  1
86
  7
OpenSans
 11
2.3124679101079746
 21
15.218951515790893
 31
0.0
100
AcDbAttribute
  2
DB
 70
0
280
1
  0
SEQEND
  5
1CE
330
1CD
100
AcDbEntity
  8
SLD_SYMS
  0
LINE
  5
1D0
330
17
100
AcDbEntity
  8
SLD_CONTROL
100
AcDbLine
 10
1.7919999999999998
 20
15.318
 30
0.0
 11
2.267
 21
15.318
 31
0.0
  0
LINE
  5
1D1
330
17
100
AcDbEntity
  8
SLD_CONTROL
100
AcDbLine
 10
2.484
 20
15.100999999999999
 30
0.0
 11
2.484
 21
14.715
 31
0.0
  0
LWPOLYLINE
  5
1D2
330
17
100
AcDbEntity
  8
SLD_SYMS
100
AcDbPolyline
 90
4
 70
1
 10
2.177
 20
14.715
 10
3.355
 20
14.715
 10
3.355
 20
14.043
 10
2.177
 20
14.043
  0
LWPOLYLINE
  5
1D3
330
17
100
AcDbEntity
  8
SLD_CUBICLE
  6
DASHED
100
AcDbPolyline
 90
4
 70
1
 10
0.248
 20
12.465
 10
1.841
 20
12.465
 10
1.841
 20
9.912
 10
0.248
 20
9.912
  0
MTEXT
  5
1D4
330
17
100
AcDbEntity
  8
SLD_TEXT
100
AcDbMText
 10
1.43
 20
21.037
 30
0.0
 40
0.3
 41
0.0
 71
2
  1
UNIT 1
  0
MTEXT
  5
1D5
330
17
100
AcDbEntity
  8
SLD_TEXT
100
AcDbMText
 10
1.43
 20
20.173
 30
0.0
 40
0.3
 41
0.0
 71
2
  1
52-GEN1
  0
MTEXT
  5
1D6
330
17
100
AcDbEntity
  8
SLD_TEXT
100
AcDbMText
 10
1.0539999999999998
 20
15.408
 30
0.0
 40
0.093
 41
0.0
 71
1
  1
52-GEN1\P17.5kV\P3150A\P40kA
  0
MTEXT
  5
1D7
330
17
100
AcDbEntity
  8
SLD_TEXT
100
AcDbMText
 10
2.766
 20
14.677
 30
0.0
 40
0.093
 41
0.0
 71
2
  1
SEL-751-GEN1\PFEEDER\PPROTECTION\PRELAY
  0
MTEXT
  5
1D8
330
17
100
AcDbEntity
  8
SLD_TEXT
100
AcDbMText
 10
1.43
 20
8.87
 30
0.0
 40
0.093
 41
0.0
 71
2
  1
INCOMING 13.8KV\PLINE FROM GEN-1
  0
LINE
  5
1D9
330
17
100
AcDbEntity
  8
SLD_WIRE
100
AcDbLine
 10
5.04
 20
18.583
 30
0.0
 11
5.04
 21
16.207
 31
0.0
  0
LINE
  5
1DA
330
17
100
AcDbEntity
  8
SLD_WIRE
100
AcDbLine
 10
5.04
 20
16.051
 30
0.0
 11
5.04
 21
15.622
 31
0.0
  0
LINE
  5
1DB
330
17
100
AcDbEntity
  8
SLD_WIRE
100
AcDbLine
 10
5.04
 20
14.701
 30
0.0
 11
5.04
 21
14.346
 31
0.0
  0
LINE
  5
1DC
330
17
100
AcDbEntity
  8
SLD_WIRE
100
AcDbLine
 10
5.04
 20
14.189
 30
0.0
 11
5.04
 21
9.097
 31
0.0
  0
INSERT
  5
1DD
330
17
100
AcDbEntity
  8
SLD_SYMS
100
AcDbBlockReference
  2
WDDOT
 10
5.04
 20
18.583
 30
0.0
  0
INSERT
  5
1DF
330
17
100
AcDbEntity
  8
SLD_SYMS
100
AcDbBlockReference
 66
1
  2
VFU1_1-
 10
6.471
 20
16.204
 30
0.0
  0
ATTRIB
  5
1E1
330
17
100
AcDbEntity
  8
0
100
AcDbText
 10
6.596
 20
16.48525
 30
0.0
 40
0.125
  1

  7
WD
 41
0.85
 11
6.596
 21
16.48525
 31
0.0
100
AcDbAttribute
  2
INST
 70
1
  0
ATTRIB
  5
1E2
330
17
100
AcDbEntity
  8
0
  6
Continuous
100
AcDbText
 10
6.317720364381608
 20
16.097850164162786
 30
0.0
 40
0.01
  1

  7
WD
 72
1
 11
6.317720364381608
 21
16.097850164162786
 31
0.0
100
AcDbAttribute
  2
ASSYCODE
 70
9
  0
ATTRIB
  5
1E3
330
17
100
AcDbEntity
  8
0
 62
7
100
AcDbText
 10
6.346
 20
16.204
 30
0.0
 40
0.01
  1

  7
WD
 11
6.346
 21
16.204
 31
0.0
100
AcDbAttribute
  2
X4LINK
 70
1
  0
ATTRIB
  5
1E4
330
17
100
AcDbEntity
  8
0
 62
7
100
AcDbText
 10
6.596
 20
16.204
 30
0.0
 40
0.01
  1

  7
WD
 11
6.596
 21
16.204
 31
0.0
100
AcDbAttribute
  2
X1LINK
 70
1
  0
ATTRIB
  5
1E5
330
17
100
AcDbEntity
  8
0
100
AcDbText
 10
6.31475
 20
16.1415
 30
0.0
 40
0.125
  1
6A
  7
WD
 41
0.85
 72
2
 11
6.31475
 21
16.1415
 31
0.0
100
AcDbAttribute
  2
RATING1
 70
0
  0
ATTRIB
  5
1E6
330
17
100
AcDbEntity
  8
0
100
AcDbText
 10
6.596
 20
15.79775
 30
0.0
 40
0.125
  1

  7
WD
 41
0.85
 11
6.596
 21
15.79775
 31
0.0
100
AcDbAttribute
  2
DESC2
 70
1
  0
ATTRIB
  5
1E7
330
17
100
AcDbEntity
  8
0
100
AcDbText
 10
6.596
 20
15.969625
 30
0.0
 40
0.125
  1

  7
WD
 41
0.85
 11
6.596
 21
15.969625
 31
0.0
100
AcDbAttribute
  2
DESC1
 70
1
  0
ATTRIB
  5
1E8
330
17
100
AcDbEntity
  8
0
100
AcDbText
 10
6.59794143797307
 20
16.14337500000005
 30
0.0
 40
0.125
  1

  7
WD
 41
0.85
 11
6.59794143797307
 21
16.14337500000005
 31
0.0
100
AcDbAttribute
  2
TAG1
 70
1
  0
ATTRIB
  5
1E9
330
17
100
AcDbEntity
  8
0
100
AcDbText
 10
6.596
 20
16.313375
 30
0.0
 40
0.125
  1

  7
WD
 41
0.85
 11
6.596
 21
16.313375
 31
0.0
100
AcDbAttribute
  2
LOC
 70
1
  0
ATTRIB
  5
1EA
330
17
100
AcDbEntity
  8
0
  6
Continuous
100
AcDbText
 10
6.328883081006995
 20
16.115873790861
 30
0.0
 40
0.01
  1

  7
WD
 72
2
 11
6.328883081006995
 21
16.115873790861
 31
0.0
100
AcDbAttribute
  2
MFG
 70
9
  0
ATTRIB
  5
1EB
330
17
100
AcDbEntity
  8
0
  6
Continuous
100
AcDbText
 10
6.328883081006995
 20
16.130873790861
 30
0.0
 40
0.01
  1

  7
WD
 72
2
 11
6.328883081006995
 21
16.130873790861
 31
0.0
100
AcDbAttribute
  2
CAT
 70
9
  0
ATTRIB
  5
1EC
330
17
100
AcDbEntity
  8
0
100
AcDbText
 10
6.3122164143403285
 20
16.167540457527664
 30
0.0
 40
0.01
  1

  7
WD
 72
2
 11
6.328883081006995
 21
16.167540457527664
 31
0.0
100
AcDbAttribute
  2
FAMILY
 70
9
  0
ATTRIB
  5
1ED
330
17
100
AcDbEntity
  8
0
 62
7
100
AcDbText
 10
6.471
 20
16.04775
 30
0.0
 40
0.0125
  1

  7
WD
 11
6.471
 21
16.04775
 31
0.0
100
AcDbAttribute
  2
X8TERM02
 70
1
  0
ATTRIB
  5
1EE
330
17
100
AcDbEntity
  8
0
 62
7
100
AcDbText
 10
6.471
 20
16.36025
 30
0.0
 40
0.0125
  1

  7
WD
 11
6.471
 21
16.36025
 31
0.0
100
AcDbAttribute
  2
X2TERM01
 70
1
  0
ATTRIB
  5
1EF
330
17
100
AcDbEntity
  8
0
  6
Continuous
100
AcDbText
 10
6.430298778392006
 20
15.896802969349004
 30
0.0
 40
0.125
  1

  7
WD
 41
0.85
 72
2
 11
6.430298778392006
 21
16.021802969349004
 31
0.0
100
AcDbAttribute
  2
TERM02
 70
9
 74
3
  0
ATTRIB
  5
1F0
330
17
100
AcDbEntity
  8
0
  6
Continuous
100
AcDbText
 10
6.416029620844346
 20
16.379376616004922
 30
0.0
 40
0.125
  1

  7
WD
 41
0.85
 72
2
 11
6.416029620844346
 21
16.379376616004922
 31
0.0
100
AcDbAttribute
  2
TERM01
 70
9
  0
ATTRIB
  5
1F1
330
17
100
AcDbEntity
  8
0
100
AcDbText
 10
6.328883081006995
 20
16.050763117239445
 30
0.0
 40
0.01
  1

  7
WD
 72
2
 11
6.342216414340328
 21
16.050763117239445
 31
0.0
100
AcDbAttribute
  2
WDTYPE
 70
9
  0
ATTRIB
  5
1F2
330
17
100
AcDbEntity
  8
0
100
AcDbText
 10
6.596
 20
15.625875
 30
0.0
 40
0.125
  1

  7
WD
 41
0.85
 11
6.596
 21
15.625875
 31
0.0
100
AcDbAttribute
  2
DESC3
 70
1
  0
ATTRIB
  5
1F3
330
17
100
AcDbEntity
  8
0
100
AcDbText
 10
6.342216414340328
 20
16.035138117239445
 30
0.0
 40
0.01
  1

  7
WD
 72
2
 11
6.342216414340328
 21
16.035138117239445
 31
0.0
100
AcDbAttribute
  2
WDBLKNAM
 70
9
  0
SEQEND
  5
1E0
330
1DF
100
AcDbEntity
  8
SLD_SYMS
  0
INSERT
  5
1F4
330
17
100
AcDbEntity
  8
SLD_SYMS
100
AcDbBlockReference
 66
1
  2
VCN1PJ
 10
5.04
 20
16.144
 30
0.0
  0
ATTRIB
  5
1F6
330
17
100
AcDbEntity
  8
0
100
AcDbText
 10
5.269166666666667
 20
16.993801758954774
 30
0.0
 40
0.125
  1

  7
WD
 41
0.7
 72
2
 11
5.269166666666667
 21
16.993801758954774
 31
0.0
100
AcDbAttribute
  2
INST
 70
1
  0
ATTRIB
  5
1F7
330
17
100
AcDbEntity
  8
0
100
AcDbText
 10
5.053072926894987
 20
16.029359872741505
 30
0.0
 40
0.01
  1

  7
WD
 11
5.053072926894987
 21
16.029359872741505
 31
0.0
100
AcDbAttribute
  2
X8TERMDESC01
 70
1
  0
ATTRIB
  5
1F8
330
17
100
AcDbEntity
  8
0
100
AcDbText
 10
5.066145864499053
 20
16.185609867770694
 30
0.0
 40
0.01
  1

  7
WD
 11
5.066145864499053
 21
16.185609867770694
 31
0.0
100
AcDbAttribute
  2
X2TERMDESC02
 70
1
  0
ATTRIB
  5
1F9
330
17
100
AcDbEntity
  8
0
  6
Continuous
100
AcDbText
 10
4.9309247363724245
 20
16.130056517835843
 30
0.0
 40
0.01
  1

  7
WD
 72
1
 11
4.9309247363724245
 21
16.130056517835843
 31
0.0
100
AcDbAttribute
  2
ASSYCODE
 70
9
  0
ATTRIB
  5
1FA
330
17
100
AcDbEntity
  8
0
100
AcDbText
 10
4.915
 20
16.0815
 30
0.0
 40
0.01
  1

  7
WD
 11
4.915
 21
16.0815
 31
0.0
100
AcDbAttribute
  2
X4LINK
 70
1
  0
ATTRIB
  5
1FB
330
17
100
AcDbEntity
  8
0
100
AcDbText
 10
5.165
 20
16.0815
 30
0.0
 40
0.01
  1

  7
WD
 11
5.165
 21
16.0815
 31
0.0
100
AcDbAttribute
  2
X1LINK
 70
1
  0
ATTRIB
  5
1FC
330
17
100
AcDbEntity
  8
0
100
AcDbText
 10
4.9775
 20
16.82420175895477
 30
0.0
 40
0.125
  1

  7
WD
 41
0.7
 72
2
 11
4.9775
 21
16.82420175895477
 31
0.0
100
AcDbAttribute
  2
LOC
 70
1
  0
ATTRIB
  5
1FD
330
17
100
AcDbEntity
  8
0
  6
Continuous
100
AcDbText
 10
4.931393108449659
 20
16.144039283222853
 30
0.0
 40
0.01
  1

  7
WD
 72
1
 11
4.931393108449659
 21
16.144039283222853
 31
0.0
100
AcDbAttribute
  2
MFG
 70
9
  0
ATTRIB
  5
1FE
330
17
100
AcDbEntity
  8
0
  6
Continuous
100
AcDbText
 10
4.933338154089578
 20
16.163481036930303
 30
0.0
 40
0.01
  1

  7
WD
 72
1
 11
4.933338154089578
 21
16.163481036930303
 31
0.0
100
AcDbAttribute
  2
CAT
 70
9
  0
ATTRIB
  5
1FF
330
17
100
AcDbEntity
  8
0
100
AcDbText
 10
4.908284888151228
 20
16.207657452790066
 30
0.0
 40
0.01
  1

  7
WD
 11
4.908284888151228
 21
16.207657452790066
 31
0.0
100
AcDbAttribute
  2
FAMILY
 70
9
  0
ATTRIB
  5
200
330
17
100
AcDbEntity
  8
0
100
AcDbText
 10
4.9775
 20
16.498278904647663
 30
0.0
 40
0.125
  1

  7
WD
 41
0.7
 72
2
 11
4.9775
 21
16.498278904647663
 31
0.0
100
AcDbAttribute
  2
DESC2
 70
1
  0
ATTRIB
  5
201
330
17
100
AcDbEntity
  8
0
100
AcDbText
 10
4.9775
 20
16.654525331801217
 30
0.0
 40
0.125
  1

  7
WD
 41
0.7
 72
2
 11
4.9775
 21
16.654525331801217
 31
0.0
100
AcDbAttribute
  2
DESC1
 70
1
  0
ATTRIB
  5
202
330
17
100
AcDbEntity
  8
0
100
AcDbText
 10
4.769166666666667
 20
16.23775
 30
0.0
 40
0.125
  1

  7
WD
 72
2
 11
4.9775
 21
16.23775
 31
0.0
100
AcDbAttribute
  2
TAG1
 70
1
  0
ATTRIB
  5
203
330
17
100
AcDbEntity
  8
0
  6
Continuous
100
AcDbText
 10
5.087
 20
15.862749999999998
 30
0.0
 40
0.125
  1

  7
WD
 11
5.087
 21
15.987749999999998
 31
0.0
100
AcDbAttribute
  2
TERM01
 70
9
 74
3
  0
ATTRIB
  5
204
330
17
100
AcDbEntity
  8
0
100
AcDbText
 10
5.04
 20
16.05025
 30
0.0
 40
0.0125
  1

  7
WD
 11
5.04
 21
16.05025
 31
0.0
100
AcDbAttribute
  2
X8TERM01
 70
1
  0
ATTRIB
  5
205
330
17
100
AcDbEntity
  8
0
100
AcDbText
 10
5.04
 20
16.2065
 30
0.0
 40
0.0125
  1

  7
WD
 11
5.04
 21
16.2065
 31
0.0
100
AcDbAttribute
  2
X2TERM02
 70
1
  0
ATTRIB
  5
206
330
17
100
AcDbEntity
  8
0
  6
Continuous
100
AcDbText
 10
5.087
 20
16.2065
 30
0.0
 40
0.125
  1

  7
WD
 11
5.087
 21
16.2065
 31
0.0
100
AcDbAttribute
  2
TERM02
 70
9
  0
ATTRIB
  5
207
330
17
100
AcDbEntity
  8
0
100
AcDbText
 10
4.908284888151228
 20
16.189025320458434
 30
0.0
 40
0.01
  1

  7
WD
 11
4.908284888151228
 21
16.189025320458434
 31
0.0
100
AcDbAttribute
  2
WDBLKNAM
 70
9
  0
SEQEND
  5
1F5
330
1F4
100
AcDbEntity
  8
SLD_SYMS
  0
LWPOLYLINE
  5
208
330
17
100
AcDbEntity
  8
SLD_SYMS
100
AcDbPolyline
 90
4
 70
1
 10
4.625
 20
15.622
 10
5.402
 20
15.622
 10
5.402
 20
14.701
 10
4.625
 20
14.701
  0
INSERT
  5
209
330
17
100
AcDbEntity
  8
SLD_SYMS
100
AcDbBlockReference
 66
1
  2
VCN1PJ
 10
5.04
 20
14.252
 30
0.0
 50
180.0
  0
ATTRIB
  5
20B
330
17
100
AcDbEntity
  8
0
100
AcDbText
 10
4.810833333333333
 20
13.402198241045227
 30
0.0
 40
0.125
  1

 50
180.0
  7
WD
 41
0.7
 72
2
 11
4.810833333333333
 21
13.402198241045227
 31
0.0
100
AcDbAttribute
  2
INST
 70
1
  0
ATTRIB
  5
20C
330
17
100
AcDbEntity
  8
0
100
AcDbText
 10
5.026927073105013
 20
14.366640127258496
 30
0.0
 40
0.01
  1

 50
180.0
  7
WD
 11
5.026927073105013
 21
14.366640127258496
 31
0.0
100
AcDbAttribute
  2
X8TERMDESC01
 70
1
  0
ATTRIB
  5
20D
330
17
100
AcDbEntity
  8
0
100
AcDbText
 10
5.013854135500947
 20
14.210390132229305
 30
0.0
 40
0.01
  1

 50
180.0
  7
WD
 11
5.013854135500947
 21
14.210390132229305
 31
0.0
100
AcDbAttribute
  2
X2TERMDESC02
 70
1
  0
ATTRIB
  5
20E
330
17
100
AcDbEntity
  8
0
  6
Continuous
100
AcDbText
 10
5.149075263627576
 20
14.265943482164156
 30
0.0
 40
0.01
  1

 50
180.0
  7
WD
 72
1
 11
5.149075263627576
 21
14.265943482164156
 31
0.0
100
AcDbAttribute
  2
ASSYCODE
 70
9
  0
ATTRIB
  5
20F
330
17
100
AcDbEntity
  8
0
100
AcDbText
 10
5.165
 20
14.3145
 30
0.0
 40
0.01
  1

 50
180.0
  7
WD
 11
5.165
 21
14.3145
 31
0.0
100
AcDbAttribute
  2
X4LINK
 70
1
  0
ATTRIB
  5
210
330
17
100
AcDbEntity
  8
0
100
AcDbText
 10
4.915
 20
14.3145
 30
0.0
 40
0.01
  1

 50
180.0
  7
WD
 11
4.915
 21
14.3145
 31
0.0
100
AcDbAttribute
  2
X1LINK
 70
1
  0
ATTRIB
  5
211
330
17
100
AcDbEntity
  8
0
100
AcDbText
 10
5.1025
 20
13.571798241045226
 30
0.0
 40
0.125
  1

 50
180.0
  7
WD
 41
0.7
 72
2
 11
5.1025
 21
13.571798241045226
 31
0.0
100
AcDbAttribute
  2
LOC
 70
1
  0
ATTRIB
  5
212
330
17
100
AcDbEntity
  8
0
  6
Continuous
100
AcDbText
 10
5.148606891550341
 20
14.251960716777145
 30
0.0
 40
0.01
  1

 50
180.0
  7
WD
 72
1
 11
5.148606891550341
 21
14.251960716777145
 31
0.0
100
AcDbAttribute
  2
MFG
 70
9
  0
ATTRIB
  5
213
330
17
100
AcDbEntity
  8
0
  6
Continuous
100
AcDbText
 10
5.146661845910422
 20
14.232518963069694
 30
0.0
 40
0.01
  1

 50
180.0
  7
WD
 72
1
 11
5.146661845910422
 21
14.232518963069694
 31
0.0
100
AcDbAttribute
  2
CAT
 70
9
  0
ATTRIB
  5
214
330
17
100
AcDbEntity
  8
0
100
AcDbText
 10
5.171715111848772
 20
14.188342547209931
 30
0.0
 40
0.01
  1

 50
180.0
  7
WD
 11
5.171715111848772
 21
14.188342547209931
 31
0.0
100
AcDbAttribute
  2
FAMILY
 70
9
  0
ATTRIB
  5
215
330
17
100
AcDbEntity
  8
0
100
AcDbText
 10
5.1025
 20
13.897721095352336
 30
0.0
 40
0.125
  1

 50
180.0
  7
WD
 41
0.7
 72
2
 11
5.1025
 21
13.897721095352336
 31
0.0
100
AcDbAttribute
  2
DESC2
 70
1
  0
ATTRIB
  5
216
330
17
100
AcDbEntity
  8
0
100
AcDbText
 10
5.1025
 20
13.741474668198782
 30
0.0
 40
0.125
  1

 50
180.0
  7
WD
 41
0.7
 72
2
 11
5.1025
 21
13.741474668198782
 31
0.0
100
AcDbAttribute
  2
DESC1
 70
1
  0
ATTRIB
  5
217
330
17
100
AcDbEntity
  8
0
100
AcDbText
 10
5.310833333333333
 20
14.15825
 30
0.0
 40
0.125
  1

 50
180.0
  7
WD
 72
2
 11
5.1025
 21
14.15825
 31
0.0
100
AcDbAttribute
  2
TAG1
 70
1
  0
ATTRIB
  5
218
330
17
100
AcDbEntity
  8
0
  6
Continuous
100
AcDbText
 10
4.993
 20
14.53325
 30
0.0
 40
0.125
  1

 50
180.0
  7
WD
 11
4.993
 21
14.40825
 31
0.0
100
AcDbAttribute
  2
TERM01
 70
9
 74
3
  0
ATTRIB
  5
219
330
17
100
AcDbEntity
  8
0
100
AcDbText
 10
5.04
 20
14.34575
 30
0.0
 40
0.0125
  1

 50
180.0
  7
WD
 11
5.04
 21
14.34575
 31
0.0
100
AcDbAttribute
  2
X8TERM01
 70
1
  0
ATTRIB
  5
21A
330
17
100
AcDbEntity
  8
0
100
AcDbText
 10
5.04
 20
14.1895
 30
0.0
 40
0.0125
  1

 50
180.0
  7
WD
 11
5.04
 21
14.1895
 31
0.0
100
AcDbAttribute
  2
X2TERM02
 70
1
  0
ATTRIB
  5
21B
330
17
100
AcDbEntity
  8
0
  6
Continuous
100
AcDbText
 10
4.993
 20
14.1895
 30
0.0
 40
0.125
  1

 50
180.0
  7
WD
 11
4.993
 21
14.1895
 31
0.0
100
AcDbAttribute
  2
TERM02
 70
9
  0
ATTRIB
  5
21C
330
17
100
AcDbEntity
  8
0
100
AcDbText
 10
5.171715111848772
 20
14.206974679541563
 30
0.0
 40
0.01
  1

 50
180.0
  7
WD
 11
5.171715111848772
 21
14.206974679541563
 31
0.0
100
AcDbAttribute
  2
WDBLKNAM
 70
9
  0
SEQEND
  5
20A
330
209
100
AcDbEntity
  8
SLD_SYMS
  0
INSERT
  5
21D
330
17
100
AcDbEntity
  8
SLD_SYMS
100
AcDbBlockReference
  2
ARRESTER
 10
5.038
 20
13.359
 30
0.0
  0
INSERT
  5
21F
330
17
100
AcDbEntity
  8
SLD_SYMS
100
AcDbBlockReference
 66
1
  2
HXF1T1_1-
 10
5.04
 20
12.77
 30
0.0
  0
ATTRIB
  5
221
330
17
100
AcDbEntity
  8
0
  6
Continuous
100
AcDbText
 10
5.25875
 20
12.8325
 30
0.0
 40
0.01
  1

  7
WD
 72
1
 11
5.25875
 21
12.8325
 31
0.0
100
AcDbAttribute
  2
ASSYCODE
 70
9
  0
ATTRIB
  5
222
330
17
100
AcDbEntity
  8
0
100
AcDbText
 10
5.04
 20
12.92625
 30
0.0
 40
0.01
  1

  7
WD
 11
5.04
 21
12.92625
 31
0.0
100
AcDbAttribute
  2
X2LINK
 70
1
  0
ATTRIB
  5
223
330
17
100
AcDbEntity
  8
0
100
AcDbText
 10
5.04
 20
12.598125
 30
0.0
 40
0.01
  1

  7
WD
 11
5.04
 21
12.598125
 31
0.0
100
AcDbAttribute
  2
X8LINK
 70
1
  0
ATTRIB
  5
224
330
17
100
AcDbEntity
  8
0
  6
Continuous
100
AcDbText
 10
5.267797819576856
 20
12.85872665965915
 30
0.0
 40
0.01
  1

  7
WD
 72
1
 11
5.267797819576856
 21
12.85872665965915
 31
0.0
100
AcDbAttribute
  2
MFG
 70
9
  0
ATTRIB
  5
225
330
17
100
AcDbEntity
  8
0
  6
Continuous
100
AcDbText
 10
5.269742865216775
 20
12.8781684133666
 30
0.0
 40
0.01
  1

  7
WD
 72
1
 11
5.269742865216775
 21
12.8781684133666
 31
0.0
100
AcDbAttribute
  2
CAT
 70
9
  0
ATTRIB
  5
226
330
17
100
AcDbEntity
  8
0
100
AcDbText
 10
5.246245994946917
 20
12.90056505079862
 30
0.0
 40
0.01
  1

  7
WD
 11
5.246245994946917
 21
12.90056505079862
 31
0.0
100
AcDbAttribute
  2
FAMILY
 70
9
  0
ATTRIB
  5
227
330
17
100
AcDbEntity
  8
0
100
AcDbText
 10
5.246245994946917
 20
12.810072249971904
 30
0.0
 40
0.01
  1

  7
WD
 11
5.246245994946917
 21
12.810072249971904
 31
0.0
100
AcDbAttribute
  2
CONTACT
 70
9
  0
ATTRIB
  5
228
330
17
100
AcDbEntity
  8
0
100
AcDbText
 10
4.805738621983598
 20
12.844755893253497
 30
0.0
 40
0.01
  1

  7
WD
 72
2
 11
4.8190719553169306
 21
12.844755893253497
 31
0.0
100
AcDbAttribute
  2
WDTYPE
 70
9
  0
ATTRIB
  5
229
330
17
100
AcDbEntity
  8
0
100
AcDbText
 10
5.027641898763425
 20
13.361875001489041
 30
0.0
 40
0.125
  1

  7
WD
 41
0.85
 72
1
 11
5.027641898763425
 21
13.361875001489041
 31
0.0
100
AcDbAttribute
  2
INST
 70
1
  0
ATTRIB
  5
22A
330
17
100
AcDbEntity
  8
0
100
AcDbText
 10
4.941041670069827
 20
13.020000001489091
 30
0.0
 40
0.125
  1

  7
WD
 41
0.85
 72
1
 11
5.029583336736494
 21
13.020000001489091
 31
0.0
100
AcDbAttribute
  2
TAG1
 70
1
  0
ATTRIB
  5
22B
330
17
100
AcDbEntity
  8
0
100
AcDbText
 10
5.027641898763425
 20
13.190000001489041
 30
0.0
 40
0.125
  1

  7
WD
 41
0.85
 72
1
 11
5.027641898763425
 21
13.190000001489041
 31
0.0
100
AcDbAttribute
  2
LOC
 70
1
  0
ATTRIB
  5
22C
330
17
100
AcDbEntity
  8
0
100
AcDbText
 10
5.029583336736494
 20
11.910625001489091
 30
0.0
 40
0.125
  1

  7
WD
 41
0.85
 72
1
 11
5.029583336736494
 21
11.910625001489091
 31
0.0
100
AcDbAttribute
  2
DESC2
 70
1
  0
ATTRIB
  5
22D
330
17
100
AcDbEntity
  8
0
100
AcDbText
 10
5.029583336736494
 20
12.082500001489091
 30
0.0
 40
0.125
  1

  7
WD
 41
0.85
 72
1
 11
5.029583336736494
 21
12.082500001489091
 31
0.0
100
AcDbAttribute
  2
DESC1
 70
1
  0
ATTRIB
  5
22E
330
17
100
AcDbEntity
  8
0
100
AcDbText
 10
5.029583336736494
 20
11.738750001489093
 30
0.0
 40
0.125
  1

  7
WD
 41
0.85
 72
1
 11
5.029583336736494
 21
11.738750001489093
 31
0.0
100
AcDbAttribute
  2
DESC3
 70
1
  0
ATTRIB
  5
22F
330
17
100
AcDbEntity
  8
0
 62
7
100
AcDbText
 10
5.19625
 20
12.77
 30
0.0
 40
0.0125
  1

  7
WD
 11
5.19625
 21
12.77
 31
0.0
100
AcDbAttribute
  2
X1TERM02
 70
1
  0
ATTRIB
  5
230
330
17
100
AcDbEntity
  8
0
 62
7
100
AcDbText
 10
4.88375
 20
12.77
 30
0.0
 40
0.0125
  1

  7
WD
 11
4.88375
 21
12.77
 31
0.0
100
AcDbAttribute
  2
X4TERM01
 70
1
  0
ATTRIB
  5
231
330
17
100
AcDbEntity
  8
0
  6
Continuous
100
AcDbText
 10
5.248333336736494
 20
12.61362500148909
 30
0.0
 40
0.125
  1

  7
WD
 11
5.248333336736494
 21
12.73862500148909
 31
0.0
100
AcDbAttribute
  2
TERM02
 70
9
 74
3
  0
ATTRIB
  5
232
330
17
100
AcDbEntity
  8
0
  6
Continuous
100
AcDbText
 10
4.810833336736494
 20
12.61362500148909
 30
0.0
 40
0.125
  1

  7
WD
 72
2
 11
4.810833336736494
 21
12.73862500148909
 31
0.0
100
AcDbAttribute
  2
TERM01
 70
9
 74
3
  0
ATTRIB
  5
233
330
17
100
AcDbEntity
  8
0
100
AcDbText
 10
5.029583336736494
 20
12.254375001489091
 30
0.0
 40
0.125
  1

  7
WD
 41
0.85
 72
1
 11
5.029583336736494
 21
12.254375001489091
 31
0.0
100
AcDbAttribute
  2
RATING2
 70
1
  0
ATTRIB
  5
234
330
17
100
AcDbEntity
  8
0
100
AcDbText
 10
5.029583336736494
 20
12.426250001489091
 30
0.0
 40
0.125
  1

  7
WD
 41
0.85
 72
1
 11
5.029583336736494
 21
12.426250001489091
 31
0.0
100
AcDbAttribute
  2
RATING1
 70
1
  0
SEQEND
  5
220
330
21F
100
AcDbEntity
  8
SLD_SYMS
  0
INSERT
  5
235
330
17
100
AcDbEntity
  8
SLD_SYMS
100
AcDbBlockReference
 66
1
  2
VXF1CT
 10
5.23
 20
12.007
 30
0.0
  0
ATTRIB
  5
237
330
17
100
AcDbEntity
  8
0
100
AcDbText
 10
5.002916666666668
 20
11.585125
 30
0.0
 40
0.125
  1

  7
WD
 41
0.7
 72
1
 11
5.002916666666668
 21
11.585125
 31
0.0
100
AcDbAttribute
  2
INST
 70
1
  0
ATTRIB
  5
238
330
17
100
AcDbEntity
  8
0
100
AcDbText
 10
5.23
 20
11.723826474599724
 30
0.0
 40
0.0125
  1

  7
WD
 11
5.23
 21
11.723826474599724
 31
0.0
100
AcDbAttribute
  2
X8TERM01
 70
1
  0
ATTRIB
  5
239
330
17
100
AcDbEntity
  8
0
100
AcDbText
 10
5.262211762700138
 20
11.756038237299862
 30
0.0
 40
0.0125
  1

  7
WD
 11
5.262211762700138
 21
11.756038237299862
 31
0.0
100
AcDbAttribute
  2
X1TERM01
 70
1
  0
ATTRIB
  5
23A
330
17
100
AcDbEntity
  8
0
  6
Continuous
100
AcDbText
 10
5.175062169619043
 20
11.776456032263782
 30
0.0
 40
0.125
  1

  7
WD
 72
2
 11
5.175062169619043
 21
11.776456032263782
 31
0.0
100
AcDbAttribute
  2
TERM01
 70
9
  0
ATTRIB
  5
23B
330
17
100
AcDbEntity
  8
0
  6
Continuous
100
AcDbText
 10
5.1850069169510675
 20
12.273965784883833
 30
0.0
 40
0.125
  1

  7
WD
 72
2
 11
5.1850069169510675
 21
12.273965784883833
 31
0.0
100
AcDbAttribute
  2
TERM02
 70
9
  0
ATTRIB
  5
23C
330
17
100
AcDbEntity
  8
0
100
AcDbText
 10
5.262211762700138
 20
12.256038237299862
 30
0.0
 40
0.0125
  1

  7
WD
 11
5.262211762700138
 21
12.256038237299862
 31
0.0
100
AcDbAttribute
  2
X1TERM02
 70
1
  0
ATTRIB
  5
23D
330
17
100
AcDbEntity
  8
0
100
AcDbText
 10
5.23
 20
12.28825
 30
0.0
 40
0.0125
  1

  7
WD
 11
5.23
 21
12.28825
 31
0.0
100
AcDbAttribute
  2
X2TERM02
 70
1
  0
ATTRIB
  5
23E
330
17
100
AcDbEntity
  8
0
100
AcDbText
 10
5.51125
 20
11.882
 30
0.0
 40
0.125
  1

  7
WD
 41
0.7
 11
5.51125
 21
11.882
 31
0.0
100
AcDbAttribute
  2
RATING1
 70
1
  0
ATTRIB
  5
23F
330
17
100
AcDbEntity
  8
0
100
AcDbText
 10
5.51125
 20
12.03825
 30
0.0
 40
0.125
  1

  7
WD
 11
5.51125
 21
12.03825
 31
0.0
100
AcDbAttribute
  2
TAG1
 70
1
  0
ATTRIB
  5
240
330
17
100
AcDbEntity
  8
0
100
AcDbText
 10
5.029470622272791
 20
11.24970533180122
 30
0.0
 40
0.125
  1
400:5A (3)
  7
WD
 41
0.7
 72
1
 11
5.029470622272791
 21
11.24970533180122
 31
0.0
100
AcDbAttribute
  2
DESC1
 70
0
  0
ATTRIB
  5
241
330
17
100
AcDbEntity
  8
0
100
AcDbText
 10
5.029470622272791
 20
11.093458904647663
 30
0.0
 40
0.125
  1
CT 5P20
  7
WD
 41
0.7
 72
1
 11
5.029470622272791
 21
11.093458904647663
 31
0.0
100
AcDbAttribute
  2
DESC2
 70
0
  0
ATTRIB
  5
242
330
17
100
AcDbEntity
  8
0
100
AcDbText
 10
5.029470622272791
 20
11.405951758954775
 30
0.0
 40
0.125
  1

  7
WD
 41
0.7
 72
1
 11
5.029470622272791
 21
11.405951758954775
 31
0.0
100
AcDbAttribute
  2
LOC
 70
1
  0
ATTRIB
  5
243
330
17
100
AcDbEntity
  8
0
  6
Continuous
100
AcDbText
 10
5.059069824898972
 20
12.125955350386372
 30
0.0
 40
0.01
  1

  7
WD
 72
1
 11
5.059069824898972
 21
12.125955350386372
 31
0.0
100
AcDbAttribute
  2
ASSYCODE
 70
9
  0
ATTRIB
  5
244
330
17
100
AcDbEntity
  8
0
100
AcDbText
 10
5.037291666666667
 20
11.960125
 30
0.0
 40
0.125
  1

  7
WD
 72
1
 11
5.183125
 21
11.960125
 31
0.0
100
AcDbAttribute
  2
TYPE
 70
1
  0
ATTRIB
  5
245
330
17
100
AcDbEntity
  8
0
100
AcDbText
 10
5.034192775900368
 20
12.197690293718368
 30
0.0
 40
0.01
  1

  7
WD
 11
5.034192775900368
 21
12.197690293718368
 31
0.0
100
AcDbAttribute
  2
FAMILY
 70
9
  0
ATTRIB
  5
246
330
17
100
AcDbEntity
  8
0
  6
Continuous
100
AcDbText
 10
5.059246041838717
 20
12.169138877858606
 30
0.0
 40
0.01
  1

  7
WD
 72
1
 11
5.059246041838717
 21
12.169138877858606
 31
0.0
100
AcDbAttribute
  2
CAT
 70
9
  0
ATTRIB
  5
247
330
17
100
AcDbEntity
  8
0
  6
Continuous
100
AcDbText
 10
5.0573009961988
 20
12.149697124151155
 30
0.0
 40
0.01
  1

  7
WD
 72
1
 11
5.0573009961988
 21
12.149697124151155
 31
0.0
100
AcDbAttribute
  2
MFG
 70
9
  0
SEQEND
  5
236
330
235
100
AcDbEntity
  8
SLD_SYMS
  0
INSERT
  5
248
330
17
100
AcDbEntity
  8
SLD_SYMS
100
AcDbBlockReference
  2
WDDOT
 10
5.09
 20
12.325
 30
0.0
  0
MTEXT
  5
24A
330
17
100
AcDbEntity
  8
SLD_TEXT
100
AcDbMText
 10
4.263
 20
11.774
 30
0.0
 40
0.1
 41
0.0
 71
2
  1
1%%C
  0
INSERT
  5
24B
330
17
100
AcDbEntity
  8
SLD_SYMS
100
AcDbBlockReference
 66
1
  2
VXF1CT
 10
5.23
 20
10.308
 30
0.0
  0
ATTRIB
  5
24D
330
17
100
AcDbEntity
  8
0
100
AcDbText
 10
5.002916666666668
 20
9.886125
 30
0.0
 40
0.125
  1

  7
WD
 41
0.7
 72
1
 11
5.002916666666668
 21
9.886125
 31
0.0
100
AcDbAttribute
  2
INST
 70
1
  0
ATTRIB
  5
24E
330
17
100
AcDbEntity
  8
0
100
AcDbText
 10
5.23
 20
10.024826474599724
 30
0.0
 40
0.0125
  1

  7
WD
 11
5.23
 21
10.024826474599724
 31
0.0
100
AcDbAttribute
  2
X8TERM01
 70
1
  0
ATTRIB
  5
24F
330
17
100
AcDbEntity
  8
0
100
AcDbText
 10
5.262211762700138
 20
10.057038237299862
 30
0.0
 40
0.0125
  1

  7
WD
 11
5.262211762700138
 21
10.057038237299862
 31
0.0
100
AcDbAttribute
  2
X1TERM01
 70
1
  0
ATTRIB
  5
250
330
17
100
AcDbEntity
  8
0
  6
Continuous
100
AcDbText
 10
5.175062169619043
 20
10.077456032263783
 30
0.0
 40
0.125
  1

  7
WD
 72
2
 11
5.175062169619043
 21
10.077456032263783
 31
0.0
100
AcDbAttribute
  2
TERM01
 70
9
  0
ATTRIB
  5
251
330
17
100
AcDbEntity
  8
0
  6
Continuous
100
AcDbText
 10
5.1850069169510675
 20
10.574965784883833
 30
0.0
 40
0.125
  1

  7
WD
 72
2
 11
5.1850069169510675
 21
10.574965784883833
 31
0.0
100
AcDbAttribute
  2
TERM02
 70
9
  0
ATTRIB
  5
252
330
17
100
AcDbEntity
  8
0
100
AcDbText
 10
5.262211762700138
 20
10.557038237299862
 30
0.0
 40
0.0125
  1

  7
WD
 11
5.262211762700138
 21
10.557038237299862
 31
0.0
100
AcDbAttribute
  2
X1TERM02
 70
1
  0
ATTRIB
  5
253
330
17
100
AcDbEntity
  8
0
100
AcDbText
 10
5.23
 20
10.58925
 30
0.0
 40
0.0125
  1

  7
WD
 11
5.23
 21
10.58925
 31
0.0
100
AcDbAttribute
  2
X2TERM02
 70
1
  0
ATTRIB
  5
254
330
17
100
AcDbEntity
  8
0
100
AcDbText
 10
5.51125
 20
10.183
 30
0.0
 40
0.125
  1

  7
WD
 41
0.7
 11
5.51125
 21
10.183
 31
0.0
100
AcDbAttribute
  2
RATING1
 70
1
  0
ATTRIB
  5
255
330
17
100
AcDbEntity
  8
0
100
AcDbText
 10
5.51125
 20
10.33925
 30
0.0
 40
0.125
  1

  7
WD
 11
5.51125
 21
10.33925
 31
0.0
100
AcDbAttribute
  2
TAG1
 70
1
  0
ATTRIB
  5
256
330
17
100
AcDbEntity
  8
0
100
AcDbText
 10
5.029470622272791
 20
9.550705331801218
 30
0.0
 40
0.125
  1
3000:5A (3)
  7
WD
 41
0.7
 72
1
 11
5.029470622272791
 21
9.550705331801218
 31
0.0
100
AcDbAttribute
  2
DESC1
 70
0
  0
ATTRIB
  5
257
330
17
100
AcDbEntity
  8
0
100
AcDbText
 10
5.029470622272791
 20
9.394458904647664
 30
0.0
 40
0.125
  1
CT 5P20
  7
WD
 41
0.7
 72
1
 11
5.029470622272791
 21
9.394458904647664
 31
0.0
100
AcDbAttribute
  2
DESC2
 70
0
  0
ATTRIB
  5
258
330
17
100
AcDbEntity
  8
0
100
AcDbText
 10
5.029470622272791
 20
9.706951758954773
 30
0.0
 40
0.125
  1

  7
WD
 41
0.7
 72
1
 11
5.029470622272791
 21
9.706951758954773
 31
0.0
100
AcDbAttribute
  2
LOC
 70
1
  0
ATTRIB
  5
259
330
17
100
AcDbEntity
  8
0
  6
Continuous
100
AcDbText
 10
5.059069824898972
 20
10.426955350386372
 30
0.0
 40
0.01
  1

  7
WD
 72
1
 11
5.059069824898972
 21
10.426955350386372
 31
0.0
100
AcDbAttribute
  2
ASSYCODE
 70
9
  0
ATTRIB
  5
25A
330
17
100
AcDbEntity
  8
0
100
AcDbText
 10
5.037291666666667
 20
10.261125
 30
0.0
 40
0.125
  1

  7
WD
 72
1
 11
5.183125
 21
10.261125
 31
0.0
100
AcDbAttribute
  2
TYPE
 70
1
  0
ATTRIB
  5
25B
330
17
100
AcDbEntity
  8
0
100
AcDbText
 10
5.034192775900368
 20
10.498690293718369
 30
0.0
 40
0.01
  1

  7
WD
 11
5.034192775900368
 21
10.498690293718369
 31
0.0
100
AcDbAttribute
  2
FAMILY
 70
9
  0
ATTRIB
  5
25C
330
17
100
AcDbEntity
  8
0
  6
Continuous
100
AcDbText
 10
5.059246041838717
 20
10.470138877858606
 30
0.0
 40
0.01
  1

  7
WD
 72
1
 11
5.059246041838717
 21
10.470138877858606
 31
0.0
100
AcDbAttribute
  2
CAT
 70
9
  0
ATTRIB
  5
25D
330
17
100
AcDbEntity
  8
0
  6
Continuous
100
AcDbText
 10
5.0573009961988
 20
10.450697124151155
 30
0.0
 40
0.01
  1

  7
WD
 72
1
 11
5.0573009961988
 21
10.450697124151155
 31
0.0
100
AcDbAttribute
  2
MFG
 70
9
  0
SEQEND
  5
24C
330
24B
100
AcDbEntity
  8
SLD_SYMS
  0
INSERT
  5
25E
330
17
100
AcDbEntity
  8
SLD_SYMS
100
AcDbBlockReference
  2
WDDOT
 10
5.084
 20
10.606
 30
0.0
  0
MTEXT
  5
260
330
17
100
AcDbEntity
  8
SLD_TEXT
100
AcDbMText
 10
4.263
 20
10.08
 30
0.0
 40
0.1
 41
0.0
 71
2
  1
1%%C
  0
INSERT
  5
261
330
17
100
AcDbEntity
  8
SLD_SYMS
100
AcDbBlockReference
 66
1
  2
VCN1PJ
 10
5.04
 20
9.034
 30
0.0
  0
ATTRIB
  5
263
330
17
100
AcDbEntity
  8
0
100
AcDbText
 10
5.269166666666667
 20
9.883801758954775
 30
0.0
 40
0.125
  1

  7
WD
 41
0.7
 72
2
 11
5.269166666666667
 21
9.883801758954775
 31
0.0
100
AcDbAttribute
  2
INST
 70
1
  0
ATTRIB
  5
264
330
17
100
AcDbEntity
  8
0
100
AcDbText
 10
5.053072926894987
 20
8.919359872741506
 30
0.0
 40
0.01
  1

  7
WD
 11
5.053072926894987
 21
8.919359872741506
 31
0.0
100
AcDbAttribute
  2
X8TERMDESC01
 70
1
  0
ATTRIB
  5
265
330
17
100
AcDbEntity
  8
0
100
AcDbText
 10
5.066145864499053
 20
9.075609867770696
 30
0.0
 40
0.01
  1

  7
WD
 11
5.066145864499053
 21
9.075609867770696
 31
0.0
100
AcDbAttribute
  2
X2TERMDESC02
 70
1
  0
ATTRIB
  5
266
330
17
100
AcDbEntity
  8
0
  6
Continuous
100
AcDbText
 10
4.9309247363724245
 20
9.020056517835846
 30
0.0
 40
0.01
  1

  7
WD
 72
1
 11
4.9309247363724245
 21
9.020056517835846
 31
0.0
100
AcDbAttribute
  2
ASSYCODE
 70
9
  0
ATTRIB
  5
267
330
17
100
AcDbEntity
  8
0
100
AcDbText
 10
4.915
 20
8.9715
 30
0.0
 40
0.01
  1

  7
WD
 11
4.915
 21
8.9715
 31
0.0
100
AcDbAttribute
  2
X4LINK
 70
1
  0
ATTRIB
  5
268
330
17
100
AcDbEntity
  8
0
100
AcDbText
 10
5.165
 20
8.9715
 30
0.0
 40
0.01
  1

  7
WD
 11
5.165
 21
8.9715
 31
0.0
100
AcDbAttribute
  2
X1LINK
 70
1
  0
ATTRIB
  5
269
330
17
100
AcDbEntity
  8
0
100
AcDbText
 10
4.9775
 20
9.714201758954776
 30
0.0
 40
0.125
  1

  7
WD
 41
0.7
 72
2
 11
4.9775
 21
9.714201758954776
 31
0.0
100
AcDbAttribute
  2
LOC
 70
1
  0
ATTRIB
  5
26A
330
17
100
AcDbEntity
  8
0
  6
Continuous
100
AcDbText
 10
4.931393108449659
 20
9.034039283222857
 30
0.0
 40
0.01
  1

  7
WD
 72
1
 11
4.931393108449659
 21
9.034039283222857
 31
0.0
100
AcDbAttribute
  2
MFG
 70
9
  0
ATTRIB
  5
26B
330
17
100
AcDbEntity
  8
0
  6
Continuous
100
AcDbText
 10
4.933338154089578
 20
9.053481036930307
 30
0.0
 40
0.01
  1

  7
WD
 72
1
 11
4.933338154089578
 21
9.053481036930307
 31
0.0
100
AcDbAttribute
  2
CAT
 70
9
  0
ATTRIB
  5
26C
330
17
100
AcDbEntity
  8
0
100
AcDbText
 10
4.908284888151228
 20
9.09765745279007
 30
0.0
 40
0.01
  1

  7
WD
 11
4.908284888151228
 21
9.09765745279007
 31
0.0
100
AcDbAttribute
  2
FAMILY
 70
9
  0
ATTRIB
  5
26D
330
17
100
AcDbEntity
  8
0
100
AcDbText
 10
4.9775
 20
9.388278904647665
 30
0.0
 40
0.125
  1

  7
WD
 41
0.7
 72
2
 11
4.9775
 21
9.388278904647665
 31
0.0
100
AcDbAttribute
  2
DESC2
 70
1
  0
ATTRIB
  5
26E
330
17
100
AcDbEntity
  8
0
100
AcDbText
 10
4.9775
 20
9.54452533180122
 30
0.0
 40
0.125
  1

  7
WD
 41
0.7
 72
2
 11
4.9775
 21
9.54452533180122
 31
0.0
100
AcDbAttribute
  2
DESC1
 70
1
  0
ATTRIB
  5
26F
330
17
100
AcDbEntity
  8
0
100
AcDbText
 10
4.769166666666667
 20
9.12775
 30
0.0
 40
0.125
  1

  7
WD
 72
2
 11
4.9775
 21
9.12775
 31
0.0
100
AcDbAttribute
  2
TAG1
 70
1
  0
ATTRIB
  5
270
330
17
100
AcDbEntity
  8
0
  6
Continuous
100
AcDbText
 10
5.087
 20
8.75275
 30
0.0
 40
0.125
  1

  7
WD
 11
5.087
 21
8.87775
 31
0.0
100
AcDbAttribute
  2
TERM01
 70
9
 74
3
  0
ATTRIB
  5
271
330
17
100
AcDbEntity
  8
0
100
AcDbText
 10
5.04
 20
8.94025
 30
0.0
 40
0.0125
  1

  7
WD
 11
5.04
 21
8.94025
 31
0.0
100
AcDbAttribute
  2
X8TERM01
 70
1
  0
ATTRIB
  5
272
330
17
100
AcDbEntity
  8
0
100
AcDbText
 10
5.04
 20
9.0965
 30
0.0
 40
0.0125
  1

  7
WD
 11
5.04
 21
9.0965
 31
0.0
100
AcDbAttribute
  2
X2TERM02
 70
1
  0
ATTRIB
  5
273
330
17
100
AcDbEntity
  8
0
  6
Continuous
100
AcDbText
 10
5.087
 20
9.0965
 30
0.0
 40
0.125
  1

  7
WD
 11
5.087
 21
9.0965
 31
0.0
100
AcDbAttribute
  2
TERM02
 70
9
  0
ATTRIB
  5
274
330
17
100
AcDbEntity
  8
0
100
AcDbText
 10
4.908284888151228
 20
9.079025320458438
 30
0.0
 40
0.01
  1

  7
WD
 11
4.908284888151228
 21
9.079025320458438
 31
0.0
100
AcDbAttribute
  2
WDBLKNAM
 70
9
  0
SEQEND
  5
262
330
261
100
AcDbEntity
  8
SLD_SYMS
  0
INSERT
  5
275
330
17
100
AcDbEntity
  8
SLD_SYMS
100
AcDbBlockReference
 66
1
  2
DEVICE_BUBBLE
 10
6.094
 20
15.318
 30
0.0
  0
ATTRIB
  5
277
330
17
100
AcDbEntity
  8
0
100
AcDbText
 10
5.922467910107975
 20
15.218951515790893
 30
0.0
 40
0.2
  1
86
  7
OpenSans
 11
5.922467910107975
 21
15.218951515790893
 31
0.0
100
AcDbAttribute
  2
DB
 70
0
280
1
  0
SEQEND
  5
276
330
275
100
AcDbEntity
  8
SLD_SYMS
  0
LINE
  5
278
330
17
100
AcDbEntity
  8
SLD_CONTROL
100
AcDbLine
 10
5.402
 20
15.318
 30
0.0
 11
5.877000000000001
 21
15.318
 31
0.0
  0
LINE
  5
279
330
17
100
AcDbEntity
  8
SLD_CONTROL
100
AcDbLine
 10
6.094
 20
15.100999999999999
 30
0.0
 11
6.094
 21
14.715
 31
0.0
  0
LWPOLYLINE
  5
27A
330
17
100
AcDbEntity
  8
SLD_SYMS
100
AcDbPolyline
 90
4
 70
1
 10
5.787
 20
14.715
 10
6.965
 20
14.715
 10
6.965
 20
14.043
 10
5.787
 20
14.043
  0
LWPOLYLINE
  5
27B
330
17
100
AcDbEntity
  8
SLD_CUBICLE
  6
DASHED
100
AcDbPolyline
 90
4
 70
1
 10
3.858
 20
12.465
 10
5.4510000000000005
 20
12.465
 10
5.4510000000000005
 20
9.912
 10
3.858
 20
9.912
  0
MTEXT
  5
27C
330
17
100
AcDbEntity
  8
SLD_TEXT
100
AcDbMText
 10
5.04
 20
21.037
 30
0.0
 40
0.3
 41
0.0
 71
2
  1
UNIT 2
  0
MTEXT
  5
27D
330
17
100
AcDbEntity
  8
SLD_TEXT
100
AcDbMText
 10
5.04
 20
20.173
 30
0.0
 40
0.3
 41
0.0
 71
2
  1
52-F1\PCUSTOMER\PFEEDER
  0
MTEXT
  5
27E
330
17
100
AcDbEntity
  8
SLD_TEXT
100
AcDbMText
 10
4.664
 20
15.408
 30
0.0
 40
0.093
 41
0.0
 71
1
  1
52-F1\P17.5kV\P3150A\P40kA
  0
MTEXT
  5
27F
330
17
100
AcDbEntity
  8
SLD_TEXT
100
AcDbMText
 10
6.376
 20
14.677
 30
0.0
 40
0.093
 41
0.0
 71
2
  1
SEL-751-F1\PFEEDER\PPROTECTION\PRELAY
  0
MTEXT
  5
280
330
17
100
AcDbEntity
  8
SLD_TEXT
100
AcDbMText
 10
5.04
 20
8.87
 30
0.0
 40
0.093
 41
0.0
 71
2
  1
CUSTOMER FEEDER\P1
  0
LINE
  5
281
330
17
100
AcDbEntity
  8
SLD_WIRE
100
AcDbLine
 10
8.65
 20
18.583
 30
0.0
 11
8.65
 21
17.861
 31
0.0
  0
LINE
  5
282
330
17
100
AcDbEntity
  8
SLD_WIRE
100
AcDbLine
 10
8.65
 20
17.548
 30
0.0
 11
8.65
 21
17.157
 31
0.0
  0
LINE
  5
283
330
17
100
AcDbEntity
  8
SLD_WIRE
100
AcDbLine
 10
8.65
 20
16.845
 30
0.0
 11
8.65
 21
16.59
 31
0.0
  0
INSERT
  5
284
330
17
100
AcDbEntity
  8
SLD_SYMS
100
AcDbBlockReference
  2
WDDOT
 10
8.65
 20
18.583
 30
0.0
  0
INSERT
  5
286
330
17
100
AcDbEntity
  8
SLD_SYMS
100
AcDbBlockReference
 66
1
  2
VXF1T1_1-
 10
8.65
 20
17.704
 30
0.0
  0
ATTRIB
  5
288
330
17
100
AcDbEntity
  8
0
100
AcDbText
 10
8.853125
 20
17.98525
 30
0.0
 40
0.125
  1

  7
WD
 41
0.85
 11
8.853125
 21
17.98525
 31
0.0
100
AcDbAttribute
  2
INST
 70
1
  0
ATTRIB
  5
289
330
17
100
AcDbEntity
  8
0
  6
Continuous
100
AcDbText
 10
8.434220364381607
 20
17.613475164162786
 30
0.0
 40
0.01
  1

  7
WD
 72
1
 11
8.434220364381607
 21
17.613475164162786
 31
0.0
100
AcDbAttribute
  2
ASSYCODE
 70
9
  0
ATTRIB
  5
28A
330
17
100
AcDbEntity
  8
0
100
AcDbText
 10
8.36875
 20
17.73525
 30
0.0
 40
0.125
  1

  7
WD
 41
0.85
 72
2
 11
8.36875
 21
17.73525
 31
0.0
100
AcDbAttribute
  2
RATING1
 70
1
  0
ATTRIB
  5
28B
330
17
100
AcDbEntity
  8
0
100
AcDbText
 10
8.853125
 20
17.29775
 30
0.0
 40
0.125
  1
7.98KV/120V
  7
WD
 41
0.85
 11
8.853125
 21
17.29775
 31
0.0
100
AcDbAttribute
  2
DESC2
 70
0
  0
ATTRIB
  5
28C
330
17
100
AcDbEntity
  8
0
100
AcDbText
 10
8.853125
 20
17.469625
 30
0.0
 40
0.125
  1
PT (3)
  7
WD
 41
0.85
 11
8.853125
 21
17.469625
 31
0.0
100
AcDbAttribute
  2
DESC1
 70
0
  0
ATTRIB
  5
28D
330
17
100
AcDbEntity
  8
0
100
AcDbText
 10
8.85506643797307
 20
17.64337500000005
 30
0.0
 40
0.125
  1

  7
WD
 41
0.85
 11
8.85506643797307
 21
17.64337500000005
 31
0.0
100
AcDbAttribute
  2
TAG1
 70
1
  0
ATTRIB
  5
28E
330
17
100
AcDbEntity
  8
0
100
AcDbText
 10
8.853125
 20
17.813375
 30
0.0
 40
0.125
  1

  7
WD
 41
0.85
 11
8.853125
 21
17.813375
 31
0.0
100
AcDbAttribute
  2
LOC
 70
1
  0
ATTRIB
  5
28F
330
17
100
AcDbEntity
  8
0
  6
Continuous
100
AcDbText
 10
8.445383081006995
 20
17.631498790861
 30
0.0
 40
0.01
  1

  7
WD
 72
2
 11
8.445383081006995
 21
17.631498790861
 31
0.0
100
AcDbAttribute
  2
MFG
 70
9
  0
ATTRIB
  5
290
330
17
100
AcDbEntity
  8
0
  6
Continuous
100
AcDbText
 10
8.445383081006995
 20
17.646498790861
 30
0.0
 40
0.01
  1

  7
WD
 72
2
 11
8.445383081006995
 21
17.646498790861
 31
0.0
100
AcDbAttribute
  2
CAT
 70
9
  0
ATTRIB
  5
291
330
17
100
AcDbEntity
  8
0
100
AcDbText
 10
8.428716414340329
 20
17.683165457527664
 30
0.0
 40
0.01
  1

  7
WD
 72
2
 11
8.445383081006995
 21
17.683165457527664
 31
0.0
100
AcDbAttribute
  2
FAMILY
 70
9
  0
ATTRIB
  5
292
330
17
100
AcDbEntity
  8
0
 62
7
100
AcDbText
 10
8.65
 20
17.54775
 30
0.0
 40
0.0125
  1

  7
WD
 11
8.65
 21
17.54775
 31
0.0
100
AcDbAttribute
  2
X8TERM02
 70
1
  0
ATTRIB
  5
293
330
17
100
AcDbEntity
  8
0
 62
7
100
AcDbText
 10
8.65
 20
17.86025
 30
0.0
 40
0.0125
  1

  7
WD
 11
8.65
 21
17.86025
 31
0.0
100
AcDbAttribute
  2
X2TERM01
 70
1
  0
ATTRIB
  5
294
330
17
100
AcDbEntity
  8
0
  6
Continuous
100
AcDbText
 10
8.609298778392006
 20
17.365552969349004
 30
0.0
 40
0.125
  1

  7
WD
 41
0.85
 72
2
 11
8.609298778392006
 21
17.490552969349004
 31
0.0
100
AcDbAttribute
  2
TERM02
 70
9
 74
3
  0
ATTRIB
  5
295
330
17
100
AcDbEntity
  8
0
  6
Continuous
100
AcDbText
 10
8.595029620844345
 20
17.941876616004922
 30
0.0
 40
0.125
  1

  7
WD
 41
0.85
 72
2
 11
8.595029620844345
 21
17.941876616004922
 31
0.0
100
AcDbAttribute
  2
TERM01
 70
9
  0
ATTRIB
  5
296
330
17
100
AcDbEntity
  8
0
100
AcDbText
 10
8.445383081006995
 20
17.566388117239445
 30
0.0
 40
0.01
  1

  7
WD
 72
2
 11
8.458716414340328
 21
17.566388117239445
 31
0.0
100
AcDbAttribute
  2
WDTYPE
 70
9
  0
ATTRIB
  5
297
330
17
100
AcDbEntity
  8
0
100
AcDbText
 10
8.853125
 20
17.125875
 30
0.0
 40
0.125
  1

  7
WD
 41
0.85
 11
8.853125
 21
17.125875
 31
0.0
100
AcDbAttribute
  2
DESC3
 70
1
  0
ATTRIB
  5
298
330
17
100
AcDbEntity
  8
0
100
AcDbText
 10
8.458716414340328
 20
17.550763117239445
 30
0.0
 40
0.01
  1

  7
WD
 72
2
 11
8.458716414340328
 21
17.550763117239445
 31
0.0
100
AcDbAttribute
  2
WDBLKNAM
 70
9
  0
ATTRIB
  5
299
330
17
100
AcDbEntity
  8
0
100
AcDbText
 10
8.36875
 20
17.563375
 30
0.0
 40
0.125
  1

  7
WD
 41
0.85
 72
2
 11
8.36875
 21
17.563375
 31
0.0
100
AcDbAttribute
  2
RATING2
 70
1
  0
SEQEND
  5
287
330
286
100
AcDbEntity
  8
SLD_SYMS
  0
INSERT
  5
29A
330
17
100
AcDbEntity
  8
SLD_SYMS
100
AcDbBlockReference
 66
1
  2
VFU1_1-
 10
8.65
 20
17.001
 30
0.0
  0
ATTRIB
  5
29C
330
17
100
AcDbEntity
  8
0
100
AcDbText
 10
8.775
 20
17.28225
 30
0.0
 40
0.125
  1

  7
WD
 41
0.85
 11
8.775
 21
17.28225
 31
0.0
100
AcDbAttribute
  2
INST
 70
1
  0
ATTRIB
  5
29D
330
17
100
AcDbEntity
  8
0
  6
Continuous
100
AcDbText
 10
8.496720364381607
 20
16.894850164162786
 30
0.0
 40
0.01
  1

  7
WD
 72
1
 11
8.496720364381607
 21
16.894850164162786
 31
0.0
100
AcDbAttribute
  2
ASSYCODE
 70
9
  0
ATTRIB
  5
29E
330
17
100
AcDbEntity
  8
0
 62
7
100
AcDbText
 10
8.525
 20
17.001
 30
0.0
 40
0.01
  1

  7
WD
 11
8.525
 21
17.001
 31
0.0
100
AcDbAttribute
  2
X4LINK
 70
1
  0
ATTRIB
  5
29F
330
17
100
AcDbEntity
  8
0
 62
7
100
AcDbText
 10
8.775
 20
17.001
 30
0.0
 40
0.01
  1

  7
WD
 11
8.775
 21
17.001
 31
0.0
100
AcDbAttribute
  2
X1LINK
 70
1
  0
ATTRIB
  5
2A0
330
17
100
AcDbEntity
  8
0
100
AcDbText
 10
8.49375
 20
16.9385
 30
0.0
 40
0.125
  1
6A
  7
WD
 41
0.85
 72
2
 11
8.49375
 21
16.9385
 31
0.0
100
AcDbAttribute
  2
RATING1
 70
0
  0
ATTRIB
  5
2A1
330
17
100
AcDbEntity
  8
0
100
AcDbText
 10
8.775
 20
16.59475
 30
0.0
 40
0.125
  1

  7
WD
 41
0.85
 11
8.775
 21
16.59475
 31
0.0
100
AcDbAttribute
  2
DESC2
 70
1
  0
ATTRIB
  5
2A2
330
17
100
AcDbEntity
  8
0
100
AcDbText
 10
8.775
 20
16.766625
 30
0.0
 40
0.125
  1

  7
WD
 41
0.85
 11
8.775
 21
16.766625
 31
0.0
100
AcDbAttribute
  2
DESC1
 70
1
  0
ATTRIB
  5
2A3
330
17
100
AcDbEntity
  8
0
100
AcDbText
 10
8.77694143797307
 20
16.94037500000005
 30
0.0
 40
0.125
  1

  7
WD
 41
0.85
 11
8.77694143797307
 21
16.94037500000005
 31
0.0
100
AcDbAttribute
  2
TAG1
 70
1
  0
ATTRIB
  5
2A4
330
17
100
AcDbEntity
  8
0
100
AcDbText
 10
8.775
 20
17.110375
 30
0.0
 40
0.125
  1

  7
WD
 41
0.85
 11
8.775
 21
17.110375
 31
0.0
100
AcDbAttribute
  2
LOC
 70
1
  0
ATTRIB
  5
2A5
330
17
100
AcDbEntity
  8
0
  6
Continuous
100
AcDbText
 10
8.507883081006995
 20
16.912873790861
 30
0.0
 40
0.01
  1

  7
WD
 72
2
 11
8.507883081006995
 21
16.912873790861
 31
0.0
100
AcDbAttribute
  2
MFG
 70
9
  0
ATTRIB
  5
2A6
330
17
100
AcDbEntity
  8
0
  6
Continuous
100
AcDbText
 10
8.507883081006995
 20
16.927873790861
 30
0.0
 40
0.01
  1

  7
WD
 72
2
 11
8.507883081006995
 21
16.927873790861
 31
0.0
100
AcDbAttribute
  2
CAT
 70
9
  0
ATTRIB
  5
2A7
330
17
100
AcDbEntity
  8
0
100
AcDbText
 10
8.491216414340329
 20
16.964540457527665
 30
0.0
 40
0.01
  1

  7
WD
 72
2
 11
8.507883081006995
 21
16.964540457527665
 31
0.0
100
AcDbAttribute
  2
FAMILY
 70
9
  0
ATTRIB
  5
2A8
330
17
100
AcDbEntity
  8
0
 62
7
100
AcDbText
 10
8.65
 20
16.84475
 30
0.0
 40
0.0125
  1

  7
WD
 11
8.65
 21
16.84475
 31
0.0
100
AcDbAttribute
  2
X8TERM02
 70
1
  0
ATTRIB
  5
2A9
330
17
100
AcDbEntity
  8
0
 62
7
100
AcDbText
 10
8.65
 20
17.15725
 30
0.0
 40
0.0125
  1

  7
WD
 11
8.65
 21
17.15725
 31
0.0
100
AcDbAttribute
  2
X2TERM01
 70
1
  0
ATTRIB
  5
2AA
330
17
100
AcDbEntity
  8
0
  6
Continuous
100
AcDbText
 10
8.609298778392006
 20
16.693802969349004
 30
0.0
 40
0.125
  1

  7
WD
 41
0.85
 72
2
 11
8.609298778392006
 21
16.818802969349004
 31
0.0
100
AcDbAttribute
  2
TERM02
 70
9
 74
3
  0
ATTRIB
  5
2AB
330
17
100
AcDbEntity
  8
0
  6
Continuous
100
AcDbText
 10
8.595029620844345
 20
17.176376616004923
 30
0.0
 40
0.125
  1

  7
WD
 41
0.85
 72
2
 11
8.595029620844345
 21
17.176376616004923
 31
0.0
100
AcDbAttribute
  2
TERM01
 70
9
  0
ATTRIB
  5
2AC
330
17
100
AcDbEntity
  8
0
100
AcDbText
 10
8.507883081006995
 20
16.847763117239445
 30
0.0
 40
0.01
  1

  7
WD
 72
2
 11
8.521216414340328
 21
16.847763117239445
 31
0.0
100
AcDbAttribute
  2
WDTYPE
 70
9
  0
ATTRIB
  5
2AD
330
17
100
AcDbEntity
  8
0
100
AcDbText
 10
8.775
 20
16.422875
 30
0.0
 40
0.125
  1

  7
WD
 41
0.85
 11
8.775
 21
16.422875
 31
0.0
100
AcDbAttribute
  2
DESC3
 70
1
  0
ATTRIB
  5
2AE
330
17
100
AcDbEntity
  8
0
100
AcDbText
 10
8.521216414340328
 20
16.832138117239445
 30
0.0
 40
0.01
  1

  7
WD
 72
2
 11
8.521216414340328
 21
16.832138117239445
 31
0.0
100
AcDbAttribute
  2
WDBLKNAM
 70
9
  0
SEQEND
  5
29B
330
29A
100
AcDbEntity
  8
SLD_SYMS
  0
LWPOLYLINE
  5
2AF
330
17
100
AcDbEntity
  8
SLD_SYMS
100
AcDbPolyline
 90
4
 70
1
 10
8.94
 20
11.31
 10
10.456999999999999
 20
11.31
 10
10.456999999999999
 20
10.637
 10
8.94
 20
10.637
  0
MTEXT
  5
2B0
330
17
100
AcDbEntity
  8
SLD_TEXT
100
AcDbMText
 10
8.65
 20
21.037
 30
0.0
 40
0.3
 41
0.0
 71
2
  1
UNIT 3
  0
MTEXT
  5
2B1
330
17
100
AcDbEntity
  8
SLD_TEXT
100
AcDbMText
 10
8.65
 20
20.173
 30
0.0
 40
0.3
 41
0.0
 71
2
  1
PT\PBUS PT
  0
MTEXT
  5
2B2
330
17
100
AcDbEntity
  8
SLD_TEXT
100
AcDbMText
 10
8.995000000000001
 20
11.272
 30
0.0
 40
0.093
 41
0.0
 71
1
  1
GE-850-A FEEDER\PPROTECTION RELAY\PWITH HID MODULE
  0
LINE
  5
2B3
330
17
100
AcDbEntity
  8
SLD_CONTROL
100
AcDbLine
 10
1.654
 20
12.255
 30
0.0
 11
2.396
 21
12.255
 31
0.0
  0
LINE
  5
2B4
330
17
100
AcDbEntity
  8
SLD_CONTROL
100
AcDbLine
 10
1.654
 20
10.059
 30
0.0
 11
3.219
 21
10.059
 31
0.0
  0
LINE
  5
2B5
330
17
100
AcDbEntity
  8
SLD_CONTROL
100
AcDbLine
 10
2.396
 20
8.936
 30
0.0
 11
2.396
 21
10.008999999999999
 31
0.0
  0
ARC
  5
2B6
330
17
100
AcDbEntity
  8
SLD_CONTROL
100
AcDbCircle
 10
2.396
 20
10.059
 30
0.0
 40
0.05
100
AcDbArc
 50
270.0
 51
90.0
  0
LINE
  5
2B7
330
17
100
AcDbEntity
  8
SLD_CONTROL
100
AcDbLine
 10
2.396
 20
10.109
 30
0.0
 11
2.396
 21
12.255
 31
0.0
  0
LINE
  5
2B8
330
17
100
AcDbEntity
  8
SLD_CONTROL
100
AcDbLine
 10
2.767
 20
8.936
 30
0.0
 11
2.767
 21
10.008999999999999
 31
0.0
  0
ARC
  5
2B9
330
17
100
AcDbEntity
  8
SLD_CONTROL
100
AcDbCircle
 10
2.767
 20
10.059
 30
0.0
 40
0.05
100
AcDbArc
 50
270.0
 51
90.0
  0
LINE
  5
2BA
330
17
100
AcDbEntity
  8
SLD_CONTROL
100
AcDbLine
 10
2.767
 20
10.109
 30
0.0
 11
2.767
 21
14.043
 31
0.0
  0
LINE
  5
2BB
330
17
100
AcDbEntity
  8
SLD_CONTROL
100
AcDbLine
 10
3.219
 20
10.059
 30
0.0
 11
3.219
 21
10.97
 31
0.0
  0
INSERT
  5
2BC
330
17
100
AcDbEntity
  8
SLD_SYMS
100
AcDbBlockReference
  2
WDDOT
 10
3.219
 20
10.97
 30
0.0
  0
LINE
  5
2BE
330
17
100
AcDbEntity
  8
SLD_CONTROL
100
AcDbLine
 10
2.8609999999999998
 20
14.715
 30
0.0
 11
2.8609999999999998
 21
16.048
 31
0.0
  0
LINE
  5
2BF
330
17
100
AcDbEntity
  8
SLD_CONTROL
100
AcDbLine
 10
2.8609999999999998
 20
16.36
 30
0.0
 11
2.8609999999999998
 21
16.59
 31
0.0
  0
INSERT
  5
2C0
330
17
100
AcDbEntity
  8
SLD_SYMS
100
AcDbBlockReference
  2
WDDOT
 10
2.8609999999999998
 20
16.59
 30
0.0
  0
LINE
  5
2C2
330
17
100
AcDbEntity
  8
SLD_CONTROL
100
AcDbLine
 10
5.264
 20
12.255
 30
0.0
 11
6.006
 21
12.255
 31
0.0
  0
LINE
  5
2C3
330
17
100
AcDbEntity
  8
SLD_CONTROL
100
AcDbLine
 10
5.264
 20
10.059
 30
0.0
 11
6.829
 21
10.059
 31
0.0
  0
LINE
  5
2C4
330
17
100
AcDbEntity
  8
SLD_CONTROL
100
AcDbLine
 10
6.006
 20
8.936
 30
0.0
 11
6.006
 21
10.008999999999999
 31
0.0
  0
ARC
  5
2C5
330
17
100
AcDbEntity
  8
SLD_CONTROL
100
AcDbCircle
 10
6.006
 20
10.059
 30
0.0
 40
0.05
100
AcDbArc
 50
270.0
 51
90.0
  0
LINE
  5
2C6
330
17
100
AcDbEntity
  8
SLD_CONTROL
100
AcDbLine
 10
6.006
 20
10.109
 30
0.0
 11
6.006
 21
10.92
 31
0.0
  0
ARC
  5
2C7
330
17
100
AcDbEntity
  8
SLD_CONTROL
100
AcDbCircle
 10
6.006
 20
10.97
 30
0.0
 40
0.05
100
AcDbArc
 50
270.0
 51
90.0
  0
LINE
  5
2C8
330
17
100
AcDbEntity
  8
SLD_CONTROL
100
AcDbLine
 10
6.006
 20
11.020000000000001
 30
0.0
 11
6.006
 21
12.255
 31
0.0
  0
LINE
  5
2C9
330
17
100
AcDbEntity
  8
SLD_CONTROL
100
AcDbLine
 10
6.377
 20
8.936
 30
0.0
 11
6.377
 21
10.008999999999999
 31
0.0
  0
ARC
  5
2CA
330
17
100
AcDbEntity
  8
SLD_CONTROL
100
AcDbCircle
 10
6.377
 20
10.059
 30
0.0
 40
0.05
100
AcDbArc
 50
270.0
 51
90.0
  0
LINE
  5
2CB
330
17
100
AcDbEntity
  8
SLD_CONTROL
100
AcDbLine
 10
6.377
 20
10.109
 30
0.0
 11
6.377
 21
10.92
 31
0.0
  0
ARC
  5
2CC
330
17
100
AcDbEntity
  8
SLD_CONTROL
100
AcDbCircle
 10
6.377
 20
10.97
 30
0.0
 40
0.05
100
AcDbArc
 50
270.0
 51
90.0
  0
LINE
  5
2CD
330
17
100
AcDbEntity
  8
SLD_CONTROL
100
AcDbLine
 10
6.377
 20
11.020000000000001
 30
0.0
 11
6.377
 21
14.043
 31
0.0
  0
LINE
  5
2CE
330
17
100
AcDbEntity
  8
SLD_CONTROL
100
AcDbLine
 10
6.829
 20
10.059
 30
0.0
 11
6.829
 21
10.97
 31
0.0
  0
INSERT
  5
2CF
330
17
100
AcDbEntity
  8
SLD_SYMS
100
AcDbBlockReference
  2
WDDOT
 10
6.829
 20
10.97
 30
0.0
  0
LINE
  5
2D1
330
17
100
AcDbEntity
  8
SLD_CONTROL
100
AcDbLine
 10
6.471
 20
14.715
 30
0.0
 11
6.471
 21
16.048
 31
0.0
  0
LINE
  5
2D2
330
17
100
AcDbEntity
  8
SLD_CONTROL
100
AcDbLine
 10
6.471
 20
16.36
 30
0.0
 11
6.471
 21
16.59
 31
0.0
  0
INSERT
  5
2D3
330
17
100
AcDbEntity
  8
SLD_SYMS
100
AcDbBlockReference
  2
WDDOT
 10
6.471
 20
16.59
 30
0.0
  0
LINE
  5
2D5
330
17
100
AcDbEntity
  8
SLD_CONTROL
100
AcDbLine
 10
2.8609999999999998
 20
16.59
 30
0.0
 11
4.99
 21
16.59
 31
0.0
  0
ARC
  5
2D6
330
17
100
AcDbEntity
  8
SLD_CONTROL
100
AcDbCircle
 10
5.04
 20
16.59
 30
0.0
 40
0.05
100
AcDbArc
 50
0.0
 51
180.0
  0
LINE
  5
2D7
330
17
100
AcDbEntity
  8
SLD_CONTROL
100
AcDbLine
 10
5.09
 20
16.59
 30
0.0
 11
8.65
 21
16.59
 31
0.0
  0
LINE
  5
2D8
330
17
100
AcDbEntity
  8
SLD_CONTROL
100
AcDbLine
 10
3.219
 20
10.97
 30
0.0
 11
4.99
 21
10.97
 31
0.0
  0
ARC
  5
2D9
330
17
100
AcDbEntity
  8
SLD_CONTROL
100
AcDbCircle
 10
5.04
 20
10.97
 30
0.0
 40
0.05
100
AcDbArc
 50
0.0
 51
180.0
  0
LINE
  5
2DA
330
17
100
AcDbEntity
  8
SLD_CONTROL
100
AcDbLine
 10
5.09
 20
10.97
 30
0.0
 11
8.94
 21
10.97
 31
0.0
  0
INSERT
  5
2DB
330
17
100
AcDbEntity
  8
SLD_SYMS
100
AcDbBlockReference
  2
WDDOT
 10
8.65
 20
16.59
 30
0.0
  0
ENDSEC
  0
SECTION
  2
OBJECTS
  0
DICTIONARY
  5
A
330
0
100
AcDbDictionary
281
1
  3
ACAD_COLOR
350
B
  3
ACAD_GROUP
350
C
  3
ACAD_LAYOUT
350
D
  3
ACAD_MATERIAL
350
E
  3
ACAD_MLEADERSTYLE
350
F
  3
ACAD_MLINESTYLE
350
10
  3
ACAD_PLOTSETTINGS
350
11
  3
ACAD_PLOTSTYLENAME
350
12
  3
ACAD_SCALELIST
350
14
  3
ACAD_TABLESTYLE
350
15
  3
ACAD_VISUALSTYLE
350
16
  3
EZDXF_META
350
2D
  0
DICTIONARY
  5
B
330
A
100
AcDbDictionary
281
1
  0
DICTIONARY
  5
C
330
A
100
AcDbDictionary
281
1
  0
DICTIONARY
  5
D
330
A
100
AcDbDictionary
281
1
  3
Model
350
1A
  3
Layout1
350
1E
  0
DICTIONARY
  5
E
330
A
100
AcDbDictionary
281
1
  3
ByBlock
350
1F
  3
ByLayer
350
20
  3
Global
350
21
  0
DICTIONARY
  5
F
330
A
100
AcDbDictionary
281
1
  3
Standard
350
2C
  0
DICTIONARY
  5
10
330
A
100
AcDbDictionary
281
1
  3
Standard
350
22
  0
DICTIONARY
  5
11
330
A
100
AcDbDictionary
281
1
  0
ACDBDICTIONARYWDFLT
  5
12
330
A
100
AcDbDictionary
281
1
  3
Normal
350
13
100
AcDbDictionaryWithDefault
340
13
  0
ACDBPLACEHOLDER
  5
13
330
12
  0
DICTIONARY
  5
14
330
A
100
AcDbDictionary
281
1
  0
DICTIONARY
  5
15
330
A
100
AcDbDictionary
281
1
  0
DICTIONARY
  5
16
330
A
100
AcDbDictionary
281
1
  3
2dWireframe
350
5A
  3
Basic
350
5B
  3
Brighten
350
5C
  3
ColorChange
350
5D
  3
Conceptual
350
5E
  3
Dim
350
5F
  3
EdgeColorOff
350
60
  3
Facepattern
350
61
  3
Flat
350
62
  3
FlatWithEdges
350
63
  3
Gouraud
350
64
  3
GouraudWithEdges
350
65
  3
Hidden
350
66
  3
JitterOff
350
67
  3
Linepattern
350
68
  3
Modeling
350
69
  3
OverhangOff
350
6A
  3
Realistic
350
6B
  3
Shaded
350
6C
  3
Shaded with edges
350
6D
  3
Shades of Gray
350
6E
  3
Sketchy
350
6F
  3
Thicken
350
70
  3
Wireframe
350
71
  3
X-Ray
350
72
  0
LAYOUT
  5
1A
330
D
100
AcDbPlotSettings
  1

  4
A3
  6

 40
7.5
 41
20.0
 42
7.5
 43
20.0
 44
420.0
 45
297.0
 46
0.0
 47
0.0
 48
0.0
 49
0.0
140
0.0
141
0.0
142
1.0
143
1.0
 70
1024
 72
1
 73
0
 74
5
  7

 75
16
 76
0
 77
2
 78
300
147
1.0
148
0.0
149
0.0
100
AcDbLayout
  1
Model
 70
1
 71
0
 10
0.0
 20
0.0
 11
420.0
 21
297.0
 12
0.0
 22
0.0
 32
0.0
 14
1e+20
 24
1e+20
 34
1e+20
 15
-1e+20
 25
-1e+20
 35
-1e+20
146
0.0
 13
0.0
 23
0.0
 33
0.0
 16
1.0
 26
0.0
 36
0.0
 17
0.0
 27
1.0
 37
0.0
 76
1
330
17
  0
LAYOUT
  5
1E
330
D
100
AcDbPlotSettings
  1

  4
A3
  6

 40
7.5
 41
20.0
 42
7.5
 43
20.0
 44
420.0
 45
297.0
 46
0.0
 47
0.0
 48
0.0
 49
0.0
140
0.0
141
0.0
142
1.0
143
1.0
 70
0
 72
1
 73
0
 74
5
  7

 75
16
 76
0
 77
2
 78
300
147
1.0
148
0.0
149
0.0
100
AcDbLayout
  1
Layout1
 70
1
 71
1
 10
0.0
 20
0.0
 11
420.0
 21
297.0
 12
0.0
 22
0.0
 32
0.0
 14
1e+20
 24
1e+20
 34
1e+20
 15
-1e+20
 25
-1e+20
 35
-1e+20
146
0.0
 13
0.0
 23
0.0
 33
0.0
 16
1.0
 26
0.0
 36
0.0
 17
0.0
 27
1.0
 37
0.0
 76
1
330
1B
  0
MATERIAL
  5
1F
102
{ACAD_REACTORS
330
E
102
}
330
E
100
AcDbMaterial
  1
ByBlock
  2

 70
0
 40
1.0
 71
1
 41
1.0
 91
-1023410177
 42
1.0
 72
1
  3

 73
1
 74
1
 75
1
 44
0.5
 73
0
 45
1.0
 46
1.0
 77
1
  4

 78
1
 79
1
170
1
 48
1.0
171
1
  6

172
1
173
1
174
1
140
1.0
141
1.0
175
1
  7

176
1
177
1
178
1
143
1.0
179
1
  8

270
1
271
1
272
1
145
1.0
146
1.0
273
1
  9

274
1
275
1
276
1
 42
1.0
 72
1
  3

 73
1
 74
1
 75
1
 94
63
  0
MATERIAL
  5
20
102
{ACAD_REACTORS
330
E
102
}
330
E
100
AcDbMaterial
  1
ByLayer
  2

 70
0
 40
1.0
 71
1
 41
1.0
 91
-1023410177
 42
1.0
 72
1
  3

 73
1
 74
1
 75
1
 44
0.5
 73
0
 45
1.0
 46
1.0
 77
1
  4

 78
1
 79
1
170
1
 48
1.0
171
1
  6

172
1
173
1
174
1
140
1.0
141
1.0
175
1
  7

176
1
177
1
178
1
143
1.0
179
1
  8

270
1
271
1
272
1
145
1.0
146
1.0
273
1
  9

274
1
275
1
276
1
 42
1.0
 72
1
  3

 73
1
 74
1
 75
1
 94
63
  0
MATERIAL
  5
21
102
{ACAD_REACTORS
330
E
102
}
330
E
100
AcDbMaterial
  1
Global
  2

 70
0
 40
1.0
 71
1
 41
1.0
 91
-1023410177
 42
1.0
 72
1
  3

 73
1
 74
1
 75
1
 44
0.5
 73
0
 45
1.0
 46
1.0
 77
1
  4

 78
1
 79
1
170
1
 48
1.0
171
1
  6

172
1
173
1
174
1
140
1.0
141
1.0
175
1
  7

176
1
177
1
178
1
143
1.0
179
1
  8

270
1
271
1
272
1
145
1.0
146
1.0
273
1
  9

274
1
275
1
276
1
 42
1.0
 72
1
  3

 73
1
 74
1
 75
1
 94
63
  0
MLINESTYLE
  5
22
102
{ACAD_REACTORS
330
10
102
}
330
10
100
AcDbMlineStyle
  2
Standard
 70
0
  3

 62
256
 51
90.0
 52
90.0
 71
2
 49
0.5
 62
256
  6
BYLAYER
 49
-0.5
 62
256
  6
BYLAYER
  0
MLEADERSTYLE
  5
2C
102
{ACAD_REACTORS
330
F
102
}
330
F
100
AcDbMLeaderStyle
179
2
170
2
171
1
172
0
 90
2
 40
0.0
 41
0.0
173
1
 91
-1056964608
 92
-2
290
1
 42
2.0
291
1
 43
8.0
  3
Standard
 44
4.0
300

342
29
174
1
175
1
176
0
178
1
 93
-1056964608
 45
4.0
292
0
297
0
 46
4.0
 94
-1056964608
 47
1.0
 49
1.0
140
1.0
294
1
141
0.0
177
0
142
1.0
295
0
296
0
143
3.75
271
0
272
9
273
9
  0
DICTIONARY
  5
2D
330
A
100
AcDbDictionary
280
1
281
1
  3
CREATED_BY_EZDXF
350
2E
  3
WRITTEN_BY_EZDXF
350
2DF
  0
DICTIONARYVAR
  5
2E
330
2D
100
DictionaryVariables
280
0
  1
1.4.4 @ 2026-08-04T21:57:26.489480+00:00
  0
VISUALSTYLE
  5
5A
102
{ACAD_REACTORS
330
16
102
}
330
16
100
AcDbVisualStyle
  2
2dWireframe
 70
4
177
3
291
0
 70
58
 90
2
176
1
 90
2
176
1
 90
0
176
1
 90
0
176
1
 40
0.6
176
1
 40
30.0
176
1
 62
7
420
16777215
176
1
 90
1
176
1
 90
4
176
1
 62
7
176
1
 62
257
176
1
 90
1
176
1
 90
1
176
1
 40
1.0
176
1
 90
8
176
1
 62
7
176
1
 40
1.0
176
1
 90
1
176
1
 90
6
176
1
 90
2
176
1
 62
7
176
1
 90
5
176
1
 90
0
176
1
 90
0
176
1
290
0
176
1
 90
1
176
1
 40
0.0
176
1
 90
0
176
1
290
1
176
1
290
1
176
1
290
0
176
1
290
0
176
1
290
0
176
1
290
0
176
1
290
0
176
1
290
0
176
1
290
0
176
1
 90
50
176
1
 40
0.0
176
1
 40
1.0
176
1
 90
0
176
1
 62
18
420
0
176
1
 90
50
176
1
 90
3
176
1
 62
5
420
255
176
1
290
0
176
1
 90
50
176
1
 90
50
176
1
 90
50
176
1
290
0
176
1
 90
50
176
1
 62
256
176
0
 40
1.0
176
0
 90
2
176
1
  1
strokes_ogs.tif
176
1
290
0
176
1
 40
1.0
176
1
 40
1.0
176
1
  0
VISUALSTYLE
  5
5B
102
{ACAD_REACTORS
330
16
102
}
330
16
100
AcDbVisualStyle
  2
Basic
 70
7
177
3
291
1
 70
58
 90
2
176
1
 90
2
176
1
 90
0
176
1
 90
1
176
1
 40
0.6
176
1
 40
30.0
176
1
 62
7
420
16777215
176
1
 90
1
176
1
 90
4
176
1
 62
7
176
1
 62
257
176
1
 90
1
176
1
 90
1
176
1
 40
1.0
176
1
 90
8
176
1
 62
7
176
1
 40
1.0
176
1
 90
1
176
1
 90
6
176
1
 90
2
176
1
 62
7
176
1
 90
5
176
1
 90
0
176
1
 90
0
176
1
290
0
176
1
 90
1
176
1
 40
0.0
176
1
 90
0
176
1
290
0
176
1
290
1
176
1
290
1
176
1
290
0
176
1
290
0
176
1
290
0
176
1
290
0
176
1
290
0
176
1
290
0
176
1
 90
50
176
1
 40
0.0
176
1
 40
1.0
176
1
 90
0
176
1
 62
18
420
0
176
1
 90
50
176
1
 90
3
176
1
 62
5
420
255
176
1
290
0
176
1
 90
50
176
1
 90
50
176
1
 90
50
176
1
290
0
176
1
 90
50
176
1
 62
256
176
0
 40
1.0
176
0
 90
2
176
1
  1
strokes_ogs.tif
176
1
290
0
176
1
 40
1.0
176
1
 40
1.0
176
1
  0
VISUALSTYLE
  5
5C
102
{ACAD_REACTORS
330
16
102
}
330
16
100
AcDbVisualStyle
  2
Brighten
 70
12
177
3
291
1
 70
58
 90
2
176
1
 90
2
176
1
 90
0
176
1
 90
2
176
1
 40
0.6
176
1
 40
30.0
176
1
 62
7
420
16777215
176
1
 90
1
176
1
 90
4
176
1
 62
7
176
1
 62
257
176
1
 90
1
176
1
 90
1
176
1
 40
1.0
176
1
 90
8
176
1
 62
7
176
1
 40
1.0
176
1
 90
1
176
1
 90
6
176
1
 90
2
176
1
 62
7
176
1
 90
5
176
1
 90
0
176
1
 90
0
176
1
290
0
176
1
 90
1
176
1
 40
0.0
176
1
 90
0
176
1
290
0
176
1
290
1
176
1
290
1
176
1
290
0
176
1
290
0
176
1
290
0
176
1
290
0
176
1
290
0
176
1
290
0
176
1
 90
50
176
1
 40
0.0
176
1
 40
1.0
176
1
 90
0
176
1
 62
18
420
0
176
1
 90
50
176
1
 90
3
176
1
 62
5
420
255
176
1
290
0
176
1
 90
50
176
1
 90
50
176
1
 90
50
176
1
290
0
176
1
 90
50
176
1
 62
256
176
0
 40
1.0
176
0
 90
2
176
1
  1
strokes_ogs.tif
176
1
290
0
176
1
 40
1.0
176
1
 40
1.0
176
1
  0
VISUALSTYLE
  5
5D
102
{ACAD_REACTORS
330
16
102
}
330
16
100
AcDbVisualStyle
  2
ColorChange
 70
16
177
3
291
1
 70
58
 90
2
176
1
 90
2
176
1
 90
0
176
1
 90
2
176
1
 40
0.6
176
1
 40
30.0
176
1
 62
7
420
16777215
176
1
 90
1
176
1
 90
4
176
1
 62
7
176
1
 62
257
176
1
 90
1
176
1
 90
1
176
1
 40
1.0
176
1
 90
8
176
1
 62
7
176
1
 40
1.0
176
1
 90
1
176
1
 90
6
176
1
 90
2
176
1
 62
7
176
1
 90
5
176
1
 90
0
176
1
 90
0
176
1
290
0
176
1
 90
1
176
1
 40
0.0
176
1
 90
0
176
1
290
0
176
1
290
1
176
1
290
1
176
1
290
0
176
1
290
0
176
1
290
0
176
1
290
0
176
1
290
0
176
1
290
0
176
1
 90
50
176
1
 40
0.0
176
1
 40
1.0
176
1
 90
0
176
1
 62
18
420
0
176
1
 90
50
176
1
 90
3
176
1
 62
5
420
255
176
1
290
0
176
1
 90
50
176
1
 90
50
176
1
 90
50
176
1
290
0
176
1
 90
50
176
1
 62
256
176
0
 40
1.0
176
0
 90
2
176
1
  1
strokes_ogs.tif
176
1
290
0
176
1
 40
1.0
176
1
 40
1.0
176
1
  0
VISUALSTYLE
  5
5E
102
{ACAD_REACTORS
330
16
102
}
330
16
100
AcDbVisualStyle
  2
Conceptual
 70
9
177
3
291
0
 70
58
 90
2
176
1
 90
2
176
1
 90
0
176
1
 90
3
176
1
 40
0.6
176
1
 40
30.0
176
1
 62
7
420
16777215
176
1
 90
1
176
1
 90
4
176
1
 62
7
176
1
 62
257
176
1
 90
1
176
1
 90
1
176
1
 40
1.0
176
1
 90
8
176
1
 62
7
176
1
 40
1.0
176
1
 90
1
176
1
 90
6
176
1
 90
2
176
1
 62
7
176
1
 90
5
176
1
 90
0
176
1
 90
0
176
1
290
0
176
1
 90
1
176
1
 40
0.0
176
1
 90
0
176
1
290
0
176
1
290
1
176
1
290
1
176
1
290
0
176
1
290
0
176
1
290
0
176
1
290
0
176
1
290
0
176
1
290
0
176
1
 90
50
176
1
 40
0.0
176
1
 40
1.0
176
1
 90
0
176
1
 62
18
420
0
176
1
 90
50
176
1
 90
3
176
1
 62
5
420
255
176
1
290
0
176
1
 90
50
176
1
 90
50
176
1
 90
50
176
1
290
0
176
1
 90
50
176
1
 62
256
176
0
 40
1.0
176
0
 90
2
176
1
  1
strokes_ogs.tif
176
1
290
0
176
1
 40
1.0
176
1
 40
1.0
176
1
  0
VISUALSTYLE
  5
5F
102
{ACAD_REACTORS
330
16
102
}
330
16
100
AcDbVisualStyle
  2
Dim
 70
11
177
3
291
1
 70
58
 90
2
176
1
 90
2
176
1
 90
0
176
1
 90
2
176
1
 40
0.6
176
1
 40
30.0
176
1
 62
7
420
16777215
176
1
 90
1
176
1
 90
4
176
1
 62
7
176
1
 62
257
176
1
 90
1
176
1
 90
1
176
1
 40
1.0
176
1
 90
8
176
1
 62
7
176
1
 40
1.0
176
1
 90
1
176
1
 90
6
176
1
 90
2
176
1
 62
7
176
1
 90
5
176
1
 90
0
176
1
 90
0
176
1
290
0
176
1
 90
1
176
1
 40
0.0
176
1
 90
0
176
1
290
0
176
1
290
1
176
1
290
1
176
1
290
0
176
1
290
0
176
1
290
0
176
1
290
0
176
1
290
0
176
1
290
0
176
1
 90
50
176
1
 40
0.0
176
1
 40
1.0
176
1
 90
0
176
1
 62
18
420
0
176
1
 90
50
176
1
 90
3
176
1
 62
5
420
255
176
1
290
0
176
1
 90
50
176
1
 90
50
176
1
 90
50
176
1
290
0
176
1
 90
50
176
1
 62
256
176
0
 40
1.0
176
0
 90
2
176
1
  1
strokes_ogs.tif
176
1
290
0
176
1
 40
1.0
176
1
 40
1.0
176
1
  0
VISUALSTYLE
  5
60
102
{ACAD_REACTORS
330
16
102
}
330
16
100
AcDbVisualStyle
  2
EdgeColorOff
 70
22
177
3
291
1
 70
58
 90
2
176
1
 90
2
176
1
 90
0
176
1
 90
2
176
1
 40
0.6
176
1
 40
30.0
176
1
 62
7
420
16777215
176
1
 90
1
176
1
 90
4
176
1
 62
7
176
1
 62
257
176
1
 90
1
176
1
 90
1
176
1
 40
1.0
176
1
 90
8
176
1
 62
7
176
1
 40
1.0
176
1
 90
1
176
1
 90
6
176
1
 90
2
176
1
 62
7
176
1
 90
5
176
1
 90
0
176
1
 90
0
176
1
290
0
176
1
 90
1
176
1
 40
0.0
176
1
 90
0
176
1
290
0
176
1
290
1
176
1
290
1
176
1
290
0
176
1
290
0
176
1
290
0
176
1
290
0
176
1
290
0
176
1
290
0
176
1
 90
50
176
1
 40
0.0
176
1
 40
1.0
176
1
 90
0
176
1
 62
18
420
0
176
1
 90
50
176
1
 90
3
176
1
 62
5
420
255
176
1
290
0
176
1
 90
50
176
1
 90
50
176
1
 90
50
176
1
290
0
176
1
 90
50
176
1
 62
256
176
0
 40
1.0
176
0
 90
2
176
1
  1
strokes_ogs.tif
176
1
290
0
176
1
 40
1.0
176
1
 40
1.0
176
1
  0
VISUALSTYLE
  5
61
102
{ACAD_REACTORS
330
16
102
}
330
16
100
AcDbVisualStyle
  2
Facepattern
 70
15
177
3
291
1
 70
58
 90
2
176
1
 90
2
176
1
 90
0
176
1
 90
2
176
1
 40
0.6
176
1
 40
30.0
176
1
 62
7
420
16777215
176
1
 90
1
176
1
 90
4
176
1
 62
7
176
1
 62
257
176
1
 90
1
176
1
 90
1
176
1
 40
1.0
176
1
 90
8
176
1
 62
7
176
1
 40
1.0
176
1
 90
1
176
1
 90
6
176
1
 90
2
176
1
 62
7
176
1
 90
5
176
1
 90
0
176
1
 90
0
176
1
290
0
176
1
 90
1
176
1
 40
0.0
176
1
 90
0
176
1
290
0
176
1
290
1
176
1
290
1
176
1
290
0
176
1
290
0
176
1
290
0
176
1
290
0
176
1
290
0
176
1
290
0
176
1
 90
50
176
1
 40
0.0
176
1
 40
1.0
176
1
 90
0
176
1
 62
18
420
0
176
1
 90
50
176
1
 90
3
176
1
 62
5
420
255
176
1
290
0
176
1
 90
50
176
1
 90
50
176
1
 90
50
176
1
290
0
176
1
 90
50
176
1
 62
256
176
0
 40
1.0
176
0
 90
2
176
1
  1
strokes_ogs.tif
176
1
290
0
176
1
 40
1.0
176
1
 40
1.0
176
1
  0
VISUALSTYLE
  5
62
102
{ACAD_REACTORS
330
16
102
}
330
16
100
AcDbVisualStyle
  2
Flat
 70
0
177
3
291
1
 70
58
 90
2
176
1
 90
2
176
1
 90
0
176
1
 90
2
176
1
 40
0.6
176
1
 40
30.0
176
1
 62
7
420
16777215
176
1
 90
1
176
1
 90
4
176
1
 62
7
176
1
 62
257
176
1
 90
1
176
1
 90
1
176
1
 40
1.0
176
1
 90
8
176
1
 62
7
176
1
 40
1.0
176
1
 90
1
176
1
 90
6
176
1
 90
2
176
1
 62
7
176
1
 90
5
176
1
 90
0
176
1
 90
0
176
1
290
0
176
1
 90
1
176
1
 40
0.0
176
1
 90
0
176
1
290
0
176
1
290
1
176
1
290
1
176
1
290
0
176
1
290
0
176
1
290
0
176
1
290
0
176
1
290
0
176
1
290
0
176
1
 90
50
176
1
 40
0.0
176
1
 40
1.0
176
1
 90
0
176
1
 62
18
420
0
176
1
 90
50
176
1
 90
3
176
1
 62
5
420
255
176
1
290
0
176
1
 90
50
176
1
 90
50
176
1
 90
50
176
1
290
0
176
1
 90
50
176
1
 62
256
176
0
 40
1.0
176
0
 90
2
176
1
  1
strokes_ogs.tif
176
1
290
0
176
1
 40
1.0
176
1
 40
1.0
176
1
  0
VISUALSTYLE
  5
63
102
{ACAD_REACTORS
330
16
102
}
330
16
100
AcDbVisualStyle
  2
FlatWithEdges
 70
1
177
3
291
1
 70
58
 90
2
176
1
 90
2
176
1
 90
0
176
1
 90
2
176
1
 40
0.6
176
1
 40
30.0
176
1
 62
7
420
16777215
176
1
 90
1
176
1
 90
4
176
1
 62
7
176
1
 62
257
176
1
 90
1
176
1
 90
1
176
1
 40
1.0
176
1
 90
8
176
1
 62
7
176
1
 40
1.0
176
1
 90
1
176
1
 90
6
176
1
 90
2
176
1
 62
7
176
1
 90
5
176
1
 90
0
176
1
 90
0
176
1
290
0
176
1
 90
1
176
1
 40
0.0
176
1
 90
0
176
1
290
0
176
1
290
1
176
1
290
1
176
1
290
0
176
1
290
0
176
1
290
0
176
1
290
0
176
1
290
0
176
1
290
0
176
1
 90
50
176
1
 40
0.0
176
1
 40
1.0
176
1
 90
0
176
1
 62
18
420
0
176
1
 90
50
176
1
 90
3
176
1
 62
5
420
255
176
1
290
0
176
1
 90
50
176
1
 90
50
176
1
 90
50
176
1
290
0
176
1
 90
50
176
1
 62
256
176
0
 40
1.0
176
0
 90
2
176
1
  1
strokes_ogs.tif
176
1
290
0
176
1
 40
1.0
176
1
 40
1.0
176
1
  0
VISUALSTYLE
  5
64
102
{ACAD_REACTORS
330
16
102
}
330
16
100
AcDbVisualStyle
  2
Gouraud
 70
2
177
3
291
1
 70
58
 90
2
176
1
 90
2
176
1
 90
0
176
1
 90
2
176
1
 40
0.6
176
1
 40
30.0
176
1
 62
7
420
16777215
176
1
 90
1
176
1
 90
4
176
1
 62
7
176
1
 62
257
176
1
 90
1
176
1
 90
1
176
1
 40
1.0
176
1
 90
8
176
1
 62
7
176
1
 40
1.0
176
1
 90
1
176
1
 90
6
176
1
 90
2
176
1
 62
7
176
1
 90
5
176
1
 90
0
176
1
 90
0
176
1
290
0
176
1
 90
1
176
1
 40
0.0
176
1
 90
0
176
1
290
0
176
1
290
1
176
1
290
1
176
1
290
0
176
1
290
0
176
1
290
0
176
1
290
0
176
1
290
0
176
1
290
0
176
1
 90
50
176
1
 40
0.0
176
1
 40
1.0
176
1
 90
0
176
1
 62
18
420
0
176
1
 90
50
176
1
 90
3
176
1
 62
5
420
255
176
1
290
0
176
1
 90
50
176
1
 90
50
176
1
 90
50
176
1
290
0
176
1
 90
50
176
1
 62
256
176
0
 40
1.0
176
0
 90
2
176
1
  1
strokes_ogs.tif
176
1
290
0
176
1
 40
1.0
176
1
 40
1.0
176
1
  0
VISUALSTYLE
  5
65
102
{ACAD_REACTORS
330
16
102
}
330
16
100
AcDbVisualStyle
  2
GouraudWithEdges
 70
3
177
3
291
1
 70
58
 90
2
176
1
 90
2
176
1
 90
0
176
1
 90
2
176
1
 40
0.6
176
1
 40
30.0
176
1
 62
7
420
16777215
176
1
 90
1
176
1
 90
4
176
1
 62
7
176
1
 62
257
176
1
 90
1
176
1
 90
1
176
1
 40
1.0
176
1
 90
8
176
1
 62
7
176
1
 40
1.0
176
1
 90
1
176
1
 90
6
176
1
 90
2
176
1
 62
7
176
1
 90
5
176
1
 90
0
176
1
 90
0
176
1
290
0
176
1
 90
1
176
1
 40
0.0
176
1
 90
0
176
1
290
0
176
1
290
1
176
1
290
1
176
1
290
0
176
1
290
0
176
1
290
0
176
1
290
0
176
1
290
0
176
1
290
0
176
1
 90
50
176
1
 40
0.0
176
1
 40
1.0
176
1
 90
0
176
1
 62
18
420
0
176
1
 90
50
176
1
 90
3
176
1
 62
5
420
255
176
1
290
0
176
1
 90
50
176
1
 90
50
176
1
 90
50
176
1
290
0
176
1
 90
50
176
1
 62
256
176
0
 40
1.0
176
0
 90
2
176
1
  1
strokes_ogs.tif
176
1
290
0
176
1
 40
1.0
176
1
 40
1.0
176
1
  0
VISUALSTYLE
  5
66
102
{ACAD_REACTORS
330
16
102
}
330
16
100
AcDbVisualStyle
  2
Hidden
 70
6
177
3
291
0
 70
58
 90
2
176
1
 90
2
176
1
 90
0
176
1
 90
1
176
1
 40
0.6
176
1
 40
30.0
176
1
 62
7
420
16777215
176
1
 90
1
176
1
 90
4
176
1
 62
7
176
1
 62
257
176
1
 90
1
176
1
 90
1
176
1
 40
1.0
176
1
 90
8
176
1
 62
7
176
1
 40
1.0
176
1
 90
1
176
1
 90
6
176
1
 90
2
176
1
 62
7
176
1
 90
5
176
1
 90
0
176
1
 90
0
176
1
290
0
176
1
 90
1
176
1
 40
0.0
176
1
 90
0
176
1
290
0
176
1
290
1
176
1
290
1
176
1
290
0
176
1
290
0
176
1
290
0
176
1
290
0
176
1
290
0
176
1
290
0
176
1
 90
50
176
1
 40
0.0
176
1
 40
1.0
176
1
 90
0
176
1
 62
18
420
0
176
1
 90
50
176
1
 90
3
176
1
 62
5
420
255
176
1
290
0
176
1
 90
50
176
1
 90
50
176
1
 90
50
176
1
290
0
176
1
 90
50
176
1
 62
256
176
0
 40
1.0
176
0
 90
2
176
1
  1
strokes_ogs.tif
176
1
290
0
176
1
 40
1.0
176
1
 40
1.0
176
1
  0
VISUALSTYLE
  5
67
102
{ACAD_REACTORS
330
16
102
}
330
16
100
AcDbVisualStyle
  2
JitterOff
 70
20
177
3
291
1
 70
58
 90
2
176
1
 90
2
176
1
 90
0
176
1
 90
2
176
1
 40
0.6
176
1
 40
30.0
176
1
 62
7
420
16777215
176
1
 90
1
176
1
 90
4
176
1
 62
7
176
1
 62
257
176
1
 90
1
176
1
 90
1
176
1
 40
1.0
176
1
 90
8
176
1
 62
7
176
1
 40
1.0
176
1
 90
1
176
1
 90
6
176
1
 90
2
176
1
 62
7
176
1
 90
5
176
1
 90
0
176
1
 90
0
176
1
290
0
176
1
 90
1
176
1
 40
0.0
176
1
 90
0
176
1
290
0
176
1
290
1
176
1
290
1
176
1
290
0
176
1
290
0
176
1
290
0
176
1
290
0
176
1
290
0
176
1
290
0
176
1
 90
50
176
1
 40
0.0
176
1
 40
1.0
176
1
 90
0
176
1
 62
18
420
0
176
1
 90
50
176
1
 90
3
176
1
 62
5
420
255
176
1
290
0
176
1
 90
50
176
1
 90
50
176
1
 90
50
176
1
290
0
176
1
 90
50
176
1
 62
256
176
0
 40
1.0
176
0
 90
2
176
1
  1
strokes_ogs.tif
176
1
290
0
176
1
 40
1.0
176
1
 40
1.0
176
1
  0
VISUALSTYLE
  5
68
102
{ACAD_REACTORS
330
16
102
}
330
16
100
AcDbVisualStyle
  2
Linepattern
 70
14
177
3
291
1
 70
58
 90
2
176
1
 90
2
176
1
 90
0
176
1
 90
2
176
1
 40
0.6
176
1
 40
30.0
176
1
 62
7
420
16777215
176
1
 90
1
176
1
 90
4
176
1
 62
7
176
1
 62
257
176
1
 90
1
176
1
 90
1
176
1
 40
1.0
176
1
 90
8
176
1
 62
7
176
1
 40
1.0
176
1
 90
1
176
1
 90
6
176
1
 90
2
176
1
 62
7
176
1
 90
5
176
1
 90
0
176
1
 90
0
176
1
290
0
176
1
 90
1
176
1
 40
0.0
176
1
 90
0
176
1
290
0
176
1
290
1
176
1
290
1
176
1
290
0
176
1
290
0
176
1
290
0
176
1
290
0
176
1
290
0
176
1
290
0
176
1
 90
50
176
1
 40
0.0
176
1
 40
1.0
176
1
 90
0
176
1
 62
18
420
0
176
1
 90
50
176
1
 90
3
176
1
 62
5
420
255
176
1
290
0
176
1
 90
50
176
1
 90
50
176
1
 90
50
176
1
290
0
176
1
 90
50
176
1
 62
256
176
0
 40
1.0
176
0
 90
2
176
1
  1
strokes_ogs.tif
176
1
290
0
176
1
 40
1.0
176
1
 40
1.0
176
1
  0
VISUALSTYLE
  5
69
102
{ACAD_REACTORS
330
16
102
}
330
16
100
AcDbVisualStyle
  2
Modeling
 70
10
177
3
291
0
 70
58
 90
2
176
1
 90
2
176
1
 90
0
176
1
 90
2
176
1
 40
0.6
176
1
 40
30.0
176
1
 62
7
420
16777215
176
1
 90
1
176
1
 90
4
176
1
 62
7
176
1
 62
257
176
1
 90
1
176
1
 90
1
176
1
 40
1.0
176
1
 90
8
176
1
 62
7
176
1
 40
1.0
176
1
 90
1
176
1
 90
6
176
1
 90
2
176
1
 62
7
176
1
 90
5
176
1
 90
0
176
1
 90
0
176
1
290
0
176
1
 90
1
176
1
 40
0.0
176
1
 90
0
176
1
290
0
176
1
290
1
176
1
290
1
176
1
290
0
176
1
290
0
176
1
290
0
176
1
290
0
176
1
290
0
176
1
290
0
176
1
 90
50
176
1
 40
0.0
176
1
 40
1.0
176
1
 90
0
176
1
 62
18
420
0
176
1
 90
50
176
1
 90
3
176
1
 62
5
420
255
176
1
290
0
176
1
 90
50
176
1
 90
50
176
1
 90
50
176
1
290
0
176
1
 90
50
176
1
 62
256
176
0
 40
1.0
176
0
 90
2
176
1
  1
strokes_ogs.tif
176
1
290
0
176
1
 40
1.0
176
1
 40
1.0
176
1
  0
VISUALSTYLE
  5
6A
102
{ACAD_REACTORS
330
16
102
}
330
16
100
AcDbVisualStyle
  2
OverhangOff
 70
21
177
3
291
1
 70
58
 90
2
176
1
 90
2
176
1
 90
0
176
1
 90
2
176
1
 40
0.6
176
1
 40
30.0
176
1
 62
7
420
16777215
176
1
 90
1
176
1
 90
4
176
1
 62
7
176
1
 62
257
176
1
 90
1
176
1
 90
1
176
1
 40
1.0
176
1
 90
8
176
1
 62
7
176
1
 40
1.0
176
1
 90
1
176
1
 90
6
176
1
 90
2
176
1
 62
7
176
1
 90
5
176
1
 90
0
176
1
 90
0
176
1
290
0
176
1
 90
1
176
1
 40
0.0
176
1
 90
0
176
1
290
0
176
1
290
1
176
1
290
1
176
1
290
0
176
1
290
0
176
1
290
0
176
1
290
0
176
1
290
0
176
1
290
0
176
1
 90
50
176
1
 40
0.0
176
1
 40
1.0
176
1
 90
0
176
1
 62
18
420
0
176
1
 90
50
176
1
 90
3
176
1
 62
5
420
255
176
1
290
0
176
1
 90
50
176
1
 90
50
176
1
 90
50
176
1
290
0
176
1
 90
50
176
1
 62
256
176
0
 40
1.0
176
0
 90
2
176
1
  1
strokes_ogs.tif
176
1
290
0
176
1
 40
1.0
176
1
 40
1.0
176
1
  0
VISUALSTYLE
  5
6B
102
{ACAD_REACTORS
330
16
102
}
330
16
100
AcDbVisualStyle
  2
Realistic
 70
8
177
3
291
0
 70
58
 90
2
176
1
 90
2
176
1
 90
0
176
1
 90
2
176
1
 40
0.6
176
1
 40
30.0
176
1
 62
7
420
16777215
176
1
 90
1
176
1
 90
4
176
1
 62
7
176
1
 62
257
176
1
 90
1
176
1
 90
1
176
1
 40
1.0
176
1
 90
8
176
1
 62
7
176
1
 40
1.0
176
1
 90
1
176
1
 90
6
176
1
 90
2
176
1
 62
7
176
1
 90
5
176
1
 90
0
176
1
 90
0
176
1
290
0
176
1
 90
1
176
1
 40
0.0
176
1
 90
0
176
1
290
0
176
1
290
1
176
1
290
1
176
1
290
0
176
1
290
0
176
1
290
0
176
1
290
0
176
1
290
0
176
1
290
0
176
1
 90
50
176
1
 40
0.0
176
1
 40
1.0
176
1
 90
0
176
1
 62
18
420
0
176
1
 90
50
176
1
 90
3
176
1
 62
5
420
255
176
1
290
0
176
1
 90
50
176
1
 90
50
176
1
 90
50
176
1
290
0
176
1
 90
50
176
1
 62
256
176
0
 40
1.0
176
0
 90
2
176
1
  1
strokes_ogs.tif
176
1
290
0
176
1
 40
1.0
176
1
 40
1.0
176
1
  0
VISUALSTYLE
  5
6C
102
{ACAD_REACTORS
330
16
102
}
330
16
100
AcDbVisualStyle
  2
Shaded
 70
27
177
3
291
0
 70
58
 90
2
176
1
 90
2
176
1
 90
0
176
1
 90
2
176
1
 40
0.6
176
1
 40
30.0
176
1
 62
7
420
16777215
176
1
 90
1
176
1
 90
4
176
1
 62
7
176
1
 62
257
176
1
 90
1
176
1
 90
1
176
1
 40
1.0
176
1
 90
8
176
1
 62
7
176
1
 40
1.0
176
1
 90
1
176
1
 90
6
176
1
 90
2
176
1
 62
7
176
1
 90
5
176
1
 90
0
176
1
 90
0
176
1
290
0
176
1
 90
1
176
1
 40
0.0
176
1
 90
0
176
1
290
0
176
1
290
1
176
1
290
1
176
1
290
0
176
1
290
0
176
1
290
0
176
1
290
0
176
1
290
0
176
1
290
0
176
1
 90
50
176
1
 40
0.0
176
1
 40
1.0
176
1
 90
0
176
1
 62
18
420
0
176
1
 90
50
176
1
 90
3
176
1
 62
5
420
255
176
1
290
0
176
1
 90
50
176
1
 90
50
176
1
 90
50
176
1
290
0
176
1
 90
50
176
1
 62
256
176
0
 40
1.0
176
0
 90
2
176
1
  1
strokes_ogs.tif
176
1
290
0
176
1
 40
1.0
176
1
 40
1.0
176
1
  0
VISUALSTYLE
  5
6D
102
{ACAD_REACTORS
330
16
102
}
330
16
100
AcDbVisualStyle
  2
Shaded with edges
 70
26
177
3
291
0
 70
58
 90
2
176
1
 90
2
176
1
 90
0
176
1
 90
2
176
1
 40
0.6
176
1
 40
30.0
176
1
 62
7
420
16777215
176
1
 90
1
176
1
 90
4
176
1
 62
7
176
1
 62
257
176
1
 90
1
176
1
 90
1
176
1
 40
1.0
176
1
 90
8
176
1
 62
7
176
1
 40
1.0
176
1
 90
1
176
1
 90
6
176
1
 90
2
176
1
 62
7
176
1
 90
5
176
1
 90
0
176
1
 90
0
176
1
290
0
176
1
 90
1
176
1
 40
0.0
176
1
 90
0
176
1
290
0
176
1
290
1
176
1
290
1
176
1
290
0
176
1
290
0
176
1
290
0
176
1
290
0
176
1
290
0
176
1
290
0
176
1
 90
50
176
1
 40
0.0
176
1
 40
1.0
176
1
 90
0
176
1
 62
18
420
0
176
1
 90
50
176
1
 90
3
176
1
 62
5
420
255
176
1
290
0
176
1
 90
50
176
1
 90
50
176
1
 90
50
176
1
290
0
176
1
 90
50
176
1
 62
256
176
0
 40
1.0
176
0
 90
2
176
1
  1
strokes_ogs.tif
176
1
290
0
176
1
 40
1.0
176
1
 40
1.0
176
1
  0
VISUALSTYLE
  5
6E
102
{ACAD_REACTORS
330
16
102
}
330
16
100
AcDbVisualStyle
  2
Shades of Gray
 70
23
177
3
291
0
 70
58
 90
2
176
1
 90
2
176
1
 90
0
176
1
 90
2
176
1
 40
0.6
176
1
 40
30.0
176
1
 62
7
420
16777215
176
1
 90
1
176
1
 90
4
176
1
 62
7
176
1
 62
257
176
1
 90
1
176
1
 90
1
176
1
 40
1.0
176
1
 90
8
176
1
 62
7
176
1
 40
1.0
176
1
 90
1
176
1
 90
6
176
1
 90
2
176
1
 62
7
176
1
 90
5
176
1
 90
0
176
1
 90
0
176
1
290
0
176
1
 90
1
176
1
 40
0.0
176
1
 90
0
176
1
290
0
176
1
290
1
176
1
290
1
176
1
290
0
176
1
290
0
176
1
290
0
176
1
290
0
176
1
290
0
176
1
290
0
176
1
 90
50
176
1
 40
0.0
176
1
 40
1.0
176
1
 90
0
176
1
 62
18
420
0
176
1
 90
50
176
1
 90
3
176
1
 62
5
420
255
176
1
290
0
176
1
 90
50
176
1
 90
50
176
1
 90
50
176
1
290
0
176
1
 90
50
176
1
 62
256
176
0
 40
1.0
176
0
 90
2
176
1
  1
strokes_ogs.tif
176
1
290
0
176
1
 40
1.0
176
1
 40
1.0
176
1
  0
VISUALSTYLE
  5
6F
102
{ACAD_REACTORS
330
16
102
}
330
16
100
AcDbVisualStyle
  2
Sketchy
 70
24
177
3
291
0
 70
58
 90
2
176
1
 90
2
176
1
 90
0
176
1
 90
1
176
1
 40
0.6
176
1
 40
30.0
176
1
 62
7
420
16777215
176
1
 90
1
176
1
 90
4
176
1
 62
7
176
1
 62
257
176
1
 90
1
176
1
 90
1
176
1
 40
1.0
176
1
 90
8
176
1
 62
7
176
1
 40
1.0
176
1
 90
1
176
1
 90
6
176
1
 90
2
176
1
 62
7
176
1
 90
5
176
1
 90
0
176
1
 90
0
176
1
290
0
176
1
 90
1
176
1
 40
0.0
176
1
 90
0
176
1
290
0
176
1
290
1
176
1
290
1
176
1
290
0
176
1
290
0
176
1
290
0
176
1
290
0
176
1
290
0
176
1
290
0
176
1
 90
50
176
1
 40
0.0
176
1
 40
1.0
176
1
 90
0
176
1
 62
18
420
0
176
1
 90
50
176
1
 90
3
176
1
 62
5
420
255
176
1
290
0
176
1
 90
50
176
1
 90
50
176
1
 90
50
176
1
290
0
176
1
 90
50
176
1
 62
256
176
0
 40
1.0
176
0
 90
2
176
1
  1
strokes_ogs.tif
176
1
290
0
176
1
 40
1.0
176
1
 40
1.0
176
1
  0
VISUALSTYLE
  5
70
102
{ACAD_REACTORS
330
16
102
}
330
16
100
AcDbVisualStyle
  2
Thicken
 70
13
177
3
291
1
 70
58
 90
2
176
1
 90
2
176
1
 90
0
176
1
 90
2
176
1
 40
0.6
176
1
 40
30.0
176
1
 62
7
420
16777215
176
1
 90
1
176
1
 90
4
176
1
 62
7
176
1
 62
257
176
1
 90
1
176
1
 90
1
176
1
 40
1.0
176
1
 90
8
176
1
 62
7
176
1
 40
1.0
176
1
 90
1
176
1
 90
6
176
1
 90
2
176
1
 62
7
176
1
 90
5
176
1
 90
0
176
1
 90
0
176
1
290
0
176
1
 90
1
176
1
 40
0.0
176
1
 90
0
176
1
290
0
176
1
290
1
176
1
290
1
176
1
290
0
176
1
290
0
176
1
290
0
176
1
290
0
176
1
290
0
176
1
290
0
176
1
 90
50
176
1
 40
0.0
176
1
 40
1.0
176
1
 90
0
176
1
 62
18
420
0
176
1
 90
50
176
1
 90
3
176
1
 62
5
420
255
176
1
290
0
176
1
 90
50
176
1
 90
50
176
1
 90
50
176
1
290
0
176
1
 90
50
176
1
 62
256
176
0
 40
1.0
176
0
 90
2
176
1
  1
strokes_ogs.tif
176
1
290
0
176
1
 40
1.0
176
1
 40
1.0
176
1
  0
VISUALSTYLE
  5
71
102
{ACAD_REACTORS
330
16
102
}
330
16
100
AcDbVisualStyle
  2
Wireframe
 70
5
177
3
291
0
 70
58
 90
2
176
1
 90
2
176
1
 90
0
176
1
 90
0
176
1
 40
0.6
176
1
 40
30.0
176
1
 62
7
420
16777215
176
1
 90
1
176
1
 90
4
176
1
 62
7
176
1
 62
257
176
1
 90
1
176
1
 90
1
176
1
 40
1.0
176
1
 90
8
176
1
 62
7
176
1
 40
1.0
176
1
 90
1
176
1
 90
6
176
1
 90
2
176
1
 62
7
176
1
 90
5
176
1
 90
0
176
1
 90
0
176
1
290
0
176
1
 90
1
176
1
 40
0.0
176
1
 90
0
176
1
290
0
176
1
290
1
176
1
290
1
176
1
290
0
176
1
290
0
176
1
290
0
176
1
290
0
176
1
290
0
176
1
290
0
176
1
 90
50
176
1
 40
0.0
176
1
 40
1.0
176
1
 90
0
176
1
 62
18
420
0
176
1
 90
50
176
1
 90
3
176
1
 62
5
420
255
176
1
290
0
176
1
 90
50
176
1
 90
50
176
1
 90
50
176
1
290
0
176
1
 90
50
176
1
 62
256
176
0
 40
1.0
176
0
 90
2
176
1
  1
strokes_ogs.tif
176
1
290
0
176
1
 40
1.0
176
1
 40
1.0
176
1
  0
VISUALSTYLE
  5
72
102
{ACAD_REACTORS
330
16
102
}
330
16
100
AcDbVisualStyle
  2
X-Ray
 70
25
177
3
291
0
 70
58
 90
2
176
1
 90
2
176
1
 90
0
176
1
 90
2
176
1
 40
0.5
176
1
 40
30.0
176
1
 62
7
420
16777215
176
1
 90
1
176
1
 90
4
176
1
 62
7
176
1
 62
257
176
1
 90
1
176
1
 90
1
176
1
 40
1.0
176
1
 90
8
176
1
 62
7
176
1
 40
1.0
176
1
 90
1
176
1
 90
6
176
1
 90
2
176
1
 62
7
176
1
 90
5
176
1
 90
0
176
1
 90
0
176
1
290
0
176
1
 90
1
176
1
 40
0.0
176
1
 90
0
176
1
290
0
176
1
290
1
176
1
290
1
176
1
290
0
176
1
290
0
176
1
290
0
176
1
290
0
176
1
290
0
176
1
290
0
176
1
 90
50
176
1
 40
0.0
176
1
 40
1.0
176
1
 90
0
176
1
 62
18
420
0
176
1
 90
50
176
1
 90
3
176
1
 62
5
420
255
176
1
290
0
176
1
 90
50
176
1
 90
50
176
1
 90
50
176
1
290
0
176
1
 90
50
176
1
 62
256
176
0
 40
1.0
176
0
 90
2
176
1
  1
strokes_ogs.tif
176
1
290
0
176
1
 40
1.0
176
1
 40
1.0
176
1
  0
DICTIONARYVAR
  5
2DF
330
2D
100
DictionaryVariables
280
0
  1
1.4.4 @ 2026-08-04T21:57:26.565560+00:00
  0
ENDSEC
  0
EOF
