  0
SECTION
  2
HEADER
  9
$ACADVER
  1
AC1027
  9
$ACADMAINTVER
 70
105
  9
$DWGCODEPAGE
  3
ANSI_1252
  9
$LASTSAVEDBY
  1
ezdxf
  9
$REQUIREDVERSIONS
160
0
  9
$INSBASE
 10
0.0
 20
0.0
 30
0.0
  9
$EXTMIN
 10
1e+20
 20
1e+20
 30
1e+20
  9
$EXTMAX
 10
-1e+20
 20
-1e+20
 30
-1e+20
  9
$LIMMIN
 10
0.0
 20
0.0
  9
$LIMMAX
 10
420.0
 20
297.0
  9
$ORTHOMODE
 70
0
  9
$REGENMODE
 70
1
  9
$FILLMODE
 70
1
  9
$QTEXTMODE
 70
0
  9
$MIRRTEXT
 70
1
  9
$LTSCALE
 40
1.0
  9
$ATTMODE
 70
1
  9
$TEXTSIZE
 40
2.5
  9
$TRACEWID
 40
1.0
  9
$TEXTSTYLE
  7
OpenSans
  9
$CLAYER
  8
0
  9
$CELTYPE
  6
ByLayer
  9
$CECOLOR
 62
256
  9
$CELTSCALE
 40
1.0
  9
$DISPSILH
 70
0
  9
$DIMSCALE
 40
1.0
  9
$DIMASZ
 40
0.175
  9
$DIMEXO
 40
0.125
  9
$DIMDLI
 40
3.75
  9
$DIMRND
 40
0.0
  9
$DIMDLE
 40
0.0
  9
$DIMEXE
 40
0.375
  9
$DIMTP
 40
0.0
  9
$DIMTM
 40
0.0
  9
$DIMTXT
 40
0.25
  9
$DIMCEN
 40
2.5
  9
$DIMTSZ
 40
0.0
  9
$DIMTOL
 70
0
  9
$DIMLIM
 70
0
  9
$DIMTIH
 70
0
  9
$DIMTOH
 70
0
  9
$DIMSE1
 70
0
  9
$DIMSE2
 70
0
  9
$DIMTAD
 70
1
  9
$DIMZIN
 70
12
  9
$DIMBLK
  1
ARCHTICK
  9
$DIMASO
 70
1
  9
$DIMSHO
 70
1
  9
$DIMPOST
  1

  9
$DIMAPOST
  1

  9
$DIMALT
 70
0
  9
$DIMALTD
 70
3
  9
$DIMALTF
 40
0.03937007874
  9
$DIMLFAC
 40
100.0
  9
$DIMTOFL
 70
1
  9
$DIMTVP
 40
0.0
  9
$DIMTIX
 70
0
  9
$DIMSOXD
 70
0
  9
$DIMSAH
 70
0
  9
$DIMBLK1
  1

  9
$DIMBLK2
  1

  9
$DIMSTYLE
  2
EZDXF
  9
$DIMCLRD
 70
0
  9
$DIMCLRE
 70
0
  9
$DIMCLRT
 70
0
  9
$DIMTFAC
 40
0.5
  9
$DIMGAP
 40
0.1
  9
$DIMJUST
 70
0
  9
$DIMSD1
 70
0
  9
$DIMSD2
 70
0
  9
$DIMTOLJ
 70
0
  9
$DIMTZIN
 70
8
  9
$DIMALTZ
 70
0
  9
$DIMALTTZ
 70
0
  9
$DIMUPT
 70
1
  9
$DIMDEC
 70
2
  9
$DIMTDEC
 70
2
  9
$DIMALTU
 70
2
  9
$DIMALTTD
 70
3
  9
$DIMTXSTY
  7
OpenSansCondensed-Light
  9
$DIMAUNIT
 70
0
  9
$DIMADEC
 70
2
  9
$DIMALTRND
 40
0.0
  9
$DIMAZIN
 70
3
  9
$DIMDSEP
 70
46
  9
$DIMATFIT
 70
3
  9
$DIMFRAC
 70
0
  9
$DIMLDRBLK
  1

  9
$DIMLUNIT
 70
2
  9
$DIMLWD
 70
-2
  9
$DIMLWE
 70
-2
  9
$DIMTMOVE
 70
2
  9
$DIMFXL
 40
1.0
  9
$DIMFXLON
 70
0
  9
$DIMJOGANG
 40
0.785398163397
  9
$DIMTFILL
 70
0
  9
$DIMTFILLCLR
 70
0
  9
$DIMARCSYM
 70
0
  9
$DIMLTYPE
  6

  9
$DIMLTEX1
  6

  9
$DIMLTEX2
  6

  9
$DIMTXTDIRECTION
 70
0
  9
$LUNITS
 70
2
  9
$LUPREC
 70
4
  9
$SKETCHINC
 40
1.0
  9
$FILLETRAD
 40
10.0
  9
$AUNITS
 70
0
  9
$AUPREC
 70
2
  9
$MENU
  1
.
  9
$ELEVATION
 40
0.0
  9
$PELEVATION
 40
0.0
  9
$THICKNESS
 40
0.0
  9
$LIMCHECK
 70
0
  9
$CHAMFERA
 40
0.0
  9
$CHAMFERB
 40
0.0
  9
$CHAMFERC
 40
0.0
  9
$CHAMFERD
 40
0.0
  9
$SKPOLY
 70
0
  9
$TDCREATE
 40
2461263.625451389
  9
$TDUCREATE
 40
2458532.153996898
  9
$TDUPDATE
 40
2461263.6254745373
  9
$TDUUPDATE
 40
2458532.1544311
  9
$TDINDWG
 40
0.0
  9
$TDUSRTIMER
 40
0.0
  9
$USRTIMER
 70
1
  9
$ANGBASE
 50
0.0
  9
$ANGDIR
 70
0
  9
$PDMODE
 70
0
  9
$PDSIZE
 40
0.0
  9
$PLINEWID
 40
0.0
  9
$SPLFRAME
 70
0
  9
$SPLINETYPE
 70
6
  9
$SPLINESEGS
 70
8
  9
$HANDSEED
  5
5A0
  9
$SURFTAB1
 70
6
  9
$SURFTAB2
 70
6
  9
$SURFTYPE
 70
6
  9
$SURFU
 70
6
  9
$SURFV
 70
6
  9
$UCSBASE
  2

  9
$UCSNAME
  2

  9
$UCSORG
 10
0.0
 20
0.0
 30
0.0
  9
$UCSXDIR
 10
1.0
 20
0.0
 30
0.0
  9
$UCSYDIR
 10
0.0
 20
1.0
 30
0.0
  9
$UCSORTHOREF
  2

  9
$UCSORTHOVIEW
 70
0
  9
$UCSORGTOP
 10
0.0
 20
0.0
 30
0.0
  9
$UCSORGBOTTOM
 10
0.0
 20
0.0
 30
0.0
  9
$UCSORGLEFT
 10
0.0
 20
0.0
 30
0.0
  9
$UCSORGRIGHT
 10
0.0
 20
0.0
 30
0.0
  9
$UCSORGFRONT
 10
0.0
 20
0.0
 30
0.0
  9
$UCSORGBACK
 10
0.0
 20
0.0
 30
0.0
  9
$PUCSBASE
  2

  9
$PUCSNAME
  2

  9
$PUCSORG
 10
0.0
 20
0.0
 30
0.0
  9
$PUCSXDIR
 10
1.0
 20
0.0
 30
0.0
  9
$PUCSYDIR
 10
0.0
 20
1.0
 30
0.0
  9
$PUCSORTHOREF
  2

  9
$PUCSORTHOVIEW
 70
0
  9
$PUCSORGTOP
 10
0.0
 20
0.0
 30
0.0
  9
$PUCSORGBOTTOM
 10
0.0
 20
0.0
 30
0.0
  9
$PUCSORGLEFT
 10
0.0
 20
0.0
 30
0.0
  9
$PUCSORGRIGHT
 10
0.0
 20
0.0
 30
0.0
  9
$PUCSORGFRONT
 10
0.0
 20
0.0
 30
0.0
  9
$PUCSORGBACK
 10
0.0
 20
0.0
 30
0.0
  9
$USERI1
 70
0
  9
$USERI2
 70
0
  9
$USERI3
 70
0
  9
$USERI4
 70
0
  9
$USERI5
 70
0
  9
$USERR1
 40
0.0
  9
$USERR2
 40
0.0
  9
$USERR3
 40
0.0
  9
$USERR4
 40
0.0
  9
$USERR5
 40
0.0
  9
$WORLDVIEW
 70
1
  9
$SHADEDGE
 70
3
  9
$SHADEDIF
 70
70
  9
$TILEMODE
 70
1
  9
$MAXACTVP
 70
64
  9
$PINSBASE
 10
0.0
 20
0.0
 30
0.0
  9
$PLIMCHECK
 70
0
  9
$PEXTMIN
 10
1e+20
 20
1e+20
 30
1e+20
  9
$PEXTMAX
 10
-1e+20
 20
-1e+20
 30
-1e+20
  9
$PLIMMIN
 10
0.0
 20
0.0
  9
$PLIMMAX
 10
420.0
 20
297.0
  9
$UNITMODE
 70
0
  9
$VISRETAIN
 70
1
  9
$PLINEGEN
 70
0
  9
$PSLTSCALE
 70
1
  9
$TREEDEPTH
 70
3020
  9
$CMLSTYLE
  2
Standard
  9
$CMLJUST
 70
0
  9
$CMLSCALE
 40
20.0
  9
$PROXYGRAPHICS
 70
1
  9
$MEASUREMENT
 70
1
  9
$CELWEIGHT
370
-1
  9
$ENDCAPS
280
0
  9
$JOINSTYLE
280
0
  9
$LWDISPLAY
290
0
  9
$INSUNITS
 70
6
  9
$HYPERLINKBASE
  1

  9
$STYLESHEET
  1

  9
$XEDIT
290
1
  9
$CEPSNTYPE
380
0
  9
$PSTYLEMODE
290
1
  9
$FINGERPRINTGUID
  2
{F2E79127-400A-4212-9096-2B7538532C39}
  9
$VERSIONGUID
  2
{6C11725F-CD5F-4123-B9F7-709C0336EBBD}
  9
$EXTNAMES
290
1
  9
$PSVPSCALE
 40
0.0
  9
$OLESTARTUP
290
0
  9
$SORTENTS
280
127
  9
$INDEXCTL
280
0
  9
$HIDETEXT
280
1
  9
$XCLIPFRAME
280
1
  9
$HALOGAP
280
0
  9
$OBSCOLOR
 70
257
  9
$OBSLTYPE
280
0
  9
$INTERSECTIONDISPLAY
280
0
  9
$INTERSECTIONCOLOR
 70
257
  9
$DIMASSOC
280
2
  9
$PROJECTNAME
  1

  9
$CAMERADISPLAY
290
0
  9
$LENSLENGTH
 40
50.0
  9
$CAMERAHEIGHT
 40
0.0
  9
$STEPSPERSEC
 40
24.0
  9
$STEPSIZE
 40
100.0
  9
$3DDWFPREC
 40
2.0
  9
$PSOLWIDTH
 40
0.005
  9
$PSOLHEIGHT
 40
0.08
  9
$LOFTANG1
 40
1.570796326795
  9
$LOFTANG2
 40
1.570796326795
  9
$LOFTMAG1
 40
0.0
  9
$LOFTMAG2
 40
0.0
  9
$LOFTPARAM
 70
7
  9
$LOFTNORMALS
280
1
  9
$LATITUDE
 40
37.795
  9
$LONGITUDE
 40
-122.394
  9
$NORTHDIRECTION
 40
0.0
  9
$TIMEZONE
 70
-8000
  9
$LIGHTGLYPHDISPLAY
280
1
  9
$TILEMODELIGHTSYNCH
280
1
  9
$CMATERIAL
347
20
  9
$SOLIDHIST
280
0
  9
$SHOWHIST
280
1
  9
$DWFFRAME
280
2
  9
$DGNFRAME
280
2
  9
$REALWORLDSCALE
290
1
  9
$INTERFERECOLOR
 62
256
  9
$CSHADOW
280
0
  9
$SHADOWPLANELOCATION
 40
0.0
  0
ENDSEC
  0
SECTION
  2
CLASSES
  0
CLASS
  1
ACDBDICTIONARYWDFLT
  2
AcDbDictionaryWithDefault
  3
ObjectDBX Classes
 90
0
 91
0
280
0
281
0
  0
CLASS
  1
SUN
  2
AcDbSun
  3
SCENEOE
 90
1153
 91
0
280
0
281
0
  0
CLASS
  1
VISUALSTYLE
  2
AcDbVisualStyle
  3
ObjectDBX Classes
 90
4095
 91
0
280
0
281
0
  0
CLASS
  1
MATERIAL
  2
AcDbMaterial
  3
ObjectDBX Classes
 90
1153
 91
0
280
0
281
0
  0
CLASS
  1
SCALE
  2
AcDbScale
  3
ObjectDBX Classes
 90
1153
 91
0
280
0
281
0
  0
CLASS
  1
TABLESTYLE
  2
AcDbTableStyle
  3
ObjectDBX Classes
 90
4095
 91
0
280
0
281
0
  0
CLASS
  1
MLEADERSTYLE
  2
AcDbMLeaderStyle
  3
ACDB_MLEADERSTYLE_CLASS
 90
4095
 91
0
280
0
281
0
  0
CLASS
  1
DICTIONARYVAR
  2
AcDbDictionaryVar
  3
ObjectDBX Classes
 90
0
 91
0
280
0
281
0
  0
CLASS
  1
CELLSTYLEMAP
  2
AcDbCellStyleMap
  3
ObjectDBX Classes
 90
1152
 91
0
280
0
281
0
  0
CLASS
  1
MENTALRAYRENDERSETTINGS
  2
AcDbMentalRayRenderSettings
  3
SCENEOE
 90
1024
 91
0
280
0
281
0
  0
CLASS
  1
ACDBDETAILVIEWSTYLE
  2
AcDbDetailViewStyle
  3
ObjectDBX Classes
 90
1025
 91
0
280
0
281
0
  0
CLASS
  1
ACDBSECTIONVIEWSTYLE
  2
AcDbSectionViewStyle
  3
ObjectDBX Classes
 90
1025
 91
0
280
0
281
0
  0
CLASS
  1
RASTERVARIABLES
  2
AcDbRasterVariables
  3
ISM
 90
0
 91
0
280
0
281
0
  0
CLASS
  1
ACDBPLACEHOLDER
  2
AcDbPlaceHolder
  3
ObjectDBX Classes
 90
0
 91
0
280
0
281
0
  0
CLASS
  1
LAYOUT
  2
AcDbLayout
  3
ObjectDBX Classes
 90
0
 91
0
280
0
281
0
  0
ENDSEC
  0
SECTION
  2
TABLES
  0
TABLE
  2
VPORT
  5
8
330
0
100
AcDbSymbolTable
 70
1
  0
VPORT
  5
23
330
8
100
AcDbSymbolTableRecord
100
AcDbViewportTableRecord
  2
*Active
 70
0
 10
0.0
 20
0.0
 11
1.0
 21
1.0
 12
0.0
 22
0.0
 13
0.0
 23
0.0
 14
0.5
 24
0.5
 15
0.5
 25
0.5
 16
0.0
 26
0.0
 36
1.0
 17
0.0
 27
0.0
 37
0.0
 40
1000.0
 41
1.34
 42
50.0
 43
0.0
 44
0.0
 50
0.0
 51
0.0
 71
0
 72
1000
 73
1
 74
3
 75
0
 76
0
 77
0
 78
0
281
0
 65
0
146
0.0
  0
ENDTAB
  0
TABLE
  2
LTYPE
  5
2
330
0
100
AcDbSymbolTable
 70
21
  0
LTYPE
  5
24
330
2
100
AcDbSymbolTableRecord
100
AcDbLinetypeTableRecord
  2
ByBlock
 70
0
  3

 72
65
 73
0
 40
0.0
  0
LTYPE
  5
25
330
2
100
AcDbSymbolTableRecord
100
AcDbLinetypeTableRecord
  2
ByLayer
 70
0
  3

 72
65
 73
0
 40
0.0
  0
LTYPE
  5
26
330
2
100
AcDbSymbolTableRecord
100
AcDbLinetypeTableRecord
  2
Continuous
 70
0
  3

 72
65
 73
0
 40
0.0
  0
LTYPE
  5
2F
330
2
100
AcDbSymbolTableRecord
100
AcDbLinetypeTableRecord
  2
CENTER
 70
0
  3
Center ____ _ ____ _ ____ _ ____ _ ____ _ ____
 72
65
 73
4
 40
5.08
 49
3.175
 74
0
 49
-0.635
 74
0
 49
0.635
 74
0
 49
-0.635
 74
0
  0
LTYPE
  5
30
330
2
100
AcDbSymbolTableRecord
100
AcDbLinetypeTableRecord
  2
CENTERX2
 70
0
  3
Center (2x) ________  __  ________  __  ________
 72
65
 73
4
 40
8.89
 49
6.35
 74
0
 49
-0.635
 74
0
 49
1.27
 74
0
 49
-0.635
 74
0
  0
LTYPE
  5
31
330
2
100
AcDbSymbolTableRecord
100
AcDbLinetypeTableRecord
  2
CENTER2
 70
0
  3
Center (.5x) ____ _ ____ _ ____ _ ____ _ ____
 72
65
 73
4
 40
2.54
 49
1.587
 74
0
 49
-0.318
 74
0
 49
0.318
 74
0
 49
-0.318
 74
0
  0
LTYPE
  5
32
330
2
100
AcDbSymbolTableRecord
100
AcDbLinetypeTableRecord
  2
DASHED
 70
0
  3
Dashed __ __ __ __ __ __ __ __ __ __ __ __ __ _
 72
65
 73
2
 40
1.524
 49
1.27
 74
0
 49
-0.254
 74
0
  0
LTYPE
  5
33
330
2
100
AcDbSymbolTableRecord
100
AcDbLinetypeTableRecord
  2
DASHEDX2
 70
0
  3
Dashed (2x) ____  ____  ____  ____  ____  ____
 72
65
 73
2
 40
3.048
 49
2.54
 74
0
 49
-0.508
 74
0
  0
LTYPE
  5
34
330
2
100
AcDbSymbolTableRecord
100
AcDbLinetypeTableRecord
  2
DASHED2
 70
0
  3
Dashed (.5x) _ _ _ _ _ _ _ _ _ _ _ _ _ _
 72
65
 73
2
 40
0.762
 49
0.635
 74
0
 49
-0.127
 74
0
  0
LTYPE
  5
35
330
2
100
AcDbSymbolTableRecord
100
AcDbLinetypeTableRecord
  2
PHANTOM
 70
0
  3
Phantom ______  __  __  ______  __  __  ______
 72
65
 73
6
 40
6.35
 49
3.175
 74
0
 49
-0.635
 74
0
 49
0.635
 74
0
 49
-0.635
 74
0
 49
0.635
 74
0
 49
-0.635
 74
0
  0
LTYPE
  5
36
330
2
100
AcDbSymbolTableRecord
100
AcDbLinetypeTableRecord
  2
PHANTOMX2
 70
0
  3
Phantom (2x)____________    ____    ____    ____________
 72
65
 73
6
 40
10.795
 49
6.35
 74
0
 49
-0.635
 74
0
 49
1.27
 74
0
 49
-0.635
 74
0
 49
1.27
 74
0
 49
-0.635
 74
0
  0
LTYPE
  5
37
330
2
100
AcDbSymbolTableRecord
100
AcDbLinetypeTableRecord
  2
PHANTOM2
 70
0
  3
Phantom (.5x) ___ _ _ ___ _ _ ___ _ _ ___ _ _ ___
 72
65
 73
6
 40
3.175
 49
1.587
 74
0
 49
-0.318
 74
0
 49
0.318
 74
0
 49
-0.318
 74
0
 49
0.318
 74
0
 49
-0.318
 74
0
  0
LTYPE
  5
38
330
2
100
AcDbSymbolTableRecord
100
AcDbLinetypeTableRecord
  2
DASHDOT
 70
0
  3
Dash dot __ . __ . __ . __ . __ . __ . __ . __
 72
65
 73
4
 40
3.556
 49
2.54
 74
0
 49
-0.508
 74
0
 49
0.0
 74
0
 49
-0.508
 74
0
  0
LTYPE
  5
39
330
2
100
AcDbSymbolTableRecord
100
AcDbLinetypeTableRecord
  2
DASHDOTX2
 70
0
  3
Dash dot (2x) ____  .  ____  .  ____  .  ____
 72
65
 73
4
 40
6.096
 49
5.08
 74
0
 49
-0.508
 74
0
 49
0.0
 74
0
 49
-0.508
 74
0
  0
LTYPE
  5
3A
330
2
100
AcDbSymbolTableRecord
100
AcDbLinetypeTableRecord
  2
DASHDOT2
 70
0
  3
Dash dot (.5x) _ . _ . _ . _ . _ . _ . _ . _
 72
65
 73
4
 40
1.778
 49
1.27
 74
0
 49
-0.254
 74
0
 49
0.0
 74
0
 49
-0.254
 74
0
  0
LTYPE
  5
3B
330
2
100
AcDbSymbolTableRecord
100
AcDbLinetypeTableRecord
  2
DOT
 70
0
  3
Dot .  .  .  .  .  .  .  .  .  .  .  .  .  .  .  .
 72
65
 73
2
 40
0.508
 49
0.0
 74
0
 49
-0.508
 74
0
  0
LTYPE
  5
3C
330
2
100
AcDbSymbolTableRecord
100
AcDbLinetypeTableRecord
  2
DOTX2
 70
0
  3
Dot (2x) .    .    .    .    .    .    .    . 
 72
65
 73
2
 40
1.016
 49
0.0
 74
0
 49
-1.016
 74
0
  0
LTYPE
  5
3D
330
2
100
AcDbSymbolTableRecord
100
AcDbLinetypeTableRecord
  2
DOT2
 70
0
  3
Dot (.5) . . . . . . . . . . . . . . . . . . . 
 72
65
 73
2
 40
0.254
 49
0.0
 74
0
 49
-0.254
 74
0
  0
LTYPE
  5
3E
330
2
100
AcDbSymbolTableRecord
100
AcDbLinetypeTableRecord
  2
DIVIDE
 70
0
  3
Divide __ . . __ . . __ . . __ . . __ . . __
 72
65
 73
6
 40
4.064
 49
2.54
 74
0
 49
-0.508
 74
0
 49
0.0
 74
0
 49
-0.508
 74
0
 49
0.0
 74
0
 49
-0.508
 74
0
  0
LTYPE
  5
3F
330
2
100
AcDbSymbolTableRecord
100
AcDbLinetypeTableRecord
  2
DIVIDEX2
 70
0
  3
Divide (2x) ____  . .  ____  . .  ____  . .  ____
 72
65
 73
6
 40
6.604
 49
5.08
 74
0
 49
-0.508
 74
0
 49
0.0
 74
0
 49
-0.508
 74
0
 49
0.0
 74
0
 49
-0.508
 74
0
  0
LTYPE
  5
40
330
2
100
AcDbSymbolTableRecord
100
AcDbLinetypeTableRecord
  2
DIVIDE2
 70
0
  3
Divide(.5x) _ . _ . _ . _ . _ . _ . _ . _
 72
65
 73
6
 40
2.032
 49
1.27
 74
0
 49
-0.254
 74
0
 49
0.0
 74
0
 49
-0.254
 74
0
 49
0.0
 74
0
 49
-0.254
 74
0
  0
ENDTAB
  0
TABLE
  2
LAYER
  5
1
330
0
100
AcDbSymbolTable
 70
6
  0
LAYER
  5
27
330
1
100
AcDbSymbolTableRecord
100
AcDbLayerTableRecord
  2
0
 70
0
 62
7
  6
Continuous
370
-3
390
13
347
21
  0
LAYER
  5
28
330
1
100
AcDbSymbolTableRecord
100
AcDbLayerTableRecord
  2
Defpoints
 70
0
 62
7
  6
Continuous
290
0
370
-3
390
13
347
21
  0
LAYER
  5
251
330
1
100
AcDbSymbolTableRecord
100
AcDbLayerTableRecord
  2
WIRES
 70
0
 62
7
  6
Continuous
370
-3
390
13
347
21
348
0
  0
LAYER
  5
252
330
1
100
AcDbSymbolTableRecord
100
AcDbLayerTableRecord
  2
SYMS
 70
0
 62
7
  6
Continuous
370
-3
390
13
347
21
348
0
  0
LAYER
  5
253
330
1
100
AcDbSymbolTableRecord
100
AcDbLayerTableRecord
  2
SLD_STUB
 70
0
 62
1
  6
Continuous
370
-3
390
13
347
21
  0
LAYER
  5
524
330
1
100
AcDbSymbolTableRecord
100
AcDbLayerTableRecord
  2
OBJ
 70
0
 62
3
  6
Continuous
370
-3
390
F
347
295
348
0
  0
ENDTAB
  0
TABLE
  2
STYLE
  5
5
330
0
100
AcDbSymbolTable
 70
27
  0
STYLE
  5
29
330
5
100
AcDbSymbolTableRecord
100
AcDbTextStyleTableRecord
  2
Standard
 70
0
 40
0.0
 41
1.0
 50
0.0
 71
0
 42
2.5
  3
txt
  4

  0
STYLE
  5
41
330
5
100
AcDbSymbolTableRecord
100
AcDbTextStyleTableRecord
  2
OpenSans-Light
 70
0
 40
0.0
 41
1.0
 50
0.0
 71
0
 42
2.5
  3
OpenSans-Light.ttf
  4

  0
STYLE
  5
42
330
5
100
AcDbSymbolTableRecord
100
AcDbTextStyleTableRecord
  2
OpenSans-Light-Italic
 70
0
 40
0.0
 41
1.0
 50
0.0
 71
0
 42
2.5
  3
OpenSans-LightItalic.ttf
  4

  0
STYLE
  5
43
330
5
100
AcDbSymbolTableRecord
100
AcDbTextStyleTableRecord
  2
OpenSans
 70
0
 40
0.0
 41
1.0
 50
0.0
 71
0
 42
2.5
  3
OpenSans-Regular.ttf
  4

  0
STYLE
  5
44
330
5
100
AcDbSymbolTableRecord
100
AcDbTextStyleTableRecord
  2
OpenSans-Italic
 70
0
 40
0.0
 41
1.0
 50
0.0
 71
0
 42
2.5
  3
OpenSans-Italic.ttf
  4

  0
STYLE
  5
45
330
5
100
AcDbSymbolTableRecord
100
AcDbTextStyleTableRecord
  2
OpenSans-SemiBold
 70
0
 40
0.0
 41
1.0
 50
0.0
 71
0
 42
2.5
  3
OpenSans-SemiBold.ttf
  4

  0
STYLE
  5
46
330
5
100
AcDbSymbolTableRecord
100
AcDbTextStyleTableRecord
  2
OpenSans-SemiBoldItalic
 70
0
 40
0.0
 41
1.0
 50
0.0
 71
0
 42
2.5
  3
OpenSans-SemiBoldItalic.ttf
  4

  0
STYLE
  5
47
330
5
100
AcDbSymbolTableRecord
100
AcDbTextStyleTableRecord
  2
OpenSans-Bold
 70
0
 40
0.0
 41
1.0
 50
0.0
 71
0
 42
2.5
  3
OpenSans-Bold.ttf
  4

  0
STYLE
  5
48
330
5
100
AcDbSymbolTableRecord
100
AcDbTextStyleTableRecord
  2
OpenSans-BoldItalic
 70
0
 40
0.0
 41
1.0
 50
0.0
 71
0
 42
2.5
  3
OpenSans-BoldItalic.ttf
  4

  0
STYLE
  5
49
330
5
100
AcDbSymbolTableRecord
100
AcDbTextStyleTableRecord
  2
OpenSans-ExtraBold
 70
0
 40
0.0
 41
1.0
 50
0.0
 71
0
 42
2.5
  3
OpenSans-ExtraBold.ttf
  4

  0
STYLE
  5
4A
330
5
100
AcDbSymbolTableRecord
100
AcDbTextStyleTableRecord
  2
OpenSans-ExtraBoldItalic
 70
0
 40
0.0
 41
1.0
 50
0.0
 71
0
 42
2.5
  3
OpenSans-ExtraBoldItalic.ttf
  4

  0
STYLE
  5
4B
330
5
100
AcDbSymbolTableRecord
100
AcDbTextStyleTableRecord
  2
OpenSansCondensed-Bold
 70
0
 40
0.0
 41
1.0
 50
0.0
 71
0
 42
2.5
  3
OpenSansCondensed-Bold.ttf
  4

  0
STYLE
  5
4C
330
5
100
AcDbSymbolTableRecord
100
AcDbTextStyleTableRecord
  2
OpenSansCondensed-Light
 70
0
 40
0.0
 41
1.0
 50
0.0
 71
0
 42
2.5
  3
OpenSansCondensed-Light.ttf
  4

  0
STYLE
  5
4D
330
5
100
AcDbSymbolTableRecord
100
AcDbTextStyleTableRecord
  2
OpenSansCondensed-Italic
 70
0
 40
0.0
 41
1.0
 50
0.0
 71
0
 42
2.5
  3
OpenSansCondensed-LightItalic.ttf
  4

  0
STYLE
  5
4E
330
5
100
AcDbSymbolTableRecord
100
AcDbTextStyleTableRecord
  2
LiberationSans
 70
0
 40
0.0
 41
1.0
 50
0.0
 71
0
 42
2.5
  3
LiberationSans-Regular.ttf
  4

  0
STYLE
  5
4F
330
5
100
AcDbSymbolTableRecord
100
AcDbTextStyleTableRecord
  2
LiberationSans-Bold
 70
0
 40
0.0
 41
1.0
 50
0.0
 71
0
 42
2.5
  3
LiberationSans-Bold.ttf
  4

  0
STYLE
  5
50
330
5
100
AcDbSymbolTableRecord
100
AcDbTextStyleTableRecord
  2
LiberationSans-BoldItalic
 70
0
 40
0.0
 41
1.0
 50
0.0
 71
0
 42
2.5
  3
LiberationSans-BoldItalic.ttf
  4

  0
STYLE
  5
51
330
5
100
AcDbSymbolTableRecord
100
AcDbTextStyleTableRecord
  2
LiberationSans-Italic
 70
0
 40
0.0
 41
1.0
 50
0.0
 71
0
 42
2.5
  3
LiberationSans-Italic.ttf
  4

  0
STYLE
  5
52
330
5
100
AcDbSymbolTableRecord
100
AcDbTextStyleTableRecord
  2
LiberationSerif
 70
0
 40
0.0
 41
1.0
 50
0.0
 71
0
 42
2.5
  3
LiberationSerif-Regular.ttf
  4

  0
STYLE
  5
53
330
5
100
AcDbSymbolTableRecord
100
AcDbTextStyleTableRecord
  2
LiberationSerif-Bold
 70
0
 40
0.0
 41
1.0
 50
0.0
 71
0
 42
2.5
  3
LiberationSerif-Bold.ttf
  4

  0
STYLE
  5
54
330
5
100
AcDbSymbolTableRecord
100
AcDbTextStyleTableRecord
  2
LiberationSerif-BoldItalic
 70
0
 40
0.0
 41
1.0
 50
0.0
 71
0
 42
2.5
  3
LiberationSerif-BoldItalic.ttf
  4

  0
STYLE
  5
55
330
5
100
AcDbSymbolTableRecord
100
AcDbTextStyleTableRecord
  2
LiberationSerif-Italic
 70
0
 40
0.0
 41
1.0
 50
0.0
 71
0
 42
2.5
  3
LiberationSerif-Italic.ttf
  4

  0
STYLE
  5
56
330
5
100
AcDbSymbolTableRecord
100
AcDbTextStyleTableRecord
  2
LiberationMono
 70
0
 40
0.0
 41
1.0
 50
0.0
 71
0
 42
2.5
  3
LiberationMono-Regular.ttf
  4

  0
STYLE
  5
57
330
5
100
AcDbSymbolTableRecord
100
AcDbTextStyleTableRecord
  2
LiberationMono-Bold
 70
0
 40
0.0
 41
1.0
 50
0.0
 71
0
 42
2.5
  3
LiberationMono-Bold.ttf
  4

  0
STYLE
  5
58
330
5
100
AcDbSymbolTableRecord
100
AcDbTextStyleTableRecord
  2
LiberationMono-BoldItalic
 70
0
 40
0.0
 41
1.0
 50
0.0
 71
0
 42
2.5
  3
LiberationMono-BoldItalic.ttf
  4

  0
STYLE
  5
59
330
5
100
AcDbSymbolTableRecord
100
AcDbTextStyleTableRecord
  2
LiberationMono-Italic
 70
0
 40
0.0
 41
1.0
 50
0.0
 71
0
 42
2.5
  3
LiberationMono-Italic.ttf
  4

  0
STYLE
  5
164
330
5
100
AcDbSymbolTableRecord
100
AcDbTextStyleTableRecord
  2
WD
 70
0
 40
0.0
 41
1.0
 50
0.0
 71
0
 42
0.15
  3
txt
  4

  0
ENDTAB
  0
TABLE
  2
VIEW
  5
7
330
0
100
AcDbSymbolTable
 70
0
  0
ENDTAB
  0
TABLE
  2
UCS
  5
6
330
0
100
AcDbSymbolTable
 70
0
  0
ENDTAB
  0
TABLE
  2
APPID
  5
3
330
0
100
AcDbSymbolTable
 70
3
  0
APPID
  5
2A
330
3
100
AcDbSymbolTableRecord
100
AcDbRegAppTableRecord
  2
ACAD
 70
0
  0
APPID
  5
264
330
3
100
AcDbSymbolTableRecord
100
AcDbRegAppTableRecord
  2
HATCHBACKGROUNDCOLOR
 70
0
  0
APPID
  5
265
330
3
100
AcDbSymbolTableRecord
100
AcDbRegAppTableRecord
  2
EZDXF
 70
0
  0
ENDTAB
  0
TABLE
  2
DIMSTYLE
  5
4
330
0
100
AcDbSymbolTable
 70
12
100
AcDbDimStyleTable
  0
DIMSTYLE
105
2B
330
4
100
AcDbSymbolTableRecord
100
AcDbDimStyleTableRecord
  2
Standard
 70
0
 40
1.0
 41
2.5
 42
0.625
 43
3.75
 44
1.25
 45
0.0
 46
0.0
 47
0.0
 48
0.0
 49
2.5
140
2.5
141
2.5
142
0.0
143
0.03937007874
144
1.0
145
0.0
146
1.0
147
0.625
148
0.0
 69
0
 70
0
 71
0
 72
0
 73
0
 74
0
 75
0
 76
0
 77
1
 78
8
 79
3
170
0
171
3
172
1
173
0
174
0
175
0
176
0
177
0
178
0
179
2
271
2
272
2
273
2
274
3
275
0
276
0
277
2
278
44
279
0
280
0
281
0
282
0
283
0
284
8
285
0
286
0
288
0
289
3
290
0
371
-2
372
-2
  0
DIMSTYLE
105
73
330
4
100
AcDbSymbolTableRecord
100
AcDbDimStyleTableRecord
  2
EZDXF
 70
0
 40
1.0
 41
0.175
 42
0.125
 43
3.75
 44
0.375
 45
0.0
 46
0.0
 47
0.0
 48
0.0
 49
2.5
140
0.25
141
2.5
142
0.0
143
0.03937007874
144
100.0
145
0.0
146
0.5
147
0.1
148
0.0
 69
0
 70
0
 71
0
 72
0
 73
0
 74
0
 75
0
 76
0
 77
1
 78
12
 79
3
170
0
171
3
172
1
173
0
174
0
175
0
176
0
177
0
178
0
179
2
271
2
272
2
273
2
274
3
275
0
276
0
277
2
278
46
279
2
280
0
281
0
282
0
283
0
284
8
285
0
286
0
288
1
289
3
290
0
340
4C
342
74
371
-2
372
-2
  0
DIMSTYLE
105
7C
330
4
100
AcDbSymbolTableRecord
100
AcDbDimStyleTableRecord
  2
EZ_M_100_H25_CM
 70
0
 40
1.0
 41
0.25
 42
0.125
 43
3.75
 44
0.375
 45
0.0
 46
0.0
 47
0.0
 48
0.0
 49
2.5
140
0.25
141
2.5
142
0.125
143
0.03937007874
144
100.0
145
0.0
146
0.5
147
0.1
148
0.0
 69
0
 70
0
 71
0
 72
0
 73
0
 74
0
 75
0
 76
0
 77
1
 78
12
 79
3
170
0
171
3
172
1
173
0
174
0
175
0
176
0
177
0
178
0
179
2
271
2
272
2
273
2
274
3
275
0
276
0
277
2
278
46
279
2
280
0
281
0
282
0
283
0
284
8
285
0
286
0
288
1
289
3
290
0
340
4C
371
-2
372
-2
  0
DIMSTYLE
105
7D
330
4
100
AcDbSymbolTableRecord
100
AcDbDimStyleTableRecord
  2
EZ_M_50_H25_CM
 70
0
 40
1.0
 41
0.125
 42
0.0625
 43
3.75
 44
0.1875
 45
0.0
 46
0.0
 47
0.0
 48
0.0
 49
2.5
140
0.125
141
2.5
142
0.0625
143
0.03937007874
144
100.0
145
0.0
146
0.5
147
0.05
148
0.0
 69
0
 70
0
 71
0
 72
0
 73
0
 74
0
 75
0
 76
0
 77
1
 78
12
 79
3
170
0
171
3
172
1
173
0
174
0
175
0
176
0
177
0
178
0
179
2
271
2
272
2
273
2
274
3
275
0
276
0
277
2
278
46
279
2
280
0
281
0
282
0
283
0
284
8
285
0
286
0
288
1
289
3
290
0
340
4C
371
-2
372
-2
  0
DIMSTYLE
105
7E
330
4
100
AcDbSymbolTableRecord
100
AcDbDimStyleTableRecord
  2
EZ_M_25_H25_CM
 70
0
 40
1.0
 41
0.0625
 42
0.03125
 43
3.75
 44
0.09375
 45
0.0
 46
0.0
 47
0.0
 48
0.0
 49
2.5
140
0.0625
141
2.5
142
0.03125
143
0.03937007874
144
100.0
145
0.0
146
0.5
147
0.025
148
0.0
 69
0
 70
0
 71
0
 72
0
 73
0
 74
0
 75
0
 76
0
 77
1
 78
12
 79
3
170
0
171
3
172
1
173
0
174
0
175
0
176
0
177
0
178
0
179
2
271
2
272
2
273
2
274
3
275
0
276
0
277
2
278
46
279
2
280
0
281
0
282
0
283
0
284
8
285
0
286
0
288
1
289
3
290
0
340
4C
371
-2
372
-2
  0
DIMSTYLE
105
7F
330
4
100
AcDbSymbolTableRecord
100
AcDbDimStyleTableRecord
  2
EZ_M_20_H25_CM
 70
0
 40
1.0
 41
0.05
 42
0.025
 43
3.75
 44
0.07500000000000001
 45
0.0
 46
0.0
 47
0.0
 48
0.0
 49
2.5
140
0.05
141
2.5
142
0.025
143
0.03937007874
144
100.0
145
0.0
146
0.5
147
0.020000000000000004
148
0.0
 69
0
 70
0
 71
0
 72
0
 73
0
 74
0
 75
0
 76
0
 77
1
 78
12
 79
3
170
0
171
3
172
1
173
0
174
0
175
0
176
0
177
0
178
0
179
2
271
2
272
2
273
2
274
3
275
0
276
0
277
2
278
46
279
2
280
0
281
0
282
0
283
0
284
8
285
0
286
0
288
1
289
3
290
0
340
4C
371
-2
372
-2
  0
DIMSTYLE
105
80
330
4
100
AcDbSymbolTableRecord
100
AcDbDimStyleTableRecord
  2
EZ_M_10_H25_CM
 70
0
 40
1.0
 41
0.025
 42
0.0125
 43
3.75
 44
0.037500000000000006
 45
0.0
 46
0.0
 47
0.0
 48
0.0
 49
2.5
140
0.025
141
2.5
142
0.0125
143
0.03937007874
144
100.0
145
0.0
146
0.5
147
0.010000000000000002
148
0.0
 69
0
 70
0
 71
0
 72
0
 73
0
 74
0
 75
0
 76
0
 77
1
 78
12
 79
3
170
0
171
3
172
1
173
0
174
0
175
0
176
0
177
0
178
0
179
2
271
2
272
2
273
2
274
3
275
0
276
0
277
2
278
46
279
2
280
0
281
0
282
0
283
0
284
8
285
0
286
0
288
1
289
3
290
0
340
4C
371
-2
372
-2
  0
DIMSTYLE
105
81
330
4
100
AcDbSymbolTableRecord
100
AcDbDimStyleTableRecord
  2
EZ_M_5_H25_CM
 70
0
 40
1.0
 41
0.0125
 42
0.00625
 43
3.75
 44
0.018750000000000003
 45
0.0
 46
0.0
 47
0.0
 48
0.0
 49
2.5
140
0.0125
141
2.5
142
0.00625
143
0.03937007874
144
100.0
145
0.0
146
0.5
147
0.005000000000000001
148
0.0
 69
0
 70
0
 71
0
 72
0
 73
0
 74
0
 75
0
 76
0
 77
1
 78
12
 79
3
170
0
171
3
172
1
173
0
174
0
175
0
176
0
177
0
178
0
179
2
271
2
272
2
273
2
274
3
275
0
276
0
277
2
278
46
279
2
280
0
281
0
282
0
283
0
284
8
285
0
286
0
288
1
289
3
290
0
340
4C
371
-2
372
-2
  0
DIMSTYLE
105
82
330
4
100
AcDbSymbolTableRecord
100
AcDbDimStyleTableRecord
  2
EZ_M_1_H25_CM
 70
0
 40
1.0
 41
0.0025
 42
0.00125
 43
3.75
 44
0.00375
 45
0.0
 46
0.0
 47
0.0
 48
0.0
 49
2.5
140
0.0025
141
2.5
142
0.00125
143
0.03937007874
144
100.0
145
0.0
146
0.5
147
0.001
148
0.0
 69
0
 70
0
 71
0
 72
0
 73
0
 74
0
 75
0
 76
0
 77
1
 78
12
 79
3
170
0
171
3
172
1
173
0
174
0
175
0
176
0
177
0
178
0
179
2
271
2
272
2
273
2
274
3
275
0
276
0
277
2
278
46
279
2
280
0
281
0
282
0
283
0
284
8
285
0
286
0
288
1
289
3
290
0
340
4C
371
-2
372
-2
  0
DIMSTYLE
105
83
330
4
100
AcDbSymbolTableRecord
100
AcDbDimStyleTableRecord
  2
EZ_RADIUS
 70
0
 40
1.0
 41
0.25
 42
0.125
 43
3.75
 44
0.375
 45
0.0
 46
0.0
 47
0.0
 48
0.0
 49
2.5
140
0.25
141
0.0
142
0.0
143
0.03937007874
144
100.0
145
0.0
146
0.5
147
0.1
148
0.0
 69
0
 70
0
 71
0
 72
0
 73
0
 74
0
 75
0
 76
0
 77
1
 78
12
 79
3
170
0
171
3
172
0
173
0
174
0
175
0
176
0
177
0
178
0
179
2
271
2
272
2
273
2
274
3
275
0
276
0
277
2
278
46
279
1
280
0
281
0
282
0
283
0
284
8
285
0
286
0
288
1
289
3
290
0
340
4C
342
84
371
-2
372
-2
  0
DIMSTYLE
105
88
330
4
100
AcDbSymbolTableRecord
100
AcDbDimStyleTableRecord
  2
EZ_RADIUS_INSIDE
 70
0
 40
1.0
 41
0.25
 42
0.125
 43
3.75
 44
0.375
 45
0.0
 46
0.0
 47
0.0
 48
0.0
 49
2.5
140
0.25
141
0.0
142
0.0
143
0.03937007874
144
100.0
145
0.0
146
0.5
147
0.1
148
0.0
 69
0
 70
0
 71
0
 72
0
 73
0
 74
0
 75
0
 76
0
 77
0
 78
12
 79
3
170
0
171
3
172
0
173
0
174
1
175
0
176
0
177
0
178
0
179
2
271
2
272
2
273
2
274
3
275
0
276
0
277
2
278
46
279
0
280
0
281
0
282
0
283
0
284
8
285
0
286
0
288
1
289
0
290
0
340
4C
342
84
371
-2
372
-2
  0
DIMSTYLE
105
89
330
4
100
AcDbSymbolTableRecord
100
AcDbDimStyleTableRecord
  2
EZ_CURVED
 70
0
 40
1.0
 41
0.25
 42
0.125
 43
3.75
 44
0.375
 45
0.0
 46
0.0
 47
0.0
 48
0.0
 49
2.5
140
0.25
141
2.5
142
0.0
143
0.03937007874
144
100.0
145
0.0
146
0.5
147
0.1
148
0.0
 69
0
 70
0
 71
0
 72
0
 73
0
 74
0
 75
0
 76
0
 77
1
 78
12
 79
2
 90
2
170
0
171
3
172
1
173
0
174
0
175
0
176
0
177
0
178
0
179
2
271
2
272
2
273
2
274
3
275
0
276
0
277
2
278
46
279
2
280
0
281
0
282
0
283
0
284
8
285
0
286
0
288
1
289
3
290
0
340
4C
371
-2
372
-2
  0
ENDTAB
  0
TABLE
  2
BLOCK_RECORD
  5
9
330
0
100
AcDbSymbolTable
 70
25
  0
BLOCK_RECORD
  5
17
330
9
100
AcDbSymbolTableRecord
100
AcDbBlockTableRecord
  2
*Model_Space
340
1A
 70
0
280
1
281
0
  0
BLOCK_RECORD
  5
1B
330
9
100
AcDbSymbolTableRecord
100
AcDbBlockTableRecord
  2
*Paper_Space
340
1E
 70
0
280
1
281
0
  0
BLOCK_RECORD
  5
74
330
9
100
AcDbSymbolTableRecord
100
AcDbBlockTableRecord
  2
_ARCHTICK
340
0
 70
0
280
1
281
0
  0
BLOCK_RECORD
  5
78
330
9
100
AcDbSymbolTableRecord
100
AcDbBlockTableRecord
  2
_CLOSEDFILLED
340
0
 70
0
280
1
281
0
  0
BLOCK_RECORD
  5
84
330
9
100
AcDbSymbolTableRecord
100
AcDbBlockTableRecord
  2
_CLOSEDBLANK
340
0
 70
0
280
1
281
0
  0
BLOCK_RECORD
  5
23F
330
9
100
AcDbSymbolTableRecord
100
AcDbBlockTableRecord
  2
ARRESTER
340
0
 70
0
280
1
281
0
  0
BLOCK_RECORD
  5
24C
330
9
100
AcDbSymbolTableRecord
100
AcDbBlockTableRecord
  2
DEVICE_BUBBLE
340
0
 70
0
280
1
281
0
  0
BLOCK_RECORD
  5
3AC
330
9
100
AcDbSymbolTableRecord
100
AcDbBlockTableRecord
  2
HXF1CT
340
0
 70
0
280
1
281
0
  0
BLOCK_RECORD
  5
3C7
330
9
100
AcDbSymbolTableRecord
100
AcDbBlockTableRecord
  2
VXF1T1_1-
340
0
 70
0
280
1
281
0
  0
BLOCK_RECORD
  5
3E8
330
9
100
AcDbSymbolTableRecord
100
AcDbBlockTableRecord
  2
HXF1T1_1-
340
0
 70
0
280
1
281
0
  0
BLOCK_RECORD
  5
409
330
9
100
AcDbSymbolTableRecord
100
AcDbBlockTableRecord
  2
VFU1_1-
340
0
 70
0
280
1
281
0
  0
BLOCK_RECORD
  5
422
330
9
100
AcDbSymbolTableRecord
100
AcDbBlockTableRecord
  2
VDS11F
340
0
 70
0
280
1
281
0
  0
BLOCK_RECORD
  5
444
330
9
100
AcDbSymbolTableRecord
100
AcDbBlockTableRecord
  2
HGND2
340
0
 70
0
280
1
281
0
  0
BLOCK_RECORD
  5
44B
330
9
100
AcDbSymbolTableRecord
100
AcDbBlockTableRecord
  2
VCN1PJ
340
0
 70
0
280
1
281
0
  0
BLOCK_RECORD
  5
46B
330
9
100
AcDbSymbolTableRecord
100
AcDbBlockTableRecord
  2
VFU1
340
0
 70
0
280
1
281
0
  0
BLOCK_RECORD
  5
485
330
9
100
AcDbSymbolTableRecord
100
AcDbBlockTableRecord
  2
HFU1
340
0
 70
0
280
1
281
0
  0
BLOCK_RECORD
  5
525
330
9
100
AcDbSymbolTableRecord
100
AcDbBlockTableRecord
  2
VXF1CT
340
0
 70
0
280
1
281
0
  0
BLOCK_RECORD
  5
540
330
9
100
AcDbSymbolTableRecord
100
AcDbBlockTableRecord
  2
WDDOT
340
0
 70
0
280
1
281
0
  0
BLOCK_RECORD
  5
546
330
9
100
AcDbSymbolTableRecord
100
AcDbBlockTableRecord
  2
VC01PJ_1-
340
0
 70
0
280
1
281
0
  0
BLOCK_RECORD
  5
560
330
9
100
AcDbSymbolTableRecord
100
AcDbBlockTableRecord
  2
HC01PJ_1-
340
0
 70
0
280
1
281
0
  0
BLOCK_RECORD
  5
579
330
9
100
AcDbSymbolTableRecord
100
AcDbBlockTableRecord
  2
1LCT1A
340
0
 70
0
280
1
281
0
  0
BLOCK_RECORD
  5
583
330
9
100
AcDbSymbolTableRecord
100
AcDbBlockTableRecord
  2
CSHEXA
340
0
 70
0
280
1
281
0
  0
BLOCK_RECORD
  5
58C
330
9
100
AcDbSymbolTableRecord
100
AcDbBlockTableRecord
  2
WD1005
340
0
 70
0
280
1
281
0
  0
BLOCK_RECORD
  5
590
330
9
100
AcDbSymbolTableRecord
100
AcDbBlockTableRecord
  2
SLD_STUB_GND_SWITCH
340
0
 70
0
280
1
281
0
  0
BLOCK_RECORD
  5
59A
330
9
100
AcDbSymbolTableRecord
100
AcDbBlockTableRecord
  2
SLD_STUB_43LR
340
0
 70
0
280
1
281
0
  0
ENDTAB
  0
ENDSEC
  0
SECTION
  2
BLOCKS
  0
BLOCK
  5
18
330
17
100
AcDbEntity
  8
0
100
AcDbBlockBegin
  2
*Model_Space
 70
0
 10
0.0
 20
0.0
 30
0.0
  3
*Model_Space
  1

  0
ENDBLK
  5
19
330
17
100
AcDbEntity
  8
0
100
AcDbBlockEnd
  0
BLOCK
  5
1C
330
1B
100
AcDbEntity
  8
0
100
AcDbBlockBegin
  2
*Paper_Space
 70
0
 10
0.0
 20
0.0
 30
0.0
  3
*Paper_Space
  1

  0
ENDBLK
  5
1D
330
1B
100
AcDbEntity
  8
0
100
AcDbBlockEnd
  0
BLOCK
  5
75
330
74
100
AcDbEntity
  8
0
100
AcDbBlockBegin
  2
_ARCHTICK
 70
0
 10
0.0
 20
0.0
 30
0.0
  3
_ARCHTICK
  1

  0
LWPOLYLINE
  5
77
330
74
100
AcDbEntity
  8
0
  6
BYBLOCK
 62
0
100
AcDbPolyline
 90
2
 70
0
 43
0.15
 10
-0.5
 20
-0.5
 10
0.5
 20
0.5
  0
ENDBLK
  5
76
330
74
100
AcDbEntity
  8
0
100
AcDbBlockEnd
  0
BLOCK
  5
79
330
78
100
AcDbEntity
  8
0
100
AcDbBlockBegin
  2
_CLOSEDFILLED
 70
0
 10
0.0
 20
0.0
 30
0.0
  3
_CLOSEDFILLED
  1

  0
SOLID
  5
7B
330
78
100
AcDbEntity
  8
0
  6
BYBLOCK
 62
0
100
AcDbTrace
 10
-1.0
 20
0.16439898372402537
 30
0.0
 11
0.0
 21
0.0
 31
0.0
 12
-1.0
 22
-0.16439898372402537
 32
0.0
 13
-1.0
 23
-0.16439898372402537
 33
0.0
  0
ENDBLK
  5
7A
330
78
100
AcDbEntity
  8
0
100
AcDbBlockEnd
  0
BLOCK
  5
85
330
84
100
AcDbEntity
  8
0
100
AcDbBlockBegin
  2
_CLOSEDBLANK
 70
0
 10
0.0
 20
0.0
 30
0.0
  3
_CLOSEDBLANK
  1

  0
LWPOLYLINE
  5
87
330
84
100
AcDbEntity
  8
0
  6
BYBLOCK
 62
0
100
AcDbPolyline
 90
3
 70
1
 10
-1.0
 20
0.16439898372402537
 10
0.0
 20
0.0
 10
-1.0
 20
-0.16439898372402537
  0
ENDBLK
  5
86
330
84
100
AcDbEntity
  8
0
100
AcDbBlockEnd
  0
BLOCK
  5
240
330
23F
100
AcDbEntity
  8
0
100
AcDbBlockBegin
  2
ARRESTER
 70
0
 10
0.0
 20
0.0
 30
0.0
  3
ARRESTER
  1

  0
LINE
  5
242
330
23F
100
AcDbEntity
  8
WIRES
 62
7
 48
0.2
100
AcDbLine
 10
-0.0002354885388911
 20
-0.0003695089762203
 30
0.0
 11
0.2412497385918328
 21
-0.0003695089762203
 31
0.0
  0
INSERT
  5
243
330
23F
100
AcDbEntity
  8
SYMS
 62
7
 48
0.2
100
AcDbBlockReference
  2
WDDOT
 10
-0.0002354885388911
 20
-0.0003695089762186
 30
0.0
  0
CIRCLE
  5
245
330
23F
100
AcDbEntity
  8
0
 62
7
 48
0.2
100
AcDbCircle
 10
0.2701022400400035
 20
-0.0003695089762203
 30
0.0
 40
0.0288525014481707
  0
CIRCLE
  5
246
330
23F
100
AcDbEntity
  8
0
 62
7
 48
0.2
100
AcDbCircle
 10
0.4548505535764065
 20
-0.0004577611034762
 30
0.0
 40
0.0288525014481707
  0
LINE
  5
247
330
23F
100
AcDbEntity
  8
WIRES
 62
7
 48
0.2
100
AcDbLine
 10
0.4837030550245771
 20
-0.0004577611034762
 30
0.0
 11
0.6770460902128406
 21
-0.0004577611034762
 31
0.0
  0
INSERT
  5
248
330
23F
100
AcDbEntity
  8
SYMS
 62
7
 48
0.2
100
AcDbBlockReference
 66
1
  2
HGND2
 10
0.6770460902128406
 20
-0.0004577611034762
 30
0.0
  0
ATTRIB
  5
249
330
248
100
AcDbEntity
  8
0
100
AcDbText
 10
0.6770460902128406
 20
-0.0004577611034762
 30
0.0
 40
0.01
  1

  7
WD
100
AcDbAttribute
  2
X4TERM01
 70
1
  0
SEQEND
  5
24A
330
248
100
AcDbEntity
  8
SYMS
 62
7
 48
0.2
  0
MTEXT
  5
24B
330
23F
100
AcDbEntity
  8
0
 62
7
 48
0.2
100
AcDbMText
 10
0.8171558000249206
 20
0.2195202964539327
 30
0.0
 40
0.1
 41
0.0
 46
0.0
 71
1
 72
5
  1
L.A.\P18kV\P15.3kV MCOV
  7
WD
  0
ENDBLK
  5
241
330
23F
100
AcDbEntity
  8
0
100
AcDbBlockEnd
  0
BLOCK
  5
24D
330
24C
100
AcDbEntity
  8
0
100
AcDbBlockBegin
  2
DEVICE_BUBBLE
 70
2
 10
0.0
 20
0.0
 30
0.0
  3
DEVICE_BUBBLE
  1

  0
CIRCLE
  5
24F
330
24C
100
AcDbEntity
  8
0
100
AcDbCircle
 10
-0.0076230149297771
 20
0.0038114376397971
 30
0.0
 40
0.217314968347708
  0
ATTDEF
  5
250
330
24C
100
AcDbEntity
  8
0
100
AcDbText
 10
-0.1715320898920254
 20
-0.0990484842091064
 30
0.0
 40
0.2
  1

  7
OpenSans
100
AcDbAttributeDefinition
  3

  2
DB
 70
0
280
1
  0
ENDBLK
  5
24E
330
24C
100
AcDbEntity
  8
0
100
AcDbBlockEnd
  0
BLOCK
  5
3AD
330
3AC
100
AcDbEntity
  8
0
100
AcDbBlockBegin
  2
HXF1CT
 70
2
 10
0.0
 20
0.0
 30
0.0
  3
HXF1CT
  1

  0
ARC
  5
3AF
330
3AC
100
AcDbEntity
  8
0
100
AcDbCircle
 10
-0.125
 20
0.34375
 30
0.0
 40
0.125
100
AcDbArc
 50
0.0
 51
180.0
  0
ARC
  5
3B0
330
3AC
100
AcDbEntity
  8
0
100
AcDbCircle
 10
0.125
 20
0.34375
 30
0.0
 40
0.125
100
AcDbArc
 50
0.0
 51
180.0
  0
LINE
  5
3B1
330
3AC
100
AcDbEntity
  8
0
100
AcDbLine
 10
0.0
 20
0.34375
 30
0.0
 11
0.0
 21
0.28125
 31
0.0
  0
CIRCLE
  5
3B2
330
3AC
100
AcDbEntity
  8
0
100
AcDbCircle
 10
-0.2490382372998621
 20
0.0
 30
0.0
 40
0.032211762700138
  0
CIRCLE
  5
3B3
330
3AC
100
AcDbEntity
  8
0
100
AcDbCircle
 10
0.2490382372998621
 20
0.0
 30
0.0
 40
0.032211762700138
  0
LINE
  5
3B4
330
3AC
100
AcDbEntity
  8
0
100
AcDbLine
 10
0.25
 20
0.34375
 30
0.0
 11
0.25
 21
0.0321974015839574
 31
0.0
  0
LINE
  5
3B5
330
3AC
100
AcDbEntity
  8
0
100
AcDbLine
 10
-0.25
 20
0.34375
 30
0.0
 11
-0.25
 21
0.0321974015839574
 31
0.0
  0
ATTDEF
  5
3B6
330
3AC
100
AcDbEntity
  8
0
100
AcDbText
 10
-0.388029377727209
 20
0.5774653318012194
 30
0.0
 40
0.125
  1

  7
WD
 41
0.7
 72
2
 11
-0.388029377727209
 21
0.5774653318012194
 31
0.0
100
AcDbAttributeDefinition
  3

  2
INST
 70
0
  0
ATTDEF
  5
3B7
330
3AC
100
AcDbEntity
  8
0
  6
Continuous
100
AcDbText
 10
0.328125
 20
0.125
 30
0.0
 40
0.01
  1

  7
WD
 72
1
 11
0.328125
 21
0.125
 31
0.0
100
AcDbAttributeDefinition
  3

  2
ASSYCODE
 70
9
  0
ATTDEF
  5
3B8
330
3AC
100
AcDbEntity
  8
0
100
AcDbText
 10
0.28125
 20
0.0
 30
0.0
 40
0.0125
  1

  7
WD
100
AcDbAttributeDefinition
  3

  2
X1TERM02
 70
1
  0
ATTDEF
  5
3B9
330
3AC
100
AcDbEntity
  8
0
100
AcDbText
 10
0.2490382372998621
 20
-0.032211762700138
 30
0.0
 40
0.0125
  1

  7
WD
100
AcDbAttributeDefinition
  3

  2
X8TERM02
 70
1
  0
ATTDEF
  5
3BA
330
3AC
100
AcDbEntity
  8
0
100
AcDbText
 10
-0.28125
 20
0.0
 30
0.0
 40
0.0125
  1

  7
WD
100
AcDbAttributeDefinition
  3

  2
X4TERM01
 70
1
  0
ATTDEF
  5
3BB
330
3AC
100
AcDbEntity
  8
0
100
AcDbText
 10
-0.2490382372998621
 20
-0.032211762700138
 30
0.0
 40
0.0125
  1

  7
WD
100
AcDbAttributeDefinition
  3

  2
X8TERM01
 70
1
  0
ATTDEF
  5
3BC
330
3AC
100
AcDbEntity
  8
0
100
AcDbText
 10
-0.1458333333333333
 20
0.125
 30
0.0
 40
0.125
  1
C.T.
  7
WD
 72
1
 11
0.0
 21
0.125
 31
0.0
100
AcDbAttributeDefinition
  3

  2
TYPE
 70
0
  0
ATTDEF
  5
3BD
330
3AC
100
AcDbEntity
  8
0
  6
Continuous
100
AcDbText
 10
-0.1875
 20
-0.15625
 30
0.0
 40
0.125
  1

  7
WD
 11
-0.1875
 21
-0.03125
 31
0.0
100
AcDbAttributeDefinition
  3

  2
TERM01
 70
8
 74
3
  0
ATTDEF
  5
3BE
330
3AC
100
AcDbEntity
  8
0
  6
Continuous
100
AcDbText
 10
0.328125
 20
-0.15625
 30
0.0
 40
0.125
  1

  7
WD
 11
0.328125
 21
-0.03125
 31
0.0
100
AcDbAttributeDefinition
  3

  2
TERM02
 70
8
 74
3
  0
ATTDEF
  5
3BF
330
3AC
100
AcDbEntity
  8
0
100
AcDbText
 10
0.368125
 20
0.03125
 30
0.0
 40
0.125
  1

  7
WD
 41
0.7
100
AcDbAttributeDefinition
  3

  2
RATING1
 70
0
  0
ATTDEF
  5
3C0
330
3AC
100
AcDbEntity
  8
0
100
AcDbText
 10
0.368125
 20
0.1875
 30
0.0
 40
0.125
  1
XF
  7
WD
100
AcDbAttributeDefinition
  3

  2
TAG1
 70
0
  0
ATTDEF
  5
3C1
330
3AC
100
AcDbEntity
  8
0
100
AcDbText
 10
-0.388029377727209
 20
0.2516153318012193
 30
0.0
 40
0.125
  1

  7
WD
 41
0.7
 72
2
 11
-0.388029377727209
 21
0.2516153318012193
 31
0.0
100
AcDbAttributeDefinition
  3

  2
DESC1
 70
0
  0
ATTDEF
  5
3C2
330
3AC
100
AcDbEntity
  8
0
100
AcDbText
 10
-0.388029377727209
 20
0.0953653318012193
 30
0.0
 40
0.125
  1

  7
WD
 41
0.7
 72
2
 11
-0.388029377727209
 21
0.0953653318012193
 31
0.0
100
AcDbAttributeDefinition
  3

  2
DESC2
 70
0
  0
ATTDEF
  5
3C3
330
3AC
100
AcDbEntity
  8
0
100
AcDbText
 10
-0.388029377727209
 20
0.4078653318012194
 30
0.0
 40
0.125
  1

  7
WD
 41
0.7
 72
2
 11
-0.388029377727209
 21
0.4078653318012194
 31
0.0
100
AcDbAttributeDefinition
  3

  2
LOC
 70
0
  0
ATTDEF
  5
3C4
330
3AC
100
AcDbEntity
  8
0
100
AcDbText
 10
0.3041927759003675
 20
0.1906902937183689
 30
0.0
 40
0.01
  1
XF
  7
WD
100
AcDbAttributeDefinition
  3

  2
FAMILY
 70
9
  0
ATTDEF
  5
3C5
330
3AC
100
AcDbEntity
  8
0
  6
Continuous
100
AcDbText
 10
0.3292460418387173
 20
0.1621388778586058
 30
0.0
 40
0.01
  1

  7
WD
 72
1
 11
0.3292460418387173
 21
0.1621388778586058
 31
0.0
100
AcDbAttributeDefinition
  3

  2
CAT
 70
9
  0
ATTDEF
  5
3C6
330
3AC
100
AcDbEntity
  8
0
  6
Continuous
100
AcDbText
 10
0.3273009961987987
 20
0.1426971241511551
 30
0.0
 40
0.01
  1

  7
WD
 72
1
 11
0.3273009961987987
 21
0.1426971241511551
 31
0.0
100
AcDbAttributeDefinition
  3

  2
MFG
 70
9
  0
ENDBLK
  5
3AE
330
3AC
100
AcDbEntity
  8
0
100
AcDbBlockEnd
  0
BLOCK
  5
3C8
330
3C7
100
AcDbEntity
  8
0
100
AcDbBlockBegin
  2
VXF1T1_1-
 70
2
 10
0.0
 20
0.0
 30
0.0
  3
VXF1T1_1-
  1

  0
ATTDEF
  5
3CA
330
3C7
100
AcDbEntity
  8
0
100
AcDbText
 10
0.203125
 20
0.28125
 30
0.0
 40
0.125
  1

  7
WD
 41
0.85
100
AcDbAttributeDefinition
  3

  2
INST
 70
0
  0
ATTDEF
  5
3CB
330
3C7
100
AcDbEntity
  8
0
  6
Continuous
100
AcDbText
 10
-0.2157796356183921
 20
-0.0905248358372156
 30
0.0
 40
0.01
  1

  7
WD
 72
1
 11
-0.2157796356183921
 21
-0.0905248358372156
 31
0.0
100
AcDbAttributeDefinition
  3

  2
ASSYCODE
 70
9
  0
ATTDEF
  5
3CC
330
3C7
100
AcDbEntity
  8
0
100
AcDbText
 10
-0.28125
 20
0.03125
 30
0.0
 40
0.125
  1

  7
WD
 41
0.85
 72
2
 11
-0.28125
 21
0.03125
 31
0.0
100
AcDbAttributeDefinition
  3

  2
RATING1
 70
0
  0
ATTDEF
  5
3CD
330
3C7
100
AcDbEntity
  8
0
100
AcDbText
 10
0.203125
 20
-0.40625
 30
0.0
 40
0.125
  1

  7
WD
 41
0.85
100
AcDbAttributeDefinition
  3

  2
DESC2
 70
0
  0
ATTDEF
  5
3CE
330
3C7
100
AcDbEntity
  8
0
100
AcDbText
 10
0.203125
 20
-0.234375
 30
0.0
 40
0.125
  1

  7
WD
 41
0.85
100
AcDbAttributeDefinition
  3

  2
DESC1
 70
0
  0
ATTDEF
  5
3CF
330
3C7
100
AcDbEntity
  8
0
100
AcDbText
 10
0.2050664379730698
 20
-0.0606249999999502
 30
0.0
 40
0.125
  1
XF
  7
WD
 41
0.85
100
AcDbAttributeDefinition
  3

  2
TAG1
 70
0
  0
ATTDEF
  5
3D0
330
3C7
100
AcDbEntity
  8
0
100
AcDbText
 10
0.203125
 20
0.109375
 30
0.0
 40
0.125
  1

  7
WD
 41
0.85
100
AcDbAttributeDefinition
  3

  2
LOC
 70
0
  0
ATTDEF
  5
3D1
330
3C7
100
AcDbEntity
  8
0
  6
Continuous
100
AcDbText
 10
-0.2046169189930051
 20
-0.0725012091390027
 30
0.0
 40
0.01
  1

  7
WD
 72
2
 11
-0.2046169189930051
 21
-0.0725012091390027
 31
0.0
100
AcDbAttributeDefinition
  3

  2
MFG
 70
9
  0
ATTDEF
  5
3D2
330
3C7
100
AcDbEntity
  8
0
  6
Continuous
100
AcDbText
 10
-0.2046169189930051
 20
-0.0575012091390027
 30
0.0
 40
0.01
  1

  7
WD
 72
2
 11
-0.2046169189930051
 21
-0.0575012091390027
 31
0.0
100
AcDbAttributeDefinition
  3

  2
CAT
 70
9
  0
ATTDEF
  5
3D3
330
3C7
100
AcDbEntity
  8
0
100
AcDbText
 10
-0.2212835856596718
 20
-0.0208345424723361
 30
0.0
 40
0.01
  1
XF
  7
WD
 72
2
 11
-0.2046169189930051
 21
-0.0208345424723361
 31
0.0
100
AcDbAttributeDefinition
  3

  2
FAMILY
 70
9
  0
ATTDEF
  5
3D4
330
3C7
100
AcDbEntity
  8
0
 62
7
100
AcDbText
 10
0.0
 20
-0.15625
 30
0.0
 40
0.0125
  1

  7
WD
100
AcDbAttributeDefinition
  3

  2
X8TERM02
 70
1
  0
ATTDEF
  5
3D5
330
3C7
100
AcDbEntity
  8
0
 62
7
100
AcDbText
 10
0.0
 20
0.15625
 30
0.0
 40
0.0125
  1

  7
WD
100
AcDbAttributeDefinition
  3

  2
X2TERM01
 70
1
  0
ATTDEF
  5
3D6
330
3C7
100
AcDbEntity
  8
0
  6
Continuous
100
AcDbText
 10
-0.0407012216079947
 20
-0.3384470306509962
 30
0.0
 40
0.125
  1

  7
WD
 41
0.85
 72
2
 11
-0.0407012216079947
 21
-0.2134470306509962
 31
0.0
100
AcDbAttributeDefinition
  3

  2
TERM02
 70
8
 74
3
  0
ATTDEF
  5
3D7
330
3C7
100
AcDbEntity
  8
0
  6
Continuous
100
AcDbText
 10
-0.0549703791556545
 20
0.2378766160049203
 30
0.0
 40
0.125
  1

  7
WD
 41
0.85
 72
2
 11
-0.0549703791556545
 21
0.2378766160049203
 31
0.0
100
AcDbAttributeDefinition
  3

  2
TERM01
 70
8
  0
ATTDEF
  5
3D8
330
3C7
100
AcDbEntity
  8
0
100
AcDbText
 10
-0.2046169189930052
 20
-0.137611882760555
 30
0.0
 40
0.01
  1
1-
  7
WD
 72
2
 11
-0.1912835856596718
 21
-0.137611882760555
 31
0.0
100
AcDbAttributeDefinition
  3

  2
WDTYPE
 70
9
  0
ATTDEF
  5
3D9
330
3C7
100
AcDbEntity
  8
0
100
AcDbText
 10
0.203125
 20
-0.578125
 30
0.0
 40
0.125
  1

  7
WD
 41
0.85
100
AcDbAttributeDefinition
  3

  2
DESC3
 70
0
  0
ATTDEF
  5
3DA
330
3C7
100
AcDbEntity
  8
0
100
AcDbText
 10
-0.1912835856596718
 20
-0.153236882760555
 30
0.0
 40
0.01
  1

  7
WD
 72
2
 11
-0.1912835856596718
 21
-0.153236882760555
 31
0.0
100
AcDbAttributeDefinition
  3

  2
WDBLKNAM
 70
9
  0
ATTDEF
  5
3DB
330
3C7
100
AcDbEntity
  8
0
100
AcDbText
 10
-0.28125
 20
-0.140625
 30
0.0
 40
0.125
  1

  7
WD
 41
0.85
 72
2
 11
-0.28125
 21
-0.140625
 31
0.0
100
AcDbAttributeDefinition
  3

  2
RATING2
 70
0
  0
LWPOLYLINE
  5
3DC
330
3C7
100
AcDbEntity
  8
0
100
AcDbPolyline
 90
2
 70
0
 43
0.0125
 10
-0.140625
 20
-0.015625
 10
0.140625
 20
-0.015625
  0
LWPOLYLINE
  5
3DD
330
3C7
100
AcDbEntity
  8
0
100
AcDbPolyline
 90
2
 70
0
 43
0.0125
 10
-0.140625
 20
0.015625
 10
0.140625
 20
0.015625
  0
LWPOLYLINE
  5
3DE
330
3C7
100
AcDbEntity
  8
0
100
AcDbPolyline
 90
2
 70
0
 43
0.0125
 10
4.9993274214e-06
 20
-0.1249986216425859
 42
1.000008755414072
 10
-0.1562450006121466
 20
-0.1250027463848736
  0
LWPOLYLINE
  5
3DF
330
3C7
100
AcDbEntity
  8
0
100
AcDbPolyline
 90
2
 70
0
 43
0.0125
 10
0.1562450006482603
 20
-0.1249986216425859
 42
1.000008755414072
 10
-4.9992913077e-06
 20
-0.1250027463848736
  0
LWPOLYLINE
  5
3E0
330
3C7
100
AcDbEntity
  8
0
100
AcDbPolyline
 90
2
 70
0
 43
0.0125
 10
0.15625
 20
-0.15625
 10
0.15625
 20
-0.125
  0
LWPOLYLINE
  5
3E1
330
3C7
100
AcDbEntity
  8
0
100
AcDbPolyline
 90
2
 70
0
 43
0.0125
 10
0.0
 20
-0.15625
 10
0.0
 20
-0.125
  0
LWPOLYLINE
  5
3E2
330
3C7
100
AcDbEntity
  8
0
100
AcDbPolyline
 90
2
 70
0
 43
0.0125
 10
-0.15625
 20
-0.15625
 10
-0.15625
 20
-0.125
  0
LWPOLYLINE
  5
3E3
330
3C7
100
AcDbEntity
  8
0
100
AcDbPolyline
 90
2
 70
0
 43
0.0125
 10
-0.15625
 20
0.15625
 10
-0.15625
 20
0.125
  0
LWPOLYLINE
  5
3E4
330
3C7
100
AcDbEntity
  8
0
100
AcDbPolyline
 90
2
 70
0
 43
0.0125
 10
-0.1562450006604195
 20
0.125
 42
1.0000090547887
 10
4.9993267698e-06
 20
0.125001414804329
  0
LWPOLYLINE
  5
3E5
330
3C7
100
AcDbEntity
  8
0
100
AcDbPolyline
 90
2
 70
0
 43
0.0125
 10
0.0
 20
0.15625
 10
0.0
 20
0.125
  0
LWPOLYLINE
  5
3E6
330
3C7
100
AcDbEntity
  8
0
100
AcDbPolyline
 90
2
 70
0
 43
0.0125
 10
-4.9993395805e-06
 20
0.125
 42
1.0000090547887
 10
0.1562450006476088
 20
0.125001414804329
  0
LWPOLYLINE
  5
3E7
330
3C7
100
AcDbEntity
  8
0
100
AcDbPolyline
 90
2
 70
0
 43
0.0125
 10
0.15625
 20
0.15625
 10
0.15625
 20
0.125
  0
ENDBLK
  5
3C9
330
3C7
100
AcDbEntity
  8
0
100
AcDbBlockEnd
  0
BLOCK
  5
3E9
330
3E8
100
AcDbEntity
  8
0
100
AcDbBlockBegin
  2
HXF1T1_1-
 70
2
 10
0.0
 20
0.0
 30
0.0
  3
HXF1T1_1-
  1

  0
ATTDEF
  5
3EB
330
3E8
100
AcDbEntity
  8
0
  6
Continuous
100
AcDbText
 10
0.21875
 20
0.0625
 30
0.0
 40
0.01
  1

  7
WD
 72
1
 11
0.21875
 21
0.0625
 31
0.0
100
AcDbAttributeDefinition
  3

  2
ASSYCODE
 70
9
  0
ATTDEF
  5
3EC
330
3E8
100
AcDbEntity
  8
0
100
AcDbText
 10
0.0
 20
0.15625
 30
0.0
 40
0.01
  1

  7
WD
100
AcDbAttributeDefinition
  3

  2
X2LINK
 70
0
  0
ATTDEF
  5
3ED
330
3E8
100
AcDbEntity
  8
0
100
AcDbText
 10
0.0
 20
-0.171875
 30
0.0
 40
0.01
  1

  7
WD
100
AcDbAttributeDefinition
  3

  2
X8LINK
 70
0
  0
ATTDEF
  5
3EE
330
3E8
100
AcDbEntity
  8
0
  6
Continuous
100
AcDbText
 10
0.227797819576856
 20
0.0887266596591497
 30
0.0
 40
0.01
  1

  7
WD
 72
1
 11
0.227797819576856
 21
0.0887266596591497
 31
0.0
100
AcDbAttributeDefinition
  3

  2
MFG
 70
9
  0
ATTDEF
  5
3EF
330
3E8
100
AcDbEntity
  8
0
  6
Continuous
100
AcDbText
 10
0.2297428652167746
 20
0.1081684133666007
 30
0.0
 40
0.01
  1

  7
WD
 72
1
 11
0.2297428652167746
 21
0.1081684133666007
 31
0.0
100
AcDbAttributeDefinition
  3

  2
CAT
 70
9
  0
ATTDEF
  5
3F0
330
3E8
100
AcDbEntity
  8
0
100
AcDbText
 10
0.2062459949469165
 20
0.130565050798622
 30
0.0
 40
0.01
  1
XF
  7
WD
100
AcDbAttributeDefinition
  3

  2
FAMILY
 70
9
  0
ATTDEF
  5
3F1
330
3E8
100
AcDbEntity
  8
0
100
AcDbText
 10
0.2062459949469165
 20
0.040072249971904
 30
0.0
 40
0.01
  1
NO
  7
WD
100
AcDbAttributeDefinition
  3

  2
CONTACT
 70
9
  0
ATTDEF
  5
3F2
330
3E8
100
AcDbEntity
  8
0
100
AcDbText
 10
-0.2342613780164025
 20
0.0747558932534971
 30
0.0
 40
0.01
  1
1-
  7
WD
 72
2
 11
-0.2209280446830691
 21
0.0747558932534971
 31
0.0
100
AcDbAttributeDefinition
  3

  2
WDTYPE
 70
9
  0
ATTDEF
  5
3F3
330
3E8
100
AcDbEntity
  8
0
100
AcDbText
 10
-0.0123581012365755
 20
0.5918750014890417
 30
0.0
 40
0.125
  1

  7
WD
 41
0.85
 72
1
 11
-0.0123581012365755
 21
0.5918750014890417
 31
0.0
100
AcDbAttributeDefinition
  3

  2
INST
 70
0
  0
ATTDEF
  5
3F4
330
3E8
100
AcDbEntity
  8
0
100
AcDbText
 10
-0.0989583299301723
 20
0.2500000014890915
 30
0.0
 40
0.125
  1
XF
  7
WD
 41
0.85
 72
1
 11
-0.0104166632635057
 21
0.2500000014890915
 31
0.0
100
AcDbAttributeDefinition
  3

  2
TAG1
 70
0
  0
ATTDEF
  5
3F5
330
3E8
100
AcDbEntity
  8
0
100
AcDbText
 10
-0.0123581012365755
 20
0.4200000014890417
 30
0.0
 40
0.125
  1

  7
WD
 41
0.85
 72
1
 11
-0.0123581012365755
 21
0.4200000014890417
 31
0.0
100
AcDbAttributeDefinition
  3

  2
LOC
 70
0
  0
ATTDEF
  5
3F6
330
3E8
100
AcDbEntity
  8
0
100
AcDbText
 10
-0.0104166632635057
 20
-0.8593749985109084
 30
0.0
 40
0.125
  1

  7
WD
 41
0.85
 72
1
 11
-0.0104166632635057
 21
-0.8593749985109084
 31
0.0
100
AcDbAttributeDefinition
  3

  2
DESC2
 70
0
  0
ATTDEF
  5
3F7
330
3E8
100
AcDbEntity
  8
0
100
AcDbText
 10
-0.0104166632635057
 20
-0.6874999985109085
 30
0.0
 40
0.125
  1

  7
WD
 41
0.85
 72
1
 11
-0.0104166632635057
 21
-0.6874999985109085
 31
0.0
100
AcDbAttributeDefinition
  3

  2
DESC1
 70
0
  0
ATTDEF
  5
3F8
330
3E8
100
AcDbEntity
  8
0
100
AcDbText
 10
-0.0104166632635057
 20
-1.031249998510908
 30
0.0
 40
0.125
  1

  7
WD
 41
0.85
 72
1
 11
-0.0104166632635057
 21
-1.031249998510908
 31
0.0
100
AcDbAttributeDefinition
  3

  2
DESC3
 70
0
  0
ATTDEF
  5
3F9
330
3E8
100
AcDbEntity
  8
0
 62
7
100
AcDbText
 10
0.15625
 20
0.0
 30
0.0
 40
0.0125
  1

  7
WD
100
AcDbAttributeDefinition
  3

  2
X1TERM02
 70
1
  0
ATTDEF
  5
3FA
330
3E8
100
AcDbEntity
  8
0
 62
7
100
AcDbText
 10
-0.15625
 20
0.0
 30
0.0
 40
0.0125
  1

  7
WD
100
AcDbAttributeDefinition
  3

  2
X4TERM01
 70
1
  0
ATTDEF
  5
3FB
330
3E8
100
AcDbEntity
  8
0
  6
Continuous
100
AcDbText
 10
0.2083333367364943
 20
-0.1563749985109085
 30
0.0
 40
0.125
  1

  7
WD
 11
0.2083333367364943
 21
-0.0313749985109085
 31
0.0
100
AcDbAttributeDefinition
  3

  2
TERM02
 70
8
 74
3
  0
ATTDEF
  5
3FC
330
3E8
100
AcDbEntity
  8
0
  6
Continuous
100
AcDbText
 10
-0.2291666632635056
 20
-0.1563749985109085
 30
0.0
 40
0.125
  1

  7
WD
 72
2
 11
-0.2291666632635056
 21
-0.0313749985109085
 31
0.0
100
AcDbAttributeDefinition
  3

  2
TERM01
 70
8
 74
3
  0
ATTDEF
  5
3FD
330
3E8
100
AcDbEntity
  8
0
100
AcDbText
 10
-0.0104166632635057
 20
-0.5156249985109085
 30
0.0
 40
0.125
  1

  7
WD
 41
0.85
 72
1
 11
-0.0104166632635057
 21
-0.5156249985109085
 31
0.0
100
AcDbAttributeDefinition
  3

  2
RATING2
 70
0
  0
ATTDEF
  5
3FE
330
3E8
100
AcDbEntity
  8
0
100
AcDbText
 10
-0.0104166632635057
 20
-0.3437499985109085
 30
0.0
 40
0.125
  1

  7
WD
 41
0.85
 72
1
 11
-0.0104166632635057
 21
-0.3437499985109085
 31
0.0
100
AcDbAttributeDefinition
  3

  2
RATING1
 70
0
  0
LWPOLYLINE
  5
3FF
330
3E8
100
AcDbEntity
  8
0
100
AcDbPolyline
 90
2
 70
0
 43
0.0125
 10
0.015625
 20
-0.140625
 10
0.015625
 20
0.140625
  0
LWPOLYLINE
  5
400
330
3E8
100
AcDbEntity
  8
0
100
AcDbPolyline
 90
2
 70
0
 43
0.0125
 10
-0.015625
 20
-0.140625
 10
-0.015625
 20
0.140625
  0
LWPOLYLINE
  5
401
330
3E8
100
AcDbEntity
  8
0
100
AcDbPolyline
 90
3
 70
0
 10
0.15625
 20
0.0
 40
0.0125
 41
0.0125
 10
0.1241161890382753
 20
0.0
 40
0.0125
 41
0.0125
 42
0.9943769052811418
 10
0.1250027463848736
 20
-0.1562450006121466
  0
LWPOLYLINE
  5
402
330
3E8
100
AcDbEntity
  8
0
100
AcDbPolyline
 90
2
 70
0
 43
0.0125
 10
0.1249986216425859
 20
0.1562450006482603
 42
1.000008755414072
 10
0.1250027463848736
 20
-4.9992913077e-06
  0
LWPOLYLINE
  5
403
330
3E8
100
AcDbEntity
  8
0
100
AcDbPolyline
 90
2
 70
0
 43
0.0125
 10
0.15625
 20
0.15625
 10
0.125
 20
0.15625
  0
LWPOLYLINE
  5
404
330
3E8
100
AcDbEntity
  8
0
100
AcDbPolyline
 90
2
 70
0
 43
0.0125
 10
0.15625
 20
-0.15625
 10
0.125
 20
-0.15625
  0
LWPOLYLINE
  5
405
330
3E8
100
AcDbEntity
  8
0
100
AcDbPolyline
 90
2
 70
0
 43
0.0125
 10
-0.15625
 20
-0.15625
 10
-0.125
 20
-0.15625
  0
LWPOLYLINE
  5
406
330
3E8
100
AcDbEntity
  8
0
100
AcDbPolyline
 90
2
 70
0
 43
0.0125
 10
-0.125
 20
-0.1562450006604195
 42
1.0000090547887
 10
-0.125001414804329
 20
4.9993267699e-06
  0
LWPOLYLINE
  5
407
330
3E8
100
AcDbEntity
  8
0
100
AcDbPolyline
 90
3
 70
0
 10
-0.15625
 20
0.0
 40
0.0125
 41
0.0125
 10
-0.1258838109617247
 20
0.0
 40
0.0125
 41
0.0125
 42
1.005681675710495
 10
-0.125001414804329
 20
0.1562450006476088
  0
LWPOLYLINE
  5
408
330
3E8
100
AcDbEntity
  8
0
100
AcDbPolyline
 90
2
 70
0
 43
0.0125
 10
-0.15625
 20
0.15625
 10
-0.125
 20
0.15625
  0
ENDBLK
  5
3EA
330
3E8
100
AcDbEntity
  8
0
100
AcDbBlockEnd
  0
BLOCK
  5
40A
330
409
100
AcDbEntity
  8
0
100
AcDbBlockBegin
  2
VFU1_1-
 70
2
 10
0.0
 20
0.0
 30
0.0
  3
VFU1_1-
  1

  0
ATTDEF
  5
40C
330
409
100
AcDbEntity
  8
0
100
AcDbText
 10
0.125
 20
0.28125
 30
0.0
 40
0.125
  1

  7
WD
 41
0.85
100
AcDbAttributeDefinition
  3

  2
INST
 70
0
  0
ATTDEF
  5
40D
330
409
100
AcDbEntity
  8
0
  6
Continuous
100
AcDbText
 10
-0.1532796356183921
 20
-0.1061498358372156
 30
0.0
 40
0.01
  1

  7
WD
 72
1
 11
-0.1532796356183921
 21
-0.1061498358372156
 31
0.0
100
AcDbAttributeDefinition
  3

  2
ASSYCODE
 70
9
  0
ATTDEF
  5
40E
330
409
100
AcDbEntity
  8
0
 62
7
100
AcDbText
 10
-0.125
 20
0.0
 30
0.0
 40
0.01
  1

  7
WD
100
AcDbAttributeDefinition
  3

  2
X4LINK
 70
0
  0
ATTDEF
  5
40F
330
409
100
AcDbEntity
  8
0
 62
7
100
AcDbText
 10
0.125
 20
0.0
 30
0.0
 40
0.01
  1

  7
WD
100
AcDbAttributeDefinition
  3

  2
X1LINK
 70
0
  0
ATTDEF
  5
410
330
409
100
AcDbEntity
  8
0
100
AcDbText
 10
-0.15625
 20
-0.0625
 30
0.0
 40
0.125
  1

  7
WD
 41
0.85
 72
2
 11
-0.15625
 21
-0.0625
 31
0.0
100
AcDbAttributeDefinition
  3

  2
RATING1
 70
0
  0
ATTDEF
  5
411
330
409
100
AcDbEntity
  8
0
100
AcDbText
 10
0.125
 20
-0.40625
 30
0.0
 40
0.125
  1

  7
WD
 41
0.85
100
AcDbAttributeDefinition
  3

  2
DESC2
 70
0
  0
ATTDEF
  5
412
330
409
100
AcDbEntity
  8
0
100
AcDbText
 10
0.125
 20
-0.234375
 30
0.0
 40
0.125
  1

  7
WD
 41
0.85
100
AcDbAttributeDefinition
  3

  2
DESC1
 70
0
  0
ATTDEF
  5
413
330
409
100
AcDbEntity
  8
0
100
AcDbText
 10
0.1269414379730698
 20
-0.0606249999999502
 30
0.0
 40
0.125
  1
FU
  7
WD
 41
0.85
100
AcDbAttributeDefinition
  3

  2
TAG1
 70
0
  0
ATTDEF
  5
414
330
409
100
AcDbEntity
  8
0
100
AcDbText
 10
0.125
 20
0.109375
 30
0.0
 40
0.125
  1

  7
WD
 41
0.85
100
AcDbAttributeDefinition
  3

  2
LOC
 70
0
  0
ATTDEF
  5
415
330
409
100
AcDbEntity
  8
0
  6
Continuous
100
AcDbText
 10
-0.1421169189930051
 20
-0.0881262091390027
 30
0.0
 40
0.01
  1

  7
WD
 72
2
 11
-0.1421169189930051
 21
-0.0881262091390027
 31
0.0
100
AcDbAttributeDefinition
  3

  2
MFG
 70
9
  0
ATTDEF
  5
416
330
409
100
AcDbEntity
  8
0
  6
Continuous
100
AcDbText
 10
-0.1421169189930051
 20
-0.0731262091390027
 30
0.0
 40
0.01
  1

  7
WD
 72
2
 11
-0.1421169189930051
 21
-0.0731262091390027
 31
0.0
100
AcDbAttributeDefinition
  3

  2
CAT
 70
9
  0
ATTDEF
  5
417
330
409
100
AcDbEntity
  8
0
100
AcDbText
 10
-0.1587835856596718
 20
-0.0364595424723361
 30
0.0
 40
0.01
  1
FU
  7
WD
 72
2
 11
-0.1421169189930051
 21
-0.0364595424723361
 31
0.0
100
AcDbAttributeDefinition
  3

  2
FAMILY
 70
9
  0
ATTDEF
  5
418
330
409
100
AcDbEntity
  8
0
 62
7
100
AcDbText
 10
0.0
 20
-0.15625
 30
0.0
 40
0.0125
  1

  7
WD
100
AcDbAttributeDefinition
  3

  2
X8TERM02
 70
1
  0
ATTDEF
  5
419
330
409
100
AcDbEntity
  8
0
 62
7
100
AcDbText
 10
0.0
 20
0.15625
 30
0.0
 40
0.0125
  1

  7
WD
100
AcDbAttributeDefinition
  3

  2
X2TERM01
 70
1
  0
ATTDEF
  5
41A
330
409
100
AcDbEntity
  8
0
  6
Continuous
100
AcDbText
 10
-0.0407012216079947
 20
-0.3071970306509962
 30
0.0
 40
0.125
  1

  7
WD
 41
0.85
 72
2
 11
-0.0407012216079947
 21
-0.1821970306509962
 31
0.0
100
AcDbAttributeDefinition
  3

  2
TERM02
 70
8
 74
3
  0
ATTDEF
  5
41B
330
409
100
AcDbEntity
  8
0
  6
Continuous
100
AcDbText
 10
-0.0549703791556545
 20
0.1753766160049204
 30
0.0
 40
0.125
  1

  7
WD
 41
0.85
 72
2
 11
-0.0549703791556545
 21
0.1753766160049204
 31
0.0
100
AcDbAttributeDefinition
  3

  2
TERM01
 70
8
  0
ATTDEF
  5
41C
330
409
100
AcDbEntity
  8
0
100
AcDbText
 10
-0.1421169189930052
 20
-0.153236882760555
 30
0.0
 40
0.01
  1
1-
  7
WD
 72
2
 11
-0.1287835856596718
 21
-0.153236882760555
 31
0.0
100
AcDbAttributeDefinition
  3

  2
WDTYPE
 70
9
  0
ATTDEF
  5
41D
330
409
100
AcDbEntity
  8
0
100
AcDbText
 10
0.125
 20
-0.578125
 30
0.0
 40
0.125
  1

  7
WD
 41
0.85
100
AcDbAttributeDefinition
  3

  2
DESC3
 70
0
  0
ATTDEF
  5
41E
330
409
100
AcDbEntity
  8
0
100
AcDbText
 10
-0.1287835856596718
 20
-0.168861882760555
 30
0.0
 40
0.01
  1

  7
WD
 72
2
 11
-0.1287835856596718
 21
-0.168861882760555
 31
0.0
100
AcDbAttributeDefinition
  3

  2
WDBLKNAM
 70
9
  0
LWPOLYLINE
  5
41F
330
409
100
AcDbEntity
  8
0
100
AcDbPolyline
 90
2
 70
0
 43
0.0125
 10
-0.046875
 20
-0.09375
 10
0.046875
 20
-0.09375
  0
LWPOLYLINE
  5
420
330
409
100
AcDbEntity
  8
0
100
AcDbPolyline
 90
2
 70
0
 43
0.0125
 10
-0.046875
 20
0.09375
 10
0.046875
 20
0.09375
  0
LWPOLYLINE
  5
421
330
409
100
AcDbEntity
  8
0
100
AcDbPolyline
 90
4
 70
1
 43
0.0125
 10
-0.046875
 20
0.15625
 10
-0.046875
 20
-0.15625
 10
0.046875
 20
-0.15625
 10
0.046875
 20
0.15625
  0
ENDBLK
  5
40B
330
409
100
AcDbEntity
  8
0
100
AcDbBlockEnd
  0
BLOCK
  5
423
330
422
100
AcDbEntity
  8
0
100
AcDbBlockBegin
  2
VDS11F
 70
2
 10
0.0
 20
0.0
 30
0.0
  3
VDS11F
  1

  0
LINE
  5
425
330
422
100
AcDbEntity
  8
0
100
AcDbLine
 10
-0.0651040002703667
 20
0.0
 30
0.0
 11
-0.125
 21
0.0
 31
0.0
  0
LINE
  5
426
330
422
100
AcDbEntity
  8
0
100
AcDbLine
 10
-0.0127297767816092
 20
-0.125698535724138
 30
0.0
 11
-0.1300587346467841
 21
0.1558909631522819
 31
0.0
  0
LINE
  5
427
330
422
100
AcDbEntity
  8
0
100
AcDbLine
 10
-0.0989580005407334
 20
-0.0625
 30
0.0
 11
-0.125
 21
0.0
 31
0.0
  0
CIRCLE
  5
428
330
422
100
AcDbEntity
  8
0
100
AcDbCircle
 10
0.0
 20
-0.1552882372998621
 30
0.0
 40
0.032211762700138
  0
CIRCLE
  5
429
330
422
100
AcDbEntity
  8
0
100
AcDbCircle
 10
0.0
 20
0.155288237299862
 30
0.0
 40
0.032211762700138
  0
LINE
  5
42A
330
422
100
AcDbEntity
  8
0
100
AcDbLine
 10
0.078125
 20
-0.25
 30
0.0
 11
-0.078125
 21
-0.25
 31
0.0
  0
LINE
  5
42B
330
422
100
AcDbEntity
  8
0
100
AcDbLine
 10
-0.078125
 20
-0.25
 30
0.0
 11
-0.078125
 21
-0.625
 31
0.0
  0
LINE
  5
42C
330
422
100
AcDbEntity
  8
0
100
AcDbLine
 10
-0.078125
 20
-0.625
 30
0.0
 11
0.078125
 21
-0.625
 31
0.0
  0
LINE
  5
42D
330
422
100
AcDbEntity
  8
0
100
AcDbLine
 10
0.078125
 20
-0.625
 30
0.0
 11
0.078125
 21
-0.25
 31
0.0
  0
LINE
  5
42E
330
422
100
AcDbEntity
  8
0
100
AcDbLine
 10
-0.078125
 20
-0.28125
 30
0.0
 11
0.078125
 21
-0.28125
 31
0.0
  0
LINE
  5
42F
330
422
100
AcDbEntity
  8
0
100
AcDbLine
 10
-0.078125
 20
-0.59375
 30
0.0
 11
0.078125
 21
-0.59375
 31
0.0
  0
LINE
  5
430
330
422
100
AcDbEntity
  8
0
100
AcDbLine
 10
0.0
 20
-0.1875
 30
0.0
 11
0.0
 21
-0.25
 31
0.0
  0
ATTDEF
  5
431
330
422
100
AcDbEntity
  8
0
100
AcDbText
 10
0.1269414379730698
 20
0.3902250000000498
 30
0.0
 40
0.125
  1

  7
WD
 41
0.7
100
AcDbAttributeDefinition
  3

  2
INST
 70
0
  0
ATTDEF
  5
432
330
422
100
AcDbEntity
  8
0
  6
Continuous
100
AcDbText
 10
-0.0949632851844462
 20
-0.1075179616762009
 30
0.0
 40
0.01
  1

  7
WD
 72
1
 11
-0.0949632851844462
 21
-0.1075179616762009
 31
0.0
100
AcDbAttributeDefinition
  3

  2
ASSYCODE
 70
9
  0
ATTDEF
  5
433
330
422
100
AcDbEntity
  8
0
100
AcDbText
 10
0.0
 20
-0.4375
 30
0.0
 40
0.125
  1

 50
90.0
  7
WD
 41
0.7
 72
4
 11
0.0
 21
-0.4375
 31
0.0
100
AcDbAttributeDefinition
  3

  2
RATING2
 70
0
  0
ATTDEF
  5
434
330
422
100
AcDbEntity
  8
0
 62
7
100
AcDbText
 10
-0.203125
 20
0.0
 30
0.0
 40
0.01
  1

  7
WD
100
AcDbAttributeDefinition
  3

  2
X4LINK
 70
0
  0
ATTDEF
  5
435
330
422
100
AcDbEntity
  8
0
 62
7
100
AcDbText
 10
0.0
 20
0.0
 30
0.0
 40
0.01
  1

  7
WD
100
AcDbAttributeDefinition
  3

  2
X1LINK
 70
0
  0
ATTDEF
  5
436
330
422
100
AcDbEntity
  8
0
100
AcDbText
 10
0.1287140374805342
 20
-0.3982421517458954
 30
0.0
 40
0.125
  1

  7
WD
 41
0.7
100
AcDbAttributeDefinition
  3

  2
DESC2
 70
0
  0
ATTDEF
  5
437
330
422
100
AcDbEntity
  8
0
100
AcDbText
 10
0.1287140374805342
 20
-0.241995724592341
 30
0.0
 40
0.125
  1

  7
WD
 41
0.7
100
AcDbAttributeDefinition
  3

  2
DESC1
 70
0
  0
ATTDEF
  5
438
330
422
100
AcDbEntity
  8
0
100
AcDbText
 10
0.1287140374805342
 20
-0.0900121483655863
 30
0.0
 40
0.125
  1

  7
WD
 41
0.7
100
AcDbAttributeDefinition
  3

  2
XREF
 70
0
  0
ATTDEF
  5
439
330
422
100
AcDbEntity
  8
0
100
AcDbText
 10
0.1269414379730698
 20
0.0643750000000498
 30
0.0
 40
0.125
  1
DS
  7
WD
 41
0.9
100
AcDbAttributeDefinition
  3

  2
TAG1
 70
0
  0
ATTDEF
  5
43A
330
422
100
AcDbEntity
  8
0
100
AcDbText
 10
0.1269414379730698
 20
0.2206250000000498
 30
0.0
 40
0.125
  1

  7
WD
 41
0.7
100
AcDbAttributeDefinition
  3

  2
LOC
 70
0
  0
ATTDEF
  5
43B
330
422
100
AcDbEntity
  8
0
  6
Continuous
100
AcDbText
 10
-0.0549703791556545
 20
0.2066266160049204
 30
0.0
 40
0.125
  1

  7
WD
 72
2
 11
-0.0549703791556545
 21
0.2066266160049204
 31
0.0
100
AcDbAttributeDefinition
  3

  2
TERM01
 70
8
  0
ATTDEF
  5
43C
330
422
100
AcDbEntity
  8
0
  6
Continuous
100
AcDbText
 10
-0.0407012216079946
 20
-0.7759470306509961
 30
0.0
 40
0.125
  1

  7
WD
 72
2
 11
-0.0407012216079946
 21
-0.6509470306509961
 31
0.0
100
AcDbAttributeDefinition
  3

  2
TERM02
 70
8
 74
3
  0
ATTDEF
  5
43D
330
422
100
AcDbEntity
  8
0
 62
7
100
AcDbText
 10
0.0
 20
0.1875
 30
0.0
 40
0.0125
  1

  7
WD
100
AcDbAttributeDefinition
  3

  2
X2TERM01
 70
1
  0
ATTDEF
  5
43E
330
422
100
AcDbEntity
  8
0
 62
7
100
AcDbText
 10
0.0
 20
-0.625
 30
0.0
 40
0.0125
  1

  7
WD
100
AcDbAttributeDefinition
  3

  2
X8TERM02
 70
1
  0
ATTDEF
  5
43F
330
422
100
AcDbEntity
  8
0
100
AcDbText
 10
-0.0962835856596718
 20
-0.0364595424723361
 30
0.0
 40
0.01
  1
DS
  7
WD
 72
2
 11
-0.0796169189930052
 21
-0.0364595424723361
 31
0.0
100
AcDbAttributeDefinition
  3

  2
FAMILY
 70
9
  0
ATTDEF
  5
440
330
422
100
AcDbEntity
  8
0
  6
Continuous
100
AcDbText
 10
-0.0796169189930052
 20
-0.0731262091390027
 30
0.0
 40
0.01
  1

  7
WD
 72
2
 11
-0.0796169189930052
 21
-0.0731262091390027
 31
0.0
100
AcDbAttributeDefinition
  3

  2
CAT
 70
9
  0
ATTDEF
  5
441
330
422
100
AcDbEntity
  8
0
  6
Continuous
100
AcDbText
 10
-0.0796169189930052
 20
-0.0881262091390027
 30
0.0
 40
0.01
  1

  7
WD
 72
2
 11
-0.0796169189930052
 21
-0.0881262091390027
 31
0.0
100
AcDbAttributeDefinition
  3

  2
MFG
 70
9
  0
ATTDEF
  5
442
330
422
100
AcDbEntity
  8
0
100
AcDbText
 10
-0.15625
 20
0.03125
 30
0.0
 40
0.125
  1

  7
WD
 41
0.7
 72
2
 11
-0.15625
 21
0.03125
 31
0.0
100
AcDbAttributeDefinition
  3

  2
RATING1
 70
0
  0
ATTDEF
  5
443
330
422
100
AcDbEntity
  8
0
100
AcDbText
 10
-0.0829502523263385
 20
-0.1305007943677214
 30
0.0
 40
0.01
  1
NO
  7
WD
 72
2
 11
-0.0662835856596719
 21
-0.1305007943677214
 31
0.0
100
AcDbAttributeDefinition
  3

  2
CONTACT
 70
9
  0
ENDBLK
  5
424
330
422
100
AcDbEntity
  8
0
100
AcDbBlockEnd
  0
BLOCK
  5
445
330
444
100
AcDbEntity
  8
0
100
AcDbBlockBegin
  2
HGND2
 70
2
 10
0.0
 20
0.0
 30
0.0
  3
HGND2
  1

  0
LINE
  5
447
330
444
100
AcDbEntity
  8
0
100
AcDbLine
 10
0.0
 20
0.09375
 30
0.0
 11
0.0
 21
-0.09375
 31
0.0
  0
LINE
  5
448
330
444
100
AcDbEntity
  8
0
100
AcDbLine
 10
0.046875
 20
0.0625
 30
0.0
 11
0.046875
 21
-0.0625
 31
0.0
  0
LINE
  5
449
330
444
100
AcDbEntity
  8
0
100
AcDbLine
 10
0.09375
 20
0.03125
 30
0.0
 11
0.09375
 21
-0.03125
 31
0.0
  0
ATTDEF
  5
44A
330
444
100
AcDbEntity
  8
0
100
AcDbText
 10
0.0
 20
0.0
 30
0.0
 40
0.01
  1

  7
WD
100
AcDbAttributeDefinition
  3

  2
X4TERM01
 70
1
  0
ENDBLK
  5
446
330
444
100
AcDbEntity
  8
0
100
AcDbBlockEnd
  0
BLOCK
  5
44C
330
44B
100
AcDbEntity
  8
0
100
AcDbBlockBegin
  2
VCN1PJ
 70
2
 10
0.0
 20
0.0
 30
0.0
  3
VCN1PJ
  1

  0
LINE
  5
44E
330
44B
100
AcDbEntity
  8
0
100
AcDbLine
 10
0.0
 20
-0.03125
 30
0.0
 11
-0.0625
 21
-0.125
 31
0.0
  0
LINE
  5
44F
330
44B
100
AcDbEntity
  8
0
100
AcDbLine
 10
0.0
 20
-0.03125
 30
0.0
 11
0.0625
 21
-0.125
 31
0.0
  0
LINE
  5
450
330
44B
100
AcDbEntity
  8
0
100
AcDbLine
 10
0.0
 20
0.0625
 30
0.0
 11
-0.09375
 21
-0.0625
 31
0.0
  0
LINE
  5
451
330
44B
100
AcDbEntity
  8
0
100
AcDbLine
 10
0.0
 20
0.0625
 30
0.0
 11
0.09375
 21
-0.0625
 31
0.0
  0
LINE
  5
452
330
44B
100
AcDbEntity
  8
0
100
AcDbLine
 10
0.0
 20
-0.03125
 30
0.0
 11
0.0
 21
-0.09375
 31
0.0
  0
ATTDEF
  5
453
330
44B
100
AcDbEntity
  8
0
100
AcDbText
 10
0.2291666666666667
 20
0.8498017589547741
 30
0.0
 40
0.125
  1

  7
WD
 41
0.7
 72
2
 11
0.2291666666666667
 21
0.8498017589547741
 31
0.0
100
AcDbAttributeDefinition
  3

  2
INST
 70
0
  0
ATTDEF
  5
454
330
44B
100
AcDbEntity
  8
0
100
AcDbText
 10
0.0130729268949868
 20
-0.1146401272584949
 30
0.0
 40
0.01
  1
P
  7
WD
100
AcDbAttributeDefinition
  3

  2
X8TERMDESC01
 70
1
  0
ATTDEF
  5
455
330
44B
100
AcDbEntity
  8
0
100
AcDbText
 10
0.0261458644990533
 20
0.0416098677706964
 30
0.0
 40
0.01
  1
J
  7
WD
100
AcDbAttributeDefinition
  3

  2
X2TERMDESC02
 70
1
  0
ATTDEF
  5
456
330
44B
100
AcDbEntity
  8
0
  6
Continuous
100
AcDbText
 10
-0.1090752636275756
 20
-0.0139434821641545
 30
0.0
 40
0.01
  1

  7
WD
 72
1
 11
-0.1090752636275756
 21
-0.0139434821641545
 31
0.0
100
AcDbAttributeDefinition
  3

  2
ASSYCODE
 70
9
  0
ATTDEF
  5
457
330
44B
100
AcDbEntity
  8
0
100
AcDbText
 10
-0.125
 20
-0.0625
 30
0.0
 40
0.01
  1

  7
WD
100
AcDbAttributeDefinition
  3

  2
X4LINK
 70
0
  0
ATTDEF
  5
458
330
44B
100
AcDbEntity
  8
0
100
AcDbText
 10
0.125
 20
-0.0625
 30
0.0
 40
0.01
  1

  7
WD
100
AcDbAttributeDefinition
  3

  2
X1LINK
 70
0
  0
ATTDEF
  5
459
330
44B
100
AcDbEntity
  8
0
100
AcDbText
 10
-0.0625
 20
0.6802017589547742
 30
0.0
 40
0.125
  1

  7
WD
 41
0.7
 72
2
 11
-0.0625
 21
0.6802017589547742
 31
0.0
100
AcDbAttributeDefinition
  3

  2
LOC
 70
0
  0
ATTDEF
  5
45A
330
44B
100
AcDbEntity
  8
0
  6
Continuous
100
AcDbText
 10
-0.1086068915503407
 20
3.92832228555e-05
 30
0.0
 40
0.01
  1

  7
WD
 72
1
 11
-0.1086068915503407
 21
3.92832228555e-05
 31
0.0
100
AcDbAttributeDefinition
  3

  2
MFG
 70
9
  0
ATTDEF
  5
45B
330
44B
100
AcDbEntity
  8
0
  6
Continuous
100
AcDbText
 10
-0.1066618459104218
 20
0.0194810369303064
 30
0.0
 40
0.01
  1

  7
WD
 72
1
 11
-0.1066618459104218
 21
0.0194810369303064
 31
0.0
100
AcDbAttributeDefinition
  3

  2
CAT
 70
9
  0
ATTDEF
  5
45C
330
44B
100
AcDbEntity
  8
0
100
AcDbText
 10
-0.131715111848772
 20
0.0636574527900694
 30
0.0
 40
0.01
  1
PJ
  7
WD
100
AcDbAttributeDefinition
  3

  2
FAMILY
 70
9
  0
ATTDEF
  5
45D
330
44B
100
AcDbEntity
  8
0
100
AcDbText
 10
-0.0625
 20
0.3542789046476642
 30
0.0
 40
0.125
  1

  7
WD
 41
0.7
 72
2
 11
-0.0625
 21
0.3542789046476642
 31
0.0
100
AcDbAttributeDefinition
  3

  2
DESC2
 70
0
  0
ATTDEF
  5
45E
330
44B
100
AcDbEntity
  8
0
100
AcDbText
 10
-0.0625
 20
0.5105253318012193
 30
0.0
 40
0.125
  1

  7
WD
 41
0.7
 72
2
 11
-0.0625
 21
0.5105253318012193
 31
0.0
100
AcDbAttributeDefinition
  3

  2
DESC1
 70
0
  0
ATTDEF
  5
45F
330
44B
100
AcDbEntity
  8
0
100
AcDbText
 10
-0.2708333333333334
 20
0.09375
 30
0.0
 40
0.125
  1
PJ
  7
WD
 72
2
 11
-0.0625
 21
0.09375
 31
0.0
100
AcDbAttributeDefinition
  3

  2
TAG1
 70
0
  0
ATTDEF
  5
460
330
44B
100
AcDbEntity
  8
0
  6
Continuous
100
AcDbText
 10
0.047
 20
-0.28125
 30
0.0
 40
0.125
  1
1
  7
WD
 11
0.047
 21
-0.15625
 31
0.0
100
AcDbAttributeDefinition
  3

  2
TERM01
 70
8
 74
3
  0
ATTDEF
  5
461
330
44B
100
AcDbEntity
  8
0
100
AcDbText
 10
0.0
 20
-0.09375
 30
0.0
 40
0.0125
  1

  7
WD
100
AcDbAttributeDefinition
  3

  2
X8TERM01
 70
1
  0
ATTDEF
  5
462
330
44B
100
AcDbEntity
  8
0
100
AcDbText
 10
0.0
 20
0.0625
 30
0.0
 40
0.0125
  1

  7
WD
100
AcDbAttributeDefinition
  3

  2
X2TERM02
 70
1
  0
ATTDEF
  5
463
330
44B
100
AcDbEntity
  8
0
  6
Continuous
100
AcDbText
 10
0.047
 20
0.0625
 30
0.0
 40
0.125
  1
1
  7
WD
100
AcDbAttributeDefinition
  3

  2
TERM02
 70
8
  0
ATTDEF
  5
464
330
44B
100
AcDbEntity
  8
0
100
AcDbText
 10
-0.131715111848772
 20
0.045025320458437
 30
0.0
 40
0.01
  1
VC0
  7
WD
100
AcDbAttributeDefinition
  3

  2
WDBLKNAM
 70
9
  0
ENDBLK
  5
44D
330
44B
100
AcDbEntity
  8
0
100
AcDbBlockEnd
  0
BLOCK
  5
46C
330
46B
100
AcDbEntity
  8
0
100
AcDbBlockBegin
  2
VFU1
 70
2
 10
0.0
 20
0.0
 30
0.0
  3
VFU1
  1

  0
LINE
  5
46E
330
46B
100
AcDbEntity
  8
0
100
AcDbLine
 10
0.078125
 20
-0.1875
 30
0.0
 11
-0.078125
 21
-0.1875
 31
0.0
  0
LINE
  5
46F
330
46B
100
AcDbEntity
  8
0
100
AcDbLine
 10
-0.078125
 20
-0.1875
 30
0.0
 11
-0.078125
 21
0.1875
 31
0.0
  0
LINE
  5
470
330
46B
100
AcDbEntity
  8
0
100
AcDbLine
 10
-0.078125
 20
0.1875
 30
0.0
 11
0.078125
 21
0.1875
 31
0.0
  0
LINE
  5
471
330
46B
100
AcDbEntity
  8
0
100
AcDbLine
 10
0.078125
 20
0.1875
 30
0.0
 11
0.078125
 21
-0.1875
 31
0.0
  0
LINE
  5
472
330
46B
100
AcDbEntity
  8
0
100
AcDbLine
 10
-0.078125
 20
-0.15625
 30
0.0
 11
0.078125
 21
-0.15625
 31
0.0
  0
LINE
  5
473
330
46B
100
AcDbEntity
  8
0
100
AcDbLine
 10
-0.078125
 20
0.15625
 30
0.0
 11
0.078125
 21
0.15625
 31
0.0
  0
ATTDEF
  5
474
330
46B
100
AcDbEntity
  8
0
100
AcDbText
 10
0.2812499989574033
 20
-0.3749999992913386
 30
0.0
 40
0.0625
  1

  7
WD
 41
0.7
100
AcDbAttributeDefinition
  3

  2
DESC3
 70
0
  0
ATTDEF
  5
475
330
46B
100
AcDbEntity
  8
0
100
AcDbText
 10
0.2812499989574033
 20
-0.290415342967703
 30
0.0
 40
0.0625
  1

  7
WD
 41
0.7
100
AcDbAttributeDefinition
  3

  2
DESC2
 70
0
  0
ATTDEF
  5
476
330
46B
100
AcDbEntity
  8
0
100
AcDbText
 10
0.2812499989574033
 20
-0.1962550637799636
 30
0.0
 40
0.0625
  1

  7
WD
 41
0.7
100
AcDbAttributeDefinition
  3

  2
DESC1
 70
0
  0
ATTDEF
  5
477
330
46B
100
AcDbEntity
  8
0
100
AcDbText
 10
0.28125
 20
0.162925
 30
0.0
 40
0.0625
  1

  7
WD
 41
0.7
100
AcDbAttributeDefinition
  3

  2
INST
 70
0
  0
ATTDEF
  5
478
330
46B
100
AcDbEntity
  8
0
 62
7
100
AcDbText
 10
-0.125
 20
0.0
 30
0.0
 40
0.01
  1

  7
WD
100
AcDbAttributeDefinition
  3

  2
X4LINK
 70
0
  0
ATTDEF
  5
479
330
46B
100
AcDbEntity
  8
0
 62
7
100
AcDbText
 10
0.140625
 20
0.0
 30
0.0
 40
0.01
  1

  7
WD
100
AcDbAttributeDefinition
  3

  2
X1LINK
 70
0
  0
ATTDEF
  5
47A
330
46B
100
AcDbEntity
  8
0
  6
Continuous
100
AcDbText
 10
-0.0984836324360505
 20
-0.1080596515661348
 30
0.0
 40
0.01
  1

  7
WD
 72
1
 11
-0.0984836324360505
 21
-0.1080596515661348
 31
0.0
100
AcDbAttributeDefinition
  3

  2
ASSYCODE
 70
9
  0
ATTDEF
  5
47B
330
46B
100
AcDbEntity
  8
0
100
AcDbText
 10
0.1581914379730698
 20
-0.0606249999999502
 30
0.0
 40
0.109375
  1
FU
  7
WD
 41
0.9
100
AcDbAttributeDefinition
  3

  2
TAG1
 70
0
  0
ATTDEF
  5
47C
330
46B
100
AcDbEntity
  8
0
100
AcDbText
 10
0.28125
 20
0.078125
 30
0.0
 40
0.0625
  1

  7
WD
 41
0.7
100
AcDbAttributeDefinition
  3

  2
LOC
 70
0
  0
ATTDEF
  5
47D
330
46B
100
AcDbEntity
  8
0
  6
Continuous
100
AcDbText
 10
-0.0549703791556545
 20
0.2066266160049203
 30
0.0
 40
0.0625
  1

  7
WD
 72
2
 11
-0.0549703791556545
 21
0.2066266160049203
 31
0.0
100
AcDbAttributeDefinition
  3

  2
TERM01
 70
8
  0
ATTDEF
  5
47E
330
46B
100
AcDbEntity
  8
0
  6
Continuous
100
AcDbText
 10
-0.0407012216079946
 20
-0.2759470306509962
 30
0.0
 40
0.0625
  1

  7
WD
 72
2
 11
-0.0407012216079946
 21
-0.2134470306509962
 31
0.0
100
AcDbAttributeDefinition
  3

  2
TERM02
 70
8
 74
3
  0
ATTDEF
  5
47F
330
46B
100
AcDbEntity
  8
0
 62
7
100
AcDbText
 10
0.0
 20
0.1875
 30
0.0
 40
0.0109375
  1

  7
WD
100
AcDbAttributeDefinition
  3

  2
X2TERM01
 70
1
  0
ATTDEF
  5
480
330
46B
100
AcDbEntity
  8
0
 62
7
100
AcDbText
 10
0.0
 20
-0.1875
 30
0.0
 40
0.0109375
  1

  7
WD
100
AcDbAttributeDefinition
  3

  2
X8TERM02
 70
1
  0
ATTDEF
  5
481
330
46B
100
AcDbEntity
  8
0
100
AcDbText
 10
-0.0962835856596718
 20
-0.0364595424723361
 30
0.0
 40
0.01
  1
FU
  7
WD
 72
2
 11
-0.0796169189930052
 21
-0.0364595424723361
 31
0.0
100
AcDbAttributeDefinition
  3

  2
FAMILY
 70
9
  0
ATTDEF
  5
482
330
46B
100
AcDbEntity
  8
0
  6
Continuous
100
AcDbText
 10
-0.0796169189930052
 20
-0.0731262091390027
 30
0.0
 40
0.01
  1

  7
WD
 72
2
 11
-0.0796169189930052
 21
-0.0731262091390027
 31
0.0
100
AcDbAttributeDefinition
  3

  2
CAT
 70
9
  0
ATTDEF
  5
483
330
46B
100
AcDbEntity
  8
0
  6
Continuous
100
AcDbText
 10
-0.0796169189930052
 20
-0.0881262091390027
 30
0.0
 40
0.01
  1

  7
WD
 72
2
 11
-0.0796169189930052
 21
-0.0881262091390027
 31
0.0
100
AcDbAttributeDefinition
  3

  2
MFG
 70
9
  0
ATTDEF
  5
484
330
46B
100
AcDbEntity
  8
0
100
AcDbText
 10
0.046875
 20
0.0
 30
0.0
 40
0.09375
  1

 50
90.0
  7
WD
 41
0.7
 72
1
 11
0.0
 21
0.0
 31
0.0
100
AcDbAttributeDefinition
  3

  2
RATING1
 70
0
 74
2
  0
ENDBLK
  5
46D
330
46B
100
AcDbEntity
  8
0
100
AcDbBlockEnd
  0
BLOCK
  5
486
330
485
100
AcDbEntity
  8
0
100
AcDbBlockBegin
  2
HFU1
 70
2
 10
0.0
 20
0.0
 30
0.0
  3
HFU1
  1

  0
LINE
  5
488
330
485
100
AcDbEntity
  8
0
100
AcDbLine
 10
-0.1875
 20
-0.078125
 30
0.0
 11
-0.1875
 21
0.078125
 31
0.0
  0
LINE
  5
489
330
485
100
AcDbEntity
  8
0
100
AcDbLine
 10
-0.1875
 20
0.078125
 30
0.0
 11
0.1875
 21
0.078125
 31
0.0
  0
LINE
  5
48A
330
485
100
AcDbEntity
  8
0
100
AcDbLine
 10
0.1875
 20
0.078125
 30
0.0
 11
0.1875
 21
-0.078125
 31
0.0
  0
LINE
  5
48B
330
485
100
AcDbEntity
  8
0
100
AcDbLine
 10
0.1875
 20
-0.078125
 30
0.0
 11
-0.1875
 21
-0.078125
 31
0.0
  0
LINE
  5
48C
330
485
100
AcDbEntity
  8
0
100
AcDbLine
 10
-0.15625
 20
0.078125
 30
0.0
 11
-0.15625
 21
-0.078125
 31
0.0
  0
LINE
  5
48D
330
485
100
AcDbEntity
  8
0
100
AcDbLine
 10
0.15625
 20
0.078125
 30
0.0
 11
0.15625
 21
-0.078125
 31
0.0
  0
ATTDEF
  5
48E
330
485
100
AcDbEntity
  8
0
100
AcDbText
 10
0.0083333331736872
 20
-0.2275050648071837
 30
0.0
 40
0.0625
  1

  7
WD
 41
0.7
 72
1
 11
0.0083333331736872
 21
-0.2275050648071837
 31
0.0
100
AcDbAttributeDefinition
  3

  2
DESC1
 70
0
  0
ATTDEF
  5
48F
330
485
100
AcDbEntity
  8
0
100
AcDbText
 10
0.0083333331736872
 20
-0.3216653439949231
 30
0.0
 40
0.0625
  1

  7
WD
 41
0.7
 72
1
 11
0.0083333331736872
 21
-0.3216653439949231
 31
0.0
100
AcDbAttributeDefinition
  3

  2
DESC2
 70
0
  0
ATTDEF
  5
490
330
485
100
AcDbEntity
  8
0
100
AcDbText
 10
0.0083333331736872
 20
-0.4062500003185587
 30
0.0
 40
0.0625
  1

  7
WD
 41
0.7
 72
1
 11
0.0083333331736872
 21
-0.4062500003185587
 31
0.0
100
AcDbAttributeDefinition
  3

  2
DESC3
 70
0
  0
ATTDEF
  5
491
330
485
100
AcDbEntity
  8
0
100
AcDbText
 10
0.0
 20
0.36605
 30
0.0
 40
0.0625
  1

  7
WD
 41
0.7
 72
1
 11
0.0
 21
0.36605
 31
0.0
100
AcDbAttributeDefinition
  3

  2
INST
 70
0
  0
ATTDEF
  5
492
330
485
100
AcDbEntity
  8
0
100
AcDbText
 10
0.0
 20
0.109375
 30
0.0
 40
0.01
  1

  7
WD
100
AcDbAttributeDefinition
  3

  2
X2LINK
 70
0
  0
ATTDEF
  5
493
330
485
100
AcDbEntity
  8
0
100
AcDbText
 10
0.0
 20
-0.109375
 30
0.0
 40
0.01
  1

  7
WD
100
AcDbAttributeDefinition
  3

  2
X8LINK
 70
0
  0
ATTDEF
  5
494
330
485
100
AcDbEntity
  8
0
  6
Continuous
100
AcDbText
 10
0.1568995424030899
 20
0.250864915199555
 30
0.0
 40
0.01
  1

  7
WD
 72
1
 11
0.1568995424030899
 21
0.250864915199555
 31
0.0
100
AcDbAttributeDefinition
  3

  2
ASSYCODE
 70
9
  0
ATTDEF
  5
495
330
485
100
AcDbEntity
  8
0
100
AcDbText
 10
0.0
 20
-0.046875
 30
0.0
 40
0.09375
  1

  7
WD
 41
0.7
 72
1
 11
0.0
 21
0.0
 31
0.0
100
AcDbAttributeDefinition
  3

  2
RATING1
 70
0
 74
2
  0
ATTDEF
  5
496
330
485
100
AcDbEntity
  8
0
100
AcDbText
 10
0.0
 20
0.28125
 30
0.0
 40
0.0625
  1

  7
WD
 41
0.7
 72
1
 11
0.0
 21
0.28125
 31
0.0
100
AcDbAttributeDefinition
  3

  2
LOC
 70
0
  0
ATTDEF
  5
497
330
485
100
AcDbEntity
  8
0
100
AcDbText
 10
0.1875
 20
0.0
 30
0.0
 40
0.0109375
  1

  7
WD
100
AcDbAttributeDefinition
  3

  2
X1TERM02
 70
1
  0
ATTDEF
  5
498
330
485
100
AcDbEntity
  8
0
  6
Continuous
100
AcDbText
 10
0.25
 20
-0.0782500000000001
 30
0.0
 40
0.0625
  1

  7
WD
 11
0.25
 21
-0.0157500000000001
 31
0.0
100
AcDbAttributeDefinition
  3

  2
TERM02
 70
8
 74
3
  0
ATTDEF
  5
499
330
485
100
AcDbEntity
  8
0
100
AcDbText
 10
-0.1875
 20
0.0
 30
0.0
 40
0.0109375
  1

  7
WD
100
AcDbAttributeDefinition
  3

  2
X4TERM01
 70
1
  0
ATTDEF
  5
49A
330
485
100
AcDbEntity
  8
0
  6
Continuous
100
AcDbText
 10
-0.25
 20
-0.0782500000000001
 30
0.0
 40
0.0625
  1

  7
WD
 72
2
 11
-0.25
 21
-0.0157500000000001
 31
0.0
100
AcDbAttributeDefinition
  3

  2
TERM01
 70
8
 74
3
  0
ATTDEF
  5
49B
330
485
100
AcDbEntity
  8
0
  6
Continuous
100
AcDbText
 10
0.1563915552533349
 20
0.0827268551461195
 30
0.0
 40
0.01
  1

  7
WD
 72
1
 11
0.1563915552533349
 21
0.0827268551461195
 31
0.0
100
AcDbAttributeDefinition
  3

  2
MFG
 70
9
  0
ATTDEF
  5
49C
330
485
100
AcDbEntity
  8
0
  6
Continuous
100
AcDbText
 10
0.1563915552533349
 20
0.1022493477050739
 30
0.0
 40
0.01
  1

  7
WD
 72
1
 11
0.1563915552533349
 21
0.1022493477050739
 31
0.0
100
AcDbAttributeDefinition
  3

  2
CAT
 70
9
  0
ATTDEF
  5
49D
330
485
100
AcDbEntity
  8
0
100
AcDbText
 10
0.129231561178928
 20
0.1076371251936318
 30
0.0
 40
0.01
  1
FU
  7
WD
100
AcDbAttributeDefinition
  3

  2
FAMILY
 70
9
  0
ATTDEF
  5
49E
330
485
100
AcDbEntity
  8
0
100
AcDbText
 10
-0.0911458333333333
 20
0.125
 30
0.0
 40
0.109375
  1
FU
  7
WD
 72
1
 11
0.0
 21
0.125
 31
0.0
100
AcDbAttributeDefinition
  3

  2
TAG1
 70
0
  0
ENDBLK
  5
487
330
485
100
AcDbEntity
  8
0
100
AcDbBlockEnd
  0
BLOCK
  5
526
330
525
100
AcDbEntity
  8
0
100
AcDbBlockBegin
  2
VXF1CT
 70
2
 10
0.0
 20
0.0
 30
0.0
  3
VXF1CT
  1

  0
ARC
  5
528
330
525
100
AcDbEntity
  8
0
100
AcDbCircle
 10
-0.34375
 20
-0.125
 30
0.0
 40
0.125
100
AcDbArc
 50
90.0
 51
270.0
  0
ARC
  5
529
330
525
100
AcDbEntity
  8
0
100
AcDbCircle
 10
-0.34375
 20
0.125
 30
0.0
 40
0.125
100
AcDbArc
 50
90.0
 51
270.0
  0
LINE
  5
52A
330
525
100
AcDbEntity
  8
0
100
AcDbLine
 10
-0.34375
 20
0.0
 30
0.0
 11
-0.28125
 21
0.0
 31
0.0
  0
LINE
  5
52B
330
525
100
AcDbEntity
  8
0
100
AcDbLine
 10
-0.34375
 20
-0.25
 30
0.0
 11
-0.0321974015839574
 21
-0.25
 31
0.0
  0
LINE
  5
52C
330
525
100
AcDbEntity
  8
0
100
AcDbLine
 10
-0.34375
 20
0.25
 30
0.0
 11
-0.0321974015839574
 21
0.25
 31
0.0
  0
CIRCLE
  5
52D
330
525
100
AcDbEntity
  8
0
100
AcDbCircle
 10
0.0
 20
0.2490382372998621
 30
0.0
 40
0.032211762700138
  0
CIRCLE
  5
52E
330
525
100
AcDbEntity
  8
0
100
AcDbCircle
 10
0.0
 20
-0.2490382372998621
 30
0.0
 40
0.032211762700138
  0
ATTDEF
  5
52F
330
525
100
AcDbEntity
  8
0
100
AcDbText
 10
-0.2270833333333333
 20
-0.421875
 30
0.0
 40
0.125
  1

  7
WD
 41
0.7
 72
1
 11
-0.2270833333333333
 21
-0.421875
 31
0.0
100
AcDbAttributeDefinition
  3

  2
INST
 70
0
  0
ATTDEF
  5
530
330
525
100
AcDbEntity
  8
0
100
AcDbText
 10
0.0
 20
-0.2831735254002758
 30
0.0
 40
0.0125
  1

  7
WD
100
AcDbAttributeDefinition
  3

  2
X8TERM01
 70
1
  0
ATTDEF
  5
531
330
525
100
AcDbEntity
  8
0
100
AcDbText
 10
0.0322117627001379
 20
-0.2509617627001379
 30
0.0
 40
0.0125
  1

  7
WD
100
AcDbAttributeDefinition
  3

  2
X1TERM01
 70
1
  0
ATTDEF
  5
532
330
525
100
AcDbEntity
  8
0
  6
Continuous
100
AcDbText
 10
-0.0549378303809576
 20
-0.2305439677362169
 30
0.0
 40
0.125
  1

  7
WD
 72
2
 11
-0.0549378303809576
 21
-0.2305439677362169
 31
0.0
100
AcDbAttributeDefinition
  3

  2
TERM01
 70
8
  0
ATTDEF
  5
533
330
525
100
AcDbEntity
  8
0
  6
Continuous
100
AcDbText
 10
-0.0449930830489329
 20
0.2669657848838338
 30
0.0
 40
0.125
  1

  7
WD
 72
2
 11
-0.0449930830489329
 21
0.2669657848838338
 31
0.0
100
AcDbAttributeDefinition
  3

  2
TERM02
 70
8
  0
ATTDEF
  5
534
330
525
100
AcDbEntity
  8
0
100
AcDbText
 10
0.0322117627001379
 20
0.2490382372998621
 30
0.0
 40
0.0125
  1

  7
WD
100
AcDbAttributeDefinition
  3

  2
X1TERM02
 70
1
  0
ATTDEF
  5
535
330
525
100
AcDbEntity
  8
0
100
AcDbText
 10
0.0
 20
0.28125
 30
0.0
 40
0.0125
  1

  7
WD
100
AcDbAttributeDefinition
  3

  2
X2TERM02
 70
1
  0
ATTDEF
  5
536
330
525
100
AcDbEntity
  8
0
100
AcDbText
 10
0.28125
 20
-0.125
 30
0.0
 40
0.125
  1

  7
WD
 41
0.7
100
AcDbAttributeDefinition
  3

  2
RATING1
 70
0
  0
ATTDEF
  5
537
330
525
100
AcDbEntity
  8
0
100
AcDbText
 10
0.28125
 20
0.03125
 30
0.0
 40
0.125
  1
CT
  7
WD
100
AcDbAttributeDefinition
  3

  2
TAG1
 70
0
  0
ATTDEF
  5
538
330
525
100
AcDbEntity
  8
0
100
AcDbText
 10
-0.200529377727209
 20
-0.7572946681987807
 30
0.0
 40
0.125
  1

  7
WD
 41
0.7
 72
1
 11
-0.200529377727209
 21
-0.7572946681987807
 31
0.0
100
AcDbAttributeDefinition
  3

  2
DESC1
 70
0
  0
ATTDEF
  5
539
330
525
100
AcDbEntity
  8
0
100
AcDbText
 10
-0.200529377727209
 20
-0.9135410953523359
 30
0.0
 40
0.125
  1

  7
WD
 41
0.7
 72
1
 11
-0.200529377727209
 21
-0.9135410953523359
 31
0.0
100
AcDbAttributeDefinition
  3

  2
DESC2
 70
0
  0
ATTDEF
  5
53A
330
525
100
AcDbEntity
  8
0
100
AcDbText
 10
-0.200529377727209
 20
-0.6010482410452259
 30
0.0
 40
0.125
  1

  7
WD
 41
0.7
 72
1
 11
-0.200529377727209
 21
-0.6010482410452259
 31
0.0
100
AcDbAttributeDefinition
  3

  2
LOC
 70
0
  0
ATTDEF
  5
53B
330
525
100
AcDbEntity
  8
0
  6
Continuous
100
AcDbText
 10
-0.1709301751010279
 20
0.1189553503863717
 30
0.0
 40
0.01
  1

  7
WD
 72
1
 11
-0.1709301751010279
 21
0.1189553503863717
 31
0.0
100
AcDbAttributeDefinition
  3

  2
ASSYCODE
 70
9
  0
ATTDEF
  5
53C
330
525
100
AcDbEntity
  8
0
100
AcDbText
 10
-0.1927083333333333
 20
-0.046875
 30
0.0
 40
0.125
  1
C.T.
  7
WD
 72
1
 11
-0.046875
 21
-0.046875
 31
0.0
100
AcDbAttributeDefinition
  3

  2
TYPE
 70
0
  0
ATTDEF
  5
53D
330
525
100
AcDbEntity
  8
0
100
AcDbText
 10
-0.1958072240996325
 20
0.1906902937183689
 30
0.0
 40
0.01
  1
CT
  7
WD
100
AcDbAttributeDefinition
  3

  2
FAMILY
 70
9
  0
ATTDEF
  5
53E
330
525
100
AcDbEntity
  8
0
  6
Continuous
100
AcDbText
 10
-0.1707539581612827
 20
0.1621388778586058
 30
0.0
 40
0.01
  1

  7
WD
 72
1
 11
-0.1707539581612827
 21
0.1621388778586058
 31
0.0
100
AcDbAttributeDefinition
  3

  2
CAT
 70
9
  0
ATTDEF
  5
53F
330
525
100
AcDbEntity
  8
0
  6
Continuous
100
AcDbText
 10
-0.1726990038012013
 20
0.1426971241511551
 30
0.0
 40
0.01
  1

  7
WD
 72
1
 11
-0.1726990038012013
 21
0.1426971241511551
 31
0.0
100
AcDbAttributeDefinition
  3

  2
MFG
 70
9
  0
ENDBLK
  5
527
330
525
100
AcDbEntity
  8
0
100
AcDbBlockEnd
  0
BLOCK
  5
541
330
540
100
AcDbEntity
  8
0
100
AcDbBlockBegin
  2
WDDOT
 70
0
 10
0.0
 20
0.0
 30
0.0
  3
WDDOT
  1

  0
CIRCLE
  5
543
330
540
100
AcDbEntity
  8
0
100
AcDbCircle
 10
0.0
 20
0.0
 30
0.0
 40
0.0300000000000003
  0
CIRCLE
  5
544
330
540
100
AcDbEntity
  8
0
100
AcDbCircle
 10
0.0
 20
0.0
 30
0.0
 40
0.0187012496499282
  0
CIRCLE
  5
545
330
540
100
AcDbEntity
  8
0
100
AcDbCircle
 10
0.0
 20
0.0
 30
0.0
 40
0.0092948236686489
  0
ENDBLK
  5
542
330
540
100
AcDbEntity
  8
0
100
AcDbBlockEnd
  0
BLOCK
  5
547
330
546
100
AcDbEntity
  8
0
100
AcDbBlockBegin
  2
VC01PJ_1-
 70
2
 10
0.0
 20
0.0
 30
0.0
  3
VC01PJ_1-
  1

  0
ATTDEF
  5
549
330
546
100
AcDbEntity
  8
0
100
AcDbText
 10
0.0130729268949868
 20
-0.1146401272584949
 30
0.0
 40
0.01
  1
P
  7
WD
100
AcDbAttributeDefinition
  3

  2
X8TERMDESC02
 70
1
  0
ATTDEF
  5
54A
330
546
100
AcDbEntity
  8
0
100
AcDbText
 10
0.0261458644990533
 20
0.0416098677706964
 30
0.0
 40
0.01
  1
J
  7
WD
100
AcDbAttributeDefinition
  3

  2
X2TERMDESC01
 70
1
  0
ATTDEF
  5
54B
330
546
100
AcDbEntity
  8
0
  6
Continuous
100
AcDbText
 10
-0.1090752636275756
 20
-0.0139434821641545
 30
0.0
 40
0.01
  1

  7
WD
 72
1
 11
-0.1090752636275756
 21
-0.0139434821641545
 31
0.0
100
AcDbAttributeDefinition
  3

  2
ASSYCODE
 70
9
  0
ATTDEF
  5
54C
330
546
100
AcDbEntity
  8
0
100
AcDbText
 10
-0.125
 20
-0.0625
 30
0.0
 40
0.01
  1

  7
WD
100
AcDbAttributeDefinition
  3

  2
X4LINK
 70
0
  0
ATTDEF
  5
54D
330
546
100
AcDbEntity
  8
0
100
AcDbText
 10
0.125
 20
-0.0625
 30
0.0
 40
0.01
  1

  7
WD
100
AcDbAttributeDefinition
  3

  2
X1LINK
 70
0
  0
ATTDEF
  5
54E
330
546
100
AcDbEntity
  8
0
  6
Continuous
100
AcDbText
 10
-0.1086068915503407
 20
3.92832228555e-05
 30
0.0
 40
0.01
  1

  7
WD
 72
1
 11
-0.1086068915503407
 21
3.92832228555e-05
 31
0.0
100
AcDbAttributeDefinition
  3

  2
MFG
 70
9
  0
ATTDEF
  5
54F
330
546
100
AcDbEntity
  8
0
  6
Continuous
100
AcDbText
 10
-0.1066618459104218
 20
0.0194810369303064
 30
0.0
 40
0.01
  1

  7
WD
 72
1
 11
-0.1066618459104218
 21
0.0194810369303064
 31
0.0
100
AcDbAttributeDefinition
  3

  2
CAT
 70
9
  0
ATTDEF
  5
550
330
546
100
AcDbEntity
  8
0
100
AcDbText
 10
-0.131715111848772
 20
0.0636574527900694
 30
0.0
 40
0.01
  1
PJ
  7
WD
100
AcDbAttributeDefinition
  3

  2
FAMILY
 70
9
  0
ATTDEF
  5
551
330
546
100
AcDbEntity
  8
0
100
AcDbText
 10
0.0
 20
-0.09375
 30
0.0
 40
0.0125
  1

  7
WD
100
AcDbAttributeDefinition
  3

  2
X8TERM02
 70
1
  0
ATTDEF
  5
552
330
546
100
AcDbEntity
  8
0
100
AcDbText
 10
0.0
 20
0.0625
 30
0.0
 40
0.0125
  1

  7
WD
100
AcDbAttributeDefinition
  3

  2
X2TERM01
 70
1
  0
ATTDEF
  5
553
330
546
100
AcDbEntity
  8
0
100
AcDbText
 10
0.21875
 20
-0.609375
 30
0.0
 40
0.125
  1

  7
WD
 41
0.85
100
AcDbAttributeDefinition
  3

  2
DESC3
 70
0
  0
ATTDEF
  5
554
330
546
100
AcDbEntity
  8
0
100
AcDbText
 10
0.21875
 20
0.078125
 30
0.0
 40
0.125
  1

  7
WD
 41
0.85
100
AcDbAttributeDefinition
  3

  2
LOC
 70
0
  0
ATTDEF
  5
555
330
546
100
AcDbEntity
  8
0
100
AcDbText
 10
0.2206914379730698
 20
-0.0918749999999502
 30
0.0
 40
0.125
  1
PJ
  7
WD
 41
0.85
100
AcDbAttributeDefinition
  3

  2
TAG1
 70
0
  0
ATTDEF
  5
556
330
546
100
AcDbEntity
  8
0
100
AcDbText
 10
0.21875
 20
-0.265625
 30
0.0
 40
0.125
  1

  7
WD
 41
0.85
100
AcDbAttributeDefinition
  3

  2
DESC1
 70
0
  0
ATTDEF
  5
557
330
546
100
AcDbEntity
  8
0
100
AcDbText
 10
0.21875
 20
-0.4375
 30
0.0
 40
0.125
  1

  7
WD
 41
0.85
100
AcDbAttributeDefinition
  3

  2
DESC2
 70
0
  0
ATTDEF
  5
558
330
546
100
AcDbEntity
  8
0
100
AcDbText
 10
0.21875
 20
0.25
 30
0.0
 40
0.125
  1

  7
WD
 41
0.85
100
AcDbAttributeDefinition
  3

  2
INST
 70
0
  0
ATTDEF
  5
559
330
546
100
AcDbEntity
  8
0
  6
Continuous
100
AcDbText
 10
-0.0407012216079945
 20
-0.2759470306509962
 30
0.0
 40
0.125
  1

  7
WD
 41
0.85
 72
2
 11
-0.0407012216079945
 21
-0.1509470306509962
 31
0.0
100
AcDbAttributeDefinition
  3

  2
TERM02
 70
8
 74
3
  0
ATTDEF
  5
55A
330
546
100
AcDbEntity
  8
0
  6
Continuous
100
AcDbText
 10
-0.0549703791556544
 20
0.1128766160049204
 30
0.0
 40
0.125
  1

  7
WD
 41
0.85
 72
2
 11
-0.0549703791556544
 21
0.1128766160049204
 31
0.0
100
AcDbAttributeDefinition
  3

  2
TERM01
 70
8
  0
ATTDEF
  5
55B
330
546
100
AcDbEntity
  8
0
100
AcDbText
 10
-0.1600335856596717
 20
-0.1063618827605547
 30
0.0
 40
0.01
  1

  7
WD
 72
2
 11
-0.1600335856596717
 21
-0.1063618827605547
 31
0.0
100
AcDbAttributeDefinition
  3

  2
WDBLKNAM
 70
9
  0
LWPOLYLINE
  5
55C
330
546
100
AcDbEntity
  8
0
100
AcDbPolyline
 90
3
 70
0
 10
-0.09375
 20
-0.0625
 40
0.0125
 41
0.0125
 10
0.0
 20
0.0625
 40
0.0125
 41
0.0125
 10
0.09375
 20
-0.0625
  0
LWPOLYLINE
  5
55D
330
546
100
AcDbEntity
  8
0
100
AcDbPolyline
 90
3
 70
0
 10
0.0625
 20
-0.125
 40
0.0125
 41
0.0125
 10
0.0
 20
-0.03125
 40
0.0125
 41
0.0125
 10
-0.0625
 20
-0.125
  0
LINE
  5
55E
330
546
100
AcDbEntity
  8
0
100
AcDbLine
 10
0.0
 20
-0.03125
 30
0.0
 11
0.0
 21
-0.09375
 31
0.0
  0
ATTDEF
  5
55F
330
546
100
AcDbEntity
  8
0
 62
7
100
AcDbText
 10
-0.237499341561711
 20
-0.0806278043842039
 30
0.0
 40
0.01
  1
1-
  7
WD
100
AcDbAttributeDefinition
  3

  2
WDTYPE
 70
1
  0
ENDBLK
  5
548
330
546
100
AcDbEntity
  8
0
100
AcDbBlockEnd
  0
BLOCK
  5
561
330
560
100
AcDbEntity
  8
0
100
AcDbBlockBegin
  2
HC01PJ_1-
 70
2
 10
0.0
 20
0.0
 30
0.0
  3
HC01PJ_1-
  1

  0
ATTDEF
  5
563
330
560
100
AcDbEntity
  8
0
  6
Continuous
100
AcDbText
 10
0.21875
 20
0.0625
 30
0.0
 40
0.01
  1

  7
WD
 72
1
 11
0.21875
 21
0.0625
 31
0.0
100
AcDbAttributeDefinition
  3

  2
ASSYCODE
 70
9
  0
ATTDEF
  5
564
330
560
100
AcDbEntity
  8
0
100
AcDbText
 10
0.0
 20
0.09375
 30
0.0
 40
0.01
  1

  7
WD
100
AcDbAttributeDefinition
  3

  2
X2LINK
 70
0
  0
ATTDEF
  5
565
330
560
100
AcDbEntity
  8
0
100
AcDbText
 10
0.0
 20
-0.09375
 30
0.0
 40
0.01
  1

  7
WD
100
AcDbAttributeDefinition
  3

  2
X8LINK
 70
0
  0
ATTDEF
  5
566
330
560
100
AcDbEntity
  8
0
  6
Continuous
100
AcDbText
 10
0.227797819576856
 20
0.0887266596591497
 30
0.0
 40
0.01
  1

  7
WD
 72
1
 11
0.227797819576856
 21
0.0887266596591497
 31
0.0
100
AcDbAttributeDefinition
  3

  2
MFG
 70
9
  0
ATTDEF
  5
567
330
560
100
AcDbEntity
  8
0
  6
Continuous
100
AcDbText
 10
0.2297428652167746
 20
0.1081684133666007
 30
0.0
 40
0.01
  1

  7
WD
 72
1
 11
0.2297428652167746
 21
0.1081684133666007
 31
0.0
100
AcDbAttributeDefinition
  3

  2
CAT
 70
9
  0
ATTDEF
  5
568
330
560
100
AcDbEntity
  8
0
100
AcDbText
 10
0.2062459949469165
 20
0.130565050798622
 30
0.0
 40
0.01
  1
PJ
  7
WD
100
AcDbAttributeDefinition
  3

  2
FAMILY
 70
9
  0
ATTDEF
  5
569
330
560
100
AcDbEntity
  8
0
100
AcDbText
 10
-0.2342613780164025
 20
0.0747558932534971
 30
0.0
 40
0.01
  1
1-
  7
WD
 72
2
 11
-0.2209280446830691
 21
0.0747558932534971
 31
0.0
100
AcDbAttributeDefinition
  3

  2
WDTYPE
 70
9
  0
ATTDEF
  5
56A
330
560
100
AcDbEntity
  8
0
100
AcDbText
 10
-0.0123581012365755
 20
0.4668750014890417
 30
0.0
 40
0.125
  1

  7
WD
 41
0.85
 72
1
 11
-0.0123581012365755
 21
0.4668750014890417
 31
0.0
100
AcDbAttributeDefinition
  3

  2
INST
 70
0
  0
ATTDEF
  5
56B
330
560
100
AcDbEntity
  8
0
100
AcDbText
 10
-0.0989583299301723
 20
0.1250000014890915
 30
0.0
 40
0.125
  1
PJ
  7
WD
 41
0.85
 72
1
 11
-0.0104166632635057
 21
0.1250000014890915
 31
0.0
100
AcDbAttributeDefinition
  3

  2
TAG1
 70
0
  0
ATTDEF
  5
56C
330
560
100
AcDbEntity
  8
0
100
AcDbText
 10
-0.0123581012365755
 20
0.2950000014890417
 30
0.0
 40
0.125
  1

  7
WD
 41
0.85
 72
1
 11
-0.0123581012365755
 21
0.2950000014890417
 31
0.0
100
AcDbAttributeDefinition
  3

  2
LOC
 70
0
  0
ATTDEF
  5
56D
330
560
100
AcDbEntity
  8
0
100
AcDbText
 10
-0.0104166632635057
 20
-0.5156249985109085
 30
0.0
 40
0.125
  1

  7
WD
 41
0.85
 72
1
 11
-0.0104166632635057
 21
-0.5156249985109085
 31
0.0
100
AcDbAttributeDefinition
  3

  2
DESC2
 70
0
  0
ATTDEF
  5
56E
330
560
100
AcDbEntity
  8
0
100
AcDbText
 10
-0.0104166632635057
 20
-0.3437499985109085
 30
0.0
 40
0.125
  1

  7
WD
 41
0.85
 72
1
 11
-0.0104166632635057
 21
-0.3437499985109085
 31
0.0
100
AcDbAttributeDefinition
  3

  2
DESC1
 70
0
  0
ATTDEF
  5
56F
330
560
100
AcDbEntity
  8
0
100
AcDbText
 10
-0.0104166632635057
 20
-0.6874999985109085
 30
0.0
 40
0.125
  1

  7
WD
 41
0.85
 72
1
 11
-0.0104166632635057
 21
-0.6874999985109085
 31
0.0
100
AcDbAttributeDefinition
  3

  2
DESC3
 70
0
  0
ATTDEF
  5
570
330
560
100
AcDbEntity
  8
0
 62
7
100
AcDbText
 10
0.09375
 20
0.0
 30
0.0
 40
0.0125
  1

  7
WD
100
AcDbAttributeDefinition
  3

  2
X1TERM02
 70
1
  0
ATTDEF
  5
571
330
560
100
AcDbEntity
  8
0
 62
7
100
AcDbText
 10
-0.0625
 20
0.0
 30
0.0
 40
0.0125
  1

  7
WD
100
AcDbAttributeDefinition
  3

  2
X4TERM01
 70
1
  0
ATTDEF
  5
572
330
560
100
AcDbEntity
  8
0
  6
Continuous
100
AcDbText
 10
0.1458333367364943
 20
-0.1563749985109085
 30
0.0
 40
0.125
  1

  7
WD
 11
0.1458333367364943
 21
-0.0313749985109085
 31
0.0
100
AcDbAttributeDefinition
  3

  2
TERM02
 70
8
 74
3
  0
ATTDEF
  5
573
330
560
100
AcDbEntity
  8
0
  6
Continuous
100
AcDbText
 10
-0.1041666632635057
 20
-0.1563749985109085
 30
0.0
 40
0.125
  1

  7
WD
 72
2
 11
-0.1041666632635056
 21
-0.0313749985109085
 31
0.0
100
AcDbAttributeDefinition
  3

  2
TERM01
 70
8
 74
3
  0
ATTDEF
  5
574
330
560
100
AcDbEntity
  8
0
100
AcDbText
 10
-0.09375
 20
0.03125
 30
0.0
 40
0.01
  1
J
  7
WD
100
AcDbAttributeDefinition
  3

  2
X4TERMDESC01
 70
1
  0
ATTDEF
  5
575
330
560
100
AcDbEntity
  8
0
100
AcDbText
 10
0.125
 20
0.03125
 30
0.0
 40
0.01
  1
P
  7
WD
100
AcDbAttributeDefinition
  3

  2
X1TERMDESC02
 70
1
  0
LWPOLYLINE
  5
576
330
560
100
AcDbEntity
  8
0
100
AcDbPolyline
 90
3
 70
0
 10
0.0625
 20
-0.09375
 40
0.0125
 41
0.0125
 10
-0.0625
 20
0.0
 40
0.0125
 41
0.0125
 10
0.0625
 20
0.09375
  0
LWPOLYLINE
  5
577
330
560
100
AcDbEntity
  8
0
100
AcDbPolyline
 90
3
 70
0
 10
0.125
 20
0.0625
 40
0.0125
 41
0.0125
 10
0.03125
 20
0.0
 40
0.0125
 41
0.0125
 10
0.125
 20
-0.0625
  0
LINE
  5
578
330
560
100
AcDbEntity
  8
0
100
AcDbLine
 10
0.03125
 20
0.0
 30
0.0
 11
0.09375
 21
0.0
 31
0.0
  0
ENDBLK
  5
562
330
560
100
AcDbEntity
  8
0
100
AcDbBlockEnd
  0
BLOCK
  5
57A
330
579
100
AcDbEntity
  8
0
100
AcDbBlockBegin
  2
1LCT1A
 70
0
 10
0.0
 20
0.0
 30
0.0
  3
1LCT1A
  1

  0
LINE
  5
57C
330
579
100
AcDbEntity
  8
OBJ
100
AcDbLine
 10
-0.0625
 20
0.323320678844766
 30
0.0
 11
0.3125
 21
0.323320678844766
 31
0.0
  0
SOLID
  5
57D
330
579
100
AcDbEntity
  8
OBJ
100
AcDbTrace
 10
0.09375
 20
0.042070678844766
 30
0.0
 11
0.09375
 21
0.104570678844766
 31
0.0
 12
0.15625
 22
0.042070678844766
 32
0.0
 13
0.15625
 23
0.104570678844766
 33
0.0
  0
LINE
  5
57E
330
579
100
AcDbEntity
  8
OBJ
100
AcDbLine
 10
-0.0625
 20
0.0746913957737903
 30
0.0
 11
0.3125
 21
0.0746913957737903
 31
0.0
  0
ARC
  5
57F
330
579
100
AcDbEntity
  8
OBJ
100
AcDbCircle
 10
-0.0625
 20
0.260820678844766
 30
0.0
 40
0.0625
100
AcDbArc
 50
90.0
 51
270.0
  0
LINE
  5
580
330
579
100
AcDbEntity
  8
OBJ
100
AcDbLine
 10
-0.0625
 20
0.198320678844766
 30
0.0
 11
0.0625
 21
0.198320678844766
 31
0.0
  0
SOLID
  5
581
330
579
100
AcDbEntity
  8
OBJ
100
AcDbTrace
 10
-0.03125
 20
-0.03125
 30
0.0
 11
-0.03125
 21
0.03125
 31
0.0
 12
0.03125
 22
-0.03125
 32
0.0
 13
0.03125
 23
0.03125
 33
0.0
  0
ARC
  5
582
330
579
100
AcDbEntity
  8
OBJ
100
AcDbCircle
 10
-0.0631816007347155
 20
0.1365060373092781
 30
0.0
 40
0.0618183992652869
100
AcDbArc
 50
89.3682522162987
 51
270.6317477837013
  0
ENDBLK
  5
57B
330
579
100
AcDbEntity
  8
0
100
AcDbBlockEnd
  0
BLOCK
  5
584
330
583
100
AcDbEntity
  8
0
100
AcDbBlockBegin
  2
CSHEXA
 70
0
 10
0.0
 20
0.0
 30
0.0
  3
CSHEXA
  1

  0
LINE
  5
586
330
583
100
AcDbEntity
  8
0
100
AcDbLine
 10
0.071875
 20
0.124491151794013
 30
0.0
 11
-0.071875
 21
0.1244911517940131
 31
0.0
  0
LINE
  5
587
330
583
100
AcDbEntity
  8
0
100
AcDbLine
 10
0.14375
 20
0.0
 30
0.0
 11
0.071875
 21
0.124491151794013
 31
0.0
  0
LINE
  5
588
330
583
100
AcDbEntity
  8
0
100
AcDbLine
 10
0.071875
 20
-0.1244911517940131
 30
0.0
 11
0.14375
 21
0.0
 31
0.0
  0
LINE
  5
589
330
583
100
AcDbEntity
  8
0
100
AcDbLine
 10
-0.071875
 20
-0.124491151794013
 30
0.0
 11
0.071875
 21
-0.1244911517940131
 31
0.0
  0
LINE
  5
58A
330
583
100
AcDbEntity
  8
0
100
AcDbLine
 10
-0.14375
 20
0.0
 30
0.0
 11
-0.071875
 21
-0.124491151794013
 31
0.0
  0
LINE
  5
58B
330
583
100
AcDbEntity
  8
0
100
AcDbLine
 10
-0.071875
 20
0.1244911517940131
 30
0.0
 11
-0.14375
 21
0.0
 31
0.0
  0
ENDBLK
  5
585
330
583
100
AcDbEntity
  8
0
100
AcDbBlockEnd
  0
BLOCK
  5
58D
330
58C
100
AcDbEntity
  8
0
100
AcDbBlockBegin
  2
WD1005
 70
0
 10
0.0
 20
0.0
 30
0.0
  3
WD1005
  1

  0
LWPOLYLINE
  5
58F
330
58C
100
AcDbEntity
  8
OBJ
100
AcDbPolyline
 90
2
 70
1
 43
0.05
 10
-0.0250000000000004
 20
0.0
 42
1.0
 10
0.0250000000000004
 20
0.0
 42
1.0
  0
ENDBLK
  5
58E
330
58C
100
AcDbEntity
  8
0
100
AcDbBlockEnd
  0
BLOCK
  5
591
330
590
100
AcDbEntity
  8
0
100
AcDbBlockBegin
  2
SLD_STUB_GND_SWITCH
 70
2
 10
0.0
 20
0.0
 30
0.0
  3
SLD_STUB_GND_SWITCH
  1

  0
LINE
  5
593
330
590
100
AcDbEntity
  8
SLD_STUB
100
AcDbLine
 10
0.0
 20
0.0
 30
0.0
 11
0.0
 21
-0.2
 31
0.0
  0
LINE
  5
594
330
590
100
AcDbEntity
  8
SLD_STUB
100
AcDbLine
 10
0.0
 20
-0.2
 30
0.0
 11
0.38
 21
-0.52
 31
0.0
  0
LINE
  5
595
330
590
100
AcDbEntity
  8
SLD_STUB
100
AcDbLine
 10
0.0
 20
-0.6
 30
0.0
 11
0.0
 21
-0.75
 31
0.0
  0
LINE
  5
596
330
590
100
AcDbEntity
  8
SLD_STUB
100
AcDbLine
 10
-0.22
 20
-0.75
 30
0.0
 11
0.22
 21
-0.75
 31
0.0
  0
LINE
  5
597
330
590
100
AcDbEntity
  8
SLD_STUB
100
AcDbLine
 10
-0.14
 20
-0.8200000000000001
 30
0.0
 11
0.14
 21
-0.8200000000000001
 31
0.0
  0
LINE
  5
598
330
590
100
AcDbEntity
  8
SLD_STUB
100
AcDbLine
 10
-0.07
 20
-0.89
 30
0.0
 11
0.07
 21
-0.89
 31
0.0
  0
ATTDEF
  5
599
330
590
100
AcDbEntity
  8
SLD_STUB
100
AcDbText
 10
0.0
 20
0.0
 30
0.0
 40
0.1
  1

100
AcDbAttributeDefinition
  3

  2
TAG1
 70
0
  0
ENDBLK
  5
592
330
590
100
AcDbEntity
  8
0
100
AcDbBlockEnd
  0
BLOCK
  5
59B
330
59A
100
AcDbEntity
  8
0
100
AcDbBlockBegin
  2
SLD_STUB_43LR
 70
2
 10
0.0
 20
0.0
 30
0.0
  3
SLD_STUB_43LR
  1

  0
CIRCLE
  5
59D
330
59A
100
AcDbEntity
  8
SLD_STUB
100
AcDbCircle
 10
0.0
 20
-0.22
 30
0.0
 40
0.22
  0
LINE
  5
59E
330
59A
100
AcDbEntity
  8
SLD_STUB
100
AcDbLine
 10
0.0
 20
0.0
 30
0.0
 11
0.0
 21
-0.44
 31
0.0
  0
ATTDEF
  5
59F
330
59A
100
AcDbEntity
  8
SLD_STUB
100
AcDbText
 10
0.0
 20
0.0
 30
0.0
 40
0.11
  1
43LR
100
AcDbAttributeDefinition
  3

  2
TAG1
 70
0
  0
ENDBLK
  5
59C
330
59A
100
AcDbEntity
  8
0
100
AcDbBlockEnd
  0
ENDSEC
  0
SECTION
  2
ENTITIES
  0
ENDSEC
  0
SECTION
  2
OBJECTS
  0
DICTIONARY
  5
A
330
0
100
AcDbDictionary
281
1
  3
ACAD_COLOR
350
B
  3
ACAD_GROUP
350
C
  3
ACAD_LAYOUT
350
D
  3
ACAD_MATERIAL
350
E
  3
ACAD_MLEADERSTYLE
350
F
  3
ACAD_MLINESTYLE
350
10
  3
ACAD_PLOTSETTINGS
350
11
  3
ACAD_PLOTSTYLENAME
350
12
  3
ACAD_SCALELIST
350
14
  3
ACAD_TABLESTYLE
350
15
  3
ACAD_VISUALSTYLE
350
16
  3
EZDXF_META
350
2D
  0
DICTIONARY
  5
B
330
A
100
AcDbDictionary
281
1
  0
DICTIONARY
  5
C
330
A
100
AcDbDictionary
281
1
  0
DICTIONARY
  5
D
330
A
100
AcDbDictionary
281
1
  3
Model
350
1A
  3
Layout1
350
1E
  0
DICTIONARY
  5
E
330
A
100
AcDbDictionary
281
1
  3
ByBlock
350
1F
  3
ByLayer
350
20
  3
Global
350
21
  0
DICTIONARY
  5
F
330
A
100
AcDbDictionary
281
1
  3
Standard
350
2C
  0
DICTIONARY
  5
10
330
A
100
AcDbDictionary
281
1
  3
Standard
350
22
  0
DICTIONARY
  5
11
330
A
100
AcDbDictionary
281
1
  0
ACDBDICTIONARYWDFLT
  5
12
330
A
100
AcDbDictionary
281
1
  3
Normal
350
13
100
AcDbDictionaryWithDefault
340
13
  0
ACDBPLACEHOLDER
  5
13
330
12
  0
DICTIONARY
  5
14
330
A
100
AcDbDictionary
281
1
  0
DICTIONARY
  5
15
330
A
100
AcDbDictionary
281
1
  0
DICTIONARY
  5
16
330
A
100
AcDbDictionary
281
1
  3
2dWireframe
350
5A
  3
Basic
350
5B
  3
Brighten
350
5C
  3
ColorChange
350
5D
  3
Conceptual
350
5E
  3
Dim
350
5F
  3
EdgeColorOff
350
60
  3
Facepattern
350
61
  3
Flat
350
62
  3
FlatWithEdges
350
63
  3
Gouraud
350
64
  3
GouraudWithEdges
350
65
  3
Hidden
350
66
  3
JitterOff
350
67
  3
Linepattern
350
68
  3
Modeling
350
69
  3
OverhangOff
350
6A
  3
Realistic
350
6B
  3
Shaded
350
6C
  3
Shaded with edges
350
6D
  3
Shades of Gray
350
6E
  3
Sketchy
350
6F
  3
Thicken
350
70
  3
Wireframe
350
71
  3
X-Ray
350
72
  0
LAYOUT
  5
1A
330
D
100
AcDbPlotSettings
  1

  4
A3
  6

 40
7.5
 41
20.0
 42
7.5
 43
20.0
 44
420.0
 45
297.0
 46
0.0
 47
0.0
 48
0.0
 49
0.0
140
0.0
141
0.0
142
1.0
143
1.0
 70
1024
 72
1
 73
0
 74
5
  7

 75
16
 76
0
 77
2
 78
300
147
1.0
148
0.0
149
0.0
100
AcDbLayout
  1
Model
 70
1
 71
0
 10
0.0
 20
0.0
 11
420.0
 21
297.0
 12
0.0
 22
0.0
 32
0.0
 14
1e+20
 24
1e+20
 34
1e+20
 15
-1e+20
 25
-1e+20
 35
-1e+20
146
0.0
 13
0.0
 23
0.0
 33
0.0
 16
1.0
 26
0.0
 36
0.0
 17
0.0
 27
1.0
 37
0.0
 76
1
330
17
  0
LAYOUT
  5
1E
330
D
100
AcDbPlotSettings
  1

  4
A3
  6

 40
7.5
 41
20.0
 42
7.5
 43
20.0
 44
420.0
 45
297.0
 46
0.0
 47
0.0
 48
0.0
 49
0.0
140
0.0
141
0.0
142
1.0
143
1.0
 70
0
 72
1
 73
0
 74
5
  7

 75
16
 76
0
 77
2
 78
300
147
1.0
148
0.0
149
0.0
100
AcDbLayout
  1
Layout1
 70
1
 71
1
 10
0.0
 20
0.0
 11
420.0
 21
297.0
 12
0.0
 22
0.0
 32
0.0
 14
1e+20
 24
1e+20
 34
1e+20
 15
-1e+20
 25
-1e+20
 35
-1e+20
146
0.0
 13
0.0
 23
0.0
 33
0.0
 16
1.0
 26
0.0
 36
0.0
 17
0.0
 27
1.0
 37
0.0
 76
1
330
1B
  0
MATERIAL
  5
1F
102
{ACAD_REACTORS
330
E
102
}
330
E
100
AcDbMaterial
  1
ByBlock
  2

 70
0
 40
1.0
 71
1
 41
1.0
 91
-1023410177
 42
1.0
 72
1
  3

 73
1
 74
1
 75
1
 44
0.5
 73
0
 45
1.0
 46
1.0
 77
1
  4

 78
1
 79
1
170
1
 48
1.0
171
1
  6

172
1
173
1
174
1
140
1.0
141
1.0
175
1
  7

176
1
177
1
178
1
143
1.0
179
1
  8

270
1
271
1
272
1
145
1.0
146
1.0
273
1
  9

274
1
275
1
276
1
 42
1.0
 72
1
  3

 73
1
 74
1
 75
1
 94
63
  0
MATERIAL
  5
20
102
{ACAD_REACTORS
330
E
102
}
330
E
100
AcDbMaterial
  1
ByLayer
  2

 70
0
 40
1.0
 71
1
 41
1.0
 91
-1023410177
 42
1.0
 72
1
  3

 73
1
 74
1
 75
1
 44
0.5
 73
0
 45
1.0
 46
1.0
 77
1
  4

 78
1
 79
1
170
1
 48
1.0
171
1
  6

172
1
173
1
174
1
140
1.0
141
1.0
175
1
  7

176
1
177
1
178
1
143
1.0
179
1
  8

270
1
271
1
272
1
145
1.0
146
1.0
273
1
  9

274
1
275
1
276
1
 42
1.0
 72
1
  3

 73
1
 74
1
 75
1
 94
63
  0
MATERIAL
  5
21
102
{ACAD_REACTORS
330
E
102
}
330
E
100
AcDbMaterial
  1
Global
  2

 70
0
 40
1.0
 71
1
 41
1.0
 91
-1023410177
 42
1.0
 72
1
  3

 73
1
 74
1
 75
1
 44
0.5
 73
0
 45
1.0
 46
1.0
 77
1
  4

 78
1
 79
1
170
1
 48
1.0
171
1
  6

172
1
173
1
174
1
140
1.0
141
1.0
175
1
  7

176
1
177
1
178
1
143
1.0
179
1
  8

270
1
271
1
272
1
145
1.0
146
1.0
273
1
  9

274
1
275
1
276
1
 42
1.0
 72
1
  3

 73
1
 74
1
 75
1
 94
63
  0
MLINESTYLE
  5
22
102
{ACAD_REACTORS
330
10
102
}
330
10
100
AcDbMlineStyle
  2
Standard
 70
0
  3

 62
256
 51
90.0
 52
90.0
 71
2
 49
0.5
 62
256
  6
BYLAYER
 49
-0.5
 62
256
  6
BYLAYER
  0
MLEADERSTYLE
  5
2C
102
{ACAD_REACTORS
330
F
102
}
330
F
100
AcDbMLeaderStyle
179
2
170
2
171
1
172
0
 90
2
 40
0.0
 41
0.0
173
1
 91
-1056964608
 92
-2
290
1
 42
2.0
291
1
 43
8.0
  3
Standard
 44
4.0
300

342
29
174
1
175
1
176
0
178
1
 93
-1056964608
 45
4.0
292
0
297
0
 46
4.0
 94
-1056964608
 47
1.0
 49
1.0
140
1.0
294
1
141
0.0
177
0
142
1.0
295
0
296
0
143
3.75
271
0
272
9
273
9
  0
DICTIONARY
  5
2D
330
A
100
AcDbDictionary
280
1
281
1
  3
CREATED_BY_EZDXF
350
2E
  3
WRITTEN_BY_EZDXF
350
266
  0
DICTIONARYVAR
  5
2E
330
2D
100
DictionaryVariables
280
0
  1
1.4.4 @ 2026-08-02T19:53:58.858881+00:00
  0
VISUALSTYLE
  5
5A
102
{ACAD_REACTORS
330
16
102
}
330
16
100
AcDbVisualStyle
  2
2dWireframe
 70
4
177
3
291
0
 70
58
 90
2
176
1
 90
2
176
1
 90
0
176
1
 90
0
176
1
 40
0.6
176
1
 40
30.0
176
1
 62
7
420
16777215
176
1
 90
1
176
1
 90
4
176
1
 62
7
176
1
 62
257
176
1
 90
1
176
1
 90
1
176
1
 40
1.0
176
1
 90
8
176
1
 62
7
176
1
 40
1.0
176
1
 90
1
176
1
 90
6
176
1
 90
2
176
1
 62
7
176
1
 90
5
176
1
 90
0
176
1
 90
0
176
1
290
0
176
1
 90
1
176
1
 40
0.0
176
1
 90
0
176
1
290
1
176
1
290
1
176
1
290
0
176
1
290
0
176
1
290
0
176
1
290
0
176
1
290
0
176
1
290
0
176
1
290
0
176
1
 90
50
176
1
 40
0.0
176
1
 40
1.0
176
1
 90
0
176
1
 62
18
420
0
176
1
 90
50
176
1
 90
3
176
1
 62
5
420
255
176
1
290
0
176
1
 90
50
176
1
 90
50
176
1
 90
50
176
1
290
0
176
1
 90
50
176
1
 62
256
176
0
 40
1.0
176
0
 90
2
176
1
  1
strokes_ogs.tif
176
1
290
0
176
1
 40
1.0
176
1
 40
1.0
176
1
  0
VISUALSTYLE
  5
5B
102
{ACAD_REACTORS
330
16
102
}
330
16
100
AcDbVisualStyle
  2
Basic
 70
7
177
3
291
1
 70
58
 90
2
176
1
 90
2
176
1
 90
0
176
1
 90
1
176
1
 40
0.6
176
1
 40
30.0
176
1
 62
7
420
16777215
176
1
 90
1
176
1
 90
4
176
1
 62
7
176
1
 62
257
176
1
 90
1
176
1
 90
1
176
1
 40
1.0
176
1
 90
8
176
1
 62
7
176
1
 40
1.0
176
1
 90
1
176
1
 90
6
176
1
 90
2
176
1
 62
7
176
1
 90
5
176
1
 90
0
176
1
 90
0
176
1
290
0
176
1
 90
1
176
1
 40
0.0
176
1
 90
0
176
1
290
0
176
1
290
1
176
1
290
1
176
1
290
0
176
1
290
0
176
1
290
0
176
1
290
0
176
1
290
0
176
1
290
0
176
1
 90
50
176
1
 40
0.0
176
1
 40
1.0
176
1
 90
0
176
1
 62
18
420
0
176
1
 90
50
176
1
 90
3
176
1
 62
5
420
255
176
1
290
0
176
1
 90
50
176
1
 90
50
176
1
 90
50
176
1
290
0
176
1
 90
50
176
1
 62
256
176
0
 40
1.0
176
0
 90
2
176
1
  1
strokes_ogs.tif
176
1
290
0
176
1
 40
1.0
176
1
 40
1.0
176
1
  0
VISUALSTYLE
  5
5C
102
{ACAD_REACTORS
330
16
102
}
330
16
100
AcDbVisualStyle
  2
Brighten
 70
12
177
3
291
1
 70
58
 90
2
176
1
 90
2
176
1
 90
0
176
1
 90
2
176
1
 40
0.6
176
1
 40
30.0
176
1
 62
7
420
16777215
176
1
 90
1
176
1
 90
4
176
1
 62
7
176
1
 62
257
176
1
 90
1
176
1
 90
1
176
1
 40
1.0
176
1
 90
8
176
1
 62
7
176
1
 40
1.0
176
1
 90
1
176
1
 90
6
176
1
 90
2
176
1
 62
7
176
1
 90
5
176
1
 90
0
176
1
 90
0
176
1
290
0
176
1
 90
1
176
1
 40
0.0
176
1
 90
0
176
1
290
0
176
1
290
1
176
1
290
1
176
1
290
0
176
1
290
0
176
1
290
0
176
1
290
0
176
1
290
0
176
1
290
0
176
1
 90
50
176
1
 40
0.0
176
1
 40
1.0
176
1
 90
0
176
1
 62
18
420
0
176
1
 90
50
176
1
 90
3
176
1
 62
5
420
255
176
1
290
0
176
1
 90
50
176
1
 90
50
176
1
 90
50
176
1
290
0
176
1
 90
50
176
1
 62
256
176
0
 40
1.0
176
0
 90
2
176
1
  1
strokes_ogs.tif
176
1
290
0
176
1
 40
1.0
176
1
 40
1.0
176
1
  0
VISUALSTYLE
  5
5D
102
{ACAD_REACTORS
330
16
102
}
330
16
100
AcDbVisualStyle
  2
ColorChange
 70
16
177
3
291
1
 70
58
 90
2
176
1
 90
2
176
1
 90
0
176
1
 90
2
176
1
 40
0.6
176
1
 40
30.0
176
1
 62
7
420
16777215
176
1
 90
1
176
1
 90
4
176
1
 62
7
176
1
 62
257
176
1
 90
1
176
1
 90
1
176
1
 40
1.0
176
1
 90
8
176
1
 62
7
176
1
 40
1.0
176
1
 90
1
176
1
 90
6
176
1
 90
2
176
1
 62
7
176
1
 90
5
176
1
 90
0
176
1
 90
0
176
1
290
0
176
1
 90
1
176
1
 40
0.0
176
1
 90
0
176
1
290
0
176
1
290
1
176
1
290
1
176
1
290
0
176
1
290
0
176
1
290
0
176
1
290
0
176
1
290
0
176
1
290
0
176
1
 90
50
176
1
 40
0.0
176
1
 40
1.0
176
1
 90
0
176
1
 62
18
420
0
176
1
 90
50
176
1
 90
3
176
1
 62
5
420
255
176
1
290
0
176
1
 90
50
176
1
 90
50
176
1
 90
50
176
1
290
0
176
1
 90
50
176
1
 62
256
176
0
 40
1.0
176
0
 90
2
176
1
  1
strokes_ogs.tif
176
1
290
0
176
1
 40
1.0
176
1
 40
1.0
176
1
  0
VISUALSTYLE
  5
5E
102
{ACAD_REACTORS
330
16
102
}
330
16
100
AcDbVisualStyle
  2
Conceptual
 70
9
177
3
291
0
 70
58
 90
2
176
1
 90
2
176
1
 90
0
176
1
 90
3
176
1
 40
0.6
176
1
 40
30.0
176
1
 62
7
420
16777215
176
1
 90
1
176
1
 90
4
176
1
 62
7
176
1
 62
257
176
1
 90
1
176
1
 90
1
176
1
 40
1.0
176
1
 90
8
176
1
 62
7
176
1
 40
1.0
176
1
 90
1
176
1
 90
6
176
1
 90
2
176
1
 62
7
176
1
 90
5
176
1
 90
0
176
1
 90
0
176
1
290
0
176
1
 90
1
176
1
 40
0.0
176
1
 90
0
176
1
290
0
176
1
290
1
176
1
290
1
176
1
290
0
176
1
290
0
176
1
290
0
176
1
290
0
176
1
290
0
176
1
290
0
176
1
 90
50
176
1
 40
0.0
176
1
 40
1.0
176
1
 90
0
176
1
 62
18
420
0
176
1
 90
50
176
1
 90
3
176
1
 62
5
420
255
176
1
290
0
176
1
 90
50
176
1
 90
50
176
1
 90
50
176
1
290
0
176
1
 90
50
176
1
 62
256
176
0
 40
1.0
176
0
 90
2
176
1
  1
strokes_ogs.tif
176
1
290
0
176
1
 40
1.0
176
1
 40
1.0
176
1
  0
VISUALSTYLE
  5
5F
102
{ACAD_REACTORS
330
16
102
}
330
16
100
AcDbVisualStyle
  2
Dim
 70
11
177
3
291
1
 70
58
 90
2
176
1
 90
2
176
1
 90
0
176
1
 90
2
176
1
 40
0.6
176
1
 40
30.0
176
1
 62
7
420
16777215
176
1
 90
1
176
1
 90
4
176
1
 62
7
176
1
 62
257
176
1
 90
1
176
1
 90
1
176
1
 40
1.0
176
1
 90
8
176
1
 62
7
176
1
 40
1.0
176
1
 90
1
176
1
 90
6
176
1
 90
2
176
1
 62
7
176
1
 90
5
176
1
 90
0
176
1
 90
0
176
1
290
0
176
1
 90
1
176
1
 40
0.0
176
1
 90
0
176
1
290
0
176
1
290
1
176
1
290
1
176
1
290
0
176
1
290
0
176
1
290
0
176
1
290
0
176
1
290
0
176
1
290
0
176
1
 90
50
176
1
 40
0.0
176
1
 40
1.0
176
1
 90
0
176
1
 62
18
420
0
176
1
 90
50
176
1
 90
3
176
1
 62
5
420
255
176
1
290
0
176
1
 90
50
176
1
 90
50
176
1
 90
50
176
1
290
0
176
1
 90
50
176
1
 62
256
176
0
 40
1.0
176
0
 90
2
176
1
  1
strokes_ogs.tif
176
1
290
0
176
1
 40
1.0
176
1
 40
1.0
176
1
  0
VISUALSTYLE
  5
60
102
{ACAD_REACTORS
330
16
102
}
330
16
100
AcDbVisualStyle
  2
EdgeColorOff
 70
22
177
3
291
1
 70
58
 90
2
176
1
 90
2
176
1
 90
0
176
1
 90
2
176
1
 40
0.6
176
1
 40
30.0
176
1
 62
7
420
16777215
176
1
 90
1
176
1
 90
4
176
1
 62
7
176
1
 62
257
176
1
 90
1
176
1
 90
1
176
1
 40
1.0
176
1
 90
8
176
1
 62
7
176
1
 40
1.0
176
1
 90
1
176
1
 90
6
176
1
 90
2
176
1
 62
7
176
1
 90
5
176
1
 90
0
176
1
 90
0
176
1
290
0
176
1
 90
1
176
1
 40
0.0
176
1
 90
0
176
1
290
0
176
1
290
1
176
1
290
1
176
1
290
0
176
1
290
0
176
1
290
0
176
1
290
0
176
1
290
0
176
1
290
0
176
1
 90
50
176
1
 40
0.0
176
1
 40
1.0
176
1
 90
0
176
1
 62
18
420
0
176
1
 90
50
176
1
 90
3
176
1
 62
5
420
255
176
1
290
0
176
1
 90
50
176
1
 90
50
176
1
 90
50
176
1
290
0
176
1
 90
50
176
1
 62
256
176
0
 40
1.0
176
0
 90
2
176
1
  1
strokes_ogs.tif
176
1
290
0
176
1
 40
1.0
176
1
 40
1.0
176
1
  0
VISUALSTYLE
  5
61
102
{ACAD_REACTORS
330
16
102
}
330
16
100
AcDbVisualStyle
  2
Facepattern
 70
15
177
3
291
1
 70
58
 90
2
176
1
 90
2
176
1
 90
0
176
1
 90
2
176
1
 40
0.6
176
1
 40
30.0
176
1
 62
7
420
16777215
176
1
 90
1
176
1
 90
4
176
1
 62
7
176
1
 62
257
176
1
 90
1
176
1
 90
1
176
1
 40
1.0
176
1
 90
8
176
1
 62
7
176
1
 40
1.0
176
1
 90
1
176
1
 90
6
176
1
 90
2
176
1
 62
7
176
1
 90
5
176
1
 90
0
176
1
 90
0
176
1
290
0
176
1
 90
1
176
1
 40
0.0
176
1
 90
0
176
1
290
0
176
1
290
1
176
1
290
1
176
1
290
0
176
1
290
0
176
1
290
0
176
1
290
0
176
1
290
0
176
1
290
0
176
1
 90
50
176
1
 40
0.0
176
1
 40
1.0
176
1
 90
0
176
1
 62
18
420
0
176
1
 90
50
176
1
 90
3
176
1
 62
5
420
255
176
1
290
0
176
1
 90
50
176
1
 90
50
176
1
 90
50
176
1
290
0
176
1
 90
50
176
1
 62
256
176
0
 40
1.0
176
0
 90
2
176
1
  1
strokes_ogs.tif
176
1
290
0
176
1
 40
1.0
176
1
 40
1.0
176
1
  0
VISUALSTYLE
  5
62
102
{ACAD_REACTORS
330
16
102
}
330
16
100
AcDbVisualStyle
  2
Flat
 70
0
177
3
291
1
 70
58
 90
2
176
1
 90
2
176
1
 90
0
176
1
 90
2
176
1
 40
0.6
176
1
 40
30.0
176
1
 62
7
420
16777215
176
1
 90
1
176
1
 90
4
176
1
 62
7
176
1
 62
257
176
1
 90
1
176
1
 90
1
176
1
 40
1.0
176
1
 90
8
176
1
 62
7
176
1
 40
1.0
176
1
 90
1
176
1
 90
6
176
1
 90
2
176
1
 62
7
176
1
 90
5
176
1
 90
0
176
1
 90
0
176
1
290
0
176
1
 90
1
176
1
 40
0.0
176
1
 90
0
176
1
290
0
176
1
290
1
176
1
290
1
176
1
290
0
176
1
290
0
176
1
290
0
176
1
290
0
176
1
290
0
176
1
290
0
176
1
 90
50
176
1
 40
0.0
176
1
 40
1.0
176
1
 90
0
176
1
 62
18
420
0
176
1
 90
50
176
1
 90
3
176
1
 62
5
420
255
176
1
290
0
176
1
 90
50
176
1
 90
50
176
1
 90
50
176
1
290
0
176
1
 90
50
176
1
 62
256
176
0
 40
1.0
176
0
 90
2
176
1
  1
strokes_ogs.tif
176
1
290
0
176
1
 40
1.0
176
1
 40
1.0
176
1
  0
VISUALSTYLE
  5
63
102
{ACAD_REACTORS
330
16
102
}
330
16
100
AcDbVisualStyle
  2
FlatWithEdges
 70
1
177
3
291
1
 70
58
 90
2
176
1
 90
2
176
1
 90
0
176
1
 90
2
176
1
 40
0.6
176
1
 40
30.0
176
1
 62
7
420
16777215
176
1
 90
1
176
1
 90
4
176
1
 62
7
176
1
 62
257
176
1
 90
1
176
1
 90
1
176
1
 40
1.0
176
1
 90
8
176
1
 62
7
176
1
 40
1.0
176
1
 90
1
176
1
 90
6
176
1
 90
2
176
1
 62
7
176
1
 90
5
176
1
 90
0
176
1
 90
0
176
1
290
0
176
1
 90
1
176
1
 40
0.0
176
1
 90
0
176
1
290
0
176
1
290
1
176
1
290
1
176
1
290
0
176
1
290
0
176
1
290
0
176
1
290
0
176
1
290
0
176
1
290
0
176
1
 90
50
176
1
 40
0.0
176
1
 40
1.0
176
1
 90
0
176
1
 62
18
420
0
176
1
 90
50
176
1
 90
3
176
1
 62
5
420
255
176
1
290
0
176
1
 90
50
176
1
 90
50
176
1
 90
50
176
1
290
0
176
1
 90
50
176
1
 62
256
176
0
 40
1.0
176
0
 90
2
176
1
  1
strokes_ogs.tif
176
1
290
0
176
1
 40
1.0
176
1
 40
1.0
176
1
  0
VISUALSTYLE
  5
64
102
{ACAD_REACTORS
330
16
102
}
330
16
100
AcDbVisualStyle
  2
Gouraud
 70
2
177
3
291
1
 70
58
 90
2
176
1
 90
2
176
1
 90
0
176
1
 90
2
176
1
 40
0.6
176
1
 40
30.0
176
1
 62
7
420
16777215
176
1
 90
1
176
1
 90
4
176
1
 62
7
176
1
 62
257
176
1
 90
1
176
1
 90
1
176
1
 40
1.0
176
1
 90
8
176
1
 62
7
176
1
 40
1.0
176
1
 90
1
176
1
 90
6
176
1
 90
2
176
1
 62
7
176
1
 90
5
176
1
 90
0
176
1
 90
0
176
1
290
0
176
1
 90
1
176
1
 40
0.0
176
1
 90
0
176
1
290
0
176
1
290
1
176
1
290
1
176
1
290
0
176
1
290
0
176
1
290
0
176
1
290
0
176
1
290
0
176
1
290
0
176
1
 90
50
176
1
 40
0.0
176
1
 40
1.0
176
1
 90
0
176
1
 62
18
420
0
176
1
 90
50
176
1
 90
3
176
1
 62
5
420
255
176
1
290
0
176
1
 90
50
176
1
 90
50
176
1
 90
50
176
1
290
0
176
1
 90
50
176
1
 62
256
176
0
 40
1.0
176
0
 90
2
176
1
  1
strokes_ogs.tif
176
1
290
0
176
1
 40
1.0
176
1
 40
1.0
176
1
  0
VISUALSTYLE
  5
65
102
{ACAD_REACTORS
330
16
102
}
330
16
100
AcDbVisualStyle
  2
GouraudWithEdges
 70
3
177
3
291
1
 70
58
 90
2
176
1
 90
2
176
1
 90
0
176
1
 90
2
176
1
 40
0.6
176
1
 40
30.0
176
1
 62
7
420
16777215
176
1
 90
1
176
1
 90
4
176
1
 62
7
176
1
 62
257
176
1
 90
1
176
1
 90
1
176
1
 40
1.0
176
1
 90
8
176
1
 62
7
176
1
 40
1.0
176
1
 90
1
176
1
 90
6
176
1
 90
2
176
1
 62
7
176
1
 90
5
176
1
 90
0
176
1
 90
0
176
1
290
0
176
1
 90
1
176
1
 40
0.0
176
1
 90
0
176
1
290
0
176
1
290
1
176
1
290
1
176
1
290
0
176
1
290
0
176
1
290
0
176
1
290
0
176
1
290
0
176
1
290
0
176
1
 90
50
176
1
 40
0.0
176
1
 40
1.0
176
1
 90
0
176
1
 62
18
420
0
176
1
 90
50
176
1
 90
3
176
1
 62
5
420
255
176
1
290
0
176
1
 90
50
176
1
 90
50
176
1
 90
50
176
1
290
0
176
1
 90
50
176
1
 62
256
176
0
 40
1.0
176
0
 90
2
176
1
  1
strokes_ogs.tif
176
1
290
0
176
1
 40
1.0
176
1
 40
1.0
176
1
  0
VISUALSTYLE
  5
66
102
{ACAD_REACTORS
330
16
102
}
330
16
100
AcDbVisualStyle
  2
Hidden
 70
6
177
3
291
0
 70
58
 90
2
176
1
 90
2
176
1
 90
0
176
1
 90
1
176
1
 40
0.6
176
1
 40
30.0
176
1
 62
7
420
16777215
176
1
 90
1
176
1
 90
4
176
1
 62
7
176
1
 62
257
176
1
 90
1
176
1
 90
1
176
1
 40
1.0
176
1
 90
8
176
1
 62
7
176
1
 40
1.0
176
1
 90
1
176
1
 90
6
176
1
 90
2
176
1
 62
7
176
1
 90
5
176
1
 90
0
176
1
 90
0
176
1
290
0
176
1
 90
1
176
1
 40
0.0
176
1
 90
0
176
1
290
0
176
1
290
1
176
1
290
1
176
1
290
0
176
1
290
0
176
1
290
0
176
1
290
0
176
1
290
0
176
1
290
0
176
1
 90
50
176
1
 40
0.0
176
1
 40
1.0
176
1
 90
0
176
1
 62
18
420
0
176
1
 90
50
176
1
 90
3
176
1
 62
5
420
255
176
1
290
0
176
1
 90
50
176
1
 90
50
176
1
 90
50
176
1
290
0
176
1
 90
50
176
1
 62
256
176
0
 40
1.0
176
0
 90
2
176
1
  1
strokes_ogs.tif
176
1
290
0
176
1
 40
1.0
176
1
 40
1.0
176
1
  0
VISUALSTYLE
  5
67
102
{ACAD_REACTORS
330
16
102
}
330
16
100
AcDbVisualStyle
  2
JitterOff
 70
20
177
3
291
1
 70
58
 90
2
176
1
 90
2
176
1
 90
0
176
1
 90
2
176
1
 40
0.6
176
1
 40
30.0
176
1
 62
7
420
16777215
176
1
 90
1
176
1
 90
4
176
1
 62
7
176
1
 62
257
176
1
 90
1
176
1
 90
1
176
1
 40
1.0
176
1
 90
8
176
1
 62
7
176
1
 40
1.0
176
1
 90
1
176
1
 90
6
176
1
 90
2
176
1
 62
7
176
1
 90
5
176
1
 90
0
176
1
 90
0
176
1
290
0
176
1
 90
1
176
1
 40
0.0
176
1
 90
0
176
1
290
0
176
1
290
1
176
1
290
1
176
1
290
0
176
1
290
0
176
1
290
0
176
1
290
0
176
1
290
0
176
1
290
0
176
1
 90
50
176
1
 40
0.0
176
1
 40
1.0
176
1
 90
0
176
1
 62
18
420
0
176
1
 90
50
176
1
 90
3
176
1
 62
5
420
255
176
1
290
0
176
1
 90
50
176
1
 90
50
176
1
 90
50
176
1
290
0
176
1
 90
50
176
1
 62
256
176
0
 40
1.0
176
0
 90
2
176
1
  1
strokes_ogs.tif
176
1
290
0
176
1
 40
1.0
176
1
 40
1.0
176
1
  0
VISUALSTYLE
  5
68
102
{ACAD_REACTORS
330
16
102
}
330
16
100
AcDbVisualStyle
  2
Linepattern
 70
14
177
3
291
1
 70
58
 90
2
176
1
 90
2
176
1
 90
0
176
1
 90
2
176
1
 40
0.6
176
1
 40
30.0
176
1
 62
7
420
16777215
176
1
 90
1
176
1
 90
4
176
1
 62
7
176
1
 62
257
176
1
 90
1
176
1
 90
1
176
1
 40
1.0
176
1
 90
8
176
1
 62
7
176
1
 40
1.0
176
1
 90
1
176
1
 90
6
176
1
 90
2
176
1
 62
7
176
1
 90
5
176
1
 90
0
176
1
 90
0
176
1
290
0
176
1
 90
1
176
1
 40
0.0
176
1
 90
0
176
1
290
0
176
1
290
1
176
1
290
1
176
1
290
0
176
1
290
0
176
1
290
0
176
1
290
0
176
1
290
0
176
1
290
0
176
1
 90
50
176
1
 40
0.0
176
1
 40
1.0
176
1
 90
0
176
1
 62
18
420
0
176
1
 90
50
176
1
 90
3
176
1
 62
5
420
255
176
1
290
0
176
1
 90
50
176
1
 90
50
176
1
 90
50
176
1
290
0
176
1
 90
50
176
1
 62
256
176
0
 40
1.0
176
0
 90
2
176
1
  1
strokes_ogs.tif
176
1
290
0
176
1
 40
1.0
176
1
 40
1.0
176
1
  0
VISUALSTYLE
  5
69
102
{ACAD_REACTORS
330
16
102
}
330
16
100
AcDbVisualStyle
  2
Modeling
 70
10
177
3
291
0
 70
58
 90
2
176
1
 90
2
176
1
 90
0
176
1
 90
2
176
1
 40
0.6
176
1
 40
30.0
176
1
 62
7
420
16777215
176
1
 90
1
176
1
 90
4
176
1
 62
7
176
1
 62
257
176
1
 90
1
176
1
 90
1
176
1
 40
1.0
176
1
 90
8
176
1
 62
7
176
1
 40
1.0
176
1
 90
1
176
1
 90
6
176
1
 90
2
176
1
 62
7
176
1
 90
5
176
1
 90
0
176
1
 90
0
176
1
290
0
176
1
 90
1
176
1
 40
0.0
176
1
 90
0
176
1
290
0
176
1
290
1
176
1
290
1
176
1
290
0
176
1
290
0
176
1
290
0
176
1
290
0
176
1
290
0
176
1
290
0
176
1
 90
50
176
1
 40
0.0
176
1
 40
1.0
176
1
 90
0
176
1
 62
18
420
0
176
1
 90
50
176
1
 90
3
176
1
 62
5
420
255
176
1
290
0
176
1
 90
50
176
1
 90
50
176
1
 90
50
176
1
290
0
176
1
 90
50
176
1
 62
256
176
0
 40
1.0
176
0
 90
2
176
1
  1
strokes_ogs.tif
176
1
290
0
176
1
 40
1.0
176
1
 40
1.0
176
1
  0
VISUALSTYLE
  5
6A
102
{ACAD_REACTORS
330
16
102
}
330
16
100
AcDbVisualStyle
  2
OverhangOff
 70
21
177
3
291
1
 70
58
 90
2
176
1
 90
2
176
1
 90
0
176
1
 90
2
176
1
 40
0.6
176
1
 40
30.0
176
1
 62
7
420
16777215
176
1
 90
1
176
1
 90
4
176
1
 62
7
176
1
 62
257
176
1
 90
1
176
1
 90
1
176
1
 40
1.0
176
1
 90
8
176
1
 62
7
176
1
 40
1.0
176
1
 90
1
176
1
 90
6
176
1
 90
2
176
1
 62
7
176
1
 90
5
176
1
 90
0
176
1
 90
0
176
1
290
0
176
1
 90
1
176
1
 40
0.0
176
1
 90
0
176
1
290
0
176
1
290
1
176
1
290
1
176
1
290
0
176
1
290
0
176
1
290
0
176
1
290
0
176
1
290
0
176
1
290
0
176
1
 90
50
176
1
 40
0.0
176
1
 40
1.0
176
1
 90
0
176
1
 62
18
420
0
176
1
 90
50
176
1
 90
3
176
1
 62
5
420
255
176
1
290
0
176
1
 90
50
176
1
 90
50
176
1
 90
50
176
1
290
0
176
1
 90
50
176
1
 62
256
176
0
 40
1.0
176
0
 90
2
176
1
  1
strokes_ogs.tif
176
1
290
0
176
1
 40
1.0
176
1
 40
1.0
176
1
  0
VISUALSTYLE
  5
6B
102
{ACAD_REACTORS
330
16
102
}
330
16
100
AcDbVisualStyle
  2
Realistic
 70
8
177
3
291
0
 70
58
 90
2
176
1
 90
2
176
1
 90
0
176
1
 90
2
176
1
 40
0.6
176
1
 40
30.0
176
1
 62
7
420
16777215
176
1
 90
1
176
1
 90
4
176
1
 62
7
176
1
 62
257
176
1
 90
1
176
1
 90
1
176
1
 40
1.0
176
1
 90
8
176
1
 62
7
176
1
 40
1.0
176
1
 90
1
176
1
 90
6
176
1
 90
2
176
1
 62
7
176
1
 90
5
176
1
 90
0
176
1
 90
0
176
1
290
0
176
1
 90
1
176
1
 40
0.0
176
1
 90
0
176
1
290
0
176
1
290
1
176
1
290
1
176
1
290
0
176
1
290
0
176
1
290
0
176
1
290
0
176
1
290
0
176
1
290
0
176
1
 90
50
176
1
 40
0.0
176
1
 40
1.0
176
1
 90
0
176
1
 62
18
420
0
176
1
 90
50
176
1
 90
3
176
1
 62
5
420
255
176
1
290
0
176
1
 90
50
176
1
 90
50
176
1
 90
50
176
1
290
0
176
1
 90
50
176
1
 62
256
176
0
 40
1.0
176
0
 90
2
176
1
  1
strokes_ogs.tif
176
1
290
0
176
1
 40
1.0
176
1
 40
1.0
176
1
  0
VISUALSTYLE
  5
6C
102
{ACAD_REACTORS
330
16
102
}
330
16
100
AcDbVisualStyle
  2
Shaded
 70
27
177
3
291
0
 70
58
 90
2
176
1
 90
2
176
1
 90
0
176
1
 90
2
176
1
 40
0.6
176
1
 40
30.0
176
1
 62
7
420
16777215
176
1
 90
1
176
1
 90
4
176
1
 62
7
176
1
 62
257
176
1
 90
1
176
1
 90
1
176
1
 40
1.0
176
1
 90
8
176
1
 62
7
176
1
 40
1.0
176
1
 90
1
176
1
 90
6
176
1
 90
2
176
1
 62
7
176
1
 90
5
176
1
 90
0
176
1
 90
0
176
1
290
0
176
1
 90
1
176
1
 40
0.0
176
1
 90
0
176
1
290
0
176
1
290
1
176
1
290
1
176
1
290
0
176
1
290
0
176
1
290
0
176
1
290
0
176
1
290
0
176
1
290
0
176
1
 90
50
176
1
 40
0.0
176
1
 40
1.0
176
1
 90
0
176
1
 62
18
420
0
176
1
 90
50
176
1
 90
3
176
1
 62
5
420
255
176
1
290
0
176
1
 90
50
176
1
 90
50
176
1
 90
50
176
1
290
0
176
1
 90
50
176
1
 62
256
176
0
 40
1.0
176
0
 90
2
176
1
  1
strokes_ogs.tif
176
1
290
0
176
1
 40
1.0
176
1
 40
1.0
176
1
  0
VISUALSTYLE
  5
6D
102
{ACAD_REACTORS
330
16
102
}
330
16
100
AcDbVisualStyle
  2
Shaded with edges
 70
26
177
3
291
0
 70
58
 90
2
176
1
 90
2
176
1
 90
0
176
1
 90
2
176
1
 40
0.6
176
1
 40
30.0
176
1
 62
7
420
16777215
176
1
 90
1
176
1
 90
4
176
1
 62
7
176
1
 62
257
176
1
 90
1
176
1
 90
1
176
1
 40
1.0
176
1
 90
8
176
1
 62
7
176
1
 40
1.0
176
1
 90
1
176
1
 90
6
176
1
 90
2
176
1
 62
7
176
1
 90
5
176
1
 90
0
176
1
 90
0
176
1
290
0
176
1
 90
1
176
1
 40
0.0
176
1
 90
0
176
1
290
0
176
1
290
1
176
1
290
1
176
1
290
0
176
1
290
0
176
1
290
0
176
1
290
0
176
1
290
0
176
1
290
0
176
1
 90
50
176
1
 40
0.0
176
1
 40
1.0
176
1
 90
0
176
1
 62
18
420
0
176
1
 90
50
176
1
 90
3
176
1
 62
5
420
255
176
1
290
0
176
1
 90
50
176
1
 90
50
176
1
 90
50
176
1
290
0
176
1
 90
50
176
1
 62
256
176
0
 40
1.0
176
0
 90
2
176
1
  1
strokes_ogs.tif
176
1
290
0
176
1
 40
1.0
176
1
 40
1.0
176
1
  0
VISUALSTYLE
  5
6E
102
{ACAD_REACTORS
330
16
102
}
330
16
100
AcDbVisualStyle
  2
Shades of Gray
 70
23
177
3
291
0
 70
58
 90
2
176
1
 90
2
176
1
 90
0
176
1
 90
2
176
1
 40
0.6
176
1
 40
30.0
176
1
 62
7
420
16777215
176
1
 90
1
176
1
 90
4
176
1
 62
7
176
1
 62
257
176
1
 90
1
176
1
 90
1
176
1
 40
1.0
176
1
 90
8
176
1
 62
7
176
1
 40
1.0
176
1
 90
1
176
1
 90
6
176
1
 90
2
176
1
 62
7
176
1
 90
5
176
1
 90
0
176
1
 90
0
176
1
290
0
176
1
 90
1
176
1
 40
0.0
176
1
 90
0
176
1
290
0
176
1
290
1
176
1
290
1
176
1
290
0
176
1
290
0
176
1
290
0
176
1
290
0
176
1
290
0
176
1
290
0
176
1
 90
50
176
1
 40
0.0
176
1
 40
1.0
176
1
 90
0
176
1
 62
18
420
0
176
1
 90
50
176
1
 90
3
176
1
 62
5
420
255
176
1
290
0
176
1
 90
50
176
1
 90
50
176
1
 90
50
176
1
290
0
176
1
 90
50
176
1
 62
256
176
0
 40
1.0
176
0
 90
2
176
1
  1
strokes_ogs.tif
176
1
290
0
176
1
 40
1.0
176
1
 40
1.0
176
1
  0
VISUALSTYLE
  5
6F
102
{ACAD_REACTORS
330
16
102
}
330
16
100
AcDbVisualStyle
  2
Sketchy
 70
24
177
3
291
0
 70
58
 90
2
176
1
 90
2
176
1
 90
0
176
1
 90
1
176
1
 40
0.6
176
1
 40
30.0
176
1
 62
7
420
16777215
176
1
 90
1
176
1
 90
4
176
1
 62
7
176
1
 62
257
176
1
 90
1
176
1
 90
1
176
1
 40
1.0
176
1
 90
8
176
1
 62
7
176
1
 40
1.0
176
1
 90
1
176
1
 90
6
176
1
 90
2
176
1
 62
7
176
1
 90
5
176
1
 90
0
176
1
 90
0
176
1
290
0
176
1
 90
1
176
1
 40
0.0
176
1
 90
0
176
1
290
0
176
1
290
1
176
1
290
1
176
1
290
0
176
1
290
0
176
1
290
0
176
1
290
0
176
1
290
0
176
1
290
0
176
1
 90
50
176
1
 40
0.0
176
1
 40
1.0
176
1
 90
0
176
1
 62
18
420
0
176
1
 90
50
176
1
 90
3
176
1
 62
5
420
255
176
1
290
0
176
1
 90
50
176
1
 90
50
176
1
 90
50
176
1
290
0
176
1
 90
50
176
1
 62
256
176
0
 40
1.0
176
0
 90
2
176
1
  1
strokes_ogs.tif
176
1
290
0
176
1
 40
1.0
176
1
 40
1.0
176
1
  0
VISUALSTYLE
  5
70
102
{ACAD_REACTORS
330
16
102
}
330
16
100
AcDbVisualStyle
  2
Thicken
 70
13
177
3
291
1
 70
58
 90
2
176
1
 90
2
176
1
 90
0
176
1
 90
2
176
1
 40
0.6
176
1
 40
30.0
176
1
 62
7
420
16777215
176
1
 90
1
176
1
 90
4
176
1
 62
7
176
1
 62
257
176
1
 90
1
176
1
 90
1
176
1
 40
1.0
176
1
 90
8
176
1
 62
7
176
1
 40
1.0
176
1
 90
1
176
1
 90
6
176
1
 90
2
176
1
 62
7
176
1
 90
5
176
1
 90
0
176
1
 90
0
176
1
290
0
176
1
 90
1
176
1
 40
0.0
176
1
 90
0
176
1
290
0
176
1
290
1
176
1
290
1
176
1
290
0
176
1
290
0
176
1
290
0
176
1
290
0
176
1
290
0
176
1
290
0
176
1
 90
50
176
1
 40
0.0
176
1
 40
1.0
176
1
 90
0
176
1
 62
18
420
0
176
1
 90
50
176
1
 90
3
176
1
 62
5
420
255
176
1
290
0
176
1
 90
50
176
1
 90
50
176
1
 90
50
176
1
290
0
176
1
 90
50
176
1
 62
256
176
0
 40
1.0
176
0
 90
2
176
1
  1
strokes_ogs.tif
176
1
290
0
176
1
 40
1.0
176
1
 40
1.0
176
1
  0
VISUALSTYLE
  5
71
102
{ACAD_REACTORS
330
16
102
}
330
16
100
AcDbVisualStyle
  2
Wireframe
 70
5
177
3
291
0
 70
58
 90
2
176
1
 90
2
176
1
 90
0
176
1
 90
0
176
1
 40
0.6
176
1
 40
30.0
176
1
 62
7
420
16777215
176
1
 90
1
176
1
 90
4
176
1
 62
7
176
1
 62
257
176
1
 90
1
176
1
 90
1
176
1
 40
1.0
176
1
 90
8
176
1
 62
7
176
1
 40
1.0
176
1
 90
1
176
1
 90
6
176
1
 90
2
176
1
 62
7
176
1
 90
5
176
1
 90
0
176
1
 90
0
176
1
290
0
176
1
 90
1
176
1
 40
0.0
176
1
 90
0
176
1
290
0
176
1
290
1
176
1
290
1
176
1
290
0
176
1
290
0
176
1
290
0
176
1
290
0
176
1
290
0
176
1
290
0
176
1
 90
50
176
1
 40
0.0
176
1
 40
1.0
176
1
 90
0
176
1
 62
18
420
0
176
1
 90
50
176
1
 90
3
176
1
 62
5
420
255
176
1
290
0
176
1
 90
50
176
1
 90
50
176
1
 90
50
176
1
290
0
176
1
 90
50
176
1
 62
256
176
0
 40
1.0
176
0
 90
2
176
1
  1
strokes_ogs.tif
176
1
290
0
176
1
 40
1.0
176
1
 40
1.0
176
1
  0
VISUALSTYLE
  5
72
102
{ACAD_REACTORS
330
16
102
}
330
16
100
AcDbVisualStyle
  2
X-Ray
 70
25
177
3
291
0
 70
58
 90
2
176
1
 90
2
176
1
 90
0
176
1
 90
2
176
1
 40
0.5
176
1
 40
30.0
176
1
 62
7
420
16777215
176
1
 90
1
176
1
 90
4
176
1
 62
7
176
1
 62
257
176
1
 90
1
176
1
 90
1
176
1
 40
1.0
176
1
 90
8
176
1
 62
7
176
1
 40
1.0
176
1
 90
1
176
1
 90
6
176
1
 90
2
176
1
 62
7
176
1
 90
5
176
1
 90
0
176
1
 90
0
176
1
290
0
176
1
 90
1
176
1
 40
0.0
176
1
 90
0
176
1
290
0
176
1
290
1
176
1
290
1
176
1
290
0
176
1
290
0
176
1
290
0
176
1
290
0
176
1
290
0
176
1
290
0
176
1
 90
50
176
1
 40
0.0
176
1
 40
1.0
176
1
 90
0
176
1
 62
18
420
0
176
1
 90
50
176
1
 90
3
176
1
 62
5
420
255
176
1
290
0
176
1
 90
50
176
1
 90
50
176
1
 90
50
176
1
290
0
176
1
 90
50
176
1
 62
256
176
0
 40
1.0
176
0
 90
2
176
1
  1
strokes_ogs.tif
176
1
290
0
176
1
 40
1.0
176
1
 40
1.0
176
1
  0
DICTIONARYVAR
  5
266
330
2D
100
DictionaryVariables
280
0
  1
1.4.4 @ 2026-08-10T20:00:41.333956+00:00
  0
ENDSEC
  0
EOF
